<svg xmlns="http://www.w3.org/2000/svg" xmlns:xlink="http://www.w3.org/1999/xlink" width="45" zoomAndPan="magnify" viewBox="0 0 33.75 33.749998" height="45" preserveAspectRatio="xMidYMid meet" version="1.0"><defs><clipPath id="3d6ea73f53"><path d="M 0.753906 0 L 33.5 0 L 33.5 33.5 L 0.753906 33.5 Z M 0.753906 0 " clip-rule="nonzero"/></clipPath></defs><g clip-path="url(#3d6ea73f53)"><path fill="#ffffff" d="M 33.371094 10.808594 C 33.296875 10.730469 33.207031 10.695312 33.101562 10.691406 L 28.738281 10.703125 L 28.738281 3.753906 L 29.890625 4.488281 L 30.300781 3.84375 L 28.566406 2.730469 L 24.4375 0.0820312 C 24.296875 -0.0078125 24.160156 -0.0078125 24.019531 0.078125 L 19.890625 2.699219 L 18.085938 3.84375 L 18.496094 4.496094 L 19.710938 3.722656 L 19.710938 10.722656 L 5.320312 10.757812 L 5.320312 5.894531 C 5.320312 5.785156 5.277344 5.691406 5.195312 5.613281 C 4.808594 5.265625 4.355469 5.050781 3.84375 4.96875 C 3.328125 4.886719 2.835938 4.953125 2.359375 5.164062 C 1.882812 5.375 1.503906 5.699219 1.21875 6.136719 C 0.9375 6.570312 0.792969 7.050781 0.792969 7.570312 L 0.792969 30.503906 C 0.777344 30.625 0.769531 30.746094 0.769531 30.867188 L 0.792969 30.867188 L 0.792969 31.207031 C 0.792969 31.226562 0.796875 31.246094 0.800781 31.265625 C 0.847656 31.574219 0.949219 31.867188 1.101562 32.140625 C 1.257812 32.417969 1.453125 32.65625 1.691406 32.863281 C 1.929688 33.066406 2.195312 33.222656 2.488281 33.335938 C 2.785156 33.445312 3.089844 33.5 3.402344 33.5 L 28.285156 33.5 C 28.347656 33.5 28.402344 33.484375 28.457031 33.457031 L 33.101562 33.457031 C 33.207031 33.457031 33.296875 33.417969 33.371094 33.34375 C 33.445312 33.269531 33.484375 33.179688 33.484375 33.074219 L 33.484375 11.074219 C 33.484375 10.96875 33.449219 10.878906 33.371094 10.808594 Z M 25.664062 10.691406 L 22.785156 10.691406 L 22.785156 6.675781 L 25.664062 6.675781 Z M 20.476562 3.234375 L 24.226562 0.855469 L 27.972656 3.261719 L 27.972656 10.691406 L 26.429688 10.691406 L 26.429688 6.292969 C 26.429688 6.1875 26.394531 6.097656 26.320312 6.019531 C 26.242188 5.945312 26.152344 5.910156 26.046875 5.910156 L 22.402344 5.910156 C 22.296875 5.910156 22.207031 5.945312 22.132812 6.019531 C 22.054688 6.097656 22.019531 6.1875 22.019531 6.292969 L 22.019531 10.691406 L 20.476562 10.691406 Z M 1.5625 7.570312 C 1.5625 7.21875 1.65625 6.890625 1.84375 6.589844 C 2.03125 6.289062 2.28125 6.058594 2.597656 5.902344 C 2.914062 5.742188 3.25 5.679688 3.601562 5.710938 C 3.953125 5.742188 4.269531 5.863281 4.554688 6.074219 L 4.554688 28.496094 C 4.054688 28.253906 3.527344 28.175781 2.980469 28.265625 C 2.429688 28.359375 1.957031 28.597656 1.5625 28.988281 Z M 7.539062 32.726562 L 7.539062 30.0625 L 27.902344 30.0625 L 27.902344 32.691406 L 26.902344 32.691406 L 26.902344 31.660156 L 26.136719 31.660156 L 26.136719 32.691406 L 25.125 32.691406 L 25.125 31.207031 L 24.359375 31.207031 L 24.359375 32.695312 L 23.203125 32.695312 L 23.203125 31.660156 L 22.433594 31.660156 L 22.433594 32.695312 L 21.089844 32.695312 L 21.089844 31.660156 L 20.324219 31.660156 L 20.324219 32.703125 L 19.34375 32.703125 L 19.34375 31.207031 L 18.578125 31.207031 L 18.578125 32.707031 L 17.421875 32.707031 L 17.421875 31.660156 L 16.652344 31.660156 L 16.652344 32.707031 L 15.3125 32.707031 L 15.3125 31.660156 L 14.542969 31.660156 L 14.542969 32.714844 L 13.539062 32.714844 L 13.539062 31.207031 L 12.773438 31.207031 L 12.773438 32.714844 L 11.613281 32.714844 L 11.613281 31.660156 L 10.847656 31.660156 L 10.847656 32.722656 L 9.503906 32.722656 L 9.503906 31.660156 L 8.738281 31.660156 L 8.738281 32.726562 Z M 28.667969 32.683594 L 28.667969 29.679688 C 28.667969 29.570312 28.632812 29.480469 28.558594 29.40625 C 28.480469 29.332031 28.390625 29.292969 28.285156 29.292969 L 7.15625 29.292969 C 7.050781 29.292969 6.960938 29.332031 6.886719 29.40625 C 6.8125 29.480469 6.773438 29.570312 6.773438 29.679688 L 6.773438 32.726562 L 3.402344 32.726562 C 3.183594 32.726562 2.96875 32.6875 2.761719 32.613281 C 2.554688 32.539062 2.367188 32.429688 2.199219 32.285156 C 2.03125 32.144531 1.890625 31.976562 1.78125 31.785156 C 1.671875 31.59375 1.597656 31.390625 1.5625 31.175781 L 1.5625 30.554688 C 1.5625 30.546875 1.5625 30.539062 1.566406 30.535156 C 1.570312 30.507812 1.574219 30.484375 1.582031 30.457031 C 1.582031 30.441406 1.585938 30.425781 1.59375 30.414062 C 1.59375 30.394531 1.597656 30.378906 1.605469 30.363281 C 1.625 30.296875 1.644531 30.234375 1.671875 30.171875 C 1.695312 30.105469 1.675781 30.152344 1.675781 30.144531 C 1.734375 30.007812 1.808594 29.875 1.898438 29.753906 C 1.988281 29.636719 2.09375 29.527344 2.207031 29.429688 C 2.324219 29.335938 2.449219 29.253906 2.585938 29.1875 C 2.71875 29.121094 2.863281 29.074219 3.007812 29.042969 C 3.15625 29.011719 3.304688 28.996094 3.453125 29 C 3.605469 29.003906 3.753906 29.027344 3.898438 29.066406 C 4.042969 29.105469 4.183594 29.164062 4.3125 29.234375 C 4.445312 29.308594 4.566406 29.398438 4.675781 29.5 C 4.800781 29.609375 4.9375 29.632812 5.09375 29.570312 C 5.246094 29.503906 5.320312 29.386719 5.320312 29.21875 L 5.320312 11.523438 L 32.71875 11.460938 L 32.71875 15.832031 C 32.609375 15.636719 32.472656 15.464844 32.300781 15.320312 L 32 15.058594 C 31.328125 14.492188 30.371094 14.515625 29.863281 15.109375 L 29.167969 15.929688 L 27.804688 17.539062 L 27.804688 12.71875 C 27.804688 12.613281 27.769531 12.523438 27.695312 12.449219 C 27.617188 12.371094 27.527344 12.335938 27.421875 12.335938 L 8.210938 12.335938 C 8.105469 12.335938 8.015625 12.371094 7.941406 12.449219 C 7.867188 12.523438 7.828125 12.613281 7.828125 12.71875 L 7.828125 27.953125 C 7.828125 28.058594 7.867188 28.148438 7.941406 28.222656 C 8.015625 28.296875 8.105469 28.335938 8.210938 28.335938 L 27.421875 28.335938 C 27.527344 28.335938 27.617188 28.296875 27.695312 28.222656 C 27.769531 28.148438 27.804688 28.058594 27.804688 27.953125 L 27.804688 23.097656 L 31.90625 18.257812 L 32.601562 17.433594 C 32.644531 17.386719 32.683594 17.332031 32.71875 17.277344 L 32.71875 32.675781 Z M 16.058594 22.578125 L 16.058594 27.566406 L 8.597656 27.566406 L 8.597656 22.964844 L 13.230469 22.964844 L 13.230469 26.050781 L 14 26.050781 L 14 22.578125 C 14 22.472656 13.960938 22.382812 13.886719 22.308594 C 13.8125 22.234375 13.722656 22.195312 13.617188 22.195312 L 8.597656 22.195312 L 8.597656 18.101562 L 13.847656 18.101562 L 13.847656 17.335938 L 8.597656 17.335938 L 8.597656 13.101562 L 13.460938 13.101562 L 13.460938 15.777344 L 14.230469 15.777344 L 14.230469 13.101562 L 27.039062 13.101562 L 27.039062 18.441406 L 26.519531 19.050781 L 21.308594 19.050781 L 21.308594 14.789062 L 20.542969 14.789062 L 20.542969 19.050781 L 16.441406 19.050781 L 16.441406 19.816406 L 25.867188 19.816406 L 22.761719 23.480469 L 22.746094 23.492188 L 22.726562 23.519531 L 22.726562 23.53125 C 22.71875 23.542969 22.714844 23.550781 22.714844 23.566406 L 22.703125 23.566406 C 22.695312 23.578125 22.691406 23.59375 22.691406 23.609375 L 22.683594 23.609375 C 22.683594 23.621094 22.675781 23.636719 22.675781 23.648438 L 22.25 26.332031 C 22.230469 26.449219 22.261719 26.554688 22.339844 26.644531 C 22.417969 26.730469 22.515625 26.777344 22.632812 26.773438 L 22.753906 26.753906 L 25.332031 25.898438 L 25.335938 25.898438 L 25.371094 25.886719 L 25.382812 25.886719 L 25.421875 25.867188 C 25.421875 25.859375 25.425781 25.855469 25.433594 25.855469 L 25.453125 25.835938 L 25.472656 25.820312 L 25.492188 25.800781 L 25.492188 25.789062 L 25.496094 25.789062 L 27.03125 23.980469 L 27.03125 27.546875 L 16.824219 27.546875 L 16.824219 22.558594 Z M 29.5 16.722656 L 29.992188 17.136719 L 24.085938 24.109375 L 23.589844 23.6875 L 26.871094 19.816406 L 27.804688 18.722656 Z M 24.441406 25.414062 L 23.105469 25.855469 L 23.324219 24.464844 Z M 25.164062 25.023438 L 24.671875 24.601562 L 30.582031 17.636719 L 31.074219 18.050781 L 27.804688 21.910156 L 27.039062 22.816406 Z M 31.574219 17.464844 L 30.5625 16.613281 L 30 16.132812 L 30.445312 15.601562 C 30.675781 15.335938 31.148438 15.347656 31.5 15.648438 L 31.808594 15.902344 C 31.984375 16.050781 32.09375 16.234375 32.136719 16.460938 C 32.171875 16.636719 32.132812 16.796875 32.019531 16.941406 Z M 31.574219 17.464844 " fill-opacity="1" fill-rule="nonzero"/></g></svg>