<svg xmlns="http://www.w3.org/2000/svg" xmlns:xlink="http://www.w3.org/1999/xlink" width="45" zoomAndPan="magnify" viewBox="0 0 33.75 33.749998" height="45" preserveAspectRatio="xMidYMid meet" version="1.0"><defs><clipPath id="98c278cfaf"><path d="M 0 0 L 33.5 0 L 33.5 33.5 L 0 33.5 Z M 0 0 " clip-rule="nonzero"/></clipPath></defs><g clip-path="url(#98c278cfaf)"><path fill="#ffffff" d="M 14.921875 17.457031 L 14.921875 20.238281 C 14.921875 20.386719 15.039062 20.503906 15.1875 20.503906 L 19.53125 20.503906 C 19.675781 20.503906 19.796875 20.386719 19.796875 20.238281 L 19.796875 17.457031 C 19.796875 16.113281 18.703125 15.023438 17.355469 15.023438 C 16.011719 15.023438 14.921875 16.113281 14.921875 17.457031 Z M 17.09375 15.574219 L 17.09375 17.5 L 15.453125 17.5 L 15.453125 17.457031 C 15.453125 16.5 16.164062 15.703125 17.09375 15.574219 Z M 15.453125 18.027344 L 17.09375 18.027344 L 17.09375 19.972656 L 15.453125 19.972656 Z M 17.625 19.972656 L 17.625 18.027344 L 19.265625 18.027344 L 19.265625 19.972656 Z M 19.265625 17.457031 L 19.265625 17.5 L 17.625 17.5 L 17.625 15.570312 C 18.550781 15.699219 19.265625 16.496094 19.265625 17.457031 Z M 4.730469 18.753906 C 4.421875 18.628906 3.972656 18.382812 3.601562 17.910156 C 3.199219 17.394531 3.070312 16.859375 3.035156 16.5 C 3.023438 16.363281 2.90625 16.261719 2.769531 16.261719 C 2.636719 16.261719 2.519531 16.363281 2.507812 16.5 C 2.472656 16.859375 2.34375 17.394531 1.941406 17.910156 C 1.570312 18.382812 1.121094 18.628906 0.8125 18.753906 C 0.710938 18.796875 0.644531 18.894531 0.644531 19 C 0.644531 19.109375 0.710938 19.207031 0.8125 19.246094 C 1.121094 19.371094 1.570312 19.621094 1.941406 20.09375 C 2.34375 20.605469 2.472656 21.144531 2.507812 21.503906 C 2.519531 21.640625 2.636719 21.742188 2.769531 21.742188 C 2.90625 21.742188 3.023438 21.640625 3.035156 21.503906 C 3.070312 21.144531 3.199219 20.605469 3.601562 20.09375 C 3.972656 19.621094 4.421875 19.371094 4.730469 19.246094 C 4.832031 19.207031 4.898438 19.109375 4.898438 19 C 4.898438 18.894531 4.832031 18.796875 4.730469 18.753906 Z M 3.183594 19.765625 C 3.003906 19.996094 2.871094 20.226562 2.769531 20.449219 C 2.671875 20.226562 2.539062 19.996094 2.359375 19.765625 C 2.085938 19.417969 1.78125 19.171875 1.5 19 C 1.78125 18.828125 2.085938 18.582031 2.359375 18.238281 C 2.539062 18.007812 2.671875 17.777344 2.769531 17.554688 C 2.871094 17.777344 3.003906 18.007812 3.183594 18.238281 C 3.457031 18.582031 3.761719 18.828125 4.042969 19 C 3.761719 19.171875 3.457031 19.417969 3.183594 19.765625 Z M 5.828125 21.167969 L 5.828125 22.140625 L 6.804688 22.140625 C 6.953125 22.140625 7.070312 22.257812 7.070312 22.40625 C 7.070312 22.550781 6.953125 22.671875 6.804688 22.671875 L 5.828125 22.671875 L 5.828125 23.644531 C 5.828125 23.789062 5.710938 23.910156 5.566406 23.910156 C 5.417969 23.910156 5.300781 23.789062 5.300781 23.644531 L 5.300781 22.671875 L 4.324219 22.671875 C 4.175781 22.671875 4.058594 22.550781 4.058594 22.40625 C 4.058594 22.257812 4.175781 22.140625 4.324219 22.140625 L 5.300781 22.140625 L 5.300781 21.167969 C 5.300781 21.019531 5.417969 20.902344 5.566406 20.902344 C 5.710938 20.902344 5.828125 21.019531 5.828125 21.167969 Z M 27.957031 28.59375 L 27.957031 27.621094 L 26.980469 27.621094 C 26.832031 27.621094 26.714844 27.503906 26.714844 27.355469 C 26.714844 27.210938 26.832031 27.089844 26.980469 27.089844 L 27.957031 27.089844 L 27.957031 26.117188 C 27.957031 25.972656 28.074219 25.855469 28.222656 25.855469 C 28.367188 25.855469 28.484375 25.972656 28.484375 26.117188 L 28.484375 27.089844 L 29.460938 27.089844 C 29.609375 27.089844 29.726562 27.210938 29.726562 27.355469 C 29.726562 27.503906 29.609375 27.621094 29.460938 27.621094 L 28.484375 27.621094 L 28.484375 28.59375 C 28.484375 28.742188 28.367188 28.859375 28.222656 28.859375 C 28.074219 28.859375 27.957031 28.742188 27.957031 28.59375 Z M 30.347656 15.90625 L 30.347656 16.878906 L 31.324219 16.878906 C 31.472656 16.878906 31.589844 16.996094 31.589844 17.144531 C 31.589844 17.289062 31.472656 17.410156 31.324219 17.410156 L 30.347656 17.410156 L 30.347656 18.382812 C 30.347656 18.527344 30.230469 18.648438 30.082031 18.648438 C 29.9375 18.648438 29.816406 18.527344 29.816406 18.382812 L 29.816406 17.410156 L 28.839844 17.410156 C 28.695312 17.410156 28.578125 17.289062 28.578125 17.144531 C 28.578125 16.996094 28.695312 16.878906 28.839844 16.878906 L 29.816406 16.878906 L 29.816406 15.90625 C 29.816406 15.757812 29.9375 15.640625 30.082031 15.640625 C 30.230469 15.640625 30.347656 15.757812 30.347656 15.90625 Z M 31.015625 20.285156 C 30.878906 20.285156 30.761719 20.386719 30.75 20.523438 C 30.714844 20.882812 30.585938 21.417969 30.183594 21.933594 C 29.8125 22.40625 29.363281 22.652344 29.054688 22.777344 C 28.953125 22.816406 28.886719 22.914062 28.886719 23.023438 C 28.886719 23.132812 28.953125 23.230469 29.054688 23.269531 C 29.363281 23.394531 29.8125 23.644531 30.183594 24.117188 C 30.585938 24.628906 30.714844 25.167969 30.75 25.527344 C 30.761719 25.660156 30.878906 25.765625 31.015625 25.765625 C 31.152344 25.765625 31.265625 25.660156 31.277344 25.527344 C 31.3125 25.167969 31.441406 24.628906 31.84375 24.117188 C 32.214844 23.644531 32.664062 23.394531 32.976562 23.269531 C 33.074219 23.230469 33.140625 23.132812 33.140625 23.023438 C 33.140625 22.914062 33.074219 22.816406 32.976562 22.777344 C 32.664062 22.652344 32.214844 22.40625 31.84375 21.933594 C 31.441406 21.417969 31.3125 20.882812 31.277344 20.523438 C 31.265625 20.386719 31.152344 20.285156 31.015625 20.285156 Z M 32.285156 23.023438 C 32.003906 23.195312 31.699219 23.441406 31.425781 23.789062 C 31.246094 24.015625 31.113281 24.25 31.015625 24.472656 C 30.914062 24.25 30.78125 24.015625 30.601562 23.789062 C 30.328125 23.441406 30.023438 23.195312 29.742188 23.023438 C 30.023438 22.851562 30.328125 22.605469 30.601562 22.261719 C 30.78125 22.03125 30.914062 21.800781 31.015625 21.574219 C 31.113281 21.800781 31.246094 22.03125 31.425781 22.261719 C 31.699219 22.605469 32.003906 22.851562 32.285156 23.023438 Z M 32.195312 5.589844 C 32.183594 5.496094 32.167969 5.40625 32.144531 5.3125 C 31.914062 4.351562 31.207031 3.449219 30.203125 2.835938 C 29.222656 2.234375 28.089844 2.015625 27.15625 2.222656 C 27.1875 2.0625 27.183594 1.898438 27.144531 1.734375 C 27.070312 1.425781 26.878906 1.160156 26.605469 0.996094 L 25.542969 0.34375 C 24.984375 0 24.246094 0.175781 23.902344 0.734375 L 22.601562 2.851562 C 22.433594 3.121094 22.382812 3.441406 22.457031 3.75 C 22.53125 4.0625 22.722656 4.324219 22.992188 4.488281 L 24.058594 5.140625 C 24.25 5.257812 24.464844 5.316406 24.679688 5.316406 C 24.9375 5.316406 25.195312 5.230469 25.402344 5.070312 C 25.472656 5.34375 25.582031 5.621094 25.730469 5.886719 C 25.3125 5.921875 24.980469 6.082031 24.800781 6.375 L 24.476562 6.902344 C 24.199219 7.351562 24.347656 7.988281 24.871094 8.628906 L 22.152344 13.039062 L 19.484375 11.007812 L 19.484375 7.875 C 20.832031 7.109375 21.660156 5.695312 21.660156 4.148438 C 21.660156 2.308594 20.484375 0.675781 18.742188 0.0859375 C 18.65625 0.0585938 18.5625 0.0742188 18.492188 0.128906 C 18.421875 0.183594 18.386719 0.265625 18.390625 0.355469 L 18.625 3.882812 L 16.089844 3.882812 L 16.324219 0.355469 C 16.332031 0.265625 16.292969 0.183594 16.222656 0.128906 C 16.152344 0.0742188 16.058594 0.0585938 15.976562 0.0859375 C 14.230469 0.675781 13.058594 2.308594 13.058594 4.148438 C 13.058594 5.695312 13.886719 7.109375 15.230469 7.875 L 15.230469 11.007812 L 11.65625 13.730469 L 11.601562 13.605469 C 11.375 13.089844 11.40625 12.492188 11.683594 12.003906 L 12.199219 11.101562 C 12.558594 10.46875 12.597656 9.695312 12.304688 9.027344 L 8.496094 0.328125 C 8.453125 0.234375 8.359375 0.171875 8.257812 0.167969 C 8.152344 0.164062 8.058594 0.226562 8.011719 0.316406 L 7.488281 1.398438 L 6.339844 1.046875 C 6.214844 1.007812 6.078125 1.066406 6.023438 1.183594 L 5.5 2.265625 L 4.347656 1.914062 C 4.222656 1.875 4.089844 1.933594 4.03125 2.050781 L 3.507812 3.132812 L 2.355469 2.78125 C 2.230469 2.742188 2.097656 2.800781 2.039062 2.917969 L 1.515625 4 L 0.367188 3.648438 C 0.265625 3.617188 0.160156 3.648438 0.0898438 3.726562 C 0.0195312 3.804688 0.00390625 3.914062 0.046875 4.007812 L 3.855469 12.707031 C 4.148438 13.375 4.746094 13.871094 5.453125 14.039062 L 6.46875 14.277344 C 7.015625 14.40625 7.476562 14.789062 7.703125 15.304688 L 8.175781 16.386719 L 6.644531 17.550781 C 6.578125 17.601562 6.539062 17.679688 6.539062 17.761719 L 6.539062 20.238281 C 6.539062 20.339844 6.597656 20.433594 6.6875 20.476562 C 6.726562 20.496094 6.765625 20.503906 6.804688 20.503906 C 6.863281 20.503906 6.917969 20.484375 6.96875 20.449219 L 8.714844 19.117188 L 8.714844 30.496094 L 6.183594 30.496094 C 6.039062 30.496094 5.921875 30.613281 5.921875 30.761719 L 5.921875 33.238281 C 5.921875 33.382812 6.039062 33.5 6.183594 33.5 L 28.53125 33.5 C 28.679688 33.5 28.796875 33.382812 28.796875 33.238281 L 28.796875 30.761719 C 28.796875 30.613281 28.679688 30.496094 28.53125 30.496094 L 26.003906 30.496094 L 26.003906 19.117188 L 27.75 20.449219 C 27.828125 20.511719 27.9375 20.523438 28.027344 20.476562 C 28.117188 20.433594 28.175781 20.339844 28.175781 20.238281 L 28.175781 17.761719 C 28.175781 17.679688 28.136719 17.601562 28.070312 17.550781 L 24.5625 14.875 L 27.4375 10.199219 C 27.65625 10.25 27.863281 10.273438 28.050781 10.273438 C 28.5625 10.273438 28.957031 10.101562 29.160156 9.769531 L 29.484375 9.242188 C 29.625 9.019531 29.660156 8.738281 29.585938 8.433594 C 29.566406 8.355469 29.539062 8.273438 29.507812 8.195312 C 29.554688 8.195312 29.601562 8.195312 29.648438 8.195312 C 29.988281 8.195312 30.308594 8.148438 30.601562 8.058594 L 33.003906 9.527344 C 33.046875 9.554688 33.09375 9.566406 33.144531 9.566406 C 33.183594 9.566406 33.222656 9.558594 33.257812 9.542969 C 33.335938 9.503906 33.394531 9.425781 33.40625 9.339844 C 33.492188 8.726562 33.5 7.789062 33.035156 6.796875 C 32.828125 6.351562 32.542969 5.945312 32.195312 5.589844 Z M 22.972656 3.628906 C 22.933594 3.457031 22.960938 3.28125 23.050781 3.128906 L 24.355469 1.015625 C 24.480469 0.8125 24.699219 0.699219 24.921875 0.699219 C 25.039062 0.699219 25.160156 0.730469 25.265625 0.796875 L 25.570312 0.984375 L 23.578125 4.222656 L 23.269531 4.035156 C 23.121094 3.945312 23.015625 3.800781 22.972656 3.628906 Z M 24.332031 4.6875 L 24.027344 4.5 L 26.023438 1.261719 L 26.328125 1.449219 C 26.480469 1.539062 26.585938 1.6875 26.628906 1.855469 C 26.667969 2.027344 26.640625 2.207031 26.546875 2.355469 L 25.246094 4.46875 C 25.054688 4.78125 24.644531 4.878906 24.332031 4.6875 Z M 15.617188 7.480469 C 14.367188 6.828125 13.589844 5.550781 13.589844 4.148438 C 13.589844 2.671875 14.449219 1.351562 15.769531 0.742188 L 15.542969 4.128906 C 15.535156 4.203125 15.5625 4.273438 15.613281 4.328125 C 15.664062 4.382812 15.734375 4.414062 15.804688 4.414062 L 18.910156 4.414062 C 18.984375 4.414062 19.054688 4.382812 19.105469 4.328125 C 19.152344 4.273438 19.179688 4.203125 19.175781 4.128906 L 18.949219 0.742188 C 20.265625 1.351562 21.128906 2.671875 21.128906 4.148438 C 21.128906 5.550781 20.351562 6.828125 19.097656 7.480469 C 19.011719 7.527344 18.953125 7.617188 18.953125 7.714844 L 18.953125 10.601562 L 17.519531 9.507812 C 17.425781 9.433594 17.292969 9.433594 17.199219 9.507812 L 15.761719 10.601562 L 15.761719 7.714844 C 15.761719 7.617188 15.707031 7.527344 15.617188 7.480469 Z M 7.839844 7.996094 L 10.722656 6.738281 L 11.257812 7.953125 L 3.78125 11.210938 L 3.246094 9.996094 Z M 1.578125 4.574219 C 1.703125 4.609375 1.839844 4.554688 1.894531 4.433594 L 2.417969 3.355469 L 3.570312 3.707031 C 3.695312 3.746094 3.828125 3.6875 3.886719 3.566406 L 4.410156 2.488281 L 5.5625 2.839844 C 5.6875 2.878906 5.820312 2.820312 5.878906 2.699219 L 6.402344 1.621094 L 7.550781 1.972656 C 7.675781 2.011719 7.8125 1.953125 7.867188 1.835938 L 8.238281 1.066406 L 10.511719 6.253906 L 9.574219 6.660156 L 7.941406 2.933594 C 7.882812 2.796875 7.726562 2.738281 7.59375 2.796875 C 7.460938 2.855469 7.398438 3.011719 7.457031 3.144531 L 9.089844 6.871094 L 7.867188 7.402344 L 6.234375 3.675781 C 6.175781 3.539062 6.019531 3.480469 5.886719 3.539062 C 5.753906 3.597656 5.691406 3.753906 5.75 3.886719 L 7.382812 7.613281 L 6.164062 8.144531 L 4.53125 4.417969 C 4.472656 4.285156 4.3125 4.222656 4.179688 4.28125 C 4.046875 4.339844 3.984375 4.496094 4.042969 4.632812 L 5.675781 8.359375 L 4.457031 8.890625 L 2.824219 5.160156 C 2.765625 5.027344 2.609375 4.964844 2.472656 5.023438 C 2.339844 5.082031 2.277344 5.242188 2.335938 5.375 L 3.96875 9.101562 L 3.035156 9.507812 L 0.761719 4.324219 Z M 8.1875 15.089844 C 7.898438 14.425781 7.300781 13.925781 6.589844 13.761719 L 5.578125 13.523438 C 5.027344 13.394531 4.566406 13.007812 4.34375 12.496094 L 3.992188 11.695312 L 11.46875 8.441406 L 11.820312 9.238281 C 12.046875 9.753906 12.015625 10.351562 11.738281 10.839844 L 11.222656 11.742188 C 10.863281 12.375 10.824219 13.152344 11.117188 13.816406 L 11.222656 14.0625 L 8.609375 16.054688 Z M 7.070312 17.894531 L 17.09375 10.253906 L 17.09375 12.0625 L 7.070312 19.703125 Z M 28.265625 32.972656 L 6.449219 32.972656 L 6.449219 31.027344 L 28.265625 31.027344 Z M 19.886719 30.496094 L 14.832031 30.496094 L 14.832031 23.597656 L 19.886719 23.597656 Z M 25.472656 30.496094 L 20.417969 30.496094 L 20.417969 23.332031 C 20.417969 23.1875 20.296875 23.070312 20.152344 23.070312 L 14.566406 23.070312 C 14.417969 23.070312 14.300781 23.1875 14.300781 23.332031 L 14.300781 30.496094 L 9.242188 30.496094 L 9.242188 18.714844 L 17.359375 12.527344 L 25.472656 18.714844 Z M 27.644531 19.703125 L 17.625 12.0625 L 17.625 10.253906 L 27.644531 17.894531 Z M 22.578125 13.363281 L 25.824219 8.089844 C 25.878906 8.003906 26.300781 7.96875 26.84375 8.296875 C 27.230469 8.535156 27.449219 8.824219 27.492188 9.003906 C 27.5 9.050781 27.5 9.089844 27.488281 9.109375 L 24.136719 14.550781 Z M 29.035156 8.964844 L 28.710938 9.492188 C 28.578125 9.707031 28.210938 9.785156 27.738281 9.714844 L 27.941406 9.386719 C 28.027344 9.242188 28.050781 9.070312 28.007812 8.882812 C 27.921875 8.519531 27.589844 8.132812 27.121094 7.84375 C 26.386719 7.398438 25.636719 7.382812 25.371094 7.8125 L 25.167969 8.144531 C 24.890625 7.753906 24.796875 7.394531 24.929688 7.179688 L 25.253906 6.652344 C 25.496094 6.257812 26.539062 6.296875 27.65625 6.980469 C 28.394531 7.429688 28.949219 8.050781 29.070312 8.558594 C 29.109375 8.722656 29.097656 8.859375 29.035156 8.964844 Z M 29.179688 7.632812 C 28.882812 7.230469 28.449219 6.84375 27.933594 6.527344 C 27.402344 6.203125 26.863281 6 26.378906 5.917969 C 26.058594 5.460938 25.871094 4.964844 25.847656 4.503906 L 26.847656 2.882812 C 27.699219 2.5 28.898438 2.65625 29.929688 3.289062 C 30.796875 3.820312 31.433594 4.621094 31.628906 5.4375 C 31.75 5.949219 31.6875 6.425781 31.449219 6.8125 C 31.050781 7.464844 30.1875 7.773438 29.179688 7.632812 Z M 32.917969 8.851562 L 31.1875 7.796875 C 31.480469 7.617188 31.726562 7.378906 31.902344 7.089844 C 32.035156 6.875 32.128906 6.636719 32.175781 6.386719 C 32.324219 6.585938 32.449219 6.796875 32.554688 7.023438 C 32.871094 7.695312 32.9375 8.34375 32.917969 8.851562 Z M 32.917969 8.851562 " fill-opacity="1" fill-rule="nonzero"/></g></svg>