<svg xmlns="http://www.w3.org/2000/svg" xmlns:xlink="http://www.w3.org/1999/xlink" width="45" zoomAndPan="magnify" viewBox="0 0 33.75 33.749998" height="45" preserveAspectRatio="xMidYMid meet" version="1.0"><defs><clipPath id="a243092ae9"><path d="M 0 0 L 33.5 0 L 33.5 33.5 L 0 33.5 Z M 0 0 " clip-rule="nonzero"/></clipPath></defs><g clip-path="url(#a243092ae9)"><path fill="#ffffff" d="M 9.835938 12.054688 L 17.808594 12.054688 L 17.808594 8.855469 L 22.023438 8.855469 L 22.023438 1.789062 L 14.527344 6.945312 L 14.527344 11.910156 L 13.605469 11.910156 L 13.605469 6.46875 L 13.796875 6.324219 L 22.945312 0.0117188 L 22.945312 8.855469 L 27.15625 8.855469 L 27.15625 21.25 L 33.398438 21.25 L 33.398438 25.953125 L 39.667969 25.953125 L 39.667969 34.585938 L 0 34.585938 L 0 25.960938 L 3.125 25.960938 L 3.125 21.257812 L 9.371094 21.257812 L 9.371094 12.054688 Z M 20.839844 10.730469 L 20.839844 33.648438 L 22.023438 33.648438 L 22.023438 10.730469 L 22.945312 10.730469 L 22.945312 33.648438 L 24.125 33.648438 L 24.125 10.730469 L 25.046875 10.730469 L 25.046875 33.648438 L 26.226562 33.648438 L 26.226562 9.777344 L 18.738281 9.777344 L 18.738281 33.648438 L 19.914062 33.648438 L 19.914062 10.730469 Z M 35.621094 29.246094 L 34.675781 29.246094 L 34.675781 30.164062 L 35.621094 30.164062 Z M 36.96875 29.246094 L 36.050781 29.246094 L 36.050781 30.164062 L 36.96875 30.164062 Z M 35.621094 27.921875 L 34.675781 27.921875 L 34.675781 28.839844 L 35.621094 28.839844 Z M 36.96875 27.921875 L 36.050781 27.921875 L 36.050781 28.839844 L 36.96875 28.839844 Z M 29.617188 29.246094 L 28.671875 29.246094 L 28.671875 30.164062 L 29.617188 30.164062 Z M 30.964844 29.246094 L 30.042969 29.246094 L 30.042969 30.164062 L 30.964844 30.164062 Z M 29.617188 27.921875 L 28.671875 27.921875 L 28.671875 28.839844 L 29.617188 28.839844 Z M 30.964844 27.921875 L 30.042969 27.921875 L 30.042969 28.839844 L 30.964844 28.839844 Z M 29.617188 24.515625 L 28.671875 24.515625 L 28.671875 25.4375 L 29.617188 25.4375 Z M 30.964844 24.515625 L 30.042969 24.515625 L 30.042969 25.4375 L 30.964844 25.4375 Z M 29.617188 23.167969 L 28.671875 23.167969 L 28.671875 24.113281 L 29.617188 24.113281 Z M 30.964844 23.167969 L 30.042969 23.167969 L 30.042969 24.113281 L 30.964844 24.113281 Z M 12.136719 28.445312 L 11.21875 28.445312 L 11.21875 29.386719 L 12.136719 29.386719 Z M 13.480469 28.445312 L 12.558594 28.445312 L 12.558594 29.386719 L 13.480469 29.386719 Z M 12.136719 27.121094 L 11.21875 27.121094 L 11.21875 28.039062 L 12.136719 28.039062 Z M 13.480469 27.121094 L 12.558594 27.121094 L 12.558594 28.039062 L 13.480469 28.039062 Z M 15.542969 28.445312 L 14.621094 28.445312 L 14.621094 29.386719 L 15.542969 29.386719 Z M 16.890625 28.445312 L 15.96875 28.445312 L 15.96875 29.386719 L 16.890625 29.386719 Z M 15.542969 27.121094 L 14.621094 27.121094 L 14.621094 28.039062 L 15.542969 28.039062 Z M 16.890625 27.121094 L 15.96875 27.121094 L 15.96875 28.039062 L 16.890625 28.039062 Z M 12.136719 23.945312 L 11.21875 23.945312 L 11.21875 24.867188 L 12.136719 24.867188 Z M 13.480469 23.945312 L 12.558594 23.945312 L 12.558594 24.867188 L 13.480469 24.867188 Z M 12.136719 22.597656 L 11.21875 22.597656 L 11.21875 23.542969 L 12.136719 23.542969 Z M 13.480469 22.597656 L 12.558594 22.597656 L 12.558594 23.542969 L 13.480469 23.542969 Z M 15.542969 23.945312 L 14.621094 23.945312 L 14.621094 24.867188 L 15.542969 24.867188 Z M 16.890625 23.945312 L 15.96875 23.945312 L 15.96875 24.867188 L 16.890625 24.867188 Z M 15.542969 22.597656 L 14.621094 22.597656 L 14.621094 23.542969 L 15.542969 23.542969 Z M 16.890625 22.597656 L 15.96875 22.597656 L 15.96875 23.542969 L 16.890625 23.542969 Z M 12.136719 19.433594 L 11.21875 19.433594 L 11.21875 20.375 L 12.136719 20.375 Z M 13.480469 19.433594 L 12.558594 19.433594 L 12.558594 20.375 L 13.480469 20.375 Z M 12.136719 18.105469 L 11.21875 18.105469 L 11.21875 19.027344 L 12.136719 19.027344 Z M 13.480469 18.105469 L 12.558594 18.105469 L 12.558594 19.027344 L 13.480469 19.027344 Z M 15.542969 19.433594 L 14.621094 19.433594 L 14.621094 20.375 L 15.542969 20.375 Z M 16.890625 19.433594 L 15.96875 19.433594 L 15.96875 20.375 L 16.890625 20.375 Z M 15.542969 18.105469 L 14.621094 18.105469 L 14.621094 19.027344 L 15.542969 19.027344 Z M 16.890625 18.105469 L 15.96875 18.105469 L 15.96875 19.027344 L 16.890625 19.027344 Z M 12.136719 14.933594 L 11.21875 14.933594 L 11.21875 15.855469 L 12.136719 15.855469 Z M 13.480469 14.933594 L 12.558594 14.933594 L 12.558594 15.855469 L 13.480469 15.855469 Z M 12.136719 13.609375 L 11.21875 13.609375 L 11.21875 14.527344 L 12.136719 14.527344 Z M 13.480469 13.609375 L 12.558594 13.609375 L 12.558594 14.527344 L 13.480469 14.527344 Z M 15.542969 14.933594 L 14.621094 14.933594 L 14.621094 15.855469 L 15.542969 15.855469 Z M 16.890625 14.933594 L 15.96875 14.933594 L 15.96875 15.855469 L 16.890625 15.855469 Z M 15.542969 13.609375 L 14.621094 13.609375 L 14.621094 14.527344 L 15.542969 14.527344 Z M 16.890625 13.609375 L 15.96875 13.609375 L 15.96875 14.527344 L 16.890625 14.527344 Z M 3.125 33.648438 L 3.125 27.808594 L 4.070312 27.808594 L 4.070312 33.648438 L 6.242188 33.648438 L 6.242188 26.882812 L 0.921875 26.882812 L 0.921875 33.648438 Z M 7.1875 33.648438 L 9.363281 33.648438 L 9.363281 22.175781 L 4.070312 22.175781 L 4.070312 25.960938 L 7.195312 25.960938 L 7.195312 33.648438 Z M 33.398438 26.882812 L 33.398438 33.648438 L 38.722656 33.648438 L 38.722656 26.882812 Z M 27.15625 22.175781 L 27.15625 33.648438 L 32.480469 33.648438 L 32.480469 22.175781 Z M 17.808594 12.972656 L 10.3125 12.972656 L 10.3125 33.648438 L 17.808594 33.648438 Z M 17.808594 12.972656 " fill-opacity="1" fill-rule="nonzero"/></g></svg>