<svg xmlns="http://www.w3.org/2000/svg" xmlns:xlink="http://www.w3.org/1999/xlink" width="45" zoomAndPan="magnify" viewBox="0 0 33.75 33.749998" height="45" preserveAspectRatio="xMidYMid meet" version="1.0"><defs><clipPath id="d8e0d59063"><path d="M 0 2 L 33.5 2 L 33.5 33.5 L 0 33.5 Z M 0 2 " clip-rule="nonzero"/></clipPath></defs><g clip-path="url(#d8e0d59063)"><path fill="#02afef" d="M 30.425781 2.964844 L 28.3125 2.964844 L 28.3125 5.449219 C 28.3125 6.78125 27.203125 7.894531 25.867188 7.894531 L 25.71875 7.894531 C 24.386719 7.894531 23.273438 6.78125 23.273438 5.449219 L 23.273438 2.964844 L 9.96875 2.964844 L 9.96875 5.449219 C 9.96875 6.78125 8.855469 7.894531 7.523438 7.894531 L 7.375 7.894531 C 6.039062 7.894531 4.929688 6.78125 4.929688 5.449219 L 4.929688 2.964844 L 3.074219 2.964844 C 1.410156 2.964844 0.0742188 4.300781 0.0742188 5.964844 L 0.0742188 30.5 C 0.0742188 32.167969 1.410156 33.5 3.074219 33.5 L 26.757812 33.5 L 27.089844 33.425781 C 27.164062 33.390625 27.277344 33.316406 27.351562 33.242188 L 32.871094 27.425781 C 32.871094 27.425781 32.871094 27.386719 32.910156 27.386719 C 33.242188 27.054688 33.425781 26.570312 33.425781 26.089844 L 33.425781 5.964844 C 33.425781 4.300781 32.09375 2.964844 30.425781 2.964844 Z M 31.722656 26.347656 L 26.644531 31.648438 L 26.644531 27.644531 C 26.644531 26.867188 27.277344 26.238281 28.054688 26.238281 L 31.796875 26.238281 C 31.761719 26.273438 31.722656 26.3125 31.722656 26.347656 Z M 31.835938 24.644531 L 28.054688 24.644531 C 26.386719 24.644531 25.050781 25.980469 25.050781 27.644531 L 25.050781 31.871094 L 3.074219 31.871094 C 2.296875 31.871094 1.667969 31.242188 1.667969 30.464844 L 1.667969 11.339844 L 31.796875 11.339844 L 31.796875 24.644531 Z M 31.835938 24.644531 " fill-opacity="1" fill-rule="nonzero"/></g><path fill="#02afef" d="M 7.523438 6.820312 C 8.300781 6.820312 8.929688 6.1875 8.929688 5.410156 L 8.929688 1.410156 C 8.929688 0.628906 8.300781 0 7.523438 0 L 7.375 0 C 6.597656 0 5.964844 0.628906 5.964844 1.410156 L 5.964844 5.410156 C 5.964844 6.1875 6.597656 6.820312 7.375 6.820312 Z M 7.523438 6.820312 " fill-opacity="1" fill-rule="nonzero"/><path fill="#02afef" d="M 25.867188 6.820312 C 26.644531 6.820312 27.277344 6.1875 27.277344 5.410156 L 27.277344 1.410156 C 27.277344 0.628906 26.644531 0 25.867188 0 L 25.71875 0 C 24.941406 0 24.3125 0.628906 24.3125 1.410156 L 24.3125 5.410156 C 24.3125 6.1875 24.941406 6.820312 25.71875 6.820312 Z M 25.867188 6.820312 " fill-opacity="1" fill-rule="nonzero"/><path fill="#02afef" d="M 5.816406 14.675781 L 8.636719 14.675781 L 8.636719 17.492188 L 5.816406 17.492188 Z M 5.816406 14.675781 " fill-opacity="1" fill-rule="nonzero"/><path fill="#02afef" d="M 12.191406 14.675781 L 15.007812 14.675781 L 15.007812 17.492188 L 12.191406 17.492188 Z M 12.191406 14.675781 " fill-opacity="1" fill-rule="nonzero"/><path fill="#02afef" d="M 18.566406 14.675781 L 21.382812 14.675781 L 21.382812 17.492188 L 18.566406 17.492188 Z M 18.566406 14.675781 " fill-opacity="1" fill-rule="nonzero"/><path fill="#02afef" d="M 24.902344 14.675781 L 27.71875 14.675781 L 27.71875 17.492188 L 24.902344 17.492188 Z M 24.902344 14.675781 " fill-opacity="1" fill-rule="nonzero"/><path fill="#02afef" d="M 5.816406 20.085938 L 8.636719 20.085938 L 8.636719 22.902344 L 5.816406 22.902344 Z M 5.816406 20.085938 " fill-opacity="1" fill-rule="nonzero"/><path fill="#02afef" d="M 12.191406 20.085938 L 15.007812 20.085938 L 15.007812 22.902344 L 12.191406 22.902344 Z M 12.191406 20.085938 " fill-opacity="1" fill-rule="nonzero"/><path fill="#02afef" d="M 18.566406 20.085938 L 21.382812 20.085938 L 21.382812 22.902344 L 18.566406 22.902344 Z M 18.566406 20.085938 " fill-opacity="1" fill-rule="nonzero"/><path fill="#02afef" d="M 24.902344 20.085938 L 27.71875 20.085938 L 27.71875 22.902344 L 24.902344 22.902344 Z M 24.902344 20.085938 " fill-opacity="1" fill-rule="nonzero"/><path fill="#02afef" d="M 5.816406 25.535156 L 8.636719 25.535156 L 8.636719 28.351562 L 5.816406 28.351562 Z M 5.816406 25.535156 " fill-opacity="1" fill-rule="nonzero"/><path fill="#02afef" d="M 12.191406 25.535156 L 15.007812 25.535156 L 15.007812 28.351562 L 12.191406 28.351562 Z M 12.191406 25.535156 " fill-opacity="1" fill-rule="nonzero"/><path fill="#02afef" d="M 18.566406 25.535156 L 21.382812 25.535156 L 21.382812 28.351562 L 18.566406 28.351562 Z M 18.566406 25.535156 " fill-opacity="1" fill-rule="nonzero"/></svg>