<svg xmlns="http://www.w3.org/2000/svg" xmlns:xlink="http://www.w3.org/1999/xlink" width="45" zoomAndPan="magnify" viewBox="0 0 33.75 33.749998" height="45" preserveAspectRatio="xMidYMid meet" version="1.0"><defs><clipPath id="889e497b5b"><path d="M 0.578125 0 L 32.589844 0 L 32.589844 33.5 L 0.578125 33.5 Z M 0.578125 0 " clip-rule="nonzero"/></clipPath></defs><g clip-path="url(#889e497b5b)"><path fill="#000000" d="M 29.699219 24.972656 C 28.582031 23.84375 27.195312 22.980469 25.648438 22.492188 C 25.644531 22.492188 25.640625 22.492188 25.636719 22.492188 C 24.71875 22.203125 23.746094 22.050781 22.742188 22.050781 L 20.785156 22.050781 L 20.785156 18.179688 C 21.339844 17.472656 21.722656 16.625 21.871094 15.699219 C 22.363281 15.445312 22.78125 15.066406 23.09375 14.613281 C 23.457031 14.078125 23.667969 13.433594 23.667969 12.742188 L 23.667969 11.558594 L 23.875 11.558594 C 24.179688 11.558594 24.429688 11.308594 24.429688 11 L 24.429688 8.585938 C 24.429688 8.328125 24.25 8.109375 24.011719 8.046875 C 23.902344 6.910156 23.546875 5.855469 23 4.925781 C 22.425781 3.960938 21.640625 3.140625 20.703125 2.519531 L 20.90625 1.886719 C 20.988281 1.636719 20.886719 1.375 20.675781 1.242188 C 20.078125 0.84375 19.421875 0.53125 18.726562 0.316406 C 18.046875 0.113281 17.328125 0 16.585938 0 C 15.84375 0 15.128906 0.113281 14.449219 0.316406 C 13.746094 0.53125 13.085938 0.847656 12.484375 1.25 C 12.269531 1.394531 12.1875 1.660156 12.269531 1.894531 L 12.472656 2.53125 C 11.554688 3.164062 10.765625 4.003906 10.1875 4.984375 C 9.640625 5.902344 9.28125 6.941406 9.164062 8.046875 C 8.925781 8.109375 8.746094 8.324219 8.746094 8.589844 L 8.746094 11 C 8.746094 11.308594 8.992188 11.558594 9.296875 11.558594 L 9.503906 11.558594 L 9.503906 12.742188 C 9.503906 13.433594 9.71875 14.078125 10.082031 14.613281 C 10.390625 15.070312 10.8125 15.445312 11.304688 15.699219 C 11.453125 16.625 11.835938 17.472656 12.386719 18.179688 L 12.386719 22.050781 L 10.433594 22.050781 C 9.425781 22.050781 8.453125 22.207031 7.535156 22.492188 C 7.53125 22.492188 7.53125 22.492188 7.527344 22.496094 C 5.980469 22.980469 4.59375 23.84375 3.472656 24.972656 C 1.6875 26.777344 0.578125 29.265625 0.578125 32.003906 L 0.578125 32.945312 C 0.578125 33.253906 0.828125 33.5 1.132812 33.5 L 32.042969 33.5 C 32.347656 33.5 32.59375 33.253906 32.59375 32.945312 L 32.59375 32.003906 C 32.59375 29.265625 31.484375 26.777344 29.699219 24.972656 Z M 11.230469 28.308594 L 11.230469 23.164062 L 12.484375 23.164062 C 12.625 23.722656 12.914062 24.222656 13.304688 24.621094 L 13.308594 24.621094 C 13.875 25.195312 14.65625 25.550781 15.515625 25.550781 L 17.65625 25.550781 C 18.515625 25.550781 19.292969 25.195312 19.863281 24.621094 L 19.867188 24.617188 C 20.257812 24.222656 20.546875 23.722656 20.6875 23.164062 L 21.941406 23.164062 L 21.941406 28.308594 Z M 8.246094 23.445312 C 8.847656 23.289062 9.480469 23.195312 10.125 23.171875 L 10.125 28.308594 L 8.246094 28.308594 Z M 16.585938 20.246094 C 17.738281 20.246094 18.804688 19.871094 19.679688 19.242188 L 19.679688 22.390625 C 19.679688 22.953125 19.453125 23.464844 19.089844 23.835938 L 19.085938 23.835938 C 18.71875 24.207031 18.214844 24.433594 17.65625 24.433594 L 15.515625 24.433594 C 14.957031 24.433594 14.453125 24.207031 14.085938 23.835938 C 13.71875 23.464844 13.492188 22.953125 13.492188 22.390625 L 13.492188 19.242188 C 14.367188 19.871094 15.4375 20.246094 16.585938 20.246094 Z M 23.046875 23.171875 C 23.695312 23.191406 24.324219 23.289062 24.925781 23.445312 L 24.925781 28.308594 L 23.046875 28.308594 Z M 9.847656 10.441406 L 9.847656 9.144531 L 23.324219 9.144531 L 23.324219 10.441406 L 23.117188 10.441406 C 23.117188 10.441406 23.113281 10.441406 23.113281 10.441406 Z M 12.832031 3.636719 L 13.378906 5.320312 C 13.472656 5.613281 13.785156 5.773438 14.074219 5.679688 C 14.363281 5.582031 14.519531 5.269531 14.425781 4.976562 L 13.445312 1.957031 C 13.859375 1.71875 14.300781 1.527344 14.761719 1.386719 C 15.339844 1.210938 15.953125 1.113281 16.585938 1.113281 C 17.21875 1.113281 17.832031 1.210938 18.410156 1.386719 C 18.871094 1.527344 19.3125 1.71875 19.726562 1.957031 L 18.742188 4.988281 C 18.648438 5.28125 18.804688 5.597656 19.09375 5.691406 C 19.382812 5.785156 19.695312 5.625 19.789062 5.335938 L 20.34375 3.621094 C 21.035156 4.125 21.617188 4.765625 22.054688 5.5 C 22.5 6.253906 22.796875 7.109375 22.902344 8.03125 L 10.273438 8.03125 C 10.386719 7.140625 10.6875 6.300781 11.128906 5.554688 C 11.574219 4.808594 12.15625 4.15625 12.832031 3.636719 Z M 12.007812 14.800781 C 11.59375 14.636719 11.238281 14.351562 10.992188 13.984375 C 10.75 13.628906 10.609375 13.199219 10.609375 12.738281 L 10.609375 11.558594 L 11.957031 11.558594 L 11.957031 12.207031 C 11.957031 12.515625 12.203125 12.765625 12.507812 12.765625 C 12.8125 12.765625 13.0625 12.515625 13.0625 12.207031 L 13.0625 11.558594 L 20.113281 11.558594 L 20.113281 12.207031 C 20.113281 12.515625 20.359375 12.765625 20.664062 12.765625 C 20.972656 12.765625 21.21875 12.515625 21.21875 12.207031 L 21.21875 11.558594 L 22.566406 11.558594 L 22.566406 12.738281 C 22.566406 13.199219 22.421875 13.628906 22.183594 13.984375 C 21.9375 14.347656 21.585938 14.632812 21.171875 14.796875 C 20.984375 14.867188 20.839844 15.042969 20.820312 15.261719 C 20.730469 16.140625 20.378906 16.945312 19.84375 17.589844 C 19.828125 17.605469 19.8125 17.625 19.796875 17.644531 C 19.683594 17.777344 19.5625 17.902344 19.4375 18.019531 C 18.683594 18.710938 17.683594 19.128906 16.589844 19.128906 C 15.496094 19.128906 14.496094 18.710938 13.742188 18.019531 C 13.613281 17.902344 13.492188 17.777344 13.378906 17.644531 C 13.363281 17.625 13.347656 17.605469 13.332031 17.589844 C 12.796875 16.945312 12.445312 16.140625 12.359375 15.261719 C 12.335938 15.0625 12.207031 14.878906 12.007812 14.800781 Z M 1.683594 32.003906 C 1.683594 29.574219 2.667969 27.363281 4.253906 25.761719 C 5.074219 24.933594 6.054688 24.269531 7.140625 23.816406 L 7.140625 28.308594 L 6.785156 28.308594 C 6.480469 28.308594 6.234375 28.558594 6.234375 28.867188 L 6.234375 32.386719 L 1.683594 32.386719 Z M 7.339844 32.386719 L 7.339844 29.421875 L 25.835938 29.421875 L 25.835938 32.386719 Z M 31.488281 32.386719 L 26.9375 32.386719 L 26.9375 28.867188 C 26.9375 28.558594 26.691406 28.308594 26.386719 28.308594 L 26.03125 28.308594 L 26.03125 23.816406 C 27.117188 24.265625 28.097656 24.933594 28.917969 25.761719 C 30.503906 27.363281 31.488281 29.570312 31.488281 32 Z M 24.890625 30.90625 C 24.890625 31.214844 24.644531 31.464844 24.339844 31.464844 L 23.636719 31.464844 C 23.332031 31.464844 23.082031 31.214844 23.082031 30.90625 C 23.082031 30.597656 23.332031 30.347656 23.636719 30.347656 L 24.339844 30.347656 C 24.644531 30.347656 24.890625 30.597656 24.890625 30.90625 Z M 10.089844 30.90625 C 10.089844 31.214844 9.84375 31.464844 9.535156 31.464844 L 8.832031 31.464844 C 8.527344 31.464844 8.28125 31.214844 8.28125 30.90625 C 8.28125 30.597656 8.527344 30.347656 8.832031 30.347656 L 9.535156 30.347656 C 9.84375 30.347656 10.089844 30.597656 10.089844 30.90625 Z M 10.089844 30.90625 " fill-opacity="1" fill-rule="nonzero"/></g></svg>