<svg xmlns="http://www.w3.org/2000/svg" xmlns:xlink="http://www.w3.org/1999/xlink" width="45" zoomAndPan="magnify" viewBox="0 0 33.75 33.749998" height="45" preserveAspectRatio="xMidYMid meet" version="1.0"><defs><clipPath id="167cd59451"><path d="M 0.773438 22 L 28 22 L 28 29 L 0.773438 29 Z M 0.773438 22 " clip-rule="nonzero"/></clipPath><clipPath id="a9173ca1df"><path d="M 25 11 L 32.789062 11 L 32.789062 20 L 25 20 Z M 25 11 " clip-rule="nonzero"/></clipPath><clipPath id="c47b3717bb"><path d="M 24 29 L 31 29 L 31 33.5 L 24 33.5 Z M 24 29 " clip-rule="nonzero"/></clipPath></defs><path fill="#393536" d="M 8.222656 11.828125 C 8.222656 11.828125 13.90625 7.917969 25 10.773438 C 21.785156 10.382812 13.042969 9.207031 8.808594 12.101562 C 10.886719 17.34375 24.058594 15.9375 27.351562 12.335938 C 30.015625 16.695312 25.941406 24.699219 17.238281 24.070312 C 17.238281 24.070312 26.097656 22.742188 26.566406 15.230469 C 18.964844 18.597656 8.222656 16.523438 8.222656 11.828125 " fill-opacity="1" fill-rule="nonzero"/><path fill="#393536" d="M 8.027344 12.296875 C 8.027344 12.296875 6.339844 19.535156 11.484375 22.390625 C 9.429688 19.652344 8.183594 18.242188 8.027344 12.296875 " fill-opacity="1" fill-rule="nonzero"/><g clip-path="url(#167cd59451)"><path fill="#393536" d="M 27.605469 24.839844 C 27.472656 21.589844 23.296875 23.15625 21.566406 23.582031 C 21.472656 23.605469 21.378906 23.625 21.285156 23.648438 C 21.3125 23.65625 21.34375 23.664062 21.371094 23.671875 C 23.234375 23.625 25.503906 23.753906 25.925781 25.613281 C 26.480469 28.058594 23.242188 27.144531 21.984375 26.714844 C 17.925781 25.332031 14.214844 22.421875 9.773438 22.433594 C 5.378906 22.445312 2.101562 24.308594 0.785156 28.535156 C 3.164062 26.769531 5.597656 25.402344 8.609375 25.152344 C 11.269531 24.929688 13.898438 25.472656 16.34375 26.5 C 18.5625 27.433594 20.855469 29.046875 23.363281 28.925781 C 25.429688 28.828125 27.699219 27.09375 27.605469 24.839844 " fill-opacity="1" fill-rule="nonzero"/></g><path fill="#393536" d="M 21.855469 29.816406 C 18.761719 28.894531 16.207031 26.5625 12.980469 26.050781 C 11.367188 25.792969 9.652344 25.871094 8.117188 26.449219 C 7.273438 26.769531 6.367188 27.226562 5.652344 27.78125 C 9.246094 25.957031 12.53125 27.339844 15.933594 28.9375 C 17.859375 29.839844 19.726562 30.972656 21.871094 31.277344 C 23.109375 31.453125 23.875 31.109375 24.535156 30.058594 C 24.285156 30.453125 22.992188 30.089844 22.636719 30.015625 C 22.371094 29.960938 22.113281 29.894531 21.855469 29.816406 " fill-opacity="1" fill-rule="nonzero"/><path fill="#393536" d="M 27.328125 15.628906 C 27.484375 15.609375 27.59375 15.839844 27.679688 16.050781 L 27.328125 15.628906 " fill-opacity="1" fill-rule="nonzero"/><path fill="#393536" d="M 14.558594 0.472656 C 14.714844 0.304688 14.871094 0.148438 15.015625 0.00390625 C 14.820312 0.164062 14.671875 0.320312 14.558594 0.472656 " fill-opacity="1" fill-rule="nonzero"/><path fill="#393536" d="M 19.03125 5.070312 C 18.210938 3.941406 13.144531 2.445312 14.558594 0.472656 C 13.960938 1.121094 13.382812 1.925781 13.746094 2.777344 C 14.359375 4.230469 16.445312 4.359375 16.863281 5.988281 C 17.484375 8.398438 14.054688 9.71875 14.550781 12.144531 C 14.886719 13.777344 16.148438 14.234375 17.597656 13.679688 C 16.707031 14.019531 15.644531 12.796875 15.496094 12.074219 C 15.277344 10.992188 15.960938 10.148438 16.75 9.511719 C 18.226562 8.320312 20.613281 7.261719 19.03125 5.070312 " fill-opacity="1" fill-rule="nonzero"/><path fill="#393536" d="M 18.53125 14.023438 C 18.511719 14.023438 18.488281 14.019531 18.464844 14.015625 C 18.488281 14.023438 18.511719 14.027344 18.53125 14.023438 " fill-opacity="1" fill-rule="nonzero"/><path fill="#393536" d="M 18.03125 11.398438 C 17.679688 11.894531 17.5 12.457031 17.722656 13.121094 C 17.753906 13.210938 17.839844 13.257812 17.855469 13.34375 C 17.851562 13.320312 17.203125 13.136719 17.121094 13.070312 C 16.261719 12.390625 16.792969 11.035156 17.460938 10.425781 C 18.09375 9.847656 19.023438 9.667969 19.558594 8.976562 C 20.089844 8.292969 20.023438 7.449219 20.140625 6.65625 C 20.085938 7.035156 20.679688 7.660156 20.597656 8.214844 C 20.515625 8.769531 20.140625 9.207031 19.78125 9.605469 C 19.277344 10.167969 18.5 10.726562 18.03125 11.398438 " fill-opacity="1" fill-rule="nonzero"/><g clip-path="url(#a9173ca1df)"><path fill="#393536" d="M 29.273438 13.496094 C 29.046875 13.359375 28.796875 13.257812 28.527344 13.195312 C 28.308594 13.148438 28.097656 13.125 27.902344 13.039062 C 27.808594 13 27.691406 12.988281 27.589844 12.945312 C 27.445312 12.882812 27.273438 12.925781 27.21875 12.753906 C 27.175781 12.632812 27.242188 12.523438 27.320312 12.433594 C 27.46875 12.257812 27.726562 12.136719 27.945312 12.074219 C 28.324219 11.972656 28.71875 11.980469 29.109375 11.96875 C 29.988281 11.941406 30.84375 12.25 31.464844 12.878906 C 32.707031 14.125 32.78125 16.199219 31.839844 17.636719 C 30.480469 19.703125 27.632812 20.050781 25.410156 19.445312 C 26.765625 19.816406 29.238281 18.984375 30.152344 17.972656 C 30.953125 17.082031 30.984375 15.882812 30.253906 14.945312 C 29.898438 14.488281 29.414062 14.183594 28.882812 13.96875 C 28.605469 13.859375 27.445312 13.785156 27.300781 13.597656 C 27.160156 13.417969 27.226562 12.949219 27.285156 12.742188 C 27.308594 12.738281 27.332031 12.734375 27.351562 12.730469 " fill-opacity="1" fill-rule="nonzero"/></g><path fill="#393536" d="M 7.59375 21.882812 C 7.511719 21.90625 7.359375 21.820312 7.285156 21.785156 C 5.804688 21.085938 4.363281 20.839844 2.730469 21.148438 C 2.304688 21.230469 0.859375 21.734375 1.085938 22.367188 C 1.28125 22.90625 2.554688 22.746094 2.949219 22.667969 C 4.347656 22.40625 6.261719 21.65625 7.660156 22.105469 C 7.597656 21.984375 7.453125 21.878906 7.296875 21.867188 C 7.292969 21.84375 7.285156 21.824219 7.28125 21.804688 " fill-opacity="1" fill-rule="nonzero"/><g clip-path="url(#c47b3717bb)"><path fill="#393536" d="M 29.222656 31.25 C 28.390625 30.515625 27.5 30.042969 26.515625 29.761719 C 26.453125 29.78125 26.382812 29.785156 26.308594 29.769531 C 25.84375 29.664062 25.367188 29.675781 24.890625 29.691406 C 26.160156 30.191406 27.292969 31.597656 28.257812 32.449219 C 28.558594 32.710938 29.574219 33.5 30.015625 33.132812 C 30.535156 32.703125 29.550781 31.535156 29.222656 31.25 " fill-opacity="1" fill-rule="nonzero"/></g></svg>