<svg xmlns="http://www.w3.org/2000/svg" xmlns:xlink="http://www.w3.org/1999/xlink" width="45" zoomAndPan="magnify" viewBox="0 0 33.75 33.749998" height="45" preserveAspectRatio="xMidYMid meet" version="1.0"><defs><clipPath id="b1b002dbe0"><path d="M 0 0 L 33.5 0 L 33.5 19 L 0 19 Z M 0 0 " clip-rule="nonzero"/></clipPath><clipPath id="ef79bf0448"><path d="M 4 3 L 31 3 L 31 33.5 L 4 33.5 Z M 4 3 " clip-rule="nonzero"/></clipPath><clipPath id="c447e18b05"><path d="M 0 9 L 25 9 L 25 33.5 L 0 33.5 Z M 0 9 " clip-rule="nonzero"/></clipPath></defs><g clip-path="url(#b1b002dbe0)"><path fill="#a5171c" d="M 28.511719 12.273438 L 28.511719 6.550781 C 28.511719 6.394531 28.40625 6.289062 28.25 6.289062 C 28.09375 6.289062 27.988281 6.394531 27.988281 6.550781 L 27.988281 11.699219 L 26.941406 10.550781 L 26.941406 2.371094 C 26.941406 2.210938 26.839844 2.109375 26.679688 2.109375 C 26.523438 2.109375 26.421875 2.210938 26.421875 2.371094 L 26.421875 9.972656 L 25.375 8.824219 L 25.375 0.539062 C 25.375 0.382812 25.269531 0.277344 25.113281 0.277344 C 24.957031 0.277344 24.851562 0.382812 24.851562 0.539062 L 24.851562 8.277344 L 17.875 0.644531 C 17.875 0.644531 17.847656 0.617188 17.847656 0.617188 C 17.324219 0.148438 16.386719 0.0429688 15.546875 0.90625 L 0.105469 17.527344 C 0 17.632812 0 17.789062 0.128906 17.890625 C 0.234375 17.996094 0.390625 17.996094 0.496094 17.867188 L 15.941406 1.273438 C 16.515625 0.671875 17.144531 0.722656 17.507812 1.011719 L 33.03125 17.945312 C 33.082031 17.996094 33.164062 18.023438 33.214844 18.023438 C 33.265625 18.023438 33.34375 17.996094 33.398438 17.945312 C 33.5 17.839844 33.5 17.683594 33.421875 17.578125 Z M 28.511719 12.273438 " fill-opacity="1" fill-rule="nonzero"/></g><g clip-path="url(#ef79bf0448)"><path fill="#a5171c" d="M 17.847656 3.910156 C 17.535156 3.570312 17.117188 3.414062 16.671875 3.414062 C 16.226562 3.414062 15.808594 3.597656 15.496094 3.9375 L 4.46875 15.722656 C 4.574219 15.695312 4.675781 15.695312 4.78125 15.695312 L 4.859375 15.695312 L 5.148438 15.75 L 15.886719 4.277344 C 16.097656 4.042969 16.386719 3.9375 16.671875 3.910156 C 16.960938 3.910156 17.246094 4.015625 17.484375 4.226562 L 29.398438 16.847656 C 29.632812 17.082031 29.816406 17.550781 29.816406 17.867188 L 29.816406 32.003906 C 29.816406 32.632812 29.292969 33.152344 28.640625 33.152344 L 19.339844 33.152344 C 19.179688 33.152344 19.078125 33.257812 19.078125 33.414062 C 19.078125 33.570312 19.179688 33.675781 19.339844 33.675781 L 28.640625 33.675781 C 29.582031 33.675781 30.339844 32.917969 30.339844 32.003906 L 30.339844 17.917969 C 30.339844 17.472656 30.078125 16.847656 29.765625 16.535156 Z M 17.847656 3.910156 " fill-opacity="1" fill-rule="nonzero"/></g><path fill="#a5171c" d="M 20.148438 23.535156 C 20.148438 23.609375 20.121094 23.671875 20.070312 23.722656 C 20.019531 23.773438 19.957031 23.796875 19.886719 23.796875 C 19.816406 23.796875 19.753906 23.773438 19.703125 23.722656 C 19.652344 23.671875 19.625 23.609375 19.625 23.535156 C 19.625 23.464844 19.652344 23.402344 19.703125 23.351562 C 19.753906 23.300781 19.816406 23.277344 19.886719 23.277344 C 19.957031 23.277344 20.019531 23.300781 20.070312 23.351562 C 20.121094 23.402344 20.148438 23.464844 20.148438 23.535156 Z M 20.148438 23.535156 " fill-opacity="1" fill-rule="nonzero"/><g clip-path="url(#c447e18b05)"><path fill="#a5171c" d="M 0.941406 33.363281 C 1.046875 33.441406 1.175781 33.492188 1.304688 33.546875 C 1.488281 33.625 1.699219 33.675781 1.90625 33.703125 C 1.984375 33.703125 2.039062 33.703125 2.117188 33.703125 L 16.75 33.703125 C 17.902344 33.703125 18.839844 32.761719 18.839844 31.613281 L 18.839844 28.476562 C 18.839844 27.324219 17.902344 26.386719 16.75 26.386719 L 13.875 26.386719 L 13.875 23.535156 L 15.707031 23.535156 L 15.707031 20.425781 L 21.976562 12.351562 L 21.976562 22.230469 C 21.976562 22.359375 22.109375 22.492188 22.238281 22.492188 C 22.289062 22.492188 22.316406 22.492188 22.371094 22.464844 C 22.394531 22.492188 22.421875 22.492188 22.449219 22.492188 C 23.363281 22.597656 24.066406 23.378906 24.066406 24.320312 C 24.066406 25.339844 23.230469 26.148438 22.210938 26.148438 C 21.351562 26.148438 20.566406 25.523438 20.410156 24.6875 C 20.382812 24.554688 20.253906 24.453125 20.097656 24.476562 C 19.964844 24.503906 19.859375 24.660156 19.886719 24.792969 C 20.121094 25.890625 21.089844 26.671875 22.210938 26.671875 C 23.519531 26.671875 24.589844 25.601562 24.589844 24.320312 C 24.589844 23.144531 23.703125 22.125 22.527344 21.996094 C 22.527344 21.996094 22.527344 21.996094 22.5 21.996094 L 22.5 11.253906 C 22.5 11.253906 22.5 11.226562 22.5 11.226562 C 22.527344 10.730469 22.34375 10.210938 21.953125 9.84375 L 21.636719 9.582031 C 21.324219 9.292969 20.90625 9.164062 20.515625 9.164062 C 20.070312 9.164062 19.625 9.320312 19.285156 9.660156 L 11.917969 17.265625 L 4.78125 16.21875 C 3.894531 16.21875 3.160156 16.925781 3.160156 17.789062 L 3.160156 23.535156 L 4.992188 23.535156 L 4.992188 26.410156 L 2.117188 26.410156 C 2.039062 26.410156 1.984375 26.410156 1.90625 26.410156 C 1.699219 26.4375 1.488281 26.488281 1.304688 26.566406 C 1.175781 26.621094 1.070312 26.699219 0.941406 26.75 C 0.785156 26.855469 0.628906 27.011719 0.496094 27.144531 C 0.210938 27.535156 0.0273438 28.003906 0.0273438 28.503906 L 0.0273438 31.636719 C 0.0273438 32.132812 0.210938 32.605469 0.496094 32.96875 C 0.628906 33.128906 0.785156 33.257812 0.941406 33.363281 Z M 19.363281 14.859375 L 19.363281 12.824219 L 20.957031 12.824219 Z M 19.652344 10.027344 C 19.859375 9.816406 20.175781 9.6875 20.515625 9.6875 C 20.800781 9.6875 21.089844 9.792969 21.296875 9.972656 L 21.613281 10.234375 C 22.082031 10.628906 22.132812 11.359375 21.742188 11.828125 L 21.351562 12.300781 C 21.351562 12.300781 21.324219 12.300781 21.324219 12.300781 L 19.363281 12.300781 L 19.363281 10.46875 C 19.363281 10.417969 19.363281 10.390625 19.339844 10.367188 Z M 15.96875 29.808594 L 18.320312 29.808594 L 18.320312 30.332031 L 15.96875 30.332031 C 15.835938 30.332031 15.707031 30.199219 15.707031 30.070312 C 15.707031 29.9375 15.835938 29.808594 15.96875 29.808594 Z M 15.183594 30.070312 C 15.183594 31.089844 14.371094 31.898438 13.355469 31.898438 C 12.335938 31.898438 11.523438 31.089844 11.523438 30.070312 C 11.523438 29.050781 12.335938 28.242188 13.355469 28.242188 C 14.371094 28.242188 15.183594 29.050781 15.183594 30.070312 Z M 16.59375 18.414062 L 16.515625 16.480469 L 18.109375 16.480469 Z M 18.839844 10.863281 L 18.839844 12.300781 L 17.457031 12.300781 Z M 16.960938 12.824219 L 18.839844 12.824219 L 18.839844 15.4375 C 18.839844 15.460938 18.839844 15.488281 18.867188 15.515625 L 18.5 15.957031 C 18.476562 15.957031 18.476562 15.957031 18.449219 15.957031 L 16.488281 15.957031 L 16.359375 13.421875 Z M 15.863281 13.945312 L 15.96875 15.957031 L 13.929688 15.957031 Z M 13.433594 16.480469 C 13.457031 16.480469 13.457031 16.480469 13.484375 16.480469 L 15.992188 16.480469 L 16.097656 18.832031 C 16.097656 18.886719 16.125 18.9375 16.148438 18.988281 L 15.707031 19.566406 L 15.707031 19.148438 C 15.707031 18.285156 14.972656 17.578125 14.085938 17.578125 L 12.570312 17.371094 Z M 5.515625 23.535156 L 13.355469 23.535156 L 13.355469 26.410156 L 5.515625 26.410156 Z M 5.515625 28.242188 C 6.53125 28.242188 7.34375 29.050781 7.34375 30.070312 C 7.34375 31.089844 6.53125 31.898438 5.515625 31.898438 C 4.496094 31.898438 3.683594 31.089844 3.683594 30.070312 C 3.683594 29.050781 4.496094 28.242188 5.515625 28.242188 Z M 0.546875 29.808594 L 2.902344 29.808594 C 3.03125 29.808594 3.160156 29.9375 3.160156 30.070312 C 3.160156 30.199219 3.03125 30.332031 2.902344 30.332031 L 0.546875 30.332031 Z M 0.546875 29.808594 " fill-opacity="1" fill-rule="nonzero"/></g><path fill="#a5171c" d="M 5.773438 30.070312 C 5.773438 30.140625 5.75 30.203125 5.699219 30.253906 C 5.648438 30.304688 5.585938 30.332031 5.515625 30.332031 C 5.441406 30.332031 5.378906 30.304688 5.328125 30.253906 C 5.277344 30.203125 5.253906 30.140625 5.253906 30.070312 C 5.253906 29.996094 5.277344 29.9375 5.328125 29.886719 C 5.378906 29.835938 5.441406 29.808594 5.515625 29.808594 C 5.585938 29.808594 5.648438 29.835938 5.699219 29.886719 C 5.75 29.9375 5.773438 29.996094 5.773438 30.070312 Z M 5.773438 30.070312 " fill-opacity="1" fill-rule="nonzero"/><path fill="#a5171c" d="M 5.515625 31.375 C 6.246094 31.375 6.820312 30.777344 6.820312 30.070312 C 6.820312 29.339844 6.246094 28.761719 5.515625 28.761719 C 4.78125 28.761719 4.207031 29.339844 4.207031 30.070312 C 4.207031 30.800781 4.78125 31.375 5.515625 31.375 Z M 5.515625 29.285156 C 5.957031 29.285156 6.296875 29.625 6.296875 30.070312 C 6.296875 30.488281 5.957031 30.855469 5.515625 30.855469 C 5.070312 30.855469 4.730469 30.488281 4.730469 30.070312 C 4.730469 29.625 5.070312 29.285156 5.515625 29.285156 Z M 5.515625 29.285156 " fill-opacity="1" fill-rule="nonzero"/><path fill="#a5171c" d="M 13.613281 30.070312 C 13.613281 30.140625 13.589844 30.203125 13.539062 30.253906 C 13.488281 30.304688 13.425781 30.332031 13.355469 30.332031 C 13.28125 30.332031 13.21875 30.304688 13.167969 30.253906 C 13.117188 30.203125 13.09375 30.140625 13.09375 30.070312 C 13.09375 29.996094 13.117188 29.9375 13.167969 29.886719 C 13.21875 29.835938 13.28125 29.808594 13.355469 29.808594 C 13.425781 29.808594 13.488281 29.835938 13.539062 29.886719 C 13.589844 29.9375 13.613281 29.996094 13.613281 30.070312 Z M 13.613281 30.070312 " fill-opacity="1" fill-rule="nonzero"/><path fill="#a5171c" d="M 12.046875 30.070312 C 12.046875 30.800781 12.621094 31.375 13.355469 31.375 C 14.085938 31.375 14.660156 30.777344 14.660156 30.070312 C 14.660156 29.339844 14.085938 28.761719 13.355469 28.761719 C 12.621094 28.761719 12.046875 29.339844 12.046875 30.070312 Z M 14.136719 30.070312 C 14.136719 30.488281 13.796875 30.855469 13.355469 30.855469 C 12.910156 30.855469 12.570312 30.488281 12.570312 30.070312 C 12.570312 29.625 12.910156 29.285156 13.355469 29.285156 C 13.796875 29.285156 14.136719 29.625 14.136719 30.070312 Z M 14.136719 30.070312 " fill-opacity="1" fill-rule="nonzero"/></svg>