<svg xmlns="http://www.w3.org/2000/svg" xmlns:xlink="http://www.w3.org/1999/xlink" width="45" zoomAndPan="magnify" viewBox="0 0 33.75 33.749998" height="45" preserveAspectRatio="xMidYMid meet" version="1.0"><defs><clipPath id="8eb5096ba5"><path d="M 0.605469 0 L 6 0 L 6 5 L 0.605469 5 Z M 0.605469 0 " clip-rule="nonzero"/></clipPath><clipPath id="4ed5fc068d"><path d="M 0.605469 7 L 32 7 L 32 33 L 0.605469 33 Z M 0.605469 7 " clip-rule="nonzero"/></clipPath><clipPath id="bdb922205a"><path d="M 4 0 L 32.621094 0 L 32.621094 15 L 4 15 Z M 4 0 " clip-rule="nonzero"/></clipPath><clipPath id="9cf4523a6c"><path d="M 8 28 L 11 28 L 11 33.5 L 8 33.5 Z M 8 28 " clip-rule="nonzero"/></clipPath><clipPath id="f77ca295fe"><path d="M 20 28 L 22 28 L 22 33.5 L 20 33.5 Z M 20 28 " clip-rule="nonzero"/></clipPath></defs><g clip-path="url(#8eb5096ba5)"><path fill="#ffffff" d="M 4.792969 4.199219 L 2.402344 4.199219 C 1.410156 4.199219 0.605469 3.394531 0.605469 2.402344 C 0.605469 1.414062 1.410156 0.609375 2.402344 0.609375 L 4.792969 0.609375 C 5.121094 0.609375 5.390625 0.878906 5.390625 1.207031 C 5.390625 1.539062 5.121094 1.804688 4.792969 1.804688 L 2.402344 1.804688 C 2.070312 1.804688 1.804688 2.074219 1.804688 2.402344 C 1.804688 2.734375 2.070312 3 2.402344 3 L 4.792969 3 C 5.121094 3 5.390625 3.269531 5.390625 3.601562 C 5.390625 3.929688 5.121094 4.199219 4.792969 4.199219 " fill-opacity="1" fill-rule="nonzero"/></g><g clip-path="url(#4ed5fc068d)"><path fill="#ffffff" d="M 29.300781 32.890625 L 5.988281 32.890625 C 3.023438 32.890625 0.605469 30.476562 0.605469 27.511719 C 0.605469 24.542969 3.023438 22.132812 5.988281 22.132812 L 26.3125 22.132812 C 27.300781 22.132812 28.105469 21.328125 28.105469 20.335938 C 28.105469 19.347656 27.300781 18.542969 26.3125 18.542969 L 5.988281 18.542969 C 3.023438 18.542969 0.605469 16.132812 0.605469 13.164062 C 0.605469 10.195312 3.023438 7.785156 5.988281 7.785156 L 20.933594 7.785156 C 21.261719 7.785156 21.53125 8.050781 21.53125 8.382812 C 21.53125 8.710938 21.261719 8.980469 20.933594 8.980469 L 5.988281 8.980469 C 3.679688 8.980469 1.804688 10.855469 1.804688 13.164062 C 1.804688 15.472656 3.679688 17.347656 5.988281 17.347656 L 26.3125 17.347656 C 27.960938 17.347656 29.300781 18.6875 29.300781 20.335938 C 29.300781 21.984375 27.960938 23.328125 26.3125 23.328125 L 5.988281 23.328125 C 3.679688 23.328125 1.804688 25.203125 1.804688 27.511719 C 1.804688 29.816406 3.679688 31.695312 5.988281 31.695312 L 29.300781 31.695312 C 29.628906 31.695312 29.898438 31.425781 29.898438 31.097656 C 29.898438 30.769531 29.628906 30.5 29.300781 30.5 L 5.988281 30.5 C 4.339844 30.5 3 29.160156 3 27.511719 C 3 25.863281 4.339844 24.523438 5.988281 24.523438 L 26.3125 24.523438 C 28.617188 24.523438 30.496094 22.644531 30.496094 20.335938 C 30.496094 18.03125 28.617188 16.152344 26.3125 16.152344 L 5.988281 16.152344 C 4.339844 16.152344 3 14.8125 3 13.164062 C 3 11.515625 4.339844 10.175781 5.988281 10.175781 L 20.933594 10.175781 C 21.261719 10.175781 21.53125 10.445312 21.53125 10.773438 C 21.53125 11.101562 21.261719 11.371094 20.933594 11.371094 L 5.988281 11.371094 C 4.996094 11.371094 4.195312 12.175781 4.195312 13.164062 C 4.195312 14.152344 4.996094 14.957031 5.988281 14.957031 L 26.3125 14.957031 C 29.277344 14.957031 31.691406 17.371094 31.691406 20.335938 C 31.691406 23.304688 29.277344 25.71875 26.3125 25.71875 L 5.988281 25.71875 C 4.996094 25.71875 4.195312 26.519531 4.195312 27.511719 C 4.195312 28.5 4.996094 29.304688 5.988281 29.304688 L 29.300781 29.304688 C 30.289062 29.304688 31.09375 30.109375 31.09375 31.097656 C 31.09375 32.085938 30.289062 32.890625 29.300781 32.890625 " fill-opacity="1" fill-rule="nonzero"/></g><g clip-path="url(#bdb922205a)"><path fill="#ffffff" d="M 5.390625 1.207031 L 5.390625 3 C 5.390625 4.652344 6.730469 5.992188 8.378906 5.992188 L 17.941406 5.992188 C 20.25 5.992188 22.128906 7.867188 22.128906 10.175781 C 22.128906 11.824219 23.46875 13.164062 25.117188 13.164062 L 31.691406 13.164062 L 31.691406 1.207031 Z M 32.289062 14.359375 L 25.117188 14.359375 C 22.808594 14.359375 20.933594 12.480469 20.933594 10.175781 C 20.933594 8.527344 19.589844 7.1875 17.941406 7.1875 L 8.378906 7.1875 C 6.070312 7.1875 4.195312 5.308594 4.195312 3 L 4.195312 0.609375 C 4.195312 0.28125 4.460938 0.0117188 4.792969 0.0117188 L 32.289062 0.0117188 C 32.617188 0.0117188 32.886719 0.28125 32.886719 0.609375 L 32.886719 13.761719 C 32.886719 14.089844 32.617188 14.359375 32.289062 14.359375 " fill-opacity="1" fill-rule="nonzero"/></g><path fill="#ffffff" d="M 7.78125 3.601562 C 7.78125 3.929688 7.511719 4.199219 7.183594 4.199219 C 6.855469 4.199219 6.585938 3.929688 6.585938 3.601562 C 6.585938 3.269531 6.855469 3 7.183594 3 C 7.511719 3 7.78125 3.269531 7.78125 3.601562 " fill-opacity="1" fill-rule="nonzero"/><path fill="#ffffff" d="M 11.367188 3.601562 C 11.367188 3.929688 11.097656 4.199219 10.769531 4.199219 C 10.441406 4.199219 10.171875 3.929688 10.171875 3.601562 C 10.171875 3.269531 10.441406 3 10.769531 3 C 11.097656 3 11.367188 3.269531 11.367188 3.601562 " fill-opacity="1" fill-rule="nonzero"/><path fill="#ffffff" d="M 14.953125 3.601562 C 14.953125 3.929688 14.683594 4.199219 14.355469 4.199219 C 14.027344 4.199219 13.757812 3.929688 13.757812 3.601562 C 13.757812 3.269531 14.027344 3 14.355469 3 C 14.683594 3 14.953125 3.269531 14.953125 3.601562 " fill-opacity="1" fill-rule="nonzero"/><path fill="#ffffff" d="M 18.539062 3.601562 C 18.539062 3.929688 18.273438 4.199219 17.941406 4.199219 C 17.613281 4.199219 17.34375 3.929688 17.34375 3.601562 C 17.34375 3.269531 17.613281 3 17.941406 3 C 18.273438 3 18.539062 3.269531 18.539062 3.601562 " fill-opacity="1" fill-rule="nonzero"/><path fill="#ffffff" d="M 11.367188 5.992188 C 11.367188 6.320312 11.097656 6.589844 10.769531 6.589844 C 10.441406 6.589844 10.171875 6.320312 10.171875 5.992188 C 10.171875 5.660156 10.441406 5.394531 10.769531 5.394531 C 11.097656 5.394531 11.367188 5.660156 11.367188 5.992188 " fill-opacity="1" fill-rule="nonzero"/><path fill="#ffffff" d="M 14.953125 5.992188 C 14.953125 6.320312 14.683594 6.589844 14.355469 6.589844 C 14.027344 6.589844 13.757812 6.320312 13.757812 5.992188 C 13.757812 5.660156 14.027344 5.394531 14.355469 5.394531 C 14.683594 5.394531 14.953125 5.660156 14.953125 5.992188 " fill-opacity="1" fill-rule="nonzero"/><path fill="#ffffff" d="M 18.539062 5.992188 C 18.539062 6.320312 18.273438 6.589844 17.941406 6.589844 C 17.613281 6.589844 17.34375 6.320312 17.34375 5.992188 C 17.34375 5.660156 17.613281 5.394531 17.941406 5.394531 C 18.273438 5.394531 18.539062 5.660156 18.539062 5.992188 " fill-opacity="1" fill-rule="nonzero"/><path fill="#ffffff" d="M 22.128906 3.601562 C 22.128906 3.929688 21.859375 4.199219 21.53125 4.199219 C 21.199219 4.199219 20.933594 3.929688 20.933594 3.601562 C 20.933594 3.269531 21.199219 3 21.53125 3 C 21.859375 3 22.128906 3.269531 22.128906 3.601562 " fill-opacity="1" fill-rule="nonzero"/><path fill="#ffffff" d="M 25.714844 3.601562 C 25.714844 3.929688 25.445312 4.199219 25.117188 4.199219 C 24.789062 4.199219 24.519531 3.929688 24.519531 3.601562 C 24.519531 3.269531 24.789062 3 25.117188 3 C 25.445312 3 25.714844 3.269531 25.714844 3.601562 " fill-opacity="1" fill-rule="nonzero"/><path fill="#ffffff" d="M 29.300781 3.601562 C 29.300781 3.929688 29.03125 4.199219 28.703125 4.199219 C 28.375 4.199219 28.105469 3.929688 28.105469 3.601562 C 28.105469 3.269531 28.375 3 28.703125 3 C 29.03125 3 29.300781 3.269531 29.300781 3.601562 " fill-opacity="1" fill-rule="nonzero"/><path fill="#ffffff" d="M 7.78125 1.207031 C 7.78125 1.539062 7.511719 1.804688 7.183594 1.804688 C 6.855469 1.804688 6.585938 1.539062 6.585938 1.207031 C 6.585938 0.878906 6.855469 0.609375 7.183594 0.609375 C 7.511719 0.609375 7.78125 0.878906 7.78125 1.207031 " fill-opacity="1" fill-rule="nonzero"/><path fill="#ffffff" d="M 11.367188 1.207031 C 11.367188 1.539062 11.097656 1.804688 10.769531 1.804688 C 10.441406 1.804688 10.171875 1.539062 10.171875 1.207031 C 10.171875 0.878906 10.441406 0.609375 10.769531 0.609375 C 11.097656 0.609375 11.367188 0.878906 11.367188 1.207031 " fill-opacity="1" fill-rule="nonzero"/><path fill="#ffffff" d="M 14.953125 1.207031 C 14.953125 1.539062 14.683594 1.804688 14.355469 1.804688 C 14.027344 1.804688 13.757812 1.539062 13.757812 1.207031 C 13.757812 0.878906 14.027344 0.609375 14.355469 0.609375 C 14.683594 0.609375 14.953125 0.878906 14.953125 1.207031 " fill-opacity="1" fill-rule="nonzero"/><path fill="#ffffff" d="M 18.539062 1.207031 C 18.539062 1.539062 18.273438 1.804688 17.941406 1.804688 C 17.613281 1.804688 17.34375 1.539062 17.34375 1.207031 C 17.34375 0.878906 17.613281 0.609375 17.941406 0.609375 C 18.273438 0.609375 18.539062 0.878906 18.539062 1.207031 " fill-opacity="1" fill-rule="nonzero"/><path fill="#ffffff" d="M 22.128906 1.207031 C 22.128906 1.539062 21.859375 1.804688 21.53125 1.804688 C 21.199219 1.804688 20.933594 1.539062 20.933594 1.207031 C 20.933594 0.878906 21.199219 0.609375 21.53125 0.609375 C 21.859375 0.609375 22.128906 0.878906 22.128906 1.207031 " fill-opacity="1" fill-rule="nonzero"/><path fill="#ffffff" d="M 25.714844 1.207031 C 25.714844 1.539062 25.445312 1.804688 25.117188 1.804688 C 24.789062 1.804688 24.519531 1.539062 24.519531 1.207031 C 24.519531 0.878906 24.789062 0.609375 25.117188 0.609375 C 25.445312 0.609375 25.714844 0.878906 25.714844 1.207031 " fill-opacity="1" fill-rule="nonzero"/><path fill="#ffffff" d="M 29.300781 1.207031 C 29.300781 1.539062 29.03125 1.804688 28.703125 1.804688 C 28.375 1.804688 28.105469 1.539062 28.105469 1.207031 C 28.105469 0.878906 28.375 0.609375 28.703125 0.609375 C 29.03125 0.609375 29.300781 0.878906 29.300781 1.207031 " fill-opacity="1" fill-rule="nonzero"/><path fill="#ffffff" d="M 22.128906 5.992188 C 22.128906 6.320312 21.859375 6.589844 21.53125 6.589844 C 21.199219 6.589844 20.933594 6.320312 20.933594 5.992188 C 20.933594 5.660156 21.199219 5.394531 21.53125 5.394531 C 21.859375 5.394531 22.128906 5.660156 22.128906 5.992188 " fill-opacity="1" fill-rule="nonzero"/><path fill="#ffffff" d="M 25.714844 5.992188 C 25.714844 6.320312 25.445312 6.589844 25.117188 6.589844 C 24.789062 6.589844 24.519531 6.320312 24.519531 5.992188 C 24.519531 5.660156 24.789062 5.394531 25.117188 5.394531 C 25.445312 5.394531 25.714844 5.660156 25.714844 5.992188 " fill-opacity="1" fill-rule="nonzero"/><path fill="#ffffff" d="M 29.300781 5.992188 C 29.300781 6.320312 29.03125 6.589844 28.703125 6.589844 C 28.375 6.589844 28.105469 6.320312 28.105469 5.992188 C 28.105469 5.660156 28.375 5.394531 28.703125 5.394531 C 29.03125 5.394531 29.300781 5.660156 29.300781 5.992188 " fill-opacity="1" fill-rule="nonzero"/><path fill="#ffffff" d="M 9.574219 4.796875 C 9.574219 5.125 9.304688 5.394531 8.976562 5.394531 C 8.648438 5.394531 8.378906 5.125 8.378906 4.796875 C 8.378906 4.464844 8.648438 4.199219 8.976562 4.199219 C 9.304688 4.199219 9.574219 4.464844 9.574219 4.796875 " fill-opacity="1" fill-rule="nonzero"/><path fill="#ffffff" d="M 13.160156 4.796875 C 13.160156 5.125 12.890625 5.394531 12.5625 5.394531 C 12.234375 5.394531 11.964844 5.125 11.964844 4.796875 C 11.964844 4.464844 12.234375 4.199219 12.5625 4.199219 C 12.890625 4.199219 13.160156 4.464844 13.160156 4.796875 " fill-opacity="1" fill-rule="nonzero"/><path fill="#ffffff" d="M 16.746094 4.796875 C 16.746094 5.125 16.480469 5.394531 16.148438 5.394531 C 15.820312 5.394531 15.550781 5.125 15.550781 4.796875 C 15.550781 4.464844 15.820312 4.199219 16.148438 4.199219 C 16.480469 4.199219 16.746094 4.464844 16.746094 4.796875 " fill-opacity="1" fill-rule="nonzero"/><path fill="#ffffff" d="M 20.335938 4.796875 C 20.335938 5.125 20.066406 5.394531 19.738281 5.394531 C 19.40625 5.394531 19.136719 5.125 19.136719 4.796875 C 19.136719 4.464844 19.40625 4.199219 19.738281 4.199219 C 20.066406 4.199219 20.335938 4.464844 20.335938 4.796875 " fill-opacity="1" fill-rule="nonzero"/><path fill="#ffffff" d="M 23.921875 4.796875 C 23.921875 5.125 23.652344 5.394531 23.324219 5.394531 C 22.992188 5.394531 22.726562 5.125 22.726562 4.796875 C 22.726562 4.464844 22.992188 4.199219 23.324219 4.199219 C 23.652344 4.199219 23.921875 4.464844 23.921875 4.796875 " fill-opacity="1" fill-rule="nonzero"/><path fill="#ffffff" d="M 27.507812 4.796875 C 27.507812 5.125 27.238281 5.394531 26.910156 5.394531 C 26.582031 5.394531 26.3125 5.125 26.3125 4.796875 C 26.3125 4.464844 26.582031 4.199219 26.910156 4.199219 C 27.238281 4.199219 27.507812 4.464844 27.507812 4.796875 " fill-opacity="1" fill-rule="nonzero"/><path fill="#ffffff" d="M 31.09375 4.796875 C 31.09375 5.125 30.824219 5.394531 30.496094 5.394531 C 30.167969 5.394531 29.898438 5.125 29.898438 4.796875 C 29.898438 4.464844 30.167969 4.199219 30.496094 4.199219 C 30.824219 4.199219 31.09375 4.464844 31.09375 4.796875 " fill-opacity="1" fill-rule="nonzero"/><path fill="#ffffff" d="M 9.574219 2.402344 C 9.574219 2.734375 9.304688 3 8.976562 3 C 8.648438 3 8.378906 2.734375 8.378906 2.402344 C 8.378906 2.074219 8.648438 1.804688 8.976562 1.804688 C 9.304688 1.804688 9.574219 2.074219 9.574219 2.402344 " fill-opacity="1" fill-rule="nonzero"/><path fill="#ffffff" d="M 5.988281 2.402344 C 5.988281 2.734375 5.71875 3 5.390625 3 C 5.058594 3 4.792969 2.734375 4.792969 2.402344 C 4.792969 2.074219 5.058594 1.804688 5.390625 1.804688 C 5.71875 1.804688 5.988281 2.074219 5.988281 2.402344 " fill-opacity="1" fill-rule="nonzero"/><path fill="#ffffff" d="M 13.160156 2.402344 C 13.160156 2.734375 12.890625 3 12.5625 3 C 12.234375 3 11.964844 2.734375 11.964844 2.402344 C 11.964844 2.074219 12.234375 1.804688 12.5625 1.804688 C 12.890625 1.804688 13.160156 2.074219 13.160156 2.402344 " fill-opacity="1" fill-rule="nonzero"/><path fill="#ffffff" d="M 16.746094 2.402344 C 16.746094 2.734375 16.480469 3 16.148438 3 C 15.820312 3 15.550781 2.734375 15.550781 2.402344 C 15.550781 2.074219 15.820312 1.804688 16.148438 1.804688 C 16.480469 1.804688 16.746094 2.074219 16.746094 2.402344 " fill-opacity="1" fill-rule="nonzero"/><path fill="#ffffff" d="M 20.335938 2.402344 C 20.335938 2.734375 20.066406 3 19.738281 3 C 19.40625 3 19.136719 2.734375 19.136719 2.402344 C 19.136719 2.074219 19.40625 1.804688 19.738281 1.804688 C 20.066406 1.804688 20.335938 2.074219 20.335938 2.402344 " fill-opacity="1" fill-rule="nonzero"/><path fill="#ffffff" d="M 23.921875 2.402344 C 23.921875 2.734375 23.652344 3 23.324219 3 C 22.992188 3 22.726562 2.734375 22.726562 2.402344 C 22.726562 2.074219 22.992188 1.804688 23.324219 1.804688 C 23.652344 1.804688 23.921875 2.074219 23.921875 2.402344 " fill-opacity="1" fill-rule="nonzero"/><path fill="#ffffff" d="M 27.507812 2.402344 C 27.507812 2.734375 27.238281 3 26.910156 3 C 26.582031 3 26.3125 2.734375 26.3125 2.402344 C 26.3125 2.074219 26.582031 1.804688 26.910156 1.804688 C 27.238281 1.804688 27.507812 2.074219 27.507812 2.402344 " fill-opacity="1" fill-rule="nonzero"/><path fill="#ffffff" d="M 31.09375 2.402344 C 31.09375 2.734375 30.824219 3 30.496094 3 C 30.167969 3 29.898438 2.734375 29.898438 2.402344 C 29.898438 2.074219 30.167969 1.804688 30.496094 1.804688 C 30.824219 1.804688 31.09375 2.074219 31.09375 2.402344 " fill-opacity="1" fill-rule="nonzero"/><path fill="#ffffff" d="M 25.714844 8.382812 C 25.714844 8.710938 25.445312 8.980469 25.117188 8.980469 C 24.789062 8.980469 24.519531 8.710938 24.519531 8.382812 C 24.519531 8.050781 24.789062 7.785156 25.117188 7.785156 C 25.445312 7.785156 25.714844 8.050781 25.714844 8.382812 " fill-opacity="1" fill-rule="nonzero"/><path fill="#ffffff" d="M 22.128906 8.382812 C 22.128906 8.710938 21.859375 8.980469 21.53125 8.980469 C 21.199219 8.980469 20.933594 8.710938 20.933594 8.382812 C 20.933594 8.050781 21.199219 7.785156 21.53125 7.785156 C 21.859375 7.785156 22.128906 8.050781 22.128906 8.382812 " fill-opacity="1" fill-rule="nonzero"/><path fill="#ffffff" d="M 29.300781 8.382812 C 29.300781 8.710938 29.03125 8.980469 28.703125 8.980469 C 28.375 8.980469 28.105469 8.710938 28.105469 8.382812 C 28.105469 8.050781 28.375 7.785156 28.703125 7.785156 C 29.03125 7.785156 29.300781 8.050781 29.300781 8.382812 " fill-opacity="1" fill-rule="nonzero"/><path fill="#ffffff" d="M 25.714844 10.773438 C 25.714844 11.101562 25.445312 11.371094 25.117188 11.371094 C 24.789062 11.371094 24.519531 11.101562 24.519531 10.773438 C 24.519531 10.445312 24.789062 10.175781 25.117188 10.175781 C 25.445312 10.175781 25.714844 10.445312 25.714844 10.773438 " fill-opacity="1" fill-rule="nonzero"/><path fill="#ffffff" d="M 23.921875 11.96875 C 23.921875 12.296875 23.652344 12.566406 23.324219 12.566406 C 22.992188 12.566406 22.726562 12.296875 22.726562 11.96875 C 22.726562 11.640625 22.992188 11.371094 23.324219 11.371094 C 23.652344 11.371094 23.921875 11.640625 23.921875 11.96875 " fill-opacity="1" fill-rule="nonzero"/><path fill="#ffffff" d="M 29.300781 10.773438 C 29.300781 11.101562 29.03125 11.371094 28.703125 11.371094 C 28.375 11.371094 28.105469 11.101562 28.105469 10.773438 C 28.105469 10.445312 28.375 10.175781 28.703125 10.175781 C 29.03125 10.175781 29.300781 10.445312 29.300781 10.773438 " fill-opacity="1" fill-rule="nonzero"/><path fill="#ffffff" d="M 25.714844 13.164062 C 25.714844 13.492188 25.445312 13.761719 25.117188 13.761719 C 24.789062 13.761719 24.519531 13.492188 24.519531 13.164062 C 24.519531 12.835938 24.789062 12.566406 25.117188 12.566406 C 25.445312 12.566406 25.714844 12.835938 25.714844 13.164062 " fill-opacity="1" fill-rule="nonzero"/><path fill="#ffffff" d="M 29.300781 13.164062 C 29.300781 13.492188 29.03125 13.761719 28.703125 13.761719 C 28.375 13.761719 28.105469 13.492188 28.105469 13.164062 C 28.105469 12.835938 28.375 12.566406 28.703125 12.566406 C 29.03125 12.566406 29.300781 12.835938 29.300781 13.164062 " fill-opacity="1" fill-rule="nonzero"/><path fill="#ffffff" d="M 23.921875 9.578125 C 23.921875 9.90625 23.652344 10.175781 23.324219 10.175781 C 22.992188 10.175781 22.726562 9.90625 22.726562 9.578125 C 22.726562 9.25 22.992188 8.980469 23.324219 8.980469 C 23.652344 8.980469 23.921875 9.25 23.921875 9.578125 " fill-opacity="1" fill-rule="nonzero"/><path fill="#ffffff" d="M 27.507812 9.578125 C 27.507812 9.90625 27.238281 10.175781 26.910156 10.175781 C 26.582031 10.175781 26.3125 9.90625 26.3125 9.578125 C 26.3125 9.25 26.582031 8.980469 26.910156 8.980469 C 27.238281 8.980469 27.507812 9.25 27.507812 9.578125 " fill-opacity="1" fill-rule="nonzero"/><path fill="#ffffff" d="M 31.09375 9.578125 C 31.09375 9.90625 30.824219 10.175781 30.496094 10.175781 C 30.167969 10.175781 29.898438 9.90625 29.898438 9.578125 C 29.898438 9.25 30.167969 8.980469 30.496094 8.980469 C 30.824219 8.980469 31.09375 9.25 31.09375 9.578125 " fill-opacity="1" fill-rule="nonzero"/><path fill="#ffffff" d="M 27.507812 11.96875 C 27.507812 12.296875 27.238281 12.566406 26.910156 12.566406 C 26.582031 12.566406 26.3125 12.296875 26.3125 11.96875 C 26.3125 11.640625 26.582031 11.371094 26.910156 11.371094 C 27.238281 11.371094 27.507812 11.640625 27.507812 11.96875 " fill-opacity="1" fill-rule="nonzero"/><path fill="#ffffff" d="M 31.09375 11.96875 C 31.09375 12.296875 30.824219 12.566406 30.496094 12.566406 C 30.167969 12.566406 29.898438 12.296875 29.898438 11.96875 C 29.898438 11.640625 30.167969 11.371094 30.496094 11.371094 C 30.824219 11.371094 31.09375 11.640625 31.09375 11.96875 " fill-opacity="1" fill-rule="nonzero"/><path fill="#ffffff" d="M 23.921875 7.1875 C 23.921875 7.515625 23.652344 7.785156 23.324219 7.785156 C 22.992188 7.785156 22.726562 7.515625 22.726562 7.1875 C 22.726562 6.855469 22.992188 6.589844 23.324219 6.589844 C 23.652344 6.589844 23.921875 6.855469 23.921875 7.1875 " fill-opacity="1" fill-rule="nonzero"/><path fill="#ffffff" d="M 27.507812 7.1875 C 27.507812 7.515625 27.238281 7.785156 26.910156 7.785156 C 26.582031 7.785156 26.3125 7.515625 26.3125 7.1875 C 26.3125 6.855469 26.582031 6.589844 26.910156 6.589844 C 27.238281 6.589844 27.507812 6.855469 27.507812 7.1875 " fill-opacity="1" fill-rule="nonzero"/><path fill="#ffffff" d="M 31.09375 7.1875 C 31.09375 7.515625 30.824219 7.785156 30.496094 7.785156 C 30.167969 7.785156 29.898438 7.515625 29.898438 7.1875 C 29.898438 6.855469 30.167969 6.589844 30.496094 6.589844 C 30.824219 6.589844 31.09375 6.855469 31.09375 7.1875 " fill-opacity="1" fill-rule="nonzero"/><g clip-path="url(#9cf4523a6c)"><path fill="#ffffff" d="M 9.574219 33.488281 C 9.246094 33.488281 8.976562 33.21875 8.976562 32.890625 L 8.976562 29.304688 C 8.976562 28.976562 9.246094 28.707031 9.574219 28.707031 C 9.902344 28.707031 10.171875 28.976562 10.171875 29.304688 L 10.171875 32.890625 C 10.171875 33.21875 9.902344 33.488281 9.574219 33.488281 " fill-opacity="1" fill-rule="nonzero"/></g><path fill="#ffffff" d="M 9.574219 26.316406 C 9.246094 26.316406 8.976562 26.046875 8.976562 25.71875 L 8.976562 22.132812 C 8.976562 21.800781 9.246094 21.53125 9.574219 21.53125 C 9.902344 21.53125 10.171875 21.800781 10.171875 22.132812 L 10.171875 25.71875 C 10.171875 26.046875 9.902344 26.316406 9.574219 26.316406 " fill-opacity="1" fill-rule="nonzero"/><path fill="#ffffff" d="M 9.574219 19.140625 C 9.246094 19.140625 8.976562 18.875 8.976562 18.542969 L 8.976562 14.957031 C 8.976562 14.628906 9.246094 14.359375 9.574219 14.359375 C 9.902344 14.359375 10.171875 14.628906 10.171875 14.957031 L 10.171875 18.542969 C 10.171875 18.875 9.902344 19.140625 9.574219 19.140625 " fill-opacity="1" fill-rule="nonzero"/><path fill="#ffffff" d="M 9.574219 11.96875 C 9.246094 11.96875 8.976562 11.699219 8.976562 11.371094 L 8.976562 7.785156 C 8.976562 7.453125 9.246094 7.1875 9.574219 7.1875 C 9.902344 7.1875 10.171875 7.453125 10.171875 7.785156 L 10.171875 11.371094 C 10.171875 11.699219 9.902344 11.96875 9.574219 11.96875 " fill-opacity="1" fill-rule="nonzero"/><g clip-path="url(#f77ca295fe)"><path fill="#ffffff" d="M 20.933594 33.488281 C 20.601562 33.488281 20.335938 33.21875 20.335938 32.890625 L 20.335938 29.304688 C 20.335938 28.976562 20.601562 28.707031 20.933594 28.707031 C 21.261719 28.707031 21.53125 28.976562 21.53125 29.304688 L 21.53125 32.890625 C 21.53125 33.21875 21.261719 33.488281 20.933594 33.488281 " fill-opacity="1" fill-rule="nonzero"/></g><path fill="#ffffff" d="M 20.933594 26.316406 C 20.601562 26.316406 20.335938 26.046875 20.335938 25.71875 L 20.335938 22.132812 C 20.335938 21.800781 20.601562 21.53125 20.933594 21.53125 C 21.261719 21.53125 21.53125 21.800781 21.53125 22.132812 L 21.53125 25.71875 C 21.53125 26.046875 21.261719 26.316406 20.933594 26.316406 " fill-opacity="1" fill-rule="nonzero"/><path fill="#ffffff" d="M 20.933594 19.140625 C 20.601562 19.140625 20.335938 18.875 20.335938 18.542969 L 20.335938 14.957031 C 20.335938 14.628906 20.601562 14.359375 20.933594 14.359375 C 21.261719 14.359375 21.53125 14.628906 21.53125 14.957031 L 21.53125 18.542969 C 21.53125 18.875 21.261719 19.140625 20.933594 19.140625 " fill-opacity="1" fill-rule="nonzero"/><path fill="#ffffff" d="M 20.933594 11.96875 C 20.601562 11.96875 20.335938 11.699219 20.335938 11.371094 L 20.335938 8.382812 C 20.335938 8.050781 20.601562 7.785156 20.933594 7.785156 C 21.261719 7.785156 21.53125 8.050781 21.53125 8.382812 L 21.53125 11.371094 C 21.53125 11.699219 21.261719 11.96875 20.933594 11.96875 " fill-opacity="1" fill-rule="nonzero"/></svg>