<svg xmlns="http://www.w3.org/2000/svg" xmlns:xlink="http://www.w3.org/1999/xlink" width="45" zoomAndPan="magnify" viewBox="0 0 33.75 33.749998" height="45" preserveAspectRatio="xMidYMid meet" version="1.0"><defs><clipPath id="bda92e9135"><path d="M 0 0 L 33.5 0 L 33.5 18 L 0 18 Z M 0 0 " clip-rule="nonzero"/></clipPath><clipPath id="5280495e89"><path d="M 12 19 L 33.5 19 L 33.5 33.5 L 12 33.5 Z M 12 19 " clip-rule="nonzero"/></clipPath></defs><g clip-path="url(#bda92e9135)"><path fill="#ffffff" d="M 0.0273438 11.808594 C 0.0273438 11.835938 0.0273438 11.835938 0.0273438 11.859375 C 0.0273438 11.886719 0.0273438 11.886719 0.0273438 11.914062 C 0.0273438 11.9375 0.0273438 11.9375 0.0507812 11.964844 C 0.0507812 11.992188 0.078125 11.992188 0.078125 12.015625 C 0.078125 12.042969 0.105469 12.042969 0.105469 12.070312 C 0.105469 12.097656 0.128906 12.097656 0.128906 12.121094 C 0.128906 12.148438 0.15625 12.148438 0.15625 12.148438 C 0.183594 12.175781 0.183594 12.175781 0.210938 12.175781 C 0.210938 12.175781 0.234375 12.199219 0.234375 12.199219 C 0.289062 12.226562 0.3125 12.253906 0.367188 12.277344 C 0.367188 12.277344 0.390625 12.277344 0.390625 12.277344 C 0.445312 12.304688 0.496094 12.304688 0.550781 12.304688 L 2.117188 12.304688 L 2.117188 17.011719 C 2.117188 17.300781 2.355469 17.535156 2.640625 17.535156 C 2.929688 17.535156 3.164062 17.300781 3.164062 17.011719 L 3.164062 12.042969 C 3.164062 12.015625 3.164062 11.992188 3.164062 11.964844 L 7.425781 6.472656 C 7.609375 6.238281 7.558594 5.921875 7.347656 5.742188 C 7.113281 5.558594 6.800781 5.609375 6.617188 5.820312 L 2.378906 11.257812 L 1.59375 11.257812 L 8.945312 1.371094 L 17.757812 11.859375 C 17.757812 11.886719 17.785156 11.886719 17.785156 11.886719 L 17.785156 12.410156 C 18.070312 12.148438 18.4375 11.992188 18.828125 11.992188 L 18.828125 11.730469 C 19.351562 11.257812 20.03125 10.972656 20.738281 10.972656 C 21.472656 10.972656 22.175781 11.257812 22.726562 11.78125 C 22.753906 11.808594 22.777344 11.859375 22.804688 11.886719 C 22.910156 11.992188 23.039062 12.042969 23.171875 12.042969 C 23.300781 12.042969 23.433594 11.992188 23.539062 11.886719 C 23.5625 11.859375 23.589844 11.835938 23.617188 11.78125 C 24.164062 11.257812 24.84375 10.972656 25.605469 10.972656 C 26.386719 10.972656 27.121094 11.285156 27.667969 11.859375 C 27.667969 11.859375 27.695312 11.859375 27.695312 11.886719 C 27.695312 11.886719 27.722656 11.914062 27.722656 11.914062 C 27.722656 11.914062 27.75 11.914062 27.75 11.9375 C 27.75 11.9375 27.773438 11.964844 27.773438 11.964844 C 27.773438 11.964844 27.800781 11.992188 27.800781 11.992188 C 27.800781 11.992188 27.800781 11.992188 27.828125 11.992188 C 27.851562 11.992188 27.851562 11.992188 27.878906 12.015625 C 27.878906 12.015625 27.90625 12.015625 27.90625 12.015625 C 27.90625 12.015625 27.929688 12.015625 27.957031 12.015625 C 27.984375 12.015625 27.984375 12.015625 28.007812 12.015625 C 28.035156 12.015625 28.0625 12.015625 28.089844 12.015625 C 28.089844 12.015625 28.113281 12.015625 28.113281 12.015625 C 28.140625 12.015625 28.140625 12.015625 28.167969 11.992188 C 28.167969 11.992188 28.167969 11.992188 28.191406 11.992188 C 28.191406 11.992188 28.21875 11.992188 28.21875 11.992188 C 28.246094 11.992188 28.246094 11.964844 28.269531 11.964844 C 28.269531 11.964844 28.296875 11.964844 28.296875 11.964844 C 28.296875 11.964844 28.296875 11.964844 28.324219 11.9375 C 28.324219 11.9375 28.351562 11.9375 28.351562 11.914062 C 28.351562 11.914062 28.351562 11.914062 28.375 11.886719 C 28.375 11.886719 28.375 11.886719 28.402344 11.859375 C 28.953125 11.285156 29.683594 10.972656 30.46875 10.972656 C 31.253906 10.972656 31.984375 11.285156 32.535156 11.859375 C 32.535156 11.859375 32.558594 11.886719 32.558594 11.886719 C 32.558594 11.886719 32.585938 11.914062 32.585938 11.914062 C 32.613281 11.914062 32.613281 11.9375 32.640625 11.9375 C 32.640625 11.9375 32.664062 11.964844 32.664062 11.964844 C 32.691406 11.964844 32.71875 11.992188 32.742188 11.992188 C 32.742188 11.992188 32.769531 11.992188 32.769531 11.992188 C 32.796875 11.992188 32.847656 11.992188 32.875 11.992188 C 32.898438 11.992188 32.925781 11.992188 32.980469 11.992188 C 32.980469 11.992188 33.003906 11.992188 33.003906 11.992188 C 33.03125 11.992188 33.058594 11.992188 33.058594 11.964844 C 33.058594 11.964844 33.082031 11.964844 33.082031 11.9375 C 33.109375 11.9375 33.109375 11.914062 33.136719 11.914062 C 33.136719 11.914062 33.160156 11.886719 33.160156 11.886719 C 33.160156 11.886719 33.1875 11.859375 33.1875 11.859375 C 33.1875 11.859375 33.1875 11.859375 33.1875 11.835938 C 33.1875 11.835938 33.1875 11.835938 33.214844 11.835938 C 33.214844 11.835938 33.242188 11.808594 33.242188 11.808594 C 33.242188 11.78125 33.265625 11.78125 33.265625 11.753906 C 33.265625 11.730469 33.292969 11.730469 33.292969 11.703125 C 33.292969 11.675781 33.320312 11.675781 33.320312 11.652344 C 33.320312 11.625 33.34375 11.625 33.34375 11.597656 C 33.34375 11.574219 33.34375 11.574219 33.371094 11.546875 C 33.371094 11.519531 33.371094 11.519531 33.371094 11.496094 C 33.371094 11.46875 33.371094 11.46875 33.371094 11.441406 C 33.371094 11.414062 33.371094 11.414062 33.371094 11.390625 C 33.371094 11.363281 33.371094 11.363281 33.371094 11.335938 C 33.371094 11.3125 33.371094 11.3125 33.371094 11.285156 C 33.371094 11.257812 33.371094 11.257812 33.34375 11.234375 C 33.34375 11.207031 33.34375 11.207031 33.320312 11.179688 C 33.320312 11.152344 33.292969 11.152344 33.292969 11.128906 C 33.292969 11.101562 33.265625 11.101562 33.265625 11.074219 C 33.265625 11.074219 33.265625 11.050781 33.242188 11.050781 L 23.980469 0.0664062 C 24.007812 0.0898438 23.851562 0.0117188 23.695312 0.0117188 L 8.917969 0.0117188 C 8.917969 0.0117188 8.917969 0.0117188 8.890625 0.0117188 C 8.867188 0.0117188 8.8125 0.0117188 8.789062 0.0390625 C 8.789062 0.0390625 8.761719 0.0390625 8.761719 0.0390625 C 8.707031 0.0390625 8.683594 0.0664062 8.628906 0.0898438 C 8.628906 0.0898438 8.628906 0.0898438 8.605469 0.117188 C 8.578125 0.144531 8.550781 0.171875 8.527344 0.195312 C 8.527344 0.195312 8.5 0.222656 8.5 0.222656 C 8.5 0.222656 8.5 0.222656 8.472656 0.25 L 0.105469 11.496094 C 0.105469 11.519531 0.078125 11.519531 0.078125 11.546875 C 0.078125 11.546875 0.0507812 11.574219 0.0507812 11.574219 C 0.0507812 11.597656 0.0507812 11.597656 0.0273438 11.625 C 0.0273438 11.652344 0.0273438 11.652344 0 11.675781 C 0 11.703125 0 11.703125 0 11.730469 C 0 11.753906 0 11.753906 0 11.78125 C 0.0273438 11.78125 0.0273438 11.808594 0.0273438 11.808594 Z M 18.960938 1.058594 L 20.398438 2.863281 C 20.214844 2.835938 20.007812 2.8125 19.824219 2.8125 C 18.882812 2.8125 17.96875 3.125 17.261719 3.699219 L 15.140625 1.058594 Z M 28.089844 6.578125 C 27.984375 6.578125 27.851562 6.550781 27.722656 6.550781 C 26.886719 6.550781 26.074219 6.863281 25.394531 7.414062 L 23.039062 4.484375 C 23.511719 4.09375 24.0625 3.910156 24.636719 3.910156 C 25.34375 3.910156 25.996094 4.222656 26.570312 4.800781 Z M 20.320312 7.414062 C 20.269531 7.386719 20.242188 7.363281 20.191406 7.308594 L 17.914062 4.511719 C 18.4375 4.09375 19.117188 3.859375 19.824219 3.859375 C 20.632812 3.859375 21.367188 4.144531 21.890625 4.695312 L 23.433594 6.605469 C 23.222656 6.578125 23.015625 6.550781 22.804688 6.550781 C 21.890625 6.550781 21.027344 6.863281 20.320312 7.414062 Z M 16.867188 4.851562 L 18.253906 6.550781 C 18.125 6.550781 18.019531 6.523438 17.886719 6.523438 C 16.972656 6.523438 16.109375 6.839844 15.402344 7.414062 L 12.945312 4.484375 C 13.441406 4.09375 14.070312 3.859375 14.722656 3.859375 C 15.507812 3.859375 16.242188 4.171875 16.789062 4.746094 C 16.816406 4.824219 16.84375 4.851562 16.867188 4.851562 Z M 18.28125 10.839844 L 16.085938 8.226562 C 16.605469 7.804688 17.234375 7.570312 17.886719 7.570312 C 18.464844 7.570312 19.011719 7.726562 19.484375 8.042969 L 21 9.925781 C 20.921875 9.925781 20.84375 9.925781 20.765625 9.925781 C 19.851562 9.949219 18.988281 10.265625 18.28125 10.839844 Z M 23.199219 10.8125 C 23.066406 10.710938 22.9375 10.605469 22.804688 10.527344 L 20.972656 8.25 C 21.496094 7.832031 22.152344 7.597656 22.832031 7.597656 C 23.640625 7.597656 24.402344 7.910156 24.949219 8.460938 L 26.179688 9.976562 C 25.996094 9.949219 25.8125 9.925781 25.628906 9.925781 C 24.742188 9.949219 23.878906 10.265625 23.199219 10.8125 Z M 28.140625 10.761719 L 26.101562 8.226562 C 26.597656 7.832031 27.171875 7.597656 27.773438 7.597656 C 28.480469 7.597656 29.1875 7.910156 29.734375 8.488281 C 29.734375 8.488281 29.761719 8.511719 29.761719 8.511719 L 30.992188 9.976562 C 30.835938 9.949219 30.675781 9.949219 30.519531 9.949219 C 29.632812 9.949219 28.820312 10.238281 28.140625 10.761719 Z M 24.976562 2.863281 C 24.871094 2.863281 24.765625 2.835938 24.664062 2.835938 C 23.851562 2.835938 23.09375 3.125 22.414062 3.648438 L 20.320312 1.03125 L 23.460938 1.03125 Z M 13.808594 1.058594 L 15.300781 2.890625 C 15.117188 2.863281 14.933594 2.835938 14.722656 2.835938 C 13.835938 2.835938 12.972656 3.152344 12.292969 3.699219 L 10.042969 1.058594 Z M 13.808594 1.058594 " fill-opacity="1" fill-rule="nonzero"/></g><path fill="#ffffff" d="M 18.855469 17.847656 C 19.746094 17.847656 20.425781 16.984375 20.425781 15.863281 C 20.425781 14.945312 19.484375 13.535156 19.300781 13.273438 C 19.195312 13.140625 19.039062 13.039062 18.882812 13.039062 C 18.726562 13.039062 18.542969 13.117188 18.464844 13.273438 C 18.28125 13.535156 17.339844 14.945312 17.339844 15.863281 C 17.285156 16.960938 17.96875 17.847656 18.855469 17.847656 Z M 18.855469 14.554688 C 19.144531 15.050781 19.378906 15.574219 19.378906 15.863281 C 19.378906 16.386719 19.117188 16.804688 18.855469 16.804688 C 18.59375 16.804688 18.332031 16.410156 18.332031 15.863281 C 18.332031 15.574219 18.570312 15.050781 18.855469 14.554688 Z M 18.855469 14.554688 " fill-opacity="1" fill-rule="nonzero"/><path fill="#ffffff" d="M 24.085938 17.167969 C 24.085938 16.253906 23.144531 14.839844 22.960938 14.582031 C 22.859375 14.449219 22.699219 14.34375 22.542969 14.34375 C 22.386719 14.34375 22.203125 14.421875 22.125 14.582031 C 21.941406 14.839844 21 16.253906 21 17.167969 C 21 18.269531 21.679688 19.15625 22.570312 19.15625 C 23.378906 19.15625 24.085938 18.269531 24.085938 17.167969 Z M 21.996094 17.167969 C 21.996094 16.882812 22.230469 16.359375 22.519531 15.863281 C 22.804688 16.359375 23.039062 16.882812 23.039062 17.167969 C 23.039062 17.691406 22.777344 18.109375 22.519531 18.109375 C 22.257812 18.109375 21.996094 17.691406 21.996094 17.167969 Z M 21.996094 17.167969 " fill-opacity="1" fill-rule="nonzero"/><path fill="#ffffff" d="M 27.460938 14.816406 C 27.460938 13.898438 26.519531 12.488281 26.335938 12.226562 C 26.230469 12.097656 26.074219 11.992188 25.917969 11.992188 C 25.761719 11.992188 25.578125 12.070312 25.5 12.226562 C 25.316406 12.488281 24.375 13.898438 24.375 14.816406 C 24.375 15.914062 25.054688 16.804688 25.945312 16.804688 C 26.78125 16.804688 27.460938 15.914062 27.460938 14.816406 Z M 25.394531 14.816406 C 25.394531 14.527344 25.628906 14.003906 25.917969 13.507812 C 26.207031 14.003906 26.441406 14.527344 26.441406 14.816406 C 26.441406 15.339844 26.179688 15.757812 25.917969 15.757812 C 25.65625 15.757812 25.394531 15.339844 25.394531 14.816406 Z M 25.394531 14.816406 " fill-opacity="1" fill-rule="nonzero"/><path fill="#ffffff" d="M 32.429688 13.011719 C 32.21875 12.933594 32.039062 12.800781 31.855469 12.644531 C 31.828125 12.644531 31.828125 12.617188 31.800781 12.617188 C 31.671875 12.488281 31.515625 12.355469 31.355469 12.277344 L 31.355469 13.742188 C 31.617188 14.109375 32.089844 14.867188 32.402344 15.652344 L 32.402344 13.011719 Z M 32.429688 13.011719 " fill-opacity="1" fill-rule="nonzero"/><path fill="#ffffff" d="M 30.101562 14.082031 C 29.917969 14.082031 29.761719 14.160156 29.683594 14.320312 C 29.5 14.582031 28.558594 15.992188 28.558594 16.90625 C 28.558594 18.007812 29.238281 18.894531 30.128906 18.894531 C 31.015625 18.894531 31.699219 18.03125 31.699219 16.90625 C 31.699219 15.992188 30.753906 14.582031 30.574219 14.320312 C 30.414062 14.1875 30.257812 14.082031 30.101562 14.082031 Z M 30.101562 17.847656 C 29.867188 17.847656 29.578125 17.457031 29.578125 16.90625 C 29.578125 16.621094 29.8125 16.097656 30.101562 15.601562 C 30.390625 16.097656 30.625 16.621094 30.625 16.90625 C 30.597656 17.429688 30.335938 17.847656 30.101562 17.847656 Z M 30.101562 17.847656 " fill-opacity="1" fill-rule="nonzero"/><path fill="#ffffff" d="M 12.578125 17.011719 C 12.867188 17.011719 13.101562 16.777344 13.101562 16.488281 L 13.101562 12.304688 C 13.101562 12.015625 12.867188 11.78125 12.578125 11.78125 L 6.824219 11.78125 C 6.539062 11.78125 6.304688 12.015625 6.304688 12.304688 L 6.304688 16.488281 C 6.304688 16.777344 6.539062 17.011719 6.824219 17.011719 Z M 7.347656 14.945312 L 9.179688 14.945312 L 9.179688 15.964844 L 7.347656 15.964844 Z M 10.226562 15.964844 L 10.226562 14.945312 L 12.054688 14.945312 L 12.054688 15.964844 Z M 12.054688 13.898438 L 10.226562 13.898438 L 10.226562 12.828125 L 12.054688 12.828125 Z M 9.179688 12.828125 L 9.179688 13.898438 L 7.347656 13.898438 L 7.347656 12.828125 Z M 9.179688 12.828125 " fill-opacity="1" fill-rule="nonzero"/><g clip-path="url(#5280495e89)"><path fill="#ffffff" d="M 27.226562 33.488281 C 27.511719 33.488281 27.75 33.253906 27.75 32.964844 L 27.75 31.136719 C 27.75 31.003906 27.800781 30.898438 27.878906 30.796875 L 30.519531 27.683594 C 30.753906 27.472656 30.886719 27.1875 30.886719 26.871094 L 30.886719 23.785156 C 32.535156 23.628906 33.5 21.980469 33.5 20.414062 C 33.5 20.125 33.265625 19.890625 32.980469 19.890625 L 18.070312 19.890625 C 17.785156 19.890625 17.546875 20.125 17.546875 20.414062 C 17.546875 21.378906 16.972656 22.765625 15.71875 22.765625 C 14.621094 22.765625 14.097656 21.796875 13.941406 20.933594 L 16.109375 20.933594 C 16.398438 20.933594 16.632812 20.699219 16.632812 20.414062 C 16.632812 20.125 16.398438 19.890625 16.109375 19.890625 L 13.363281 19.890625 C 13.078125 19.890625 12.839844 20.125 12.839844 20.414062 C 12.839844 22.058594 13.859375 23.8125 15.71875 23.8125 L 27.226562 23.8125 L 27.226562 25.824219 C 27.199219 25.851562 27.171875 25.878906 27.148438 25.90625 L 24.480469 29.042969 C 24.242188 29.332031 24.113281 29.695312 24.113281 30.0625 L 24.113281 32.941406 C 24.113281 33.226562 24.347656 33.460938 24.636719 33.460938 C 24.921875 33.460938 25.160156 33.226562 25.160156 32.941406 L 25.160156 32.519531 L 26.726562 32.519531 L 26.726562 32.941406 C 26.703125 33.253906 26.9375 33.488281 27.226562 33.488281 Z M 28.269531 23.578125 L 29.082031 23.078125 L 29.839844 23.472656 L 29.839844 24.621094 L 28.269531 24.621094 Z M 30.730469 22.765625 L 29.292969 22.035156 C 29.132812 21.957031 28.953125 21.957031 28.792969 22.058594 L 27.617188 22.765625 L 25.289062 22.765625 C 25.683594 22.242188 25.945312 21.617188 26.046875 20.933594 L 32.429688 20.933594 C 32.246094 21.796875 31.699219 22.6875 30.730469 22.765625 Z M 18.570312 20.933594 L 24.976562 20.933594 C 24.820312 21.824219 24.242188 22.765625 23.199219 22.765625 L 17.808594 22.765625 C 18.203125 22.242188 18.464844 21.617188 18.570312 20.933594 Z M 25.132812 31.5 L 25.132812 30.089844 C 25.132812 29.957031 25.183594 29.851562 25.265625 29.75 L 27.695312 26.871094 L 27.851562 27.082031 C 27.957031 27.210938 28.113281 27.289062 28.269531 27.289062 C 28.375 27.289062 28.480469 27.265625 28.585938 27.1875 C 28.820312 27.003906 28.871094 26.6875 28.691406 26.453125 L 28.269531 25.878906 C 28.269531 25.851562 28.269531 25.851562 28.269531 25.824219 L 28.269531 25.644531 L 29.839844 25.644531 L 29.839844 26.871094 C 29.8125 26.898438 29.789062 26.925781 29.761719 26.949219 L 27.171875 30.011719 L 26.832031 29.671875 C 26.625 29.460938 26.285156 29.488281 26.101562 29.695312 C 25.890625 29.90625 25.917969 30.246094 26.125 30.429688 L 26.753906 31.03125 C 26.753906 31.054688 26.753906 31.082031 26.753906 31.109375 L 26.753906 31.476562 L 25.132812 31.476562 Z M 25.132812 31.5 " fill-opacity="1" fill-rule="nonzero"/></g></svg>