<svg xmlns="http://www.w3.org/2000/svg" xmlns:xlink="http://www.w3.org/1999/xlink" width="45" zoomAndPan="magnify" viewBox="0 0 33.75 33.749998" height="45" preserveAspectRatio="xMidYMid meet" version="1.0"><defs><clipPath id="b83e0d54e7"><path d="M 0 0 L 33.5 0 L 33.5 33.5 L 0 33.5 Z M 0 0 " clip-rule="nonzero"/></clipPath></defs><g clip-path="url(#b83e0d54e7)"><path fill="#ffffff" d="M 33.28125 16.039062 L 16.992188 0.183594 C 16.832031 0.0273438 16.574219 0.0273438 16.414062 0.183594 L 0.125 16.039062 C 0.046875 16.117188 0 16.21875 0 16.335938 L 0 33.058594 C 0 33.289062 0.1875 33.476562 0.414062 33.476562 L 2.960938 33.476562 C 3.1875 33.476562 3.375 33.289062 3.375 33.058594 L 3.375 21.046875 L 30.03125 21.046875 L 30.03125 33.058594 C 30.03125 33.289062 30.21875 33.476562 30.449219 33.476562 L 32.992188 33.476562 C 33.222656 33.476562 33.410156 33.289062 33.410156 33.058594 L 33.410156 16.335938 C 33.410156 16.21875 33.359375 16.117188 33.28125 16.039062 Z M 0.832031 18.066406 L 0.832031 16.753906 L 16.703125 16.753906 C 16.703125 16.753906 16.707031 16.753906 16.707031 16.753906 L 32.578125 16.753906 L 32.578125 18.066406 Z M 29.421875 15.921875 L 28.007812 15.921875 L 28.007812 14.554688 Z M 27.175781 15.921875 L 23.183594 15.921875 L 26.320312 12.921875 L 27.175781 13.746094 Z M 22.5625 15.367188 L 22.5625 9.277344 L 25.726562 12.34375 Z M 21.730469 15.921875 L 17.386719 15.921875 L 21.398438 8.15625 L 21.730469 8.472656 Z M 17.121094 14.625 L 17.121094 4.007812 L 20.777344 7.550781 Z M 16.289062 14.625 L 12.632812 7.550781 L 16.289062 4.007812 Z M 12.007812 8.15625 L 16.023438 15.921875 L 11.679688 15.921875 L 11.679688 8.472656 Z M 10.847656 15.367188 L 7.683594 12.34375 L 10.847656 9.277344 Z M 7.085938 12.921875 L 10.226562 15.921875 L 6.234375 15.921875 L 6.234375 13.746094 Z M 5.402344 15.921875 L 3.988281 15.921875 L 5.402344 14.554688 Z M 16.703125 1.0625 L 31.96875 15.921875 L 30.617188 15.921875 L 16.992188 2.730469 C 16.832031 2.574219 16.574219 2.574219 16.414062 2.730469 L 2.792969 15.921875 L 1.441406 15.921875 Z M 0.832031 32.644531 L 0.832031 18.898438 L 2.542969 18.898438 L 2.542969 32.644531 Z M 3.375 20.214844 L 3.375 18.898438 L 30.03125 18.898438 L 30.03125 20.214844 Z M 30.863281 32.644531 L 30.863281 18.898438 L 32.578125 18.898438 L 32.578125 32.644531 Z M 30.863281 32.644531 " fill-opacity="1" fill-rule="nonzero"/></g></svg>