<svg xmlns="http://www.w3.org/2000/svg" xmlns:xlink="http://www.w3.org/1999/xlink" width="45" zoomAndPan="magnify" viewBox="0 0 33.75 33.749998" height="45" preserveAspectRatio="xMidYMid meet" version="1.0"><defs><clipPath id="0387284f17"><path d="M 2 19 L 26 19 L 26 33.5 L 2 33.5 Z M 2 19 " clip-rule="nonzero"/></clipPath><clipPath id="7a6430ac43"><path d="M 0 20 L 5 20 L 5 33.5 L 0 33.5 Z M 0 20 " clip-rule="nonzero"/></clipPath><clipPath id="b7c6566198"><path d="M 24 9 L 33.5 9 L 33.5 19 L 24 19 Z M 24 9 " clip-rule="nonzero"/></clipPath><clipPath id="a8a671f05e"><path d="M 12 30 L 22 30 L 22 33.5 L 12 33.5 Z M 12 30 " clip-rule="nonzero"/></clipPath><clipPath id="92e4d24a46"><path d="M 8 30 L 13 30 L 13 33.5 L 8 33.5 Z M 8 30 " clip-rule="nonzero"/></clipPath><clipPath id="5581cfd891"><path d="M 3 30 L 9 30 L 9 33.5 L 3 33.5 Z M 3 30 " clip-rule="nonzero"/></clipPath></defs><g clip-path="url(#0387284f17)"><path fill="#b5dcff" d="M 22.417969 20.679688 C 22.277344 20.625 21.078125 20.164062 19.71875 19.640625 L 19.28125 19.949219 L 5.761719 19.949219 L 5.363281 19.632812 L 4.3125 20.039062 L 3.160156 20.738281 L 2.433594 22.570312 L 2.433594 33.324219 L 2.773438 33.5 L 3.976562 33.5 L 4.5625 33.042969 L 20.332031 33.042969 L 21.105469 33.5 L 24.183594 33.5 C 24.671875 33.5 25.070312 33.109375 25.070312 32.625 L 25.070312 24.761719 C 25.070312 22.898438 23.867188 21.269531 22.417969 20.679688 Z M 22.417969 20.679688 " fill-opacity="1" fill-rule="nonzero"/></g><g clip-path="url(#7a6430ac43)"><path fill="#8bcaff" d="M 2.796875 32.960938 L 2.796875 23.386719 C 2.796875 21.914062 3.503906 20.765625 4.3125 20.039062 L 2.664062 20.679688 C 1.53125 21.140625 0.0117188 22.597656 0.0117188 24.761719 L 0.0117188 32.625 C 0.0117188 33.109375 0.410156 33.5 0.898438 33.5 L 2.988281 33.5 C 2.867188 33.351562 2.796875 33.164062 2.796875 32.960938 Z M 2.796875 32.960938 " fill-opacity="1" fill-rule="nonzero"/></g><path fill="#8896e0" d="M 13.566406 20.152344 L 11.582031 20.152344 L 10.714844 21.015625 L 10.714844 21.285156 L 11.460938 22.570312 L 11.589844 22.675781 L 13.492188 22.675781 L 13.621094 22.570312 L 14.367188 21.285156 L 14.367188 21.078125 Z M 13.566406 20.152344 " fill-opacity="1" fill-rule="nonzero"/><path fill="#6b7ed9" d="M 13.621094 22.570312 L 11.460938 22.570312 L 11.257812 25.699219 L 11.382812 26.046875 L 12.542969 26.957031 L 13.609375 26.046875 L 13.824219 25.699219 Z M 13.621094 22.570312 " fill-opacity="1" fill-rule="nonzero"/><path fill="#e99c8c" d="M 15.253906 17.59375 L 15.25 15.992188 L 14.933594 15.773438 L 12.417969 15.773438 L 12.417969 20.277344 L 13.5 20.277344 L 13.824219 20.085938 L 15.503906 18.449219 L 15.503906 18.015625 C 15.351562 17.929688 15.253906 17.769531 15.253906 17.59375 Z M 15.253906 17.59375 " fill-opacity="1" fill-rule="nonzero"/><path fill="#d78778" d="M 12.535156 15.773438 L 10.03125 15.773438 L 9.828125 15.988281 L 9.828125 17.589844 C 9.828125 17.789062 9.730469 17.910156 9.617188 17.984375 L 9.566406 18.003906 L 9.566406 18.359375 L 11.257812 19.953125 L 11.582031 20.277344 L 12.535156 20.277344 Z M 12.535156 15.773438 " fill-opacity="1" fill-rule="nonzero"/><path fill="#e99c8c" d="M 5.617188 9.316406 L 5.617188 9.730469 L 6.527344 10.472656 L 7.796875 10.472656 L 7.796875 8.472656 L 6.5 8.472656 L 6.199219 8.671875 C 5.960938 8.839844 5.761719 9.0625 5.617188 9.316406 Z M 5.617188 9.316406 " fill-opacity="1" fill-rule="nonzero"/><path fill="#e99c8c" d="M 18.171875 10.472656 L 19.324219 9.929688 L 19.546875 9.425781 C 19.417969 9.132812 19.214844 8.871094 18.964844 8.671875 L 18.683594 8.472656 L 17.273438 8.472656 L 17.273438 10.472656 Z M 18.171875 10.472656 " fill-opacity="1" fill-rule="nonzero"/><path fill="#d78778" d="M 5.617188 9.316406 C 5.457031 9.59375 5.363281 9.90625 5.363281 10.230469 C 5.363281 11.335938 6.394531 12.238281 7.640625 12.101562 L 7.796875 11.640625 L 7.796875 9.816406 L 7.640625 10.28125 C 6.761719 10.375 5.996094 9.957031 5.617188 9.316406 Z M 5.617188 9.316406 " fill-opacity="1" fill-rule="nonzero"/><path fill="#d78778" d="M 17.445312 10.28125 L 17.273438 10.050781 L 17.273438 11.875 L 17.445312 12.105469 C 18.6875 12.234375 19.71875 11.332031 19.71875 10.226562 C 19.71875 9.894531 19.632812 9.574219 19.480469 9.289062 C 19.105469 9.945312 18.328125 10.375 17.445312 10.28125 Z M 17.445312 10.28125 " fill-opacity="1" fill-rule="nonzero"/><path fill="#f1afa2" d="M 17.15625 8.335938 L 10.382812 8.335938 L 10.382812 12.734375 C 10.382812 12.734375 11.585938 15.328125 11.589844 15.378906 C 11.589844 15.429688 13.371094 16.558594 13.371094 16.558594 L 14.046875 16.558594 C 16.015625 15.953125 17.445312 14.125 17.445312 11.976562 L 17.445312 8.671875 Z M 17.15625 8.335938 " fill-opacity="1" fill-rule="nonzero"/><path fill="#e99c8c" d="M 10.597656 11.976562 L 10.597656 8.671875 L 11.050781 8.335938 L 8.089844 8.335938 L 7.636719 8.671875 L 7.636719 11.976562 C 7.636719 14.484375 9.617188 16.773438 12.609375 16.773438 C 13.109375 16.773438 13.59375 16.699219 14.046875 16.558594 C 11.921875 15.933594 10.597656 14.027344 10.597656 11.976562 Z M 10.597656 11.976562 " fill-opacity="1" fill-rule="nonzero"/><path fill="#dbedff" d="M 16.660156 18.464844 C 16.0625 18.238281 15.644531 18.074219 15.566406 18.046875 C 15.542969 18.039062 15.523438 18.027344 15.503906 18.015625 L 13.636719 19.867188 C 13.445312 20.058594 13.445312 20.367188 13.636719 20.558594 L 14.839844 21.75 C 15.03125 21.941406 15.34375 21.941406 15.535156 21.75 L 16.660156 20.632812 L 16.808594 20.277344 L 16.808594 18.757812 Z M 16.660156 18.464844 " fill-opacity="1" fill-rule="nonzero"/><path fill="#dbedff" d="M 11.445312 19.867188 L 9.566406 18.003906 L 8.421875 18.449219 L 8.308594 18.695312 L 8.308594 20.425781 L 8.421875 20.632812 L 9.546875 21.75 C 9.738281 21.941406 10.050781 21.941406 10.242188 21.75 L 11.445312 20.558594 C 11.636719 20.367188 11.636719 20.058594 11.445312 19.867188 Z M 11.445312 19.867188 " fill-opacity="1" fill-rule="nonzero"/><g clip-path="url(#b7c6566198)"><path fill="#ffaa5b" d="M 33.273438 15.6875 L 32.261719 15.105469 C 32.136719 15.035156 32.070312 14.894531 32.097656 14.753906 C 32.140625 14.503906 32.164062 14.246094 32.164062 13.984375 C 32.164062 13.71875 32.140625 13.460938 32.097656 13.210938 C 32.070312 13.070312 32.136719 12.929688 32.261719 12.859375 L 33.273438 12.277344 C 33.433594 12.1875 33.492188 11.980469 33.398438 11.816406 L 32.378906 10.066406 C 32.285156 9.90625 32.074219 9.847656 31.914062 9.941406 L 30.902344 10.523438 C 30.777344 10.59375 30.621094 10.578125 30.511719 10.488281 C 30.113281 10.15625 29.660156 9.894531 29.164062 9.710938 C 29.050781 9.671875 28.96875 9.574219 28.945312 9.460938 L 28.65625 9.300781 L 26.617188 9.835938 L 24.714844 11.789062 L 24.324219 13.617188 L 24.324219 14.976562 L 24.921875 16.359375 L 25.898438 17.550781 L 27.152344 18.304688 L 28.445312 18.675781 L 28.945312 18.503906 C 28.96875 18.390625 29.050781 18.292969 29.164062 18.253906 C 29.660156 18.070312 30.113281 17.808594 30.511719 17.476562 C 30.621094 17.386719 30.777344 17.371094 30.902344 17.445312 L 31.914062 18.023438 C 32.074219 18.117188 32.285156 18.0625 32.378906 17.898438 L 33.398438 16.148438 C 33.492188 15.988281 33.433594 15.78125 33.273438 15.6875 Z M 27.578125 16.171875 C 26.359375 16.171875 25.375 15.191406 25.375 13.984375 C 25.375 12.773438 26.359375 11.792969 27.578125 11.792969 C 28.796875 11.792969 29.785156 12.773438 29.785156 13.984375 C 29.785156 15.191406 28.796875 16.171875 27.578125 16.171875 Z M 27.578125 16.171875 " fill-opacity="1" fill-rule="nonzero"/></g><path fill="#ff9838" d="M 24.570312 13.984375 C 24.570312 11.546875 26.511719 9.558594 28.945312 9.460938 C 28.941406 9.4375 28.9375 9.417969 28.9375 9.394531 L 28.9375 8.238281 C 28.9375 8.050781 28.785156 7.902344 28.597656 7.902344 L 26.558594 7.902344 C 26.371094 7.902344 26.21875 8.050781 26.21875 8.238281 L 26.21875 9.394531 C 26.21875 9.539062 26.128906 9.664062 25.996094 9.710938 C 25.5 9.894531 25.042969 10.15625 24.644531 10.488281 C 24.535156 10.578125 24.382812 10.59375 24.257812 10.523438 L 23.246094 9.941406 C 23.082031 9.847656 22.875 9.90625 22.78125 10.066406 L 21.761719 11.816406 C 21.667969 11.980469 21.722656 12.1875 21.886719 12.277344 L 22.898438 12.859375 C 23.019531 12.929688 23.085938 13.070312 23.0625 13.210938 C 23.019531 13.460938 22.996094 13.71875 22.996094 13.984375 C 22.996094 14.246094 23.019531 14.503906 23.0625 14.753906 C 23.085938 14.894531 23.023438 15.035156 22.898438 15.105469 L 21.886719 15.6875 C 21.722656 15.78125 21.667969 15.988281 21.761719 16.148438 L 22.78125 17.898438 C 22.875 18.0625 23.082031 18.117188 23.246094 18.023438 L 24.257812 17.445312 C 24.382812 17.371094 24.535156 17.386719 24.644531 17.476562 C 25.042969 17.808594 25.5 18.070312 25.996094 18.253906 C 26.128906 18.300781 26.21875 18.429688 26.21875 18.570312 L 26.21875 19.726562 C 26.21875 19.914062 26.371094 20.066406 26.558594 20.066406 L 28.597656 20.066406 C 28.785156 20.066406 28.9375 19.914062 28.9375 19.726562 L 28.9375 18.570312 C 28.9375 18.546875 28.941406 18.527344 28.945312 18.503906 C 26.511719 18.40625 24.570312 16.421875 24.570312 13.984375 Z M 24.570312 13.984375 " fill-opacity="1" fill-rule="nonzero"/><path fill="#fbc700" d="M 13.691406 0.714844 L 13.683594 0.714844 L 13.683594 0.722656 L 13.449219 1.007812 L 13.449219 6.667969 L 18.757812 6.667969 L 18.828125 6.398438 L 18.828125 5.8125 C 18.828125 2.996094 16.53125 0.714844 13.691406 0.714844 Z M 13.691406 0.714844 " fill-opacity="1" fill-rule="nonzero"/><path fill="#fbc700" d="M 10.910156 1.695312 L 9.722656 3.253906 L 9.113281 4.765625 L 9.113281 6.667969 L 11.625 6.667969 L 11.625 1.332031 Z M 10.910156 1.695312 " fill-opacity="1" fill-rule="nonzero"/><path fill="#eab900" d="M 9.3125 5.8125 C 9.3125 4.03125 10.230469 2.464844 11.625 1.554688 L 11.625 1.0625 L 11.398438 0.714844 L 11.390625 0.714844 C 8.554688 0.714844 6.253906 2.996094 6.253906 5.8125 L 6.253906 6.398438 L 6.632812 6.667969 L 9.691406 6.667969 L 9.3125 6.398438 Z M 9.3125 5.8125 " fill-opacity="1" fill-rule="nonzero"/><path fill="#ffe02f" d="M 13.179688 0.0117188 L 13.035156 0.0117188 L 12.746094 0.21875 L 12.585938 0.496094 L 12.585938 6.507812 L 13.390625 6.507812 L 13.683594 6.398438 L 13.683594 0.609375 C 13.683594 0.308594 13.46875 0.0625 13.179688 0.0117188 Z M 13.179688 0.0117188 " fill-opacity="1" fill-rule="nonzero"/><path fill="#ffd500" d="M 12.675781 0.609375 C 12.675781 0.308594 12.894531 0.0625 13.179688 0.0117188 C 13.144531 0.00390625 13.109375 0 13.070312 0 L 12.011719 0 C 11.671875 0 11.398438 0.273438 11.398438 0.609375 L 11.398438 6.398438 L 11.683594 6.507812 L 12.964844 6.507812 L 12.675781 6.398438 Z M 12.675781 0.609375 " fill-opacity="1" fill-rule="nonzero"/><path fill="#ffe02f" d="M 8.828125 7.675781 C 8.546875 7.675781 8.320312 7.449219 8.320312 7.171875 L 8.320312 0.714844 C 8.320312 0.433594 8.546875 0.207031 8.828125 0.207031 C 9.109375 0.207031 9.335938 0.433594 9.335938 0.714844 L 9.335938 7.171875 C 9.335938 7.449219 9.109375 7.675781 8.828125 7.675781 Z M 8.828125 7.675781 " fill-opacity="1" fill-rule="nonzero"/><path fill="#ffe02f" d="M 16.253906 7.675781 C 15.972656 7.675781 15.746094 7.449219 15.746094 7.171875 L 15.746094 0.714844 C 15.746094 0.433594 15.972656 0.207031 16.253906 0.207031 C 16.535156 0.207031 16.765625 0.433594 16.765625 0.714844 L 16.765625 7.171875 C 16.765625 7.449219 16.535156 7.675781 16.253906 7.675781 Z M 16.253906 7.675781 " fill-opacity="1" fill-rule="nonzero"/><path fill="#ffe02f" d="M 19.660156 6.398438 L 8.089844 6.398438 L 7.917969 6.449219 L 7.722656 6.59375 L 7.535156 6.804688 L 7.535156 8.148438 L 7.578125 8.335938 L 7.859375 8.589844 L 8.011719 8.671875 L 19.660156 8.671875 C 20 8.671875 20.277344 8.398438 20.277344 8.058594 L 20.277344 7.007812 C 20.273438 6.671875 20 6.398438 19.660156 6.398438 Z M 19.660156 6.398438 " fill-opacity="1" fill-rule="nonzero"/><path fill="#ffd500" d="M 7.636719 8.058594 L 7.636719 7.007812 C 7.636719 6.671875 7.910156 6.398438 8.25 6.398438 L 5.421875 6.398438 C 5.082031 6.398438 4.808594 6.671875 4.808594 7.007812 L 4.808594 8.058594 C 4.808594 8.398438 5.082031 8.671875 5.421875 8.671875 L 8.25 8.671875 C 7.910156 8.671875 7.636719 8.398438 7.636719 8.058594 Z M 7.636719 8.058594 " fill-opacity="1" fill-rule="nonzero"/><g clip-path="url(#a8a671f05e)"><path fill="#ffe02f" d="M 12.300781 30.800781 L 12.300781 33.1875 L 12.542969 33.5 L 21.105469 33.5 L 21.105469 30.941406 L 20.867188 30.800781 Z M 12.300781 30.800781 " fill-opacity="1" fill-rule="nonzero"/></g><path fill="#ffe02f" d="M 20.875 28.054688 L 21.097656 27.839844 C 21.058594 27.230469 20.816406 26.648438 20.414062 26.183594 C 19.964844 25.671875 19.71875 25.015625 19.71875 24.335938 L 19.71875 19.640625 C 18.652344 19.230469 17.488281 18.785156 16.660156 18.464844 L 16.660156 22.839844 C 16.660156 23.285156 16.449219 23.707031 16.09375 23.980469 L 12.542969 26.671875 L 12.300781 26.875 L 12.300781 28.054688 Z M 20.875 28.054688 " fill-opacity="1" fill-rule="nonzero"/><path fill="#ffaa5b" d="M 21.097656 27.839844 L 12.542969 27.839844 L 12.300781 27.996094 L 12.300781 30.742188 L 12.542969 30.941406 L 21.105469 30.941406 L 21.105469 28.03125 C 21.105469 27.964844 21.101562 27.902344 21.097656 27.839844 Z M 21.097656 27.839844 " fill-opacity="1" fill-rule="nonzero"/><g clip-path="url(#92e4d24a46)"><path fill="#fbc700" d="M 8.457031 30.800781 L 8.457031 33.253906 L 8.648438 33.5 L 12.542969 33.5 L 12.542969 30.800781 Z M 8.457031 30.800781 " fill-opacity="1" fill-rule="nonzero"/></g><g clip-path="url(#5581cfd891)"><path fill="#eab900" d="M 8.648438 30.800781 L 4.1875 30.800781 L 3.976562 30.941406 L 3.976562 33.5 L 8.648438 33.5 Z M 8.648438 30.800781 " fill-opacity="1" fill-rule="nonzero"/></g><path fill="#fbc700" d="M 8.988281 23.976562 C 8.851562 23.875 8.738281 23.75 8.648438 23.609375 L 8.457031 23.929688 L 8.457031 28.054688 L 12.542969 28.054688 L 12.542969 26.671875 Z M 8.988281 23.976562 " fill-opacity="1" fill-rule="nonzero"/><path fill="#eab900" d="M 8.648438 23.609375 C 8.503906 23.382812 8.421875 23.117188 8.421875 22.839844 L 8.421875 18.449219 L 5.363281 19.632812 L 5.363281 24.335938 C 5.363281 25.015625 5.117188 25.671875 4.671875 26.183594 C 4.265625 26.648438 4.027344 27.230469 3.984375 27.839844 L 4.351562 28.054688 L 8.648438 28.054688 Z M 8.648438 23.609375 " fill-opacity="1" fill-rule="nonzero"/><path fill="#ff9838" d="M 8.457031 27.839844 L 12.542969 27.839844 L 12.542969 30.941406 L 8.457031 30.941406 Z M 8.457031 27.839844 " fill-opacity="1" fill-rule="nonzero"/><path fill="#ff8706" d="M 8.648438 27.839844 L 3.984375 27.839844 C 3.980469 27.902344 3.976562 27.964844 3.976562 28.03125 L 3.976562 30.941406 L 8.648438 30.941406 Z M 8.648438 27.839844 " fill-opacity="1" fill-rule="nonzero"/></svg>