<svg xmlns="http://www.w3.org/2000/svg" xmlns:xlink="http://www.w3.org/1999/xlink" width="45" zoomAndPan="magnify" viewBox="0 0 33.75 33.749998" height="45" preserveAspectRatio="xMidYMid meet" version="1.0"><defs><clipPath id="6ca76094d2"><path d="M 26 0 L 32.757812 0 L 32.757812 33.5 L 26 33.5 Z M 26 0 " clip-rule="nonzero"/></clipPath><clipPath id="59737bfd78"><path d="M 17 11 L 24 11 L 24 33.5 L 17 33.5 Z M 17 11 " clip-rule="nonzero"/></clipPath><clipPath id="ead5fd0d8e"><path d="M 8 17 L 16 17 L 16 33.5 L 8 33.5 Z M 8 17 " clip-rule="nonzero"/></clipPath><clipPath id="0359e5421b"><path d="M 0 20 L 7 20 L 7 33.5 L 0 33.5 Z M 0 20 " clip-rule="nonzero"/></clipPath></defs><g clip-path="url(#6ca76094d2)"><path fill="#000000" d="M 32.722656 0.390625 C 32.699219 0.324219 32.664062 0.265625 32.621094 0.214844 C 32.605469 0.195312 32.585938 0.183594 32.570312 0.171875 C 32.535156 0.136719 32.5 0.105469 32.453125 0.0820312 C 32.445312 0.078125 32.4375 0.0664062 32.429688 0.0625 C 32.414062 0.0546875 32.394531 0.0585938 32.378906 0.0507812 C 32.355469 0.0429688 32.335938 0.0273438 32.308594 0.0234375 C 32.289062 0.015625 32.269531 0.0195312 32.25 0.0195312 C 32.222656 0.015625 32.195312 0.015625 32.164062 0.015625 C 32.121094 0.015625 32.082031 0.0234375 32.039062 0.0351562 C 32.015625 0.0390625 31.988281 0.046875 31.964844 0.0546875 C 31.921875 0.0742188 31.886719 0.0976562 31.847656 0.125 C 31.828125 0.140625 31.808594 0.148438 31.792969 0.167969 C 31.742188 0.214844 31.695312 0.269531 31.664062 0.335938 C 30.3125 3.203125 28.566406 5.890625 26.480469 8.332031 C 26.433594 8.386719 26.398438 8.453125 26.375 8.519531 C 26.367188 8.546875 26.363281 8.574219 26.359375 8.597656 C 26.355469 8.636719 26.339844 8.671875 26.339844 8.707031 L 26.339844 32.917969 C 26.339844 33.234375 26.597656 33.492188 26.914062 33.492188 L 32.183594 33.492188 C 32.5 33.492188 32.757812 33.234375 32.757812 32.917969 L 32.757812 0.585938 C 32.757812 0.519531 32.746094 0.453125 32.722656 0.390625 Z M 31.609375 32.339844 L 27.488281 32.339844 L 27.488281 8.921875 C 27.535156 8.867188 27.574219 8.8125 27.621094 8.757812 C 27.914062 8.40625 28.199219 8.050781 28.480469 7.691406 C 28.5625 7.585938 28.644531 7.476562 28.726562 7.371094 C 29.050781 6.945312 29.363281 6.519531 29.664062 6.082031 C 29.710938 6.015625 29.757812 5.945312 29.800781 5.878906 C 30.0625 5.496094 30.316406 5.109375 30.5625 4.71875 C 30.636719 4.597656 30.714844 4.480469 30.789062 4.359375 C 31.066406 3.90625 31.335938 3.449219 31.59375 2.988281 C 31.597656 2.980469 31.605469 2.972656 31.609375 2.964844 Z M 31.609375 32.339844 " fill-opacity="1" fill-rule="nonzero"/></g><g clip-path="url(#59737bfd78)"><path fill="#000000" d="M 23.933594 12.085938 C 23.914062 12.03125 23.882812 11.980469 23.847656 11.9375 C 23.84375 11.929688 23.839844 11.917969 23.832031 11.910156 C 23.828125 11.90625 23.820312 11.902344 23.8125 11.894531 C 23.769531 11.851562 23.722656 11.816406 23.671875 11.789062 C 23.664062 11.785156 23.65625 11.777344 23.644531 11.773438 C 23.644531 11.769531 23.640625 11.769531 23.640625 11.769531 C 23.582031 11.742188 23.519531 11.726562 23.453125 11.722656 C 23.4375 11.71875 23.421875 11.722656 23.40625 11.722656 C 23.355469 11.722656 23.304688 11.730469 23.253906 11.742188 C 23.238281 11.746094 23.21875 11.75 23.199219 11.757812 C 23.136719 11.78125 23.078125 11.816406 23.023438 11.863281 C 21.421875 13.285156 19.675781 14.566406 17.839844 15.679688 C 17.78125 15.714844 17.730469 15.761719 17.691406 15.816406 C 17.679688 15.828125 17.667969 15.839844 17.660156 15.855469 C 17.625 15.910156 17.59375 15.96875 17.578125 16.03125 C 17.578125 16.035156 17.578125 16.042969 17.578125 16.050781 C 17.566406 16.089844 17.5625 16.128906 17.5625 16.171875 L 17.5625 32.917969 C 17.5625 33.234375 17.816406 33.492188 18.136719 33.492188 L 23.402344 33.492188 C 23.722656 33.492188 23.976562 33.234375 23.976562 32.917969 L 23.976562 12.292969 C 23.976562 12.234375 23.96875 12.175781 23.949219 12.117188 C 23.945312 12.105469 23.9375 12.097656 23.933594 12.085938 Z M 22.828125 32.339844 L 18.710938 32.339844 L 18.710938 16.5 C 19.082031 16.269531 19.449219 16.035156 19.8125 15.789062 C 19.859375 15.757812 19.910156 15.722656 19.960938 15.6875 C 20.328125 15.441406 20.6875 15.1875 21.046875 14.925781 C 21.171875 14.832031 21.296875 14.738281 21.421875 14.644531 C 21.714844 14.425781 22.003906 14.203125 22.285156 13.976562 C 22.40625 13.882812 22.523438 13.789062 22.640625 13.695312 C 22.703125 13.644531 22.765625 13.597656 22.828125 13.546875 Z M 22.828125 32.339844 " fill-opacity="1" fill-rule="nonzero"/></g><g clip-path="url(#ead5fd0d8e)"><path fill="#000000" d="M 15.191406 17.996094 C 15.1875 17.933594 15.171875 17.875 15.148438 17.820312 C 15.144531 17.8125 15.148438 17.804688 15.144531 17.796875 C 15.140625 17.789062 15.136719 17.789062 15.136719 17.785156 C 15.105469 17.726562 15.066406 17.671875 15.019531 17.625 C 15.007812 17.613281 14.996094 17.605469 14.984375 17.597656 C 14.964844 17.582031 14.949219 17.5625 14.929688 17.550781 C 14.902344 17.535156 14.871094 17.519531 14.839844 17.507812 C 14.828125 17.503906 14.820312 17.5 14.8125 17.496094 C 14.75 17.472656 14.6875 17.464844 14.621094 17.464844 C 14.609375 17.464844 14.59375 17.464844 14.578125 17.46875 C 14.511719 17.472656 14.445312 17.484375 14.378906 17.515625 C 12.730469 18.285156 10.988281 18.9375 9.195312 19.453125 C 9.125 19.472656 9.066406 19.507812 9.011719 19.550781 C 8.992188 19.5625 8.976562 19.578125 8.960938 19.597656 C 8.929688 19.628906 8.898438 19.664062 8.875 19.703125 C 8.859375 19.722656 8.847656 19.746094 8.839844 19.765625 C 8.820312 19.808594 8.808594 19.847656 8.796875 19.894531 C 8.792969 19.917969 8.789062 19.941406 8.785156 19.96875 C 8.785156 19.980469 8.78125 19.992188 8.78125 20.007812 L 8.78125 32.917969 C 8.78125 33.234375 9.035156 33.492188 9.355469 33.492188 L 14.621094 33.492188 C 14.941406 33.492188 15.195312 33.234375 15.195312 32.917969 L 15.195312 18.039062 C 15.195312 18.035156 15.195312 18.03125 15.195312 18.027344 C 15.195312 18.015625 15.191406 18.007812 15.191406 17.996094 Z M 14.046875 32.339844 L 9.929688 32.339844 L 9.929688 20.441406 C 10.019531 20.414062 10.105469 20.378906 10.191406 20.351562 C 10.734375 20.183594 11.269531 20.007812 11.796875 19.816406 C 11.898438 19.78125 12.003906 19.746094 12.105469 19.710938 C 12.703125 19.488281 13.296875 19.25 13.878906 19 C 13.933594 18.976562 13.992188 18.953125 14.046875 18.929688 Z M 14.046875 32.339844 " fill-opacity="1" fill-rule="nonzero"/></g><g clip-path="url(#0359e5421b)"><path fill="#000000" d="M 6.40625 20.730469 C 6.402344 20.703125 6.386719 20.679688 6.375 20.65625 C 6.367188 20.621094 6.355469 20.59375 6.339844 20.5625 C 6.316406 20.519531 6.285156 20.480469 6.25 20.445312 C 6.234375 20.429688 6.226562 20.410156 6.210938 20.394531 C 6.203125 20.390625 6.195312 20.386719 6.1875 20.382812 C 6.144531 20.351562 6.097656 20.328125 6.046875 20.308594 C 6.023438 20.300781 6 20.285156 5.976562 20.28125 C 5.902344 20.261719 5.820312 20.257812 5.738281 20.269531 C 4.007812 20.59375 2.261719 20.792969 0.550781 20.863281 C 0.472656 20.863281 0.398438 20.882812 0.332031 20.914062 C 0.308594 20.925781 0.289062 20.945312 0.265625 20.960938 C 0.230469 20.988281 0.1875 21.011719 0.15625 21.042969 C 0.136719 21.0625 0.125 21.09375 0.109375 21.117188 C 0.0859375 21.152344 0.0585938 21.1875 0.0429688 21.226562 C 0.03125 21.257812 0.03125 21.289062 0.0234375 21.320312 C 0.015625 21.359375 0 21.398438 0 21.4375 L 0 32.917969 C 0 33.234375 0.257812 33.492188 0.574219 33.492188 L 5.84375 33.492188 C 6.160156 33.492188 6.417969 33.234375 6.417969 32.917969 L 6.417969 20.839844 C 6.417969 20.820312 6.410156 20.808594 6.40625 20.792969 C 6.40625 20.773438 6.410156 20.753906 6.40625 20.730469 Z M 5.269531 32.339844 L 1.148438 32.339844 L 1.148438 21.988281 C 1.226562 21.984375 1.304688 21.976562 1.378906 21.96875 C 1.957031 21.933594 2.539062 21.886719 3.121094 21.824219 C 3.15625 21.820312 3.191406 21.816406 3.226562 21.8125 C 3.835938 21.746094 4.449219 21.65625 5.0625 21.554688 C 5.128906 21.542969 5.199219 21.539062 5.269531 21.527344 Z M 5.269531 32.339844 " fill-opacity="1" fill-rule="nonzero"/></g><path fill="#000000" d="M 26.8125 5.007812 L 27.574219 0.6875 C 27.574219 0.683594 27.574219 0.683594 27.574219 0.683594 C 27.578125 0.671875 27.574219 0.664062 27.578125 0.65625 C 27.585938 0.597656 27.582031 0.539062 27.570312 0.484375 C 27.566406 0.464844 27.5625 0.445312 27.558594 0.425781 C 27.542969 0.375 27.523438 0.332031 27.496094 0.289062 C 27.488281 0.273438 27.480469 0.257812 27.472656 0.246094 C 27.4375 0.195312 27.394531 0.152344 27.34375 0.113281 C 27.339844 0.109375 27.332031 0.109375 27.324219 0.105469 C 27.320312 0.101562 27.320312 0.0976562 27.316406 0.0976562 C 27.304688 0.0898438 27.292969 0.0898438 27.285156 0.0859375 C 27.234375 0.0585938 27.1875 0.0390625 27.132812 0.0273438 C 27.113281 0.0234375 27.097656 0.0195312 27.078125 0.015625 C 26.960938 0 26.839844 0.0195312 26.730469 0.0820312 L 22.917969 2.226562 C 22.640625 2.378906 22.542969 2.734375 22.699219 3.011719 C 22.851562 3.289062 23.203125 3.390625 23.480469 3.230469 L 25.144531 2.296875 C 22.601562 5.773438 19.410156 8.78125 15.785156 11.066406 C 10 14.710938 4.292969 15.855469 0.527344 16.175781 C 0.210938 16.203125 -0.0234375 16.480469 0 16.800781 C 0.0273438 17.101562 0.277344 17.328125 0.574219 17.328125 C 0.589844 17.328125 0.605469 17.328125 0.621094 17.328125 C 4.519531 16.996094 10.417969 15.8125 16.398438 12.042969 C 20.101562 9.710938 23.371094 6.640625 25.984375 3.097656 L 25.679688 4.804688 C 25.625 5.121094 25.835938 5.417969 26.148438 5.472656 C 26.179688 5.480469 26.214844 5.484375 26.246094 5.484375 C 26.519531 5.484375 26.761719 5.285156 26.8125 5.007812 Z M 26.8125 5.007812 " fill-opacity="1" fill-rule="nonzero"/></svg>