<svg xmlns="http://www.w3.org/2000/svg" xmlns:xlink="http://www.w3.org/1999/xlink" width="45" zoomAndPan="magnify" viewBox="0 0 33.75 33.749998" height="45" preserveAspectRatio="xMidYMid meet" version="1.0"><defs><clipPath id="a741a934a5"><path d="M 0 0 L 33.5 0 L 33.5 33.5 L 0 33.5 Z M 0 0 " clip-rule="nonzero"/></clipPath></defs><g clip-path="url(#a741a934a5)"><path fill="#ffffff" d="M 33.230469 15.90625 C 33.074219 15.839844 32.898438 15.878906 32.777344 15.996094 L 26.328125 22.445312 L 26.328125 11.15625 L 26.550781 11.300781 C 26.789062 11.464844 27.0625 11.539062 27.332031 11.539062 C 27.789062 11.539062 28.242188 11.316406 28.511719 10.910156 C 28.722656 10.597656 28.796875 10.21875 28.722656 9.847656 C 28.648438 9.476562 28.433594 9.15625 28.121094 8.945312 L 15.164062 0.308594 C 14.695312 -0.00390625 14.113281 -0.00390625 13.644531 0.308594 L 0.691406 8.945312 C 0.378906 9.15625 0.164062 9.476562 0.0898438 9.847656 C 0.015625 10.21875 0.0898438 10.597656 0.300781 10.910156 C 0.734375 11.558594 1.613281 11.734375 2.261719 11.304688 L 2.484375 11.15625 L 2.484375 27.523438 C 2.484375 28.269531 3.089844 28.875 3.835938 28.875 L 19.898438 28.875 L 15.984375 32.792969 C 15.863281 32.910156 15.828125 33.089844 15.890625 33.246094 C 15.957031 33.402344 16.109375 33.5 16.277344 33.5 L 33.070312 33.5 C 33.300781 33.5 33.488281 33.316406 33.488281 33.085938 L 33.488281 16.289062 C 33.488281 16.121094 33.386719 15.972656 33.230469 15.90625 Z M 1.800781 10.609375 C 1.535156 10.789062 1.167969 10.714844 0.992188 10.449219 C 0.8125 10.179688 0.886719 9.816406 1.152344 9.640625 L 14.105469 1.003906 C 14.292969 0.878906 14.515625 0.878906 14.703125 1.003906 L 27.65625 9.640625 C 27.925781 9.816406 28 10.179688 27.820312 10.449219 C 27.640625 10.714844 27.277344 10.789062 27.011719 10.609375 L 14.636719 2.359375 C 14.566406 2.3125 14.488281 2.289062 14.40625 2.289062 C 14.324219 2.289062 14.246094 2.3125 14.175781 2.359375 Z M 3.835938 28.042969 C 3.546875 28.042969 3.316406 27.808594 3.316406 27.523438 L 3.316406 10.601562 L 14.40625 3.207031 L 25.496094 10.601562 L 25.496094 23.277344 L 20.730469 28.042969 Z M 32.65625 32.667969 L 31.878906 32.667969 L 31.878906 31.886719 C 31.878906 31.65625 31.691406 31.46875 31.464844 31.46875 C 31.234375 31.46875 31.046875 31.65625 31.046875 31.886719 L 31.046875 32.667969 L 29.804688 32.667969 L 29.804688 32.1875 C 29.804688 31.957031 29.617188 31.769531 29.386719 31.769531 C 29.15625 31.769531 28.972656 31.957031 28.972656 32.1875 L 28.972656 32.667969 L 27.714844 32.667969 L 27.714844 31.886719 C 27.714844 31.65625 27.527344 31.46875 27.296875 31.46875 C 27.070312 31.46875 26.882812 31.65625 26.882812 31.886719 L 26.882812 32.667969 L 25.632812 32.667969 L 25.632812 32.1875 C 25.632812 31.957031 25.445312 31.769531 25.214844 31.769531 C 24.984375 31.769531 24.796875 31.957031 24.796875 32.1875 L 24.796875 32.667969 L 23.546875 32.667969 L 23.546875 31.886719 C 23.546875 31.65625 23.359375 31.46875 23.132812 31.46875 C 22.902344 31.46875 22.714844 31.65625 22.714844 31.886719 L 22.714844 32.667969 L 21.457031 32.667969 L 21.457031 32.1875 C 21.457031 31.957031 21.273438 31.769531 21.042969 31.769531 C 20.8125 31.769531 20.625 31.957031 20.625 32.1875 L 20.625 32.667969 L 19.382812 32.667969 L 19.382812 31.886719 C 19.382812 31.65625 19.195312 31.46875 18.964844 31.46875 C 18.738281 31.46875 18.550781 31.65625 18.550781 31.886719 L 18.550781 32.667969 L 17.28125 32.667969 L 32.65625 17.296875 Z M 23.019531 30.707031 L 30.277344 30.707031 C 30.507812 30.707031 30.695312 30.523438 30.695312 30.292969 L 30.695312 23.035156 C 30.695312 22.867188 30.59375 22.714844 30.4375 22.648438 C 30.28125 22.585938 30.105469 22.621094 29.984375 22.742188 L 22.726562 30 C 22.605469 30.117188 22.570312 30.296875 22.636719 30.453125 C 22.699219 30.605469 22.851562 30.707031 23.019531 30.707031 Z M 29.863281 24.039062 L 29.863281 29.875 L 24.023438 29.875 Z M 9.921875 17.160156 L 8.109375 17.160156 L 8.109375 15.21875 L 9.441406 15.21875 C 9.578125 15.21875 9.710938 15.148438 9.785156 15.03125 C 9.863281 14.914062 9.878906 14.769531 9.824219 14.640625 L 8.835938 12.257812 C 8.769531 12.101562 8.617188 12.003906 8.449219 12.003906 L 6.933594 12.003906 C 6.765625 12.003906 6.613281 12.101562 6.546875 12.257812 L 5.558594 14.640625 C 5.503906 14.769531 5.519531 14.917969 5.59375 15.03125 C 5.671875 15.148438 5.800781 15.21875 5.941406 15.21875 L 7.273438 15.21875 L 7.273438 17.160156 L 5.460938 17.160156 C 5.230469 17.160156 5.042969 17.347656 5.042969 17.574219 L 5.042969 21.597656 C 5.042969 21.828125 5.230469 22.015625 5.460938 22.015625 L 9.921875 22.015625 C 10.152344 22.015625 10.339844 21.828125 10.339844 21.597656 L 10.339844 17.574219 C 10.339844 17.347656 10.152344 17.160156 9.921875 17.160156 Z M 7.210938 12.835938 L 8.171875 12.835938 L 8.816406 14.386719 L 6.566406 14.386719 Z M 9.507812 21.183594 L 5.875 21.183594 L 5.875 17.992188 L 9.507812 17.992188 Z M 22.226562 16.082031 C 22.167969 16.082031 22.109375 16.085938 22.050781 16.09375 C 21.132812 14.410156 19.347656 13.339844 17.414062 13.339844 C 15.484375 13.339844 13.699219 14.410156 12.78125 16.09375 C 12.722656 16.089844 12.664062 16.082031 12.605469 16.082031 C 11.753906 16.082031 11.0625 16.777344 11.0625 17.628906 L 11.0625 20.515625 C 11.0625 21.367188 11.753906 22.0625 12.605469 22.0625 C 12.769531 22.0625 12.925781 22.035156 13.074219 21.988281 L 21.757812 21.988281 C 21.90625 22.035156 22.0625 22.0625 22.222656 22.0625 C 23.074219 22.0625 23.769531 21.367188 23.769531 20.515625 L 23.769531 17.628906 C 23.769531 16.777344 23.078125 16.082031 22.226562 16.082031 Z M 14.148438 20.515625 L 14.148438 18.542969 L 20.679688 18.542969 L 20.679688 20.515625 C 20.679688 20.746094 20.730469 20.960938 20.820312 21.15625 L 14.011719 21.15625 C 14.101562 20.960938 14.148438 20.746094 14.148438 20.515625 Z M 17.414062 14.171875 C 19.011719 14.171875 20.488281 15.039062 21.273438 16.414062 C 20.914062 16.695312 20.679688 17.136719 20.679688 17.628906 L 20.679688 17.710938 L 14.148438 17.710938 L 14.148438 17.628906 C 14.148438 17.136719 13.917969 16.695312 13.554688 16.414062 C 14.339844 15.039062 15.816406 14.171875 17.414062 14.171875 Z M 11.894531 20.515625 L 11.894531 17.628906 C 11.894531 17.234375 12.210938 16.914062 12.605469 16.914062 C 12.996094 16.914062 13.316406 17.234375 13.316406 17.628906 L 13.316406 20.515625 C 13.316406 20.910156 12.996094 21.230469 12.605469 21.230469 C 12.210938 21.230469 11.894531 20.910156 11.894531 20.515625 Z M 22.9375 20.515625 C 22.9375 20.910156 22.617188 21.230469 22.226562 21.230469 C 21.832031 21.230469 21.511719 20.910156 21.511719 20.515625 L 21.511719 17.628906 C 21.511719 17.234375 21.832031 16.914062 22.226562 16.914062 C 22.617188 16.914062 22.9375 17.234375 22.9375 17.628906 Z M 33.488281 3.769531 C 33.488281 3.730469 33.484375 3.695312 33.472656 3.660156 L 32.59375 0.386719 C 32.546875 0.203125 32.382812 0.078125 32.191406 0.078125 C 32.003906 0.078125 31.839844 0.203125 31.792969 0.386719 L 30.914062 3.660156 C 30.902344 3.695312 30.898438 3.730469 30.898438 3.769531 L 30.898438 13.9375 C 30.898438 14.316406 31.210938 14.628906 31.59375 14.628906 L 32.792969 14.628906 C 33.175781 14.628906 33.488281 14.316406 33.488281 13.9375 Z M 32.191406 2.097656 L 32.53125 3.351562 L 31.859375 3.351562 Z M 32.65625 4.183594 L 32.65625 11.15625 L 31.730469 11.15625 L 31.730469 4.183594 Z M 31.730469 13.796875 L 31.730469 11.988281 L 32.65625 11.988281 L 32.65625 13.796875 Z M 31.730469 13.796875 " fill-opacity="1" fill-rule="nonzero"/></g></svg>