<svg xmlns="http://www.w3.org/2000/svg" xmlns:xlink="http://www.w3.org/1999/xlink" width="45" zoomAndPan="magnify" viewBox="0 0 33.75 33.749998" height="45" preserveAspectRatio="xMidYMid meet" version="1.0"><defs><clipPath id="4587a00675"><path d="M 24 23 L 33.5 23 L 33.5 33 L 24 33 Z M 24 23 " clip-rule="nonzero"/></clipPath><clipPath id="b866ba84db"><path d="M 24 24 L 33.5 24 L 33.5 33.5 L 24 33.5 Z M 24 24 " clip-rule="nonzero"/></clipPath></defs><path fill="#537ec2" d="M 18.738281 32.933594 L 1.714844 32.933594 C 0.777344 32.933594 0.015625 32.171875 0.015625 31.234375 L 0.015625 5.132812 C 0.015625 4.195312 0.777344 3.433594 1.714844 3.433594 L 18.738281 3.433594 C 19.675781 3.433594 20.4375 4.195312 20.4375 5.132812 L 20.4375 31.234375 C 20.4375 32.171875 19.675781 32.933594 18.738281 32.933594 " fill-opacity="1" fill-rule="nonzero"/><path fill="#f0cd81" d="M 18.453125 31.800781 L 2 31.800781 C 1.53125 31.800781 1.148438 31.417969 1.148438 30.949219 L 1.148438 5.417969 C 1.148438 4.949219 1.53125 4.566406 2 4.566406 L 18.453125 4.566406 C 18.921875 4.566406 19.304688 4.949219 19.304688 5.417969 L 19.304688 30.949219 C 19.304688 31.417969 18.921875 31.800781 18.453125 31.800781 " fill-opacity="1" fill-rule="nonzero"/><path fill="#e0802b" d="M 3.417969 11.660156 C 3.261719 11.660156 3.132812 11.785156 3.132812 11.941406 L 3.132812 13.078125 C 3.132812 13.234375 3.261719 13.359375 3.417969 13.359375 L 4.554688 13.359375 C 4.710938 13.359375 4.835938 13.234375 4.835938 13.078125 L 4.835938 11.941406 C 4.835938 11.785156 4.710938 11.660156 4.554688 11.660156 Z M 4.554688 13.929688 L 3.417969 13.929688 C 2.949219 13.929688 2.566406 13.546875 2.566406 13.078125 L 2.566406 11.941406 C 2.566406 11.472656 2.949219 11.089844 3.417969 11.089844 L 4.554688 11.089844 C 5.023438 11.089844 5.402344 11.472656 5.402344 11.941406 L 5.402344 13.078125 C 5.402344 13.546875 5.023438 13.929688 4.554688 13.929688 " fill-opacity="1" fill-rule="nonzero"/><path fill="#03999c" d="M 3.984375 12.792969 C 3.914062 12.792969 3.839844 12.765625 3.785156 12.710938 C 3.675781 12.601562 3.675781 12.421875 3.785156 12.308594 L 5.488281 10.605469 C 5.597656 10.496094 5.777344 10.496094 5.886719 10.605469 C 6 10.71875 6 10.898438 5.886719 11.007812 L 4.1875 12.710938 C 4.128906 12.765625 4.058594 12.792969 3.984375 12.792969 " fill-opacity="1" fill-rule="nonzero"/><path fill="#e0802b" d="M 3.417969 16.765625 C 3.261719 16.765625 3.132812 16.890625 3.132812 17.046875 L 3.132812 18.183594 C 3.132812 18.339844 3.261719 18.46875 3.417969 18.46875 L 4.554688 18.46875 C 4.710938 18.46875 4.835938 18.339844 4.835938 18.183594 L 4.835938 17.046875 C 4.835938 16.890625 4.710938 16.765625 4.554688 16.765625 Z M 4.554688 19.035156 L 3.417969 19.035156 C 2.949219 19.035156 2.566406 18.652344 2.566406 18.183594 L 2.566406 17.046875 C 2.566406 16.578125 2.949219 16.199219 3.417969 16.199219 L 4.554688 16.199219 C 5.023438 16.199219 5.402344 16.578125 5.402344 17.046875 L 5.402344 18.183594 C 5.402344 18.652344 5.023438 19.035156 4.554688 19.035156 " fill-opacity="1" fill-rule="nonzero"/><path fill="#03999c" d="M 3.984375 17.898438 C 3.914062 17.898438 3.839844 17.871094 3.785156 17.816406 C 3.675781 17.707031 3.675781 17.527344 3.785156 17.414062 L 5.488281 15.714844 C 5.597656 15.601562 5.777344 15.601562 5.886719 15.714844 C 6 15.824219 6 16.003906 5.886719 16.113281 L 4.1875 17.816406 C 4.128906 17.871094 4.058594 17.898438 3.984375 17.898438 " fill-opacity="1" fill-rule="nonzero"/><path fill="#e0802b" d="M 3.417969 21.871094 C 3.261719 21.871094 3.132812 22 3.132812 22.15625 L 3.132812 23.289062 C 3.132812 23.445312 3.261719 23.574219 3.417969 23.574219 L 4.554688 23.574219 C 4.710938 23.574219 4.835938 23.445312 4.835938 23.289062 L 4.835938 22.15625 C 4.835938 22 4.710938 21.871094 4.554688 21.871094 Z M 4.554688 24.140625 L 3.417969 24.140625 C 2.949219 24.140625 2.566406 23.757812 2.566406 23.289062 L 2.566406 22.15625 C 2.566406 21.6875 2.949219 21.304688 3.417969 21.304688 L 4.554688 21.304688 C 5.023438 21.304688 5.402344 21.6875 5.402344 22.15625 L 5.402344 23.289062 C 5.402344 23.757812 5.023438 24.140625 4.554688 24.140625 " fill-opacity="1" fill-rule="nonzero"/><path fill="#e0802b" d="M 3.417969 26.976562 C 3.261719 26.976562 3.132812 27.105469 3.132812 27.261719 L 3.132812 28.394531 C 3.132812 28.550781 3.261719 28.679688 3.417969 28.679688 L 4.554688 28.679688 C 4.710938 28.679688 4.835938 28.550781 4.835938 28.394531 L 4.835938 27.261719 C 4.835938 27.105469 4.710938 26.976562 4.554688 26.976562 Z M 4.554688 29.246094 L 3.417969 29.246094 C 2.949219 29.246094 2.566406 28.863281 2.566406 28.394531 L 2.566406 27.261719 C 2.566406 26.792969 2.949219 26.410156 3.417969 26.410156 L 4.554688 26.410156 C 5.023438 26.410156 5.402344 26.792969 5.402344 27.261719 L 5.402344 28.394531 C 5.402344 28.863281 5.023438 29.246094 4.554688 29.246094 " fill-opacity="1" fill-rule="nonzero"/><path fill="#084c4f" d="M 11.359375 12.226562 L 7.957031 12.226562 C 7.800781 12.226562 7.671875 12.097656 7.671875 11.941406 C 7.671875 11.785156 7.800781 11.660156 7.957031 11.660156 L 11.359375 11.660156 C 11.519531 11.660156 11.644531 11.785156 11.644531 11.941406 C 11.644531 12.097656 11.519531 12.226562 11.359375 12.226562 " fill-opacity="1" fill-rule="nonzero"/><path fill="#084c4f" d="M 17.601562 12.226562 L 13.0625 12.226562 C 12.90625 12.226562 12.78125 12.097656 12.78125 11.941406 C 12.78125 11.785156 12.90625 11.660156 13.0625 11.660156 L 17.601562 11.660156 C 17.757812 11.660156 17.886719 11.785156 17.886719 11.941406 C 17.886719 12.097656 17.757812 12.226562 17.601562 12.226562 " fill-opacity="1" fill-rule="nonzero"/><path fill="#084c4f" d="M 9.660156 13.359375 L 6.824219 13.359375 C 6.664062 13.359375 6.539062 13.234375 6.539062 13.078125 C 6.539062 12.921875 6.664062 12.792969 6.824219 12.792969 L 9.660156 12.792969 C 9.816406 12.792969 9.941406 12.921875 9.941406 13.078125 C 9.941406 13.234375 9.816406 13.359375 9.660156 13.359375 " fill-opacity="1" fill-rule="nonzero"/><path fill="#084c4f" d="M 14.199219 13.359375 L 11.359375 13.359375 C 11.203125 13.359375 11.078125 13.234375 11.078125 13.078125 C 11.078125 12.921875 11.203125 12.792969 11.359375 12.792969 L 14.199219 12.792969 C 14.355469 12.792969 14.480469 12.921875 14.480469 13.078125 C 14.480469 13.234375 14.355469 13.359375 14.199219 13.359375 " fill-opacity="1" fill-rule="nonzero"/><path fill="#084c4f" d="M 10.226562 17.332031 L 7.957031 17.332031 C 7.800781 17.332031 7.671875 17.207031 7.671875 17.046875 C 7.671875 16.890625 7.800781 16.765625 7.957031 16.765625 L 10.226562 16.765625 C 10.382812 16.765625 10.511719 16.890625 10.511719 17.046875 C 10.511719 17.207031 10.382812 17.332031 10.226562 17.332031 " fill-opacity="1" fill-rule="nonzero"/><path fill="#084c4f" d="M 17.601562 17.332031 L 11.929688 17.332031 C 11.773438 17.332031 11.644531 17.207031 11.644531 17.046875 C 11.644531 16.890625 11.773438 16.765625 11.929688 16.765625 L 17.601562 16.765625 C 17.757812 16.765625 17.886719 16.890625 17.886719 17.046875 C 17.886719 17.207031 17.757812 17.332031 17.601562 17.332031 " fill-opacity="1" fill-rule="nonzero"/><path fill="#084c4f" d="M 8.523438 18.46875 L 6.824219 18.46875 C 6.664062 18.46875 6.539062 18.339844 6.539062 18.183594 C 6.539062 18.027344 6.664062 17.898438 6.824219 17.898438 L 8.523438 17.898438 C 8.679688 17.898438 8.808594 18.027344 8.808594 18.183594 C 8.808594 18.339844 8.679688 18.46875 8.523438 18.46875 " fill-opacity="1" fill-rule="nonzero"/><path fill="#084c4f" d="M 14.199219 18.46875 L 10.226562 18.46875 C 10.070312 18.46875 9.941406 18.339844 9.941406 18.183594 C 9.941406 18.027344 10.070312 17.898438 10.226562 17.898438 L 14.199219 17.898438 C 14.355469 17.898438 14.480469 18.027344 14.480469 18.183594 C 14.480469 18.339844 14.355469 18.46875 14.199219 18.46875 " fill-opacity="1" fill-rule="nonzero"/><path fill="#084c4f" d="M 10.226562 22.4375 L 7.957031 22.4375 C 7.800781 22.4375 7.671875 22.3125 7.671875 22.15625 C 7.671875 22 7.800781 21.871094 7.957031 21.871094 L 10.226562 21.871094 C 10.382812 21.871094 10.511719 22 10.511719 22.15625 C 10.511719 22.3125 10.382812 22.4375 10.226562 22.4375 " fill-opacity="1" fill-rule="nonzero"/><path fill="#084c4f" d="M 17.601562 22.4375 L 11.929688 22.4375 C 11.773438 22.4375 11.644531 22.3125 11.644531 22.15625 C 11.644531 22 11.773438 21.871094 11.929688 21.871094 L 17.601562 21.871094 C 17.757812 21.871094 17.886719 22 17.886719 22.15625 C 17.886719 22.3125 17.757812 22.4375 17.601562 22.4375 " fill-opacity="1" fill-rule="nonzero"/><path fill="#084c4f" d="M 8.523438 23.574219 L 6.824219 23.574219 C 6.664062 23.574219 6.539062 23.445312 6.539062 23.289062 C 6.539062 23.132812 6.664062 23.007812 6.824219 23.007812 L 8.523438 23.007812 C 8.679688 23.007812 8.808594 23.132812 8.808594 23.289062 C 8.808594 23.445312 8.679688 23.574219 8.523438 23.574219 " fill-opacity="1" fill-rule="nonzero"/><path fill="#084c4f" d="M 14.199219 23.574219 L 10.226562 23.574219 C 10.070312 23.574219 9.941406 23.445312 9.941406 23.289062 C 9.941406 23.132812 10.070312 23.007812 10.226562 23.007812 L 14.199219 23.007812 C 14.355469 23.007812 14.480469 23.132812 14.480469 23.289062 C 14.480469 23.445312 14.355469 23.574219 14.199219 23.574219 " fill-opacity="1" fill-rule="nonzero"/><path fill="#084c4f" d="M 10.226562 27.542969 L 7.957031 27.542969 C 7.800781 27.542969 7.671875 27.417969 7.671875 27.261719 C 7.671875 27.105469 7.800781 26.976562 7.957031 26.976562 L 10.226562 26.976562 C 10.382812 26.976562 10.511719 27.105469 10.511719 27.261719 C 10.511719 27.417969 10.382812 27.542969 10.226562 27.542969 " fill-opacity="1" fill-rule="nonzero"/><path fill="#084c4f" d="M 17.601562 27.542969 L 11.929688 27.542969 C 11.773438 27.542969 11.644531 27.417969 11.644531 27.261719 C 11.644531 27.105469 11.773438 26.976562 11.929688 26.976562 L 17.601562 26.976562 C 17.757812 26.976562 17.886719 27.105469 17.886719 27.261719 C 17.886719 27.417969 17.757812 27.542969 17.601562 27.542969 " fill-opacity="1" fill-rule="nonzero"/><path fill="#084c4f" d="M 8.523438 28.679688 L 6.824219 28.679688 C 6.664062 28.679688 6.539062 28.550781 6.539062 28.394531 C 6.539062 28.238281 6.664062 28.113281 6.824219 28.113281 L 8.523438 28.113281 C 8.679688 28.113281 8.808594 28.238281 8.808594 28.394531 C 8.808594 28.550781 8.679688 28.679688 8.523438 28.679688 " fill-opacity="1" fill-rule="nonzero"/><path fill="#084c4f" d="M 14.199219 28.679688 L 10.226562 28.679688 C 10.070312 28.679688 9.941406 28.550781 9.941406 28.394531 C 9.941406 28.238281 10.070312 28.113281 10.226562 28.113281 L 14.199219 28.113281 C 14.355469 28.113281 14.480469 28.238281 14.480469 28.394531 C 14.480469 28.550781 14.355469 28.679688 14.199219 28.679688 " fill-opacity="1" fill-rule="nonzero"/><path fill="#f57a08" d="M 13.0625 9.671875 L 6.824219 9.671875 C 6.195312 9.671875 5.6875 9.164062 5.6875 8.539062 C 5.6875 7.910156 6.195312 7.402344 6.824219 7.402344 L 13.0625 7.402344 C 13.691406 7.402344 14.199219 7.910156 14.199219 8.539062 C 14.199219 9.164062 13.691406 9.671875 13.0625 9.671875 " fill-opacity="1" fill-rule="nonzero"/><path fill="#084c4f" d="M 8.523438 8.820312 L 6.824219 8.820312 C 6.664062 8.820312 6.539062 8.695312 6.539062 8.539062 C 6.539062 8.382812 6.664062 8.253906 6.824219 8.253906 L 8.523438 8.253906 C 8.679688 8.253906 8.808594 8.382812 8.808594 8.539062 C 8.808594 8.695312 8.679688 8.820312 8.523438 8.820312 " fill-opacity="1" fill-rule="nonzero"/><path fill="#084c4f" d="M 13.0625 8.820312 L 9.660156 8.820312 C 9.503906 8.820312 9.375 8.695312 9.375 8.539062 C 9.375 8.382812 9.503906 8.253906 9.660156 8.253906 L 13.0625 8.253906 C 13.21875 8.253906 13.347656 8.382812 13.347656 8.539062 C 13.347656 8.695312 13.21875 8.820312 13.0625 8.820312 " fill-opacity="1" fill-rule="nonzero"/><path fill="#b1cdb4" d="M 10.226562 1.730469 C 9.914062 1.730469 9.660156 1.476562 9.660156 1.164062 C 9.660156 0.847656 9.914062 0.597656 10.226562 0.597656 C 10.539062 0.597656 10.792969 0.847656 10.792969 1.164062 C 10.792969 1.476562 10.539062 1.730469 10.226562 1.730469 Z M 13.054688 3.441406 C 12.699219 3.085938 12.207031 2.863281 11.664062 2.863281 C 11.472656 2.863281 11.292969 2.777344 11.171875 2.625 L 11.152344 2.597656 C 10.976562 2.378906 10.96875 2.066406 11.136719 1.839844 C 11.277344 1.652344 11.359375 1.417969 11.359375 1.164062 C 11.359375 0.519531 10.828125 0 10.175781 0.03125 C 9.601562 0.0546875 9.125 0.523438 9.09375 1.097656 C 9.078125 1.371094 9.160156 1.625 9.308594 1.828125 C 9.472656 2.058594 9.480469 2.371094 9.300781 2.601562 L 9.28125 2.625 C 9.222656 2.703125 9.144531 2.761719 9.0625 2.804688 C 8.976562 2.84375 8.882812 2.863281 8.789062 2.863281 C 7.703125 2.863281 6.824219 3.746094 6.824219 4.832031 L 6.824219 5.417969 C 6.824219 5.886719 7.203125 6.269531 7.671875 6.269531 L 12.78125 6.269531 C 13.25 6.269531 13.628906 5.886719 13.628906 5.417969 L 13.628906 4.832031 C 13.628906 4.289062 13.410156 3.796875 13.054688 3.441406 " fill-opacity="1" fill-rule="nonzero"/><path fill="#72baaa" d="M 11.929688 4.285156 L 8.523438 4.285156 C 8.367188 4.285156 8.242188 4.15625 8.242188 4 C 8.242188 3.84375 8.367188 3.714844 8.523438 3.714844 L 11.929688 3.714844 C 12.085938 3.714844 12.210938 3.84375 12.210938 4 C 12.210938 4.15625 12.085938 4.285156 11.929688 4.285156 " fill-opacity="1" fill-rule="nonzero"/><path fill="#72baaa" d="M 11.929688 5.417969 L 8.523438 5.417969 C 8.367188 5.417969 8.242188 5.292969 8.242188 5.132812 C 8.242188 4.976562 8.367188 4.851562 8.523438 4.851562 L 11.929688 4.851562 C 12.085938 4.851562 12.210938 4.976562 12.210938 5.132812 C 12.210938 5.292969 12.085938 5.417969 11.929688 5.417969 " fill-opacity="1" fill-rule="nonzero"/><g clip-path="url(#4587a00675)"><path fill="#133852" d="M 33.488281 27.574219 L 33.488281 32.367188 L 26.199219 32.367188 L 24.25 29.128906 L 24.179688 29.011719 C 23.886719 28.386719 24.613281 27.21875 27.222656 25.558594 C 29.882812 23.867188 31.203125 23.71875 31.578125 24.285156 L 31.617188 24.351562 L 31.617188 24.355469 L 33.488281 27.574219 " fill-opacity="1" fill-rule="nonzero"/></g><path fill="#f5a971" d="M 24.386719 21.585938 C 24.386719 19.886719 23.25 18.183594 21.550781 18.183594 C 19.847656 18.183594 18.996094 20.167969 18.429688 21.304688 C 17.863281 22.4375 16.160156 22.15625 16.160156 21.019531 C 16.160156 19.886719 17.011719 19.316406 18.144531 18.183594 C 18.144531 18.183594 20.273438 15.515625 22.472656 15.628906 C 23.890625 15.652344 25.070312 16.222656 25.144531 17.734375 C 25.214844 19.246094 24.386719 21.585938 24.386719 21.585938 " fill-opacity="1" fill-rule="nonzero"/><path fill="#f5a971" d="M 24.667969 23.320312 C 24.667969 21.617188 23.535156 19.914062 21.832031 19.914062 C 20.132812 19.914062 19.492188 22.066406 18.925781 23.199219 C 18.359375 24.335938 16.78125 23.714844 17.238281 22.4375 C 17.59375 21.445312 17.933594 21.019531 19.066406 19.886719 L 20.71875 17.5625 L 25.726562 18.917969 L 24.667969 23.320312 " fill-opacity="1" fill-rule="nonzero"/><path fill="#f5a971" d="M 23.824219 14.140625 L 23.824219 16.960938 C 21.007812 14.832031 17.601562 17.617188 17.601562 17.617188 C 17.035156 18.183594 15.898438 18.183594 15.898438 16.480469 C 15.898438 14.78125 17.035156 13.078125 18.738281 13.078125 C 20.4375 13.078125 22.371094 13.289062 23.824219 14.140625 " fill-opacity="1" fill-rule="nonzero"/><path fill="#f5a971" d="M 31.761719 29.53125 C 31.761719 29.53125 31.195312 27.261719 30.625 24.992188 C 30.058594 22.722656 28.359375 18.183594 26.65625 15.347656 C 24.953125 12.511719 20.980469 11.375 19.28125 11.941406 C 17.578125 12.511719 17.011719 15.347656 17.011719 15.914062 C 17.011719 16.480469 18.144531 17.046875 19.28125 15.347656 C 20.414062 13.644531 20.980469 13.644531 22.683594 15.347656 C 24.386719 17.046875 23.820312 21.585938 22.117188 21.585938 C 20.414062 21.585938 19.28125 20.453125 19.28125 18.75 C 19.28125 17.046875 17.011719 17.046875 17.011719 18.75 C 17.011719 20.453125 17.578125 22.722656 19.847656 24.425781 C 22.117188 26.125 25.519531 26.125 27.222656 28.964844 L 27.46875 29.441406 L 31.761719 29.53125 " fill-opacity="1" fill-rule="nonzero"/><path fill="#03999c" d="M 14.171875 19.316406 L 15.875 17.046875 L 27.789062 11.375 L 28.9375 13.667969 L 17.011719 19.316406 L 14.171875 19.316406 " fill-opacity="1" fill-rule="nonzero"/><path fill="#03999c" d="M 28.054688 11.90625 L 29.96875 11 L 30.597656 12.253906 L 28.683594 13.160156 L 28.054688 11.90625 " fill-opacity="1" fill-rule="nonzero"/><path fill="#72baaa" d="M 17.011719 19.316406 L 15.875 17.046875 L 14.171875 19.316406 Z M 17.011719 19.316406 " fill-opacity="1" fill-rule="nonzero"/><path fill="#f5a971" d="M 23.320312 16.328125 C 24.179688 18.359375 23.550781 21.585938 22.117188 21.585938 C 20.414062 21.585938 19.28125 20.453125 19.28125 18.75 C 19.28125 17.046875 17.011719 17.046875 17.011719 18.75 C 17.011719 20.453125 17.578125 22.722656 19.847656 24.425781 C 22.117188 26.125 25.519531 26.125 27.222656 28.964844 L 27.46875 29.441406 L 31.761719 29.53125 C 31.761719 29.53125 31.195312 27.261719 30.625 24.992188 C 30.058594 22.722656 28.359375 18.183594 26.65625 15.347656 C 26.5625 15.191406 26.460938 15.039062 26.351562 14.890625 L 23.320312 16.328125 " fill-opacity="1" fill-rule="nonzero"/><path fill="#f5a971" d="M 24.320312 13.050781 C 22.523438 11.9375 20.40625 11.566406 19.28125 11.941406 C 17.578125 12.511719 17.011719 15.347656 17.011719 15.914062 C 17.011719 16.480469 18.144531 17.046875 19.28125 15.347656 C 20.117188 14.089844 20.644531 13.761719 21.550781 14.359375 L 24.320312 13.050781 " fill-opacity="1" fill-rule="nonzero"/><path fill="#e37066" d="M 16.824219 16.570312 C 16.871094 16.570312 16.921875 16.558594 16.964844 16.53125 C 17.101562 16.457031 17.148438 16.28125 17.074219 16.144531 C 17.03125 16.074219 17.011719 15.996094 17.011719 15.914062 C 17.011719 15.625 17.140625 14.878906 17.429688 14.121094 C 17.488281 13.972656 17.414062 13.808594 17.265625 13.753906 C 17.121094 13.699219 16.957031 13.769531 16.902344 13.917969 C 16.601562 14.707031 16.441406 15.519531 16.441406 15.914062 C 16.441406 16.089844 16.488281 16.265625 16.578125 16.421875 C 16.628906 16.515625 16.726562 16.570312 16.824219 16.570312 " fill-opacity="1" fill-rule="nonzero"/><path fill="#e37066" d="M 17.453125 22 C 17.597656 21.9375 17.664062 21.769531 17.601562 21.625 C 17.363281 21.082031 17.195312 20.5 17.101562 19.894531 C 17.074219 19.742188 16.929688 19.636719 16.777344 19.660156 C 16.621094 19.683594 16.515625 19.828125 16.539062 19.984375 C 16.640625 20.636719 16.824219 21.265625 17.082031 21.851562 C 17.125 21.960938 17.230469 22.023438 17.339844 22.023438 C 17.378906 22.023438 17.417969 22.015625 17.453125 22 " fill-opacity="1" fill-rule="nonzero"/><path fill="#e37066" d="M 17.851562 22.140625 C 17.777344 22.003906 17.605469 21.953125 17.46875 22.027344 C 17.328125 22.101562 17.277344 22.273438 17.351562 22.414062 C 17.578125 22.832031 17.847656 23.230469 18.15625 23.597656 C 18.210938 23.667969 18.292969 23.699219 18.375 23.699219 C 18.4375 23.699219 18.5 23.679688 18.554688 23.636719 C 18.675781 23.535156 18.691406 23.355469 18.589844 23.238281 C 18.308594 22.894531 18.0625 22.527344 17.851562 22.140625 " fill-opacity="1" fill-rule="nonzero"/><path fill="#e37066" d="M 22.953125 19.871094 C 22.601562 19.710938 22.226562 19.628906 21.832031 19.628906 C 21.273438 19.628906 20.765625 19.835938 20.320312 20.246094 C 20.117188 19.996094 19.980469 19.691406 19.90625 19.34375 C 20.410156 18.753906 20.949219 18.46875 21.550781 18.46875 C 22.125 18.46875 22.65625 18.6875 23.097656 19.109375 C 23.066406 19.382812 23.015625 19.640625 22.953125 19.871094 Z M 23.433594 16.625 C 23.382812 16.476562 23.222656 16.398438 23.074219 16.449219 C 22.925781 16.496094 22.847656 16.660156 22.898438 16.808594 C 23.070312 17.324219 23.140625 17.878906 23.140625 18.410156 C 22.667969 18.074219 22.125 17.898438 21.550781 17.898438 C 20.929688 17.898438 20.359375 18.136719 19.839844 18.601562 C 19.835938 18.527344 19.832031 18.457031 19.820312 18.390625 C 19.816406 18.371094 19.8125 18.355469 19.808594 18.335938 C 19.78125 18.183594 19.632812 18.082031 19.480469 18.109375 C 19.324219 18.140625 19.222656 18.289062 19.253906 18.441406 C 19.253906 18.453125 19.257812 18.464844 19.257812 18.476562 C 19.257812 18.480469 19.257812 18.480469 19.257812 18.480469 C 19.273438 18.566406 19.28125 18.65625 19.28125 18.75 C 19.28125 19.621094 19.570312 20.351562 20.117188 20.863281 C 20.171875 20.914062 20.242188 20.941406 20.3125 20.941406 C 20.316406 20.941406 20.320312 20.941406 20.324219 20.941406 C 20.402344 20.9375 20.472656 20.902344 20.523438 20.847656 C 20.914062 20.410156 21.339844 20.199219 21.832031 20.199219 C 22.238281 20.199219 22.621094 20.304688 22.96875 20.519531 C 23.042969 20.566406 23.132812 20.574219 23.210938 20.546875 C 23.289062 20.519531 23.355469 20.457031 23.382812 20.378906 C 23.730469 19.460938 23.878906 17.945312 23.433594 16.625 " fill-opacity="1" fill-rule="nonzero"/><path fill="#e37066" d="M 20.113281 15.007812 C 20.1875 15.007812 20.261719 14.976562 20.316406 14.917969 C 20.582031 14.640625 20.726562 14.625 20.835938 14.640625 C 20.992188 14.667969 21.136719 14.5625 21.164062 14.410156 C 21.191406 14.253906 21.085938 14.109375 20.933594 14.082031 C 20.46875 14.003906 20.125 14.296875 19.90625 14.527344 C 19.796875 14.640625 19.800781 14.820312 19.917969 14.929688 C 19.972656 14.980469 20.042969 15.007812 20.113281 15.007812 " fill-opacity="1" fill-rule="nonzero"/><g clip-path="url(#b866ba84db)"><path fill="#0e638b" d="M 33.488281 27.574219 L 33.488281 33.5 L 26.882812 33.5 L 24.25 29.128906 C 24.804688 29.867188 27.039062 29.652344 28.925781 28.394531 C 30.820312 27.132812 32.011719 25.164062 31.617188 24.355469 L 32.351562 25.621094 L 33.488281 27.574219 " fill-opacity="1" fill-rule="nonzero"/></g><path fill="#72baaa" d="M 27.789062 14.210938 L 26.644531 11.921875 L 27.789062 11.375 L 29.238281 14.273438 C 29.378906 14.550781 29.265625 14.894531 28.984375 15.03125 L 26.671875 16.1875 C 26.351562 16.351562 25.957031 16.21875 25.796875 15.894531 C 25.632812 15.566406 25.769531 15.167969 26.101562 15.011719 L 27.789062 14.210938 " fill-opacity="1" fill-rule="nonzero"/></svg>