<svg xmlns="http://www.w3.org/2000/svg" xmlns:xlink="http://www.w3.org/1999/xlink" width="45" zoomAndPan="magnify" viewBox="0 0 33.75 33.749998" height="45" preserveAspectRatio="xMidYMid meet" version="1.0"><defs><clipPath id="a1d4b48e59"><path d="M 16 2.375 L 32.757812 2.375 L 32.757812 31.410156 L 16 31.410156 Z M 16 2.375 " clip-rule="nonzero"/></clipPath><clipPath id="3634266f3f"><path d="M 8 2.375 L 18 2.375 L 18 12 L 8 12 Z M 8 2.375 " clip-rule="nonzero"/></clipPath><clipPath id="0dde5137a9"><path d="M 11 19 L 23 19 L 23 31.410156 L 11 31.410156 Z M 11 19 " clip-rule="nonzero"/></clipPath></defs><g clip-path="url(#a1d4b48e59)"><path fill="#ffffff" d="M 18.472656 31.121094 C 18.394531 31.121094 18.320312 31.09375 18.269531 31.035156 L 16.746094 29.488281 C 16.636719 29.375 16.636719 29.195312 16.75 29.082031 C 16.863281 28.972656 17.042969 28.972656 17.15625 29.089844 L 18.472656 30.429688 L 32.011719 16.753906 L 18.472656 3.089844 L 17.152344 4.421875 C 17.042969 4.535156 16.863281 4.535156 16.75 4.425781 C 16.636719 4.3125 16.636719 4.132812 16.746094 4.019531 L 18.269531 2.484375 C 18.375 2.375 18.566406 2.375 18.675781 2.484375 L 32.617188 16.554688 C 32.726562 16.664062 32.726562 16.84375 32.617188 16.957031 L 18.675781 31.039062 C 18.621094 31.09375 18.546875 31.121094 18.472656 31.121094 Z M 18.472656 31.121094 " fill-opacity="1" fill-rule="nonzero"/></g><g clip-path="url(#3634266f3f)"><path fill="#ffffff" d="M 11.394531 11.503906 C 11.316406 11.503906 11.246094 11.472656 11.191406 11.417969 L 8.398438 8.601562 C 8.289062 8.488281 8.289062 8.308594 8.398438 8.199219 L 14.058594 2.484375 C 14.164062 2.375 14.355469 2.375 14.464844 2.484375 L 17.253906 5.304688 C 17.363281 5.414062 17.363281 5.59375 17.253906 5.703125 L 11.597656 11.417969 C 11.542969 11.472656 11.46875 11.503906 11.394531 11.503906 Z M 9.003906 8.398438 L 11.394531 10.8125 L 16.648438 5.503906 L 14.261719 3.089844 Z M 9.003906 8.398438 " fill-opacity="1" fill-rule="nonzero"/></g><path fill="#ffffff" d="M 5.898438 22.679688 C 5.824219 22.679688 5.75 22.648438 5.695312 22.59375 L 2.917969 19.773438 C 2.808594 19.664062 2.808594 19.484375 2.917969 19.371094 L 6.402344 15.855469 C 6.507812 15.746094 6.699219 15.746094 6.808594 15.855469 L 9.597656 18.671875 C 9.707031 18.785156 9.707031 18.964844 9.597656 19.074219 L 6.101562 22.59375 C 6.050781 22.648438 5.976562 22.679688 5.898438 22.679688 Z M 3.523438 19.574219 L 5.902344 21.988281 L 8.992188 18.875 L 6.605469 16.460938 Z M 3.523438 19.574219 " fill-opacity="1" fill-rule="nonzero"/><path fill="#ffffff" d="M 16.976562 17.128906 C 16.898438 17.128906 16.828125 17.097656 16.773438 17.042969 L 13.980469 14.226562 C 13.871094 14.113281 13.871094 13.933594 13.980469 13.824219 L 19.640625 8.109375 C 19.746094 8 19.9375 8 20.046875 8.109375 L 22.835938 10.929688 C 22.945312 11.039062 22.945312 11.21875 22.835938 11.332031 L 17.179688 17.042969 C 17.125 17.097656 17.054688 17.128906 16.976562 17.128906 Z M 14.585938 14.023438 L 16.976562 16.4375 L 22.230469 11.128906 L 19.84375 8.714844 Z M 14.585938 14.023438 " fill-opacity="1" fill-rule="nonzero"/><path fill="#ffffff" d="M 11.480469 28.304688 C 11.40625 28.304688 11.332031 28.273438 11.28125 28.21875 L 8.488281 25.414062 C 8.378906 25.300781 8.378906 25.121094 8.488281 25.011719 L 11.96875 21.480469 C 12.023438 21.425781 12.097656 21.394531 12.171875 21.394531 C 12.25 21.394531 12.324219 21.425781 12.375 21.480469 L 15.167969 24.300781 C 15.277344 24.410156 15.277344 24.589844 15.167969 24.703125 L 11.683594 28.21875 C 11.632812 28.273438 11.558594 28.304688 11.480469 28.304688 Z M 9.09375 25.210938 L 11.480469 27.613281 L 14.5625 24.5 L 12.175781 22.085938 Z M 9.09375 25.210938 " fill-opacity="1" fill-rule="nonzero"/><path fill="#ffffff" d="M 22.546875 22.753906 C 22.46875 22.753906 22.398438 22.722656 22.34375 22.667969 L 19.550781 19.863281 C 19.441406 19.753906 19.441406 19.574219 19.550781 19.460938 L 25.207031 13.746094 C 25.261719 13.691406 25.335938 13.664062 25.410156 13.664062 C 25.488281 13.664062 25.5625 13.691406 25.613281 13.746094 L 28.40625 16.554688 C 28.515625 16.664062 28.515625 16.84375 28.40625 16.957031 L 22.75 22.667969 C 22.695312 22.722656 22.621094 22.753906 22.546875 22.753906 Z M 20.15625 19.660156 L 22.546875 22.0625 L 27.800781 16.753906 L 25.414062 14.355469 Z M 20.15625 19.660156 " fill-opacity="1" fill-rule="nonzero"/><path fill="#ffffff" d="M 9.394531 19.160156 C 9.320312 19.160156 9.246094 19.128906 9.191406 19.078125 L 6.402344 16.257812 C 6.289062 16.144531 6.289062 15.964844 6.402344 15.855469 L 16.847656 5.304688 C 16.902344 5.25 16.976562 5.21875 17.050781 5.21875 C 17.128906 5.21875 17.199219 5.25 17.253906 5.300781 L 20.046875 8.109375 C 20.15625 8.21875 20.15625 8.398438 20.046875 8.511719 L 9.597656 19.078125 C 9.546875 19.128906 9.472656 19.160156 9.394531 19.160156 Z M 7.003906 16.054688 L 9.394531 18.46875 L 19.441406 8.3125 L 17.050781 5.910156 Z M 7.003906 16.054688 " fill-opacity="1" fill-rule="nonzero"/><path fill="#ffffff" d="M 14.964844 24.785156 C 14.886719 24.785156 14.816406 24.753906 14.761719 24.703125 L 11.96875 21.882812 C 11.859375 21.769531 11.859375 21.589844 11.96875 21.480469 L 22.429688 10.929688 C 22.484375 10.875 22.558594 10.84375 22.632812 10.84375 C 22.710938 10.84375 22.785156 10.875 22.835938 10.929688 L 25.613281 13.746094 C 25.726562 13.859375 25.726562 14.039062 25.613281 14.148438 L 15.167969 24.703125 C 15.113281 24.753906 15.042969 24.785156 14.964844 24.785156 Z M 12.574219 21.679688 L 14.964844 24.09375 L 25.011719 13.949219 L 22.632812 11.535156 Z M 12.574219 21.679688 " fill-opacity="1" fill-rule="nonzero"/><path fill="#ffffff" d="M 3.121094 19.859375 C 3.046875 19.859375 2.972656 19.828125 2.917969 19.773438 L 0.128906 16.957031 C 0.0195312 16.84375 0.0195312 16.664062 0.128906 16.554688 L 8.398438 8.199219 C 8.507812 8.089844 8.699219 8.089844 8.804688 8.199219 L 11.597656 11.015625 C 11.707031 11.128906 11.707031 11.308594 11.597656 11.417969 L 3.324219 19.773438 C 3.269531 19.828125 3.199219 19.859375 3.121094 19.859375 Z M 0.734375 16.753906 L 3.121094 19.167969 L 10.992188 11.21875 L 8.601562 8.804688 Z M 0.734375 16.753906 " fill-opacity="1" fill-rule="nonzero"/><path fill="#ffffff" d="M 8.691406 25.496094 C 8.613281 25.496094 8.542969 25.46875 8.488281 25.414062 L 5.695312 22.59375 C 5.585938 22.484375 5.585938 22.304688 5.695312 22.191406 L 13.980469 13.824219 C 14.089844 13.714844 14.28125 13.714844 14.386719 13.824219 L 17.179688 16.640625 C 17.289062 16.753906 17.289062 16.933594 17.179688 17.042969 L 8.894531 25.414062 C 8.839844 25.46875 8.769531 25.496094 8.691406 25.496094 Z M 6.300781 22.394531 L 8.691406 24.804688 L 16.574219 16.84375 L 14.183594 14.429688 Z M 6.300781 22.394531 " fill-opacity="1" fill-rule="nonzero"/><g clip-path="url(#0dde5137a9)"><path fill="#ffffff" d="M 14.261719 31.121094 C 14.183594 31.121094 14.109375 31.09375 14.058594 31.039062 L 11.277344 28.21875 C 11.167969 28.105469 11.167969 27.929688 11.277344 27.816406 L 19.550781 19.460938 C 19.605469 19.40625 19.679688 19.375 19.753906 19.375 C 19.832031 19.375 19.902344 19.40625 19.957031 19.460938 L 22.75 22.265625 C 22.859375 22.378906 22.859375 22.558594 22.75 22.671875 L 14.464844 31.039062 C 14.410156 31.09375 14.335938 31.121094 14.261719 31.121094 Z M 11.882812 28.019531 L 14.261719 30.429688 L 22.144531 22.46875 L 19.753906 20.066406 Z M 11.882812 28.019531 " fill-opacity="1" fill-rule="nonzero"/></g></svg>