<svg xmlns="http://www.w3.org/2000/svg" xmlns:xlink="http://www.w3.org/1999/xlink" width="45" zoomAndPan="magnify" viewBox="0 0 33.75 33.749998" height="45" preserveAspectRatio="xMidYMid meet" version="1.0"><defs><clipPath id="0fd18e71f1"><path d="M 0.425781 0 L 33.183594 0 L 33.183594 33.5 L 0.425781 33.5 Z M 0.425781 0 " clip-rule="nonzero"/></clipPath></defs><g clip-path="url(#0fd18e71f1)"><path fill="#000000" d="M 31.167969 11.289062 L 30.734375 9.324219 L 30.507812 9.402344 C 30.019531 9.574219 29.585938 9.839844 29.214844 10.203125 C 28.84375 10.566406 28.570312 10.992188 28.390625 11.476562 C 28.203125 12.058594 28.183594 12.648438 28.339844 13.242188 L 28.089844 13.542969 C 27.003906 12.648438 25.785156 12.011719 24.425781 11.636719 L 24.425781 7.058594 C 24.425781 5.558594 23.703125 4.828125 22.203125 4.828125 L 18.523438 4.828125 C 18.203125 3.511719 17.609375 3.0625 16.226562 3.0625 L 16.085938 3.058594 C 15.96875 3.054688 15.855469 3.058594 15.738281 3.066406 C 15.683594 3.078125 15.632812 3.074219 15.582031 3.050781 C 15.5625 3.039062 15.539062 2.996094 15.527344 2.867188 C 15.488281 2.507812 15.386719 2.164062 15.226562 1.839844 C 15.066406 1.515625 14.855469 1.226562 14.59375 0.976562 C 14.332031 0.722656 14.035156 0.523438 13.703125 0.378906 C 13.371094 0.230469 13.023438 0.144531 12.664062 0.117188 C 12.300781 0.09375 11.945312 0.128906 11.59375 0.230469 C 11.246094 0.328125 10.921875 0.484375 10.628906 0.695312 C 10.332031 0.90625 10.085938 1.164062 9.878906 1.464844 C 9.675781 1.761719 9.527344 2.089844 9.4375 2.4375 C 9.417969 2.523438 9.402344 2.609375 9.390625 2.695312 C 9.371094 2.828125 9.34375 3.011719 9.289062 3.050781 C 9.148438 3.097656 9.007812 3.109375 8.863281 3.078125 C 8.78125 3.058594 8.695312 3.054688 8.613281 3.0625 C 7.289062 3.0625 6.652344 3.5625 6.378906 4.828125 L 2.636719 4.828125 C 1.21875 4.828125 0.46875 5.578125 0.46875 7.003906 L 0.46875 31.308594 C 0.441406 31.59375 0.480469 31.875 0.578125 32.144531 C 0.675781 32.414062 0.828125 32.652344 1.03125 32.855469 C 1.234375 33.058594 1.472656 33.210938 1.746094 33.308594 C 2.015625 33.40625 2.296875 33.441406 2.585938 33.414062 L 22.25 33.414062 C 23.675781 33.414062 24.429688 32.667969 24.429688 31.253906 L 24.429688 29.398438 C 25.339844 29.152344 26.195312 28.773438 26.988281 28.265625 C 27.78125 27.753906 28.480469 27.140625 29.082031 26.417969 C 29.6875 25.695312 30.167969 24.898438 30.527344 24.03125 C 30.886719 23.160156 31.105469 22.257812 31.1875 21.320312 C 31.296875 20.085938 31.164062 18.875 30.792969 17.691406 C 30.421875 16.507812 29.835938 15.441406 29.042969 14.484375 L 29.296875 14.273438 C 30.019531 14.410156 30.710938 14.320312 31.371094 14 C 32.265625 13.539062 32.839844 12.820312 33.097656 11.851562 L 33.152344 11.625 Z M 7.875 6.351562 C 7.871094 5.933594 7.871094 5.507812 7.875 5.085938 C 7.878906 4.691406 8.023438 4.550781 8.414062 4.542969 C 8.695312 4.535156 8.984375 4.539062 9.265625 4.539062 L 9.949219 4.539062 C 10.566406 4.53125 10.808594 4.285156 10.824219 3.667969 L 10.828125 3.488281 C 10.824219 3.332031 10.832031 3.171875 10.851562 3.015625 C 10.875 2.824219 10.929688 2.640625 11.019531 2.464844 C 11.109375 2.292969 11.226562 2.140625 11.375 2.011719 C 11.519531 1.878906 11.683594 1.78125 11.867188 1.707031 C 12.046875 1.636719 12.238281 1.601562 12.433594 1.597656 L 12.445312 1.597656 C 12.644531 1.597656 12.835938 1.632812 13.019531 1.703125 C 13.207031 1.773438 13.371094 1.875 13.519531 2.007812 C 13.667969 2.136719 13.789062 2.292969 13.878906 2.464844 C 13.96875 2.640625 14.027344 2.828125 14.050781 3.023438 C 14.066406 3.171875 14.066406 3.320312 14.070312 3.46875 C 14.070312 3.566406 14.070312 3.660156 14.074219 3.753906 C 14.066406 3.859375 14.078125 3.964844 14.117188 4.066406 C 14.152344 4.167969 14.210938 4.253906 14.289062 4.332031 C 14.363281 4.40625 14.453125 4.460938 14.554688 4.496094 C 14.65625 4.535156 14.761719 4.546875 14.867188 4.535156 C 15.164062 4.542969 15.453125 4.539062 15.742188 4.539062 C 15.976562 4.539062 16.210938 4.539062 16.445312 4.542969 C 16.886719 4.546875 17.023438 4.683594 17.027344 5.132812 C 17.027344 5.628906 17.03125 6.125 17.027344 6.621094 C 17.023438 7.039062 16.882812 7.183594 16.464844 7.183594 C 15.5 7.1875 14.535156 7.183594 13.566406 7.183594 L 8.503906 7.183594 C 7.992188 7.183594 7.875 7.0625 7.875 6.539062 Z M 22.9375 31.289062 C 22.9375 31.808594 22.820312 31.929688 22.304688 31.929688 L 2.597656 31.929688 C 2.410156 31.953125 2.238281 31.910156 2.085938 31.804688 C 1.976562 31.648438 1.933594 31.476562 1.957031 31.289062 L 1.960938 24.863281 C 1.964844 21.769531 1.96875 18.675781 1.964844 15.582031 C 1.964844 13.84375 1.964844 12.101562 1.960938 10.355469 L 1.960938 6.980469 C 1.929688 6.785156 1.972656 6.601562 2.085938 6.433594 C 2.257812 6.324219 2.441406 6.285156 2.644531 6.3125 L 6.378906 6.3125 L 6.378906 6.367188 C 6.378906 6.507812 6.378906 6.636719 6.386719 6.769531 C 6.382812 7.019531 6.433594 7.261719 6.527344 7.492188 C 6.621094 7.722656 6.757812 7.925781 6.933594 8.105469 C 7.113281 8.28125 7.316406 8.417969 7.546875 8.515625 C 7.777344 8.609375 8.019531 8.660156 8.269531 8.660156 C 10.980469 8.675781 13.789062 8.675781 16.625 8.660156 C 16.878906 8.660156 17.117188 8.613281 17.351562 8.515625 C 17.582031 8.417969 17.785156 8.28125 17.964844 8.105469 C 18.140625 7.929688 18.277344 7.722656 18.371094 7.492188 C 18.46875 7.261719 18.515625 7.019531 18.515625 6.769531 C 18.519531 6.652344 18.515625 6.527344 18.515625 6.382812 L 18.515625 6.3125 L 22.171875 6.3125 C 22.863281 6.3125 22.9375 6.386719 22.9375 7.058594 L 22.9375 11.351562 C 21.632812 11.203125 20.355469 11.332031 19.109375 11.738281 C 17.859375 12.140625 16.75 12.785156 15.78125 13.667969 L 12.085938 13.667969 C 11.984375 13.667969 11.882812 13.671875 11.78125 13.683594 C 11.59375 13.699219 11.441406 13.777344 11.3125 13.914062 C 11.1875 14.050781 11.125 14.214844 11.121094 14.398438 C 11.121094 14.585938 11.179688 14.746094 11.304688 14.886719 C 11.425781 15.027344 11.578125 15.109375 11.761719 15.132812 C 11.847656 15.144531 11.929688 15.148438 12.015625 15.148438 L 14.472656 15.148438 C 13.527344 16.472656 12.976562 17.945312 12.820312 19.566406 L 12.078125 19.566406 C 11.976562 19.5625 11.871094 19.566406 11.769531 19.578125 C 11.582031 19.597656 11.425781 19.679688 11.304688 19.816406 C 11.179688 19.957031 11.117188 20.121094 11.121094 20.304688 C 11.121094 20.492188 11.183594 20.652344 11.308594 20.792969 C 11.433594 20.929688 11.589844 21.007812 11.777344 21.027344 C 11.835938 21.035156 11.894531 21.039062 11.957031 21.039062 L 12.792969 21.039062 C 12.882812 22.636719 13.355469 24.109375 14.210938 25.460938 L 12.035156 25.460938 C 12.015625 25.460938 11.988281 25.457031 11.964844 25.457031 C 11.839844 25.429688 11.726562 25.453125 11.621094 25.527344 L 11.5625 25.582031 C 11.367188 25.722656 11.226562 25.90625 11.140625 26.132812 C 11.09375 26.285156 11.117188 26.433594 11.199219 26.574219 C 11.3125 26.746094 11.46875 26.855469 11.667969 26.894531 C 11.804688 26.925781 11.941406 26.933594 12.078125 26.929688 L 15.382812 26.929688 C 16.25 27.824219 17.257812 28.511719 18.40625 29 C 19.550781 29.484375 20.75 29.730469 21.996094 29.730469 C 22.3125 29.730469 22.625 29.714844 22.9375 29.679688 Z M 27.902344 25.699219 C 26.953125 26.773438 25.796875 27.539062 24.429688 27.988281 C 23.945312 28.152344 23.449219 28.261719 22.9375 28.320312 C 22.746094 28.347656 22.550781 28.367188 22.355469 28.375 C 20.546875 28.472656 18.914062 27.988281 17.449219 26.929688 C 17.199219 26.753906 16.960938 26.558594 16.738281 26.351562 C 16.4375 26.074219 16.15625 25.777344 15.898438 25.460938 C 14.84375 24.171875 14.253906 22.695312 14.128906 21.039062 C 14.117188 20.917969 14.113281 20.789062 14.109375 20.664062 C 14.101562 20.296875 14.117188 19.929688 14.160156 19.566406 C 14.359375 17.863281 15.050781 16.390625 16.234375 15.148438 C 16.269531 15.105469 16.308594 15.0625 16.347656 15.019531 C 16.867188 14.488281 17.449219 14.039062 18.097656 13.667969 C 19.304688 12.980469 20.605469 12.632812 21.996094 12.632812 C 22.3125 12.632812 22.625 12.652344 22.9375 12.691406 C 24.515625 12.878906 25.902344 13.492188 27.101562 14.527344 L 25.652344 15.917969 C 25.269531 15.628906 24.863281 15.382812 24.425781 15.183594 C 23.953125 14.960938 23.457031 14.808594 22.9375 14.722656 C 22.433594 14.640625 21.925781 14.628906 21.414062 14.691406 C 21.164062 14.714844 20.914062 14.753906 20.664062 14.808594 C 20.308594 14.886719 19.964844 15 19.628906 15.144531 C 18.644531 15.574219 17.847656 16.226562 17.234375 17.105469 C 16.699219 17.84375 16.359375 18.664062 16.210938 19.566406 C 16.128906 20.054688 16.113281 20.546875 16.160156 21.039062 C 16.3125 22.535156 16.945312 23.789062 18.054688 24.804688 C 18.316406 25.050781 18.601562 25.269531 18.90625 25.457031 C 19.6875 25.949219 20.535156 26.234375 21.453125 26.3125 C 21.949219 26.363281 22.445312 26.347656 22.9375 26.265625 C 23.953125 26.109375 24.863281 25.707031 25.660156 25.058594 C 25.953125 24.820312 26.226562 24.558594 26.46875 24.269531 C 26.714844 23.980469 26.925781 23.667969 27.113281 23.339844 C 27.296875 23.007812 27.445312 22.664062 27.566406 22.304688 C 27.683594 21.941406 27.765625 21.574219 27.8125 21.199219 C 27.859375 20.824219 27.867188 20.449219 27.84375 20.070312 C 27.816406 19.695312 27.753906 19.320312 27.65625 18.957031 C 27.558594 18.589844 27.425781 18.238281 27.261719 17.898438 C 27.09375 17.558594 26.898438 17.234375 26.671875 16.933594 L 28.070312 15.527344 C 28.367188 15.882812 28.632812 16.261719 28.863281 16.664062 C 29.09375 17.066406 29.289062 17.484375 29.441406 17.921875 C 29.597656 18.359375 29.714844 18.804688 29.789062 19.261719 C 29.863281 19.71875 29.898438 20.179688 29.890625 20.644531 C 29.882812 21.105469 29.835938 21.566406 29.742188 22.019531 C 29.652344 22.472656 29.523438 22.917969 29.355469 23.347656 C 29.183594 23.78125 28.976562 24.191406 28.734375 24.589844 C 28.492188 24.984375 28.214844 25.351562 27.902344 25.699219 Z M 19.101562 23.929688 C 18.195312 23.167969 17.675781 22.203125 17.539062 21.035156 C 17.53125 20.957031 17.523438 20.882812 17.515625 20.800781 C 17.488281 20.382812 17.519531 19.972656 17.609375 19.566406 C 17.78125 18.769531 18.140625 18.066406 18.691406 17.464844 C 19.527344 16.554688 20.5625 16.074219 21.800781 16.023438 C 21.871094 16.019531 21.945312 16.019531 22.023438 16.019531 C 22.332031 16.019531 22.636719 16.050781 22.9375 16.117188 C 23.476562 16.222656 23.972656 16.433594 24.425781 16.742188 C 24.519531 16.804688 24.609375 16.875 24.699219 16.945312 L 23.421875 18.222656 C 23.265625 18.140625 23.105469 18.070312 22.9375 18.015625 C 22.277344 17.773438 21.617188 17.777344 20.960938 18.035156 C 20.675781 18.15625 20.417969 18.320312 20.191406 18.53125 C 19.964844 18.738281 19.777344 18.980469 19.632812 19.253906 C 19.492188 19.527344 19.398438 19.816406 19.355469 20.125 C 19.3125 20.429688 19.324219 20.734375 19.386719 21.035156 C 19.472656 21.484375 19.667969 21.882812 19.96875 22.230469 C 20.335938 22.652344 20.789062 22.933594 21.332031 23.078125 C 21.875 23.21875 22.410156 23.195312 22.9375 23.003906 C 23.082031 22.953125 23.222656 22.886719 23.351562 22.808594 C 23.914062 22.429688 24.273438 21.914062 24.425781 21.257812 C 24.621094 20.523438 24.5625 19.8125 24.242188 19.125 L 25.550781 17.835938 C 26.695312 19.09375 26.910156 21.632812 25.453125 23.355469 C 25.15625 23.707031 24.816406 24.007812 24.429688 24.261719 C 23.972656 24.5625 23.472656 24.765625 22.9375 24.882812 C 22.738281 24.929688 22.539062 24.960938 22.332031 24.976562 C 21.105469 25.078125 20.03125 24.730469 19.101562 23.925781 Z M 20.929688 19.722656 L 21.007812 19.621094 C 21.246094 19.332031 21.554688 19.191406 21.925781 19.195312 C 22.042969 19.195312 22.15625 19.207031 22.269531 19.238281 L 21.589844 19.960938 C 21.570312 19.980469 21.542969 20.015625 21.511719 20.054688 C 21.511719 20.054688 21.472656 20.097656 21.445312 20.140625 C 21.335938 20.3125 21.308594 20.5 21.359375 20.695312 C 21.398438 20.808594 21.460938 20.902344 21.550781 20.980469 C 21.585938 21.011719 21.617188 21.039062 21.65625 21.066406 C 21.699219 21.09375 21.746094 21.117188 21.796875 21.136719 C 21.804688 21.140625 21.808594 21.140625 21.8125 21.144531 C 21.820312 21.144531 21.828125 21.144531 21.835938 21.148438 C 21.890625 21.164062 21.949219 21.175781 22.007812 21.175781 C 22.222656 21.15625 22.402344 21.066406 22.542969 20.902344 C 22.679688 20.757812 22.8125 20.605469 22.9375 20.460938 C 22.976562 20.417969 23.011719 20.378906 23.046875 20.335938 L 23.222656 20.15625 C 23.300781 20.378906 23.3125 20.601562 23.261719 20.828125 C 23.210938 21.054688 23.101562 21.253906 22.9375 21.417969 C 22.890625 21.46875 22.839844 21.511719 22.785156 21.554688 C 22.527344 21.746094 22.234375 21.828125 21.914062 21.8125 C 21.59375 21.792969 21.316406 21.671875 21.082031 21.453125 C 20.953125 21.332031 20.855469 21.191406 20.789062 21.027344 C 20.597656 20.566406 20.644531 20.128906 20.929688 19.71875 Z M 30.578125 12.871094 C 30.285156 13.019531 29.984375 13.039062 29.671875 12.929688 C 29.5 12.203125 29.5625 11.90625 29.902344 11.613281 L 30.101562 12.402344 L 30.914062 12.582031 C 30.824219 12.703125 30.710938 12.796875 30.578125 12.867188 Z M 3.648438 14.925781 C 3.417969 14.695312 3.363281 14.429688 3.484375 14.128906 C 3.609375 13.828125 3.832031 13.671875 4.160156 13.667969 C 4.375 13.671875 4.558594 13.753906 4.714844 13.90625 C 5.011719 14.203125 5.296875 14.507812 5.597656 14.828125 L 5.859375 15.109375 L 8.03125 12.515625 C 8.128906 12.398438 8.226562 12.277344 8.335938 12.167969 C 8.460938 12.011719 8.621094 11.921875 8.824219 11.898438 C 9.023438 11.878906 9.203125 11.929688 9.359375 12.058594 C 9.519531 12.179688 9.613281 12.34375 9.640625 12.546875 C 9.660156 12.761719 9.597656 12.953125 9.460938 13.121094 C 9.117188 13.542969 8.765625 13.964844 8.414062 14.382812 L 7.566406 15.394531 C 7.234375 15.789062 6.902344 16.183594 6.578125 16.582031 C 6.433594 16.785156 6.238281 16.902344 5.992188 16.933594 C 5.980469 16.933594 5.96875 16.9375 5.953125 16.9375 C 5.75 16.929688 5.574219 16.851562 5.433594 16.703125 C 4.90625 16.199219 4.355469 15.652344 3.648438 14.925781 Z M 9.542969 18.898438 C 9.492188 18.992188 9.429688 19.074219 9.355469 19.152344 L 9.308594 19.207031 C 8.421875 20.265625 7.539062 21.320312 6.65625 22.375 C 6.5 22.625 6.273438 22.769531 5.980469 22.816406 L 5.953125 22.816406 C 5.667969 22.785156 5.433594 22.65625 5.253906 22.429688 C 4.730469 21.910156 4.226562 21.410156 3.722656 20.902344 C 3.636719 20.839844 3.566406 20.757812 3.515625 20.664062 C 3.464844 20.566406 3.433594 20.464844 3.429688 20.359375 C 3.421875 20.25 3.4375 20.144531 3.476562 20.042969 C 3.511719 19.941406 3.570312 19.855469 3.648438 19.777344 C 3.726562 19.703125 3.816406 19.644531 3.917969 19.605469 C 4.019531 19.570312 4.125 19.554688 4.230469 19.5625 C 4.339844 19.570312 4.441406 19.601562 4.535156 19.652344 C 4.632812 19.707031 4.710938 19.773438 4.777344 19.863281 C 5.054688 20.136719 5.328125 20.417969 5.617188 20.710938 L 5.878906 20.984375 L 8.078125 18.359375 C 8.179688 18.230469 8.285156 18.109375 8.402344 17.996094 C 8.535156 17.851562 8.695312 17.777344 8.890625 17.769531 C 9.085938 17.761719 9.253906 17.824219 9.394531 17.957031 C 9.539062 18.074219 9.621094 18.21875 9.652344 18.398438 C 9.679688 18.578125 9.640625 18.746094 9.542969 18.898438 Z M 9.386719 23.871094 C 9.726562 24.164062 9.714844 24.605469 9.371094 25.027344 C 9.136719 25.3125 8.902344 25.589844 8.667969 25.867188 L 7.835938 26.867188 C 7.429688 27.347656 7.023438 27.828125 6.621094 28.316406 C 6.464844 28.542969 6.25 28.671875 5.980469 28.707031 C 5.96875 28.710938 5.960938 28.710938 5.949219 28.710938 C 5.699219 28.691406 5.492188 28.582031 5.328125 28.390625 C 4.785156 27.855469 4.242188 27.320312 3.710938 26.78125 C 3.53125 26.613281 3.4375 26.402344 3.433594 26.15625 C 3.441406 25.953125 3.519531 25.785156 3.667969 25.652344 C 3.828125 25.507812 4.019531 25.441406 4.234375 25.460938 C 4.449219 25.476562 4.628906 25.566406 4.765625 25.734375 C 5.050781 26.019531 5.328125 26.308594 5.617188 26.609375 L 5.878906 26.882812 L 8.070312 24.261719 C 8.117188 24.203125 8.167969 24.140625 8.21875 24.082031 C 8.382812 23.859375 8.605469 23.726562 8.878906 23.683594 C 9.074219 23.671875 9.246094 23.734375 9.386719 23.871094 Z M 9.386719 23.871094 " fill-opacity="1" fill-rule="nonzero"/></g></svg>