<svg xmlns="http://www.w3.org/2000/svg" xmlns:xlink="http://www.w3.org/1999/xlink" width="45" zoomAndPan="magnify" viewBox="0 0 33.75 33.749998" height="45" preserveAspectRatio="xMidYMid meet" version="1.0"><defs><clipPath id="c72175b2e1"><path d="M 9.140625 27.703125 L 24.363281 27.703125 L 24.363281 33.5 L 9.140625 33.5 Z M 9.140625 27.703125 " clip-rule="nonzero"/></clipPath><clipPath id="98d7c4339b"><path d="M 0 0.00390625 L 33.5 0.00390625 L 33.5 30.453125 L 0 30.453125 Z M 0 0.00390625 " clip-rule="nonzero"/></clipPath></defs><g clip-path="url(#c72175b2e1)"><path fill="#d1a32c" d="M 16.941406 27.757812 C 16.941406 27.960938 16.941406 28.703125 16.941406 29.183594 C 16.941406 33.75 23.449219 34.476562 24.324219 34.1875 C 24.410156 34.15625 24.242188 31.640625 24.242188 31.863281 C 21.605469 32.308594 19.746094 31.285156 18.976562 30.589844 C 18.132812 29.820312 17.964844 28.851562 17.964844 27.707031 C 17.574219 27.738281 17.210938 27.753906 16.941406 27.757812 Z M 16.558594 27.757812 C 16.558594 27.960938 16.558594 28.703125 16.558594 29.183594 C 16.558594 33.75 10.050781 34.476562 9.175781 34.1875 C 9.089844 34.15625 9.261719 31.640625 9.261719 31.863281 C 11.894531 32.308594 13.757812 31.285156 14.523438 30.589844 C 15.367188 29.820312 15.535156 28.851562 15.535156 27.707031 C 15.929688 27.738281 16.292969 27.753906 16.558594 27.757812 " fill-opacity="1" fill-rule="nonzero"/></g><g clip-path="url(#98d7c4339b)"><path fill="#d1a32c" d="M 22.828125 1.410156 C 22.96875 1.171875 22.886719 0.863281 22.648438 0.722656 C 22.410156 0.585938 22.105469 0.664062 21.964844 0.902344 C 21.828125 1.140625 21.90625 1.445312 22.144531 1.585938 C 22.382812 1.726562 22.6875 1.648438 22.828125 1.410156 Z M 23.429688 0.00390625 C 23.269531 1.394531 23.789062 2.675781 25.121094 3.535156 C 25.320312 2.019531 24.78125 0.902344 23.429688 0.00390625 Z M 18.660156 28.414062 C 18.789062 28.371094 18.917969 28.335938 19.046875 28.304688 C 19.871094 28.105469 20.679688 28.101562 21.457031 28.292969 C 21.832031 27.875 22.203125 27.4375 23.070312 26.9375 C 23.738281 26.558594 24.457031 26.367188 25.1875 26.328125 C 25.425781 25.816406 25.652344 25.289062 26.335938 24.5625 C 26.863281 24.003906 27.496094 23.609375 28.183594 23.355469 C 28.261719 22.796875 28.324219 22.226562 28.765625 21.332031 C 29.105469 20.640625 29.59375 20.082031 30.179688 19.636719 C 30.09375 19.082031 29.984375 18.519531 30.144531 17.53125 C 30.269531 16.773438 30.574219 16.09375 31.003906 15.496094 C 30.753906 14.992188 30.488281 14.484375 30.351562 13.492188 C 30.25 12.734375 30.34375 11.992188 30.578125 11.296875 C 30.195312 10.886719 29.792969 10.480469 29.371094 9.570312 C 29.050781 8.875 28.925781 8.140625 28.949219 7.40625 C 28.460938 7.125 27.957031 6.855469 27.289062 6.109375 C 26.777344 5.535156 26.441406 4.871094 26.25 4.164062 C 25.71875 4.039062 25.175781 3.933594 24.371094 3.453125 C 23.808594 3.117188 23.371094 2.65625 23.039062 2.125 C 22.558594 2.160156 22.078125 2.191406 21.246094 2 C 21.859375 2.929688 23.136719 3.605469 24.382812 3.699219 C 24.847656 4.867188 26.007812 5.941406 27.296875 6.417969 C 27.304688 6.527344 27.320312 6.636719 27.339844 6.746094 C 26.566406 6.597656 25.941406 6.238281 25.476562 5.820312 C 25.125 6.089844 24.621094 6.308594 24.113281 6.34375 C 25.101562 7.042969 26.234375 7.335938 27.417969 7.097656 C 27.695312 8.144531 28.390625 9.1875 29.289062 9.871094 C 29.265625 9.976562 29.246094 10.085938 29.234375 10.195312 C 28.535156 9.828125 28.042969 9.304688 27.722656 8.765625 C 27.308594 8.921875 26.765625 8.984375 26.265625 8.867188 C 27.007812 9.828125 28.007812 10.4375 29.207031 10.558594 C 29.167969 11.640625 29.527344 12.839844 30.183594 13.753906 C 30.132812 13.847656 30.085938 13.941406 30.042969 14.042969 C 29.441406 13.453125 29.097656 12.761719 28.941406 12.113281 C 28.472656 12.140625 27.902344 12.035156 27.4375 11.765625 C 27.890625 12.96875 28.71875 13.898438 29.90625 14.386719 C 29.550781 15.410156 29.546875 16.664062 29.90625 17.730469 C 29.832031 17.800781 29.761719 17.878906 29.695312 17.957031 C 29.257812 17.171875 29.125 16.363281 29.167969 15.652344 C 28.6875 15.542969 28.144531 15.257812 27.761719 14.84375 C 27.847656 16.203125 28.402344 17.398438 29.453125 18.257812 C 28.816406 19.132812 28.445312 20.328125 28.480469 21.453125 C 28.386719 21.5 28.296875 21.550781 28.210938 21.605469 C 28.023438 20.726562 28.132812 19.914062 28.378906 19.25 C 27.953125 19 27.519531 18.574219 27.269531 18.0625 C 26.957031 19.386719 27.136719 20.691406 27.894531 21.824219 C 27.03125 22.472656 26.324219 23.507812 26.027344 24.59375 C 25.925781 24.613281 25.824219 24.632812 25.726562 24.660156 C 25.804688 23.765625 26.144531 23.023438 26.574219 22.457031 C 26.242188 22.097656 25.949219 21.558594 25.863281 20.996094 C 25.175781 22.175781 24.964844 23.476562 25.359375 24.777344 C 24.34375 25.144531 23.367188 25.929688 22.765625 26.882812 C 22.664062 26.867188 22.558594 26.859375 22.457031 26.855469 C 22.792969 26.023438 23.335938 25.410156 23.910156 24.996094 C 23.699219 24.554688 23.578125 23.957031 23.65625 23.394531 C 22.65625 24.316406 22.078125 25.5 22.074219 26.859375 C 20.851562 26.921875 19.527344 27.503906 18.660156 28.414062 Z M 26.554688 3.382812 C 26.757812 3.199219 26.769531 2.878906 26.582031 2.675781 C 26.394531 2.472656 26.078125 2.460938 25.875 2.648438 C 25.671875 2.835938 25.660156 3.152344 25.847656 3.355469 C 26.035156 3.558594 26.351562 3.570312 26.554688 3.382812 Z M 27.464844 2.605469 C 26.902344 3.886719 27.027344 5.265625 28.054688 6.476562 C 28.683594 5.085938 28.496094 3.859375 27.464844 2.605469 Z M 29.417969 6.695312 C 29.667969 6.578125 29.773438 6.277344 29.652344 6.027344 C 29.535156 5.78125 29.234375 5.675781 28.984375 5.792969 C 28.738281 5.914062 28.632812 6.210938 28.75 6.460938 C 28.871094 6.710938 29.167969 6.816406 29.417969 6.695312 Z M 30.601562 6.015625 C 29.628906 7.148438 29.324219 8.59375 29.996094 10.144531 C 31.070312 8.925781 31.261719 7.613281 30.601562 6.015625 Z M 31.207031 10.667969 C 31.480469 10.628906 31.667969 10.375 31.625 10.101562 C 31.585938 9.828125 31.328125 9.636719 31.058594 9.679688 C 30.785156 9.722656 30.597656 9.976562 30.636719 10.25 C 30.679688 10.523438 30.933594 10.710938 31.207031 10.667969 Z M 32.679688 10.214844 C 31.339844 11.0625 30.582031 12.4375 30.78125 14.226562 C 32.253906 13.320312 32.855469 12.046875 32.679688 10.214844 Z M 31.785156 15.078125 C 32.058594 15.121094 32.3125 14.929688 32.355469 14.65625 C 32.394531 14.382812 32.207031 14.128906 31.933594 14.089844 C 31.660156 14.050781 31.40625 14.238281 31.363281 14.511719 C 31.324219 14.785156 31.511719 15.039062 31.785156 15.078125 Z M 33.503906 14.886719 C 31.882812 15.328125 30.691406 16.484375 30.339844 18.355469 C 32.109375 17.894531 33.113281 16.792969 33.503906 14.886719 Z M 31.050781 19.464844 C 31.300781 19.585938 31.597656 19.480469 31.71875 19.230469 C 31.835938 18.980469 31.730469 18.679688 31.480469 18.5625 C 31.230469 18.445312 30.933594 18.550781 30.8125 18.800781 C 30.695312 19.050781 30.800781 19.347656 31.050781 19.464844 Z M 32.972656 19.648438 C 31.203125 19.597656 29.644531 20.398438 28.710938 22.175781 C 30.640625 22.257812 31.992188 21.453125 32.972656 19.648438 Z M 29.066406 23.445312 C 29.269531 23.632812 29.585938 23.617188 29.773438 23.414062 C 29.960938 23.210938 29.945312 22.894531 29.742188 22.707031 C 29.539062 22.519531 29.222656 22.535156 29.035156 22.738281 C 28.847656 22.945312 28.863281 23.261719 29.066406 23.445312 Z M 31.105469 24.125 C 29.339844 23.527344 27.523438 23.851562 26.039062 25.355469 C 27.957031 26.03125 29.5625 25.636719 31.105469 24.125 Z M 26.007812 26.617188 C 26.148438 26.855469 26.453125 26.933594 26.691406 26.792969 C 26.929688 26.652344 27.007812 26.34375 26.867188 26.105469 C 26.726562 25.867188 26.421875 25.789062 26.183594 25.929688 C 25.945312 26.070312 25.867188 26.378906 26.007812 26.617188 Z M 24.613281 5.671875 C 24.796875 5.5 24.808594 5.210938 24.640625 5.027344 C 24.46875 4.84375 24.179688 4.832031 23.996094 5 C 23.8125 5.171875 23.800781 5.457031 23.96875 5.644531 C 24.140625 5.828125 24.425781 5.839844 24.613281 5.671875 Z M 26.941406 8.492188 C 27.167969 8.382812 27.261719 8.109375 27.152344 7.882812 C 27.046875 7.65625 26.773438 7.5625 26.546875 7.671875 C 26.320312 7.78125 26.226562 8.050781 26.332031 8.277344 C 26.441406 8.503906 26.714844 8.601562 26.941406 8.492188 Z M 28.378906 11.667969 C 28.625 11.628906 28.796875 11.398438 28.757812 11.148438 C 28.722656 10.902344 28.488281 10.730469 28.242188 10.769531 C 27.992188 10.804688 27.824219 11.039062 27.859375 11.285156 C 27.898438 11.535156 28.128906 11.707031 28.378906 11.667969 Z M 28.800781 15.171875 C 29.046875 15.210938 29.277344 15.039062 29.316406 14.789062 C 29.351562 14.539062 29.179688 14.308594 28.933594 14.273438 C 28.683594 14.234375 28.453125 14.40625 28.417969 14.65625 C 28.378906 14.90625 28.550781 15.136719 28.800781 15.171875 Z M 28.167969 18.683594 C 28.394531 18.789062 28.667969 18.691406 28.773438 18.464844 C 28.882812 18.238281 28.785156 17.96875 28.558594 17.859375 C 28.332031 17.753906 28.0625 17.847656 27.953125 18.078125 C 27.84375 18.304688 27.941406 18.574219 28.167969 18.683594 Z M 26.539062 21.855469 C 26.726562 22.023438 27.011719 22.011719 27.183594 21.824219 C 27.351562 21.636719 27.339844 21.351562 27.152344 21.183594 C 26.96875 21.011719 26.679688 21.027344 26.511719 21.210938 C 26.339844 21.394531 26.355469 21.683594 26.539062 21.855469 Z M 24.054688 24.410156 C 24.183594 24.625 24.460938 24.699219 24.679688 24.570312 C 24.894531 24.441406 24.964844 24.164062 24.839844 23.945312 C 24.710938 23.730469 24.429688 23.660156 24.214844 23.785156 C 24 23.914062 23.925781 24.195312 24.054688 24.410156 Z M 27.757812 27.917969 C 26.246094 26.828125 24.414062 26.605469 22.554688 27.609375 C 24.191406 28.816406 25.839844 28.914062 27.757812 27.917969 Z M 22.210938 28.769531 C 22.277344 29.039062 22.546875 29.203125 22.816406 29.136719 C 23.085938 29.074219 23.25 28.804688 23.183594 28.535156 C 23.121094 28.265625 22.847656 28.101562 22.582031 28.164062 C 22.3125 28.230469 22.148438 28.5 22.210938 28.769531 Z M 20.875 26.164062 C 20.9375 26.433594 21.207031 26.601562 21.476562 26.535156 C 21.746094 26.46875 21.910156 26.199219 21.84375 25.929688 C 21.78125 25.660156 21.511719 25.496094 21.242188 25.5625 C 20.972656 25.625 20.808594 25.898438 20.875 26.164062 Z M 23.320312 30.191406 C 22.058594 28.820312 20.3125 28.230469 18.285156 28.835938 C 19.644531 30.351562 21.242188 30.777344 23.320312 30.191406 Z M 20.589844 26.761719 C 20.511719 26.242188 20.597656 25.503906 20.847656 25.039062 C 19.5 25.6875 18.542969 26.789062 18.214844 28.289062 C 18.878906 27.542969 19.683594 27.023438 20.589844 26.761719 Z M 11.359375 1.585938 C 11.597656 1.445312 11.675781 1.140625 11.535156 0.902344 C 11.398438 0.664062 11.089844 0.585938 10.851562 0.722656 C 10.613281 0.863281 10.535156 1.171875 10.671875 1.410156 C 10.8125 1.648438 11.121094 1.726562 11.359375 1.585938 Z M 8.378906 3.535156 C 9.714844 2.675781 10.234375 1.394531 10.070312 0.00390625 C 8.722656 0.902344 8.183594 2.019531 8.378906 3.535156 Z M 11.429688 26.859375 C 11.425781 25.5 10.84375 24.316406 9.84375 23.394531 C 9.925781 23.957031 9.804688 24.554688 9.589844 24.996094 C 10.164062 25.410156 10.710938 26.023438 11.046875 26.855469 C 10.941406 26.859375 10.839844 26.867188 10.738281 26.882812 C 10.136719 25.929688 9.160156 25.144531 8.144531 24.777344 C 8.535156 23.476562 8.328125 22.175781 7.640625 20.996094 C 7.554688 21.558594 7.261719 22.097656 6.929688 22.457031 C 7.355469 23.023438 7.699219 23.765625 7.777344 24.660156 C 7.675781 24.632812 7.574219 24.613281 7.476562 24.59375 C 7.175781 23.507812 6.472656 22.472656 5.609375 21.824219 C 6.367188 20.691406 6.542969 19.386719 6.230469 18.0625 C 5.984375 18.574219 5.546875 19 5.125 19.25 C 5.371094 19.914062 5.476562 20.726562 5.292969 21.605469 C 5.203125 21.550781 5.113281 21.5 5.023438 21.453125 C 5.054688 20.328125 4.683594 19.132812 4.046875 18.257812 C 5.101562 17.398438 5.652344 16.203125 5.742188 14.84375 C 5.355469 15.257812 4.816406 15.542969 4.335938 15.652344 C 4.378906 16.363281 4.242188 17.171875 3.808594 17.957031 C 3.738281 17.878906 3.667969 17.800781 3.59375 17.730469 C 3.957031 16.664062 3.949219 15.410156 3.597656 14.386719 C 4.78125 13.898438 5.609375 12.96875 6.066406 11.765625 C 5.597656 12.035156 5.027344 12.140625 4.5625 12.113281 C 4.402344 12.761719 4.0625 13.453125 3.460938 14.042969 C 3.417969 13.941406 3.371094 13.847656 3.316406 13.753906 C 3.976562 12.839844 4.335938 11.640625 4.296875 10.558594 C 5.496094 10.4375 6.496094 9.828125 7.238281 8.867188 C 6.738281 8.984375 6.191406 8.921875 5.777344 8.765625 C 5.460938 9.304688 4.964844 9.828125 4.269531 10.195312 C 4.253906 10.085938 4.238281 9.976562 4.214844 9.871094 C 5.109375 9.1875 5.804688 8.144531 6.085938 7.097656 C 7.265625 7.335938 8.402344 7.042969 9.390625 6.34375 C 8.878906 6.308594 8.375 6.089844 8.027344 5.820312 C 7.5625 6.238281 6.9375 6.597656 6.164062 6.746094 C 6.183594 6.636719 6.195312 6.527344 6.207031 6.417969 C 7.496094 5.941406 8.652344 4.867188 9.121094 3.699219 C 10.363281 3.605469 11.644531 2.929688 12.257812 2 C 11.425781 2.191406 10.945312 2.160156 10.464844 2.125 C 10.132812 2.65625 9.695312 3.117188 9.132812 3.453125 C 8.328125 3.933594 7.78125 4.039062 7.253906 4.164062 C 7.058594 4.871094 6.722656 5.535156 6.210938 6.109375 C 5.546875 6.855469 5.042969 7.125 4.554688 7.40625 C 4.578125 8.140625 4.449219 8.875 4.128906 9.570312 C 3.710938 10.480469 3.308594 10.886719 2.921875 11.296875 C 3.160156 11.992188 3.253906 12.734375 3.148438 13.492188 C 3.015625 14.484375 2.746094 14.992188 2.5 15.496094 C 2.929688 16.09375 3.234375 16.773438 3.355469 17.53125 C 3.519531 18.519531 3.410156 19.082031 3.324219 19.636719 C 3.90625 20.082031 4.398438 20.640625 4.734375 21.332031 C 5.179688 22.226562 5.238281 22.796875 5.320312 23.355469 C 6.007812 23.609375 6.640625 24.003906 7.164062 24.5625 C 7.851562 25.289062 8.074219 25.816406 8.3125 26.328125 C 9.046875 26.367188 9.765625 26.558594 10.429688 26.9375 C 11.300781 27.4375 11.667969 27.875 12.046875 28.292969 C 12.824219 28.101562 13.632812 28.105469 14.453125 28.304688 C 14.582031 28.335938 14.710938 28.371094 14.84375 28.414062 C 13.976562 27.503906 12.648438 26.921875 11.429688 26.859375 Z M 7.65625 3.355469 C 7.84375 3.152344 7.828125 2.835938 7.625 2.648438 C 7.421875 2.460938 7.105469 2.472656 6.917969 2.675781 C 6.734375 2.878906 6.746094 3.199219 6.949219 3.382812 C 7.152344 3.570312 7.46875 3.558594 7.65625 3.355469 Z M 5.449219 6.476562 C 6.476562 5.265625 6.597656 3.886719 6.035156 2.605469 C 5.007812 3.859375 4.820312 5.085938 5.449219 6.476562 Z M 4.75 6.460938 C 4.871094 6.210938 4.765625 5.914062 4.515625 5.792969 C 4.265625 5.675781 3.96875 5.78125 3.847656 6.027344 C 3.730469 6.277344 3.835938 6.578125 4.085938 6.695312 C 4.332031 6.816406 4.632812 6.710938 4.75 6.460938 Z M 3.507812 10.144531 C 4.175781 8.59375 3.871094 7.148438 2.898438 6.015625 C 2.238281 7.613281 2.429688 8.925781 3.507812 10.144531 Z M 2.863281 10.25 C 2.90625 9.976562 2.71875 9.722656 2.445312 9.679688 C 2.171875 9.636719 1.917969 9.828125 1.875 10.101562 C 1.835938 10.375 2.023438 10.628906 2.296875 10.667969 C 2.570312 10.710938 2.824219 10.523438 2.863281 10.25 Z M 2.722656 14.226562 C 2.917969 12.4375 2.164062 11.0625 0.824219 10.214844 C 0.648438 12.046875 1.25 13.320312 2.722656 14.226562 Z M 2.136719 14.511719 C 2.097656 14.238281 1.84375 14.050781 1.570312 14.089844 C 1.296875 14.128906 1.109375 14.382812 1.148438 14.65625 C 1.1875 14.929688 1.441406 15.121094 1.714844 15.078125 C 1.988281 15.039062 2.179688 14.785156 2.136719 14.511719 Z M 3.164062 18.355469 C 2.808594 16.484375 1.617188 15.328125 0 14.886719 C 0.390625 16.792969 1.390625 17.894531 3.164062 18.355469 Z M 2.6875 18.800781 C 2.570312 18.550781 2.273438 18.445312 2.023438 18.5625 C 1.773438 18.679688 1.667969 18.980469 1.785156 19.230469 C 1.902344 19.480469 2.203125 19.585938 2.449219 19.464844 C 2.699219 19.347656 2.808594 19.050781 2.6875 18.800781 Z M 4.789062 22.175781 C 3.859375 20.398438 2.296875 19.597656 0.527344 19.648438 C 1.507812 21.453125 2.859375 22.257812 4.789062 22.175781 Z M 4.46875 22.738281 C 4.28125 22.535156 3.964844 22.519531 3.761719 22.707031 C 3.554688 22.894531 3.542969 23.210938 3.726562 23.414062 C 3.914062 23.617188 4.230469 23.632812 4.433594 23.445312 C 4.640625 23.261719 4.652344 22.945312 4.46875 22.738281 Z M 7.464844 25.355469 C 5.976562 23.851562 4.164062 23.527344 2.398438 24.125 C 3.9375 25.636719 5.546875 26.03125 7.464844 25.355469 Z M 7.320312 25.929688 C 7.082031 25.789062 6.773438 25.867188 6.632812 26.105469 C 6.492188 26.34375 6.574219 26.652344 6.808594 26.792969 C 7.046875 26.933594 7.355469 26.855469 7.496094 26.617188 C 7.636719 26.378906 7.558594 26.070312 7.320312 25.929688 Z M 9.53125 5.644531 C 9.703125 5.457031 9.691406 5.171875 9.507812 5 C 9.320312 4.832031 9.035156 4.84375 8.863281 5.027344 C 8.695312 5.210938 8.707031 5.5 8.890625 5.671875 C 9.074219 5.839844 9.363281 5.828125 9.53125 5.644531 Z M 7.167969 8.277344 C 7.277344 8.050781 7.179688 7.78125 6.957031 7.671875 C 6.730469 7.5625 6.457031 7.65625 6.347656 7.882812 C 6.238281 8.109375 6.335938 8.382812 6.5625 8.492188 C 6.789062 8.601562 7.058594 8.503906 7.167969 8.277344 Z M 5.640625 11.285156 C 5.679688 11.039062 5.507812 10.804688 5.261719 10.769531 C 5.011719 10.730469 4.78125 10.902344 4.742188 11.148438 C 4.707031 11.398438 4.875 11.628906 5.125 11.667969 C 5.371094 11.707031 5.605469 11.535156 5.640625 11.285156 Z M 5.085938 14.65625 C 5.050781 14.40625 4.820312 14.234375 4.570312 14.273438 C 4.320312 14.308594 4.148438 14.539062 4.1875 14.789062 C 4.222656 15.039062 4.453125 15.210938 4.703125 15.171875 C 4.949219 15.136719 5.121094 14.90625 5.085938 14.65625 Z M 5.550781 18.078125 C 5.441406 17.847656 5.171875 17.753906 4.945312 17.859375 C 4.71875 17.96875 4.621094 18.238281 4.726562 18.464844 C 4.835938 18.691406 5.105469 18.789062 5.332031 18.683594 C 5.5625 18.574219 5.65625 18.304688 5.550781 18.078125 Z M 6.992188 21.210938 C 6.824219 21.027344 6.535156 21.011719 6.351562 21.183594 C 6.164062 21.351562 6.152344 21.636719 6.320312 21.824219 C 6.488281 22.011719 6.777344 22.023438 6.960938 21.855469 C 7.148438 21.683594 7.160156 21.394531 6.992188 21.210938 Z M 9.289062 23.785156 C 9.070312 23.660156 8.792969 23.730469 8.664062 23.945312 C 8.535156 24.164062 8.609375 24.441406 8.824219 24.570312 C 9.039062 24.699219 9.320312 24.625 9.445312 24.410156 C 9.574219 24.195312 9.503906 23.914062 9.289062 23.785156 Z M 10.949219 27.609375 C 9.089844 26.605469 7.257812 26.828125 5.742188 27.917969 C 7.660156 28.914062 9.3125 28.816406 10.949219 27.609375 Z M 10.921875 28.164062 C 10.652344 28.101562 10.382812 28.265625 10.320312 28.535156 C 10.253906 28.804688 10.417969 29.074219 10.6875 29.136719 C 10.957031 29.203125 11.226562 29.039062 11.289062 28.769531 C 11.355469 28.5 11.191406 28.230469 10.921875 28.164062 Z M 12.261719 25.5625 C 11.992188 25.496094 11.722656 25.660156 11.65625 25.929688 C 11.589844 26.199219 11.757812 26.46875 12.023438 26.535156 C 12.292969 26.601562 12.5625 26.433594 12.628906 26.164062 C 12.695312 25.898438 12.527344 25.625 12.261719 25.5625 Z M 15.214844 28.835938 C 13.191406 28.230469 11.445312 28.820312 10.179688 30.191406 C 12.261719 30.777344 13.859375 30.351562 15.214844 28.835938 Z M 12.914062 26.761719 C 12.988281 26.242188 12.90625 25.503906 12.652344 25.039062 C 14.003906 25.6875 14.957031 26.789062 15.289062 28.289062 C 14.625 27.542969 13.816406 27.023438 12.914062 26.761719 " fill-opacity="1" fill-rule="nonzero"/></g><path fill="#d1a32c" d="M 12.683594 13.097656 L 11.921875 13.097656 L 11.921875 10.089844 L 12.683594 10.089844 L 12.683594 11.230469 L 13.550781 11.230469 L 13.550781 10.089844 L 14.316406 10.089844 L 14.316406 13.097656 L 13.550781 13.097656 L 13.550781 11.964844 L 12.683594 11.964844 L 12.683594 13.097656 " fill-opacity="1" fill-rule="nonzero"/><path fill="#d1a32c" d="M 15.660156 13.097656 L 14.898438 13.097656 L 14.898438 10.089844 L 15.660156 10.089844 L 15.660156 13.097656 " fill-opacity="1" fill-rule="nonzero"/><path fill="#d1a32c" d="M 17.765625 10.984375 C 17.601562 10.578125 16.929688 10.671875 16.929688 11.066406 L 16.929688 12.101562 C 16.929688 12.570312 17.808594 12.566406 17.808594 12.101562 L 17.808594 11.988281 L 17.328125 11.988281 L 17.328125 11.351562 L 18.539062 11.351562 L 18.539062 12.101562 C 18.539062 12.792969 17.960938 13.140625 17.359375 13.140625 C 16.765625 13.140625 16.167969 12.792969 16.167969 12.101562 L 16.167969 11.066406 C 16.167969 10.386719 16.765625 10.046875 17.359375 10.046875 C 17.75 10.046875 18.195312 10.210938 18.402344 10.691406 L 17.765625 10.984375 " fill-opacity="1" fill-rule="nonzero"/><path fill="#d1a32c" d="M 19.761719 13.097656 L 19 13.097656 L 19 10.089844 L 19.761719 10.089844 L 19.761719 11.230469 L 20.628906 11.230469 L 20.628906 10.089844 L 21.394531 10.089844 L 21.394531 13.097656 L 20.628906 13.097656 L 20.628906 11.964844 L 19.761719 11.964844 L 19.761719 13.097656 " fill-opacity="1" fill-rule="nonzero"/><path fill="#d1a32c" d="M 8.777344 16.714844 C 8.777344 16.992188 9.121094 17.144531 9.367188 17.039062 L 9.121094 16.78125 L 9.542969 16.417969 L 9.75 16.628906 L 9.75 15.6875 C 9.75 15.222656 8.777344 15.234375 8.777344 15.6875 Z M 8.019531 15.6875 C 8.019531 14.992188 8.640625 14.652344 9.261719 14.652344 C 9.886719 14.652344 10.511719 14.996094 10.511719 15.6875 L 10.511719 16.714844 C 10.511719 16.921875 10.453125 17.101562 10.359375 17.246094 L 10.59375 17.484375 L 10.171875 17.863281 L 9.925781 17.605469 C 9.726562 17.699219 9.496094 17.746094 9.265625 17.746094 C 8.644531 17.746094 8.019531 17.402344 8.019531 16.714844 L 8.019531 15.6875 " fill-opacity="1" fill-rule="nonzero"/><path fill="#d1a32c" d="M 11.773438 16.699219 C 11.773438 17.183594 12.632812 17.183594 12.636719 16.699219 L 12.636719 14.695312 L 13.40625 14.695312 L 13.40625 16.699219 C 13.398438 18.109375 11 18.109375 11.003906 16.699219 L 11.003906 14.695312 L 11.773438 14.695312 L 11.773438 16.699219 " fill-opacity="1" fill-rule="nonzero"/><path fill="#d1a32c" d="M 15.230469 16.425781 L 15.023438 15.546875 L 15.003906 15.546875 L 14.78125 16.425781 Z M 16.425781 17.703125 L 15.609375 17.703125 L 15.414062 17.101562 L 14.613281 17.101562 L 14.425781 17.703125 L 13.609375 17.703125 L 14.660156 14.695312 L 15.351562 14.695312 L 16.425781 17.703125 " fill-opacity="1" fill-rule="nonzero"/><path fill="#d1a32c" d="M 16.730469 14.695312 L 17.496094 14.695312 L 17.496094 16.953125 L 18.71875 16.953125 L 18.71875 17.703125 L 16.730469 17.703125 L 16.730469 14.695312 " fill-opacity="1" fill-rule="nonzero"/><path fill="#d1a32c" d="M 19.886719 17.703125 L 19.128906 17.703125 L 19.128906 14.695312 L 19.886719 14.695312 L 19.886719 17.703125 " fill-opacity="1" fill-rule="nonzero"/><path fill="#d1a32c" d="M 21.859375 15.414062 L 21.859375 17.703125 L 21.089844 17.703125 L 21.089844 15.414062 L 20.292969 15.414062 L 20.292969 14.691406 L 22.65625 14.691406 L 22.65625 15.414062 L 21.859375 15.414062 " fill-opacity="1" fill-rule="nonzero"/><path fill="#d1a32c" d="M 23.835938 17.703125 L 23.835938 16.519531 L 22.785156 14.695312 L 23.667969 14.695312 L 24.210938 15.800781 L 24.757812 14.695312 L 25.648438 14.695312 L 24.59375 16.519531 L 24.59375 17.703125 L 23.835938 17.703125 " fill-opacity="1" fill-rule="nonzero"/></svg>