<svg xmlns="http://www.w3.org/2000/svg" xmlns:xlink="http://www.w3.org/1999/xlink" width="45" zoomAndPan="magnify" viewBox="0 0 33.75 33.749998" height="45" preserveAspectRatio="xMidYMid meet" version="1.0"><defs><clipPath id="7cd102ed09"><path d="M 0 1.035156 L 32.757812 1.035156 L 32.757812 32.304688 L 0 32.304688 Z M 0 1.035156 " clip-rule="nonzero"/></clipPath></defs><g clip-path="url(#7cd102ed09)"><path fill="#ffffff" d="M 32.492188 12.195312 C 32.644531 12.195312 32.765625 12.074219 32.765625 11.917969 L 32.765625 7.992188 C 32.765625 7.839844 32.644531 7.71875 32.492188 7.71875 L 29.832031 7.71875 L 29.832031 6.519531 L 30.335938 6.519531 C 31.683594 6.488281 31.683594 4.515625 30.335938 4.480469 L 30.03125 4.480469 L 30.03125 3.066406 C 29.964844 1.042969 27.03125 1.046875 26.96875 3.066406 L 26.96875 4.480469 L 26.660156 4.480469 C 25.316406 4.515625 25.316406 6.488281 26.660156 6.519531 L 27.167969 6.519531 L 27.167969 7.722656 L 5.601562 7.722656 L 5.601562 6.519531 L 6.109375 6.519531 C 6.992188 6.542969 7.472656 5.390625 6.824219 4.777344 C 6.5625 4.496094 6.160156 4.460938 5.800781 4.480469 L 5.800781 3.066406 C 5.730469 1.035156 2.800781 1.046875 2.738281 3.066406 L 2.738281 4.480469 L 2.429688 4.480469 C 1.085938 4.515625 1.085938 6.488281 2.429688 6.519531 L 2.9375 6.519531 L 2.9375 7.722656 L 0.277344 7.722656 C 0.125 7.722656 0.00390625 7.84375 0.00390625 8 L 0.00390625 11.925781 C 0.00390625 12.078125 0.125 12.203125 0.277344 12.203125 L 2.929688 12.203125 L 2.929688 15.890625 L 0.277344 15.890625 C 0.125 15.890625 0.00390625 16.015625 0.00390625 16.167969 L 0.00390625 20.082031 C 0.00390625 20.234375 0.125 20.359375 0.277344 20.359375 L 2.929688 20.359375 L 2.929688 32.191406 C 2.929688 32.34375 3.050781 32.464844 3.207031 32.464844 L 5.324219 32.464844 C 5.480469 32.464844 5.601562 32.34375 5.601562 32.191406 L 5.601562 27.621094 L 9.535156 27.621094 C 9.535156 27.621094 9.507812 27.726562 9.507812 27.726562 L 8.984375 29.953125 L 8.644531 29.953125 C 8.066406 29.953125 7.59375 30.429688 7.59375 31.003906 L 7.59375 32.191406 C 7.59375 32.34375 7.714844 32.464844 7.871094 32.464844 L 18.414062 32.464844 C 18.570312 32.464844 18.691406 32.34375 18.691406 32.191406 L 18.691406 31.003906 C 18.691406 30.429688 18.214844 29.953125 17.640625 29.953125 L 17.292969 29.953125 L 16.773438 27.730469 C 16.773438 27.730469 16.773438 27.726562 16.773438 27.726562 L 16.75 27.621094 L 27.171875 27.621094 L 27.171875 32.191406 C 27.171875 32.34375 27.292969 32.464844 27.449219 32.464844 L 29.570312 32.464844 C 29.722656 32.464844 29.84375 32.34375 29.84375 32.191406 L 29.84375 20.359375 L 32.503906 20.359375 C 32.65625 20.359375 32.777344 20.234375 32.777344 20.082031 L 32.777344 16.15625 C 32.777344 16 32.65625 15.878906 32.503906 15.878906 L 29.84375 15.878906 L 29.84375 12.1875 L 32.492188 12.1875 Z M 32.222656 8.269531 L 32.222656 11.082031 L 28.804688 8.273438 C 29.304688 8.273438 31.664062 8.269531 32.222656 8.269531 Z M 27.710938 7.722656 L 27.710938 6.519531 L 29.285156 6.519531 L 29.285156 7.722656 Z M 27.519531 3.066406 C 27.558594 1.773438 29.453125 1.765625 29.484375 3.066406 C 29.484375 3.066406 29.484375 4.480469 29.484375 4.480469 L 27.519531 4.480469 Z M 26.660156 5.972656 C 26.039062 5.96875 26.039062 5.039062 26.660156 5.03125 L 30.332031 5.03125 C 30.953125 5.03125 30.945312 5.980469 30.332031 5.972656 C 30.335938 5.972656 26.660156 5.972656 26.660156 5.972656 Z M 23.257812 8.269531 L 27.363281 11.644531 L 23.546875 11.644531 L 19.433594 8.269531 Z M 10.125 27.515625 C 10.265625 26.917969 10.554688 25.679688 10.695312 25.074219 L 15.589844 25.074219 C 15.632812 25.269531 16.128906 27.386719 16.160156 27.515625 Z M 16.289062 28.058594 L 16.730469 29.953125 L 9.546875 29.953125 L 9.988281 28.058594 Z M 10.824219 24.523438 L 11.394531 22.074219 L 14.882812 22.074219 L 15.453125 24.523438 Z M 11.546875 19.03125 L 11.367188 19.804688 L 9.515625 19.804688 L 5.394531 16.429688 L 9.214844 16.429688 L 12.125 18.820312 C 11.929688 18.828125 11.597656 18.769531 11.546875 19.03125 Z M 14.25 19.371094 C 14.300781 19.574219 14.699219 21.28125 14.757812 21.53125 L 11.519531 21.53125 C 11.636719 21.03125 11.910156 19.859375 12.027344 19.371094 Z M 14.867188 19.570312 C 14.769531 19.289062 14.800781 18.820312 14.476562 18.820312 L 12.988281 18.820312 L 10.078125 16.429688 L 13.898438 16.429688 C 14.636719 17.03125 17.230469 19.164062 18.003906 19.804688 L 14.917969 19.804688 Z M 15.210938 16.800781 L 14.761719 16.429688 L 18.582031 16.429688 L 22.695312 19.804688 L 18.875 19.804688 Z M 14 15.886719 C 14 15.886719 5.601562 15.886719 5.601562 15.886719 L 5.601562 12.195312 L 27.167969 12.195312 L 27.167969 15.886719 Z M 18.574219 8.269531 L 22.6875 11.644531 L 18.871094 11.644531 L 14.761719 8.269531 Z M 13.898438 8.269531 L 18.003906 11.644531 L 14.1875 11.644531 L 10.074219 8.269531 Z M 9.214844 8.269531 L 13.328125 11.644531 L 9.507812 11.644531 L 5.402344 8.269531 Z M 3.28125 3.066406 C 3.320312 1.773438 5.21875 1.765625 5.25 3.066406 C 5.25 3.066406 5.25 4.480469 5.25 4.480469 L 3.28125 4.480469 Z M 2.429688 5.972656 C 1.808594 5.96875 1.808594 5.039062 2.429688 5.03125 L 6.101562 5.03125 C 6.722656 5.03125 6.714844 5.972656 6.101562 5.972656 C 6.109375 5.972656 2.429688 5.972656 2.429688 5.972656 Z M 5.058594 6.519531 L 5.058594 7.722656 L 3.480469 7.722656 L 3.480469 6.519531 Z M 3.199219 8.269531 C 3.207031 8.273438 4.53125 8.269531 4.542969 8.269531 L 8.652344 11.644531 C 8.316406 11.644531 5.050781 11.644531 4.832031 11.644531 L 0.726562 8.269531 Z M 5.058594 12.195312 L 5.058594 15.886719 C 4.773438 15.886719 3.777344 15.886719 3.480469 15.886719 L 3.480469 12.195312 Z M 0.546875 11.652344 L 0.546875 8.839844 L 3.96875 11.644531 C 3.460938 11.652344 1.097656 11.652344 0.546875 11.652344 Z M 0.546875 19.804688 L 0.546875 16.992188 L 3.960938 19.800781 C 3.460938 19.804688 1.097656 19.804688 0.546875 19.804688 Z M 5.058594 31.921875 L 3.480469 31.921875 L 3.480469 20.359375 L 5.058594 20.359375 Z M 4.828125 19.804688 L 0.71875 16.429688 L 3.199219 16.429688 C 3.207031 16.4375 4.53125 16.429688 4.542969 16.429688 L 4.667969 16.53125 L 8.652344 19.804688 C 8.3125 19.804688 5.050781 19.804688 4.828125 19.804688 Z M 5.601562 20.359375 C 5.601562 20.359375 9.40625 20.359375 9.40625 20.359375 L 11.234375 20.359375 C 10.988281 21.390625 10.398438 23.90625 10.15625 24.957031 L 5.601562 24.957031 Z M 5.601562 27.070312 L 5.601562 25.503906 L 10.027344 25.503906 C 9.9375 25.894531 9.753906 26.679688 9.664062 27.070312 Z M 17.640625 30.5 C 17.914062 30.5 18.144531 30.722656 18.144531 31.003906 L 18.144531 31.921875 L 8.144531 31.921875 L 8.144531 31.003906 C 8.144531 30.730469 8.367188 30.5 8.652344 30.5 Z M 27.167969 27.070312 L 16.621094 27.070312 C 16.613281 27.035156 16.28125 25.597656 16.253906 25.503906 L 27.171875 25.503906 L 27.171875 27.070312 Z M 27.167969 24.957031 L 16.121094 24.957031 C 15.871094 23.894531 15.289062 21.390625 15.042969 20.359375 C 17.464844 20.359375 24.640625 20.359375 27.167969 20.359375 Z M 23.554688 19.804688 L 19.441406 16.429688 L 23.257812 16.429688 L 27.363281 19.804688 Z M 29.285156 31.921875 L 27.71875 31.921875 C 27.71875 28.601562 27.71875 23.683594 27.71875 20.359375 L 29.285156 20.359375 Z M 29.570312 19.804688 C 29.5625 19.804688 28.234375 19.804688 28.230469 19.804688 L 24.125 16.429688 C 24.457031 16.429688 27.722656 16.429688 27.941406 16.429688 L 32.046875 19.804688 Z M 27.71875 15.886719 L 27.71875 12.195312 L 29.285156 12.195312 L 29.285156 15.886719 Z M 32.222656 16.429688 L 32.222656 19.242188 L 28.800781 16.429688 C 29.304688 16.429688 31.664062 16.429688 32.222656 16.429688 Z M 28.230469 11.652344 L 24.125 8.273438 L 27.433594 8.273438 C 27.441406 8.28125 27.933594 8.273438 27.949219 8.273438 L 32.054688 11.652344 C 31.183594 11.652344 29.070312 11.644531 28.230469 11.652344 Z M 28.230469 11.652344 " fill-opacity="1" fill-rule="nonzero"/></g></svg>