<svg xmlns="http://www.w3.org/2000/svg" xmlns:xlink="http://www.w3.org/1999/xlink" width="45" zoomAndPan="magnify" viewBox="0 0 33.75 33.749998" height="45" preserveAspectRatio="xMidYMid meet" version="1.0"><defs><clipPath id="86ba7aae57"><path d="M 3 22 L 30 22 L 30 32.683594 L 3 32.683594 Z M 3 22 " clip-rule="nonzero"/></clipPath><clipPath id="4ac2e88e04"><path d="M 7 0.671875 L 22 0.671875 L 22 8 L 7 8 Z M 7 0.671875 " clip-rule="nonzero"/></clipPath><clipPath id="c536cfd6c1"><path d="M 17 12 L 33.5 12 L 33.5 30 L 17 30 Z M 17 12 " clip-rule="nonzero"/></clipPath></defs><g clip-path="url(#86ba7aae57)"><path fill="#ffffff" d="M 22.785156 22.75 C 22.703125 22.640625 22.578125 22.578125 22.445312 22.578125 L 10.988281 22.578125 C 10.984375 22.578125 10.984375 22.578125 10.984375 22.578125 C 10.875 22.578125 10.773438 22.621094 10.699219 22.691406 C 10.691406 22.699219 10.683594 22.707031 10.675781 22.714844 C 10.664062 22.726562 10.652344 22.738281 10.644531 22.753906 L 3.5625 32.136719 C 3.464844 32.265625 3.449219 32.441406 3.523438 32.585938 C 3.59375 32.730469 3.742188 32.820312 3.90625 32.820312 L 7.09375 32.820312 C 7.230469 32.820312 7.355469 32.757812 7.4375 32.652344 L 12.558594 25.800781 L 17.726562 32.652344 C 17.808594 32.757812 17.933594 32.820312 18.070312 32.820312 L 29.527344 32.820312 C 29.6875 32.820312 29.835938 32.730469 29.910156 32.585938 C 29.980469 32.441406 29.964844 32.265625 29.867188 32.136719 Z M 6.882812 31.96875 L 4.761719 31.96875 L 10.988281 23.714844 L 12.023438 25.089844 Z M 18.28125 31.96875 L 12.902344 24.835938 C 12.898438 24.832031 12.894531 24.828125 12.890625 24.820312 L 11.84375 23.433594 L 22.230469 23.433594 L 28.667969 31.96875 Z M 18.28125 31.96875 " fill-opacity="1" fill-rule="nonzero"/></g><g clip-path="url(#4ac2e88e04)"><path fill="#ffffff" d="M 7.933594 7.8125 L 20.863281 7.8125 C 21.105469 7.8125 21.296875 7.617188 21.296875 7.375 C 21.296875 7.136719 21.105469 6.941406 20.863281 6.941406 L 20.242188 6.941406 C 20.0625 5.78125 19.585938 4.6875 18.851562 3.757812 C 18.117188 2.820312 17.152344 2.09375 16.058594 1.644531 L 16.058594 1.101562 C 16.058594 0.863281 15.867188 0.667969 15.625 0.667969 L 13.171875 0.667969 C 12.933594 0.667969 12.738281 0.863281 12.738281 1.101562 L 12.738281 1.644531 C 11.644531 2.09375 10.683594 2.820312 9.945312 3.757812 C 9.214844 4.6875 8.738281 5.78125 8.554688 6.941406 L 7.933594 6.941406 C 7.695312 6.941406 7.5 7.136719 7.5 7.375 C 7.5 7.617188 7.695312 7.8125 7.933594 7.8125 Z M 9.621094 6.191406 C 9.640625 6.191406 9.660156 6.195312 9.679688 6.195312 L 10.28125 6.195312 L 10.335938 6.355469 C 10.402344 6.53125 10.566406 6.640625 10.746094 6.640625 C 10.792969 6.640625 10.84375 6.632812 10.890625 6.617188 C 11.117188 6.535156 11.234375 6.289062 11.152344 6.0625 L 10.992188 5.613281 C 10.929688 5.441406 10.769531 5.328125 10.585938 5.328125 L 9.976562 5.328125 C 10.566406 4.152344 11.535156 3.179688 12.738281 2.59375 L 12.738281 5.566406 C 12.738281 5.804688 12.933594 6 13.171875 6 C 13.410156 6 13.605469 5.804688 13.605469 5.566406 L 13.605469 1.539062 L 15.191406 1.539062 L 15.191406 5.566406 C 15.191406 5.804688 15.386719 6 15.625 6 C 15.867188 6 16.058594 5.804688 16.058594 5.566406 L 16.058594 2.59375 C 17.261719 3.179688 18.230469 4.152344 18.820312 5.328125 L 18.214844 5.328125 C 18.03125 5.328125 17.867188 5.441406 17.804688 5.613281 L 17.644531 6.0625 C 17.5625 6.289062 17.679688 6.535156 17.90625 6.617188 C 17.953125 6.632812 18.003906 6.640625 18.054688 6.640625 C 18.230469 6.640625 18.398438 6.53125 18.460938 6.355469 L 18.519531 6.195312 L 19.117188 6.195312 C 19.136719 6.195312 19.15625 6.191406 19.175781 6.191406 C 19.253906 6.433594 19.316406 6.6875 19.363281 6.941406 L 9.433594 6.941406 C 9.480469 6.6875 9.542969 6.433594 9.621094 6.191406 Z M 9.621094 6.191406 " fill-opacity="1" fill-rule="nonzero"/></g><path fill="#ffffff" d="M 19.332031 8.585938 C 19.332031 11.304688 17.117188 13.519531 14.398438 13.519531 C 11.679688 13.519531 9.46875 11.304688 9.46875 8.585938 C 9.46875 8.347656 9.273438 8.152344 9.035156 8.152344 C 8.792969 8.152344 8.601562 8.347656 8.601562 8.585938 C 8.601562 9.371094 8.753906 10.128906 9.054688 10.84375 C 9.347656 11.535156 9.765625 12.15625 10.296875 12.6875 C 10.832031 13.21875 11.449219 13.636719 12.140625 13.929688 C 12.855469 14.234375 13.617188 14.386719 14.398438 14.386719 C 15.179688 14.386719 15.941406 14.234375 16.65625 13.929688 C 17.347656 13.636719 17.96875 13.21875 18.5 12.6875 C 19.03125 12.15625 19.449219 11.535156 19.742188 10.84375 C 20.042969 10.128906 20.199219 9.371094 20.199219 8.585938 C 20.199219 8.347656 20.003906 8.152344 19.765625 8.152344 C 19.523438 8.152344 19.332031 8.347656 19.332031 8.585938 Z M 19.332031 8.585938 " fill-opacity="1" fill-rule="nonzero"/><g clip-path="url(#c536cfd6c1)"><path fill="#ffffff" d="M 33.257812 27.339844 L 28.210938 20.574219 C 28.207031 20.570312 28.203125 20.5625 28.199219 20.558594 C 28.023438 20.34375 27.777344 20.242188 27.523438 20.273438 L 25.054688 16.960938 C 25.191406 16.820312 25.203125 16.601562 25.082031 16.4375 C 24.914062 16.210938 24.851562 15.941406 24.898438 15.640625 C 24.941406 15.351562 25.09375 15.097656 25.328125 14.921875 C 25.570312 14.742188 25.789062 14.675781 26.171875 14.671875 C 26.472656 14.664062 26.980469 14.707031 27.390625 14.816406 C 27.398438 14.820312 27.40625 14.820312 27.414062 14.824219 L 27.417969 14.824219 C 27.585938 14.863281 27.757812 14.828125 27.894531 14.726562 C 28.019531 14.632812 28.097656 14.496094 28.121094 14.34375 C 28.144531 14.191406 28.105469 14.039062 28.011719 13.914062 C 27.953125 13.835938 27.878906 13.777344 27.792969 13.734375 C 27.789062 13.734375 27.789062 13.734375 27.785156 13.734375 C 27.753906 13.71875 27.71875 13.703125 27.683594 13.6875 L 27.671875 13.683594 C 27.285156 13.511719 26.757812 13.273438 26.273438 13.128906 C 25.558594 12.90625 24.90625 12.792969 24.335938 12.78125 C 23.578125 12.765625 22.949219 12.9375 22.472656 13.292969 L 20.355469 14.863281 C 20.242188 14.949219 20.179688 15.078125 20.191406 15.21875 C 20.207031 15.496094 20.074219 15.765625 19.835938 15.945312 C 19.597656 16.121094 19.367188 16.179688 19.148438 16.121094 C 19.144531 16.121094 19.144531 16.121094 19.140625 16.121094 C 19.136719 16.117188 19.136719 16.117188 19.132812 16.117188 L 19.113281 16.113281 C 19.109375 16.113281 19.105469 16.113281 19.097656 16.109375 L 19.082031 16.109375 C 19.082031 16.109375 19.078125 16.109375 19.078125 16.109375 C 19.070312 16.109375 19.066406 16.109375 19.0625 16.109375 L 19.058594 16.105469 C 19.019531 16.105469 18.980469 16.109375 18.941406 16.117188 L 18.9375 16.121094 C 18.933594 16.121094 18.925781 16.121094 18.921875 16.125 L 18.917969 16.125 C 18.914062 16.125 18.910156 16.128906 18.902344 16.128906 L 18.898438 16.132812 C 18.894531 16.132812 18.890625 16.136719 18.882812 16.136719 L 18.878906 16.140625 C 18.875 16.140625 18.871094 16.144531 18.867188 16.144531 L 18.859375 16.148438 C 18.855469 16.152344 18.851562 16.152344 18.851562 16.152344 C 18.847656 16.15625 18.84375 16.15625 18.84375 16.15625 C 18.839844 16.160156 18.835938 16.160156 18.832031 16.164062 C 18.828125 16.164062 18.828125 16.167969 18.824219 16.167969 C 18.820312 16.167969 18.820312 16.171875 18.816406 16.171875 L 18.808594 16.179688 C 18.804688 16.179688 18.804688 16.183594 18.800781 16.183594 C 18.800781 16.183594 18.796875 16.1875 18.796875 16.1875 L 17.496094 17.152344 C 17.316406 17.289062 17.277344 17.542969 17.410156 17.722656 L 18.992188 19.855469 C 19.058594 19.941406 19.152344 20 19.261719 20.015625 C 19.289062 20.019531 19.320312 20.019531 19.347656 20.019531 C 19.425781 20.011719 19.5 19.984375 19.5625 19.9375 C 19.617188 19.898438 20.859375 18.976562 20.863281 18.972656 C 20.964844 18.898438 21.023438 18.789062 21.03125 18.671875 C 21.046875 18.425781 21.167969 18.199219 21.367188 18.050781 C 21.738281 17.777344 22.261719 17.855469 22.539062 18.226562 C 22.550781 18.238281 22.5625 18.257812 22.570312 18.273438 C 22.628906 18.363281 22.722656 18.429688 22.828125 18.449219 C 22.933594 18.472656 23.042969 18.453125 23.136719 18.394531 C 23.140625 18.394531 23.144531 18.390625 23.148438 18.386719 L 25.613281 21.691406 C 25.589844 21.746094 25.570312 21.804688 25.558594 21.863281 C 25.535156 21.996094 25.542969 22.203125 25.699219 22.425781 C 25.699219 22.425781 25.703125 22.429688 25.703125 22.433594 L 30.75 29.195312 C 30.917969 29.425781 31.128906 29.554688 31.371094 29.582031 L 31.375 29.582031 C 31.40625 29.585938 31.4375 29.585938 31.464844 29.585938 C 31.730469 29.585938 31.929688 29.460938 32.007812 29.402344 C 32.015625 29.398438 32.023438 29.390625 32.027344 29.386719 L 33.128906 28.566406 C 33.195312 28.519531 33.40625 28.34375 33.453125 28.035156 C 33.492188 27.796875 33.425781 27.566406 33.257812 27.339844 Z M 22.976562 17.5 C 22.394531 16.96875 21.519531 16.921875 20.878906 17.394531 L 20.878906 17.398438 C 20.722656 17.515625 20.585938 17.660156 20.480469 17.820312 C 20.339844 17.738281 20.160156 17.742188 20.023438 17.84375 C 19.84375 17.976562 19.804688 18.234375 19.941406 18.414062 L 20.050781 18.5625 L 19.40625 19.042969 L 18.308594 17.566406 L 18.953125 17.085938 L 19.328125 17.589844 C 19.394531 17.675781 19.488281 17.734375 19.597656 17.75 C 19.703125 17.765625 19.8125 17.738281 19.902344 17.675781 C 20.082031 17.539062 20.117188 17.285156 19.984375 17.101562 L 19.8125 16.875 C 19.988281 16.8125 20.15625 16.722656 20.320312 16.601562 L 20.324219 16.597656 C 20.550781 16.429688 20.734375 16.207031 20.851562 15.957031 C 20.933594 15.78125 20.984375 15.589844 21 15.398438 L 22.957031 13.949219 C 23.695312 13.398438 24.933594 13.585938 25.890625 13.863281 C 25.484375 13.898438 25.167969 14.023438 24.84375 14.265625 L 24.839844 14.269531 C 24.429688 14.574219 24.164062 15.019531 24.089844 15.523438 C 24.035156 15.882812 24.085938 16.242188 24.226562 16.570312 Z M 32.644531 27.914062 L 31.535156 28.742188 C 31.53125 28.746094 31.527344 28.746094 31.523438 28.75 C 31.507812 28.761719 31.484375 28.773438 31.46875 28.773438 L 31.464844 28.773438 C 31.457031 28.769531 31.433594 28.753906 31.398438 28.710938 L 26.394531 21.996094 L 26.707031 21.765625 C 26.796875 21.699219 26.851562 21.605469 26.867188 21.496094 C 26.882812 21.390625 26.855469 21.28125 26.792969 21.195312 C 26.726562 21.109375 26.632812 21.050781 26.523438 21.035156 C 26.417969 21.019531 26.3125 21.046875 26.222656 21.113281 L 26.207031 21.125 L 23.800781 17.902344 L 24.410156 17.453125 L 26.878906 20.765625 C 26.863281 20.875 26.890625 20.984375 26.957031 21.070312 C 27.019531 21.15625 27.117188 21.214844 27.222656 21.230469 C 27.332031 21.246094 27.4375 21.21875 27.523438 21.152344 L 27.59375 21.101562 L 32.605469 27.828125 C 32.632812 27.863281 32.648438 27.894531 32.652344 27.90625 C 32.648438 27.910156 32.644531 27.914062 32.644531 27.914062 Z M 32.652344 27.902344 Z M 32.652344 27.902344 " fill-opacity="1" fill-rule="nonzero"/></g><path fill="#ffffff" d="M 7.246094 15.136719 L 7.246094 20.003906 L 6.375 24.070312 C 6.324219 24.300781 6.472656 24.527344 6.703125 24.578125 C 6.730469 24.585938 6.761719 24.585938 6.792969 24.585938 C 6.988281 24.585938 7.167969 24.449219 7.210938 24.25 L 8.019531 20.476562 L 16.582031 20.476562 C 16.820312 20.476562 17.011719 20.285156 17.011719 20.046875 C 17.011719 19.8125 16.820312 19.621094 16.582031 19.621094 L 9.894531 19.621094 L 9.894531 14.671875 C 9.894531 14.433594 9.703125 14.242188 9.464844 14.242188 L 7.671875 14.242188 C 7.648438 14.242188 7.625 14.246094 7.605469 14.25 C 6.949219 14.277344 6.332031 14.429688 5.765625 14.695312 C 5.109375 15.007812 4.535156 15.476562 4.066406 16.082031 C 3.578125 16.710938 3.203125 17.488281 2.949219 18.390625 C 2.683594 19.328125 2.550781 20.410156 2.550781 21.605469 L 2.550781 28.542969 C 2.550781 28.78125 2.742188 28.972656 2.976562 28.972656 C 3.210938 28.972656 3.402344 28.78125 3.402344 28.542969 L 3.402344 21.605469 C 3.402344 17.835938 4.828125 15.46875 7.246094 15.136719 Z M 8.101562 15.097656 L 9.039062 15.097656 L 9.039062 19.621094 L 8.101562 19.621094 Z M 8.101562 15.097656 " fill-opacity="1" fill-rule="nonzero"/><path fill="#ffffff" d="M 0.0117188 11.308594 L 0.0507812 11.308594 L 0.0507812 11.425781 L 0.0117188 11.425781 Z M 0.0117188 11.308594 " fill-opacity="1" fill-rule="nonzero"/></svg>