<svg xmlns="http://www.w3.org/2000/svg" xmlns:xlink="http://www.w3.org/1999/xlink" width="45" zoomAndPan="magnify" viewBox="0 0 33.75 33.749998" height="45" preserveAspectRatio="xMidYMid meet" version="1.0"><defs><clipPath id="723e4f1739"><path d="M 23 16 L 33.5 16 L 33.5 25 L 23 25 Z M 23 16 " clip-rule="nonzero"/></clipPath><clipPath id="c8c988ce44"><path d="M 4 0.585938 L 30 0.585938 L 30 28 L 4 28 Z M 4 0.585938 " clip-rule="nonzero"/></clipPath><clipPath id="96ddb317fa"><path d="M 13 25 L 21 25 L 21 32.597656 L 13 32.597656 Z M 13 25 " clip-rule="nonzero"/></clipPath></defs><path fill="#9c5924" d="M 25.507812 19.675781 C 25.507812 19.675781 24.898438 21.441406 23.710938 22.945312 C 23.710938 22.945312 27.800781 20.5 27.675781 20.445312 C 26.976562 20.125 26.25 19.867188 25.507812 19.675781 Z M 25.507812 19.675781 " fill-opacity="1" fill-rule="nonzero"/><g clip-path="url(#723e4f1739)"><path fill="#d8990e" d="M 29.09375 16.039062 L 33.496094 17.367188 L 30.011719 20.109375 L 32.871094 24.980469 L 23.710938 22.945312 L 27.675781 20.445312 Z M 29.09375 16.039062 " fill-opacity="1" fill-rule="nonzero"/></g><path fill="#9c5924" d="M 7.996094 19.675781 C 7.996094 19.675781 8.601562 21.441406 9.792969 22.945312 C 9.792969 22.945312 5.699219 20.5 5.824219 20.445312 C 6.53125 20.125 7.261719 19.867188 7.996094 19.675781 Z M 7.996094 19.675781 " fill-opacity="1" fill-rule="nonzero"/><path fill="#d8990e" d="M 4.40625 16.039062 L 0.0078125 17.367188 L 3.488281 20.109375 L 0.628906 24.980469 L 9.792969 22.945312 L 5.824219 20.445312 Z M 4.40625 16.039062 " fill-opacity="1" fill-rule="nonzero"/><g clip-path="url(#c8c988ce44)"><path fill="#000000" d="M 16.8125 0.585938 C 16.8125 0.585938 21.695312 5.027344 29.195312 5.914062 C 29.195312 5.914062 30.355469 23.386719 16.8125 27.828125 C 3.28125 23.386719 4.441406 5.914062 4.441406 5.914062 C 11.9375 5.027344 16.8125 0.585938 16.8125 0.585938 " fill-opacity="1" fill-rule="nonzero"/></g><g clip-path="url(#96ddb317fa)"><path fill="#d8990e" d="M 16.742188 25.257812 L 20.449219 28.929688 L 16.742188 32.597656 L 13.035156 28.929688 Z M 16.742188 25.257812 " fill-opacity="1" fill-rule="evenodd"/></g><path fill="#d8990e" d="M 16.742188 24.785156 C 27.261719 21.335938 26.355469 7.769531 26.355469 7.769531 C 20.535156 7.082031 16.742188 3.632812 16.742188 3.632812 C 16.742188 3.632812 12.953125 7.082031 7.132812 7.769531 C 7.132812 7.761719 6.230469 21.335938 16.742188 24.785156 " fill-opacity="1" fill-rule="nonzero"/><path fill="#fbc83a" d="M 16.75 18.601562 C 22.289062 18.164062 27.675781 20.445312 27.675781 20.445312 L 30.453125 11.835938 C 25.570312 8.84375 16.75 8.96875 16.75 8.96875 C 16.75 8.96875 7.929688 8.84375 3.054688 11.835938 L 5.832031 20.445312 C 5.824219 20.4375 11.210938 18.164062 16.75 18.601562 " fill-opacity="1" fill-rule="nonzero"/><path fill="#d8990e" d="M 16.757812 10.289062 L 17.675781 12.894531 L 20.457031 12.949219 L 18.234375 14.617188 L 19.039062 17.257812 L 16.757812 15.683594 L 14.472656 17.265625 L 15.273438 14.625 L 13.050781 12.957031 L 15.835938 12.902344 Z M 16.757812 10.289062 " fill-opacity="1" fill-rule="nonzero"/></svg>