<svg xmlns="http://www.w3.org/2000/svg" xmlns:xlink="http://www.w3.org/1999/xlink" width="45" zoomAndPan="magnify" viewBox="0 0 33.75 33.749998" height="45" preserveAspectRatio="xMidYMid meet" version="1.0"><defs><clipPath id="b5428d5cea"><path d="M 0 0 L 33.5 0 L 33.5 33.5 L 0 33.5 Z M 0 0 " clip-rule="nonzero"/></clipPath></defs><g clip-path="url(#b5428d5cea)"><path fill="#02afef" d="M 32.972656 16.21875 L 31.023438 16.21875 C 30.75 8.765625 24.734375 2.753906 17.28125 2.480469 L 17.28125 0.53125 C 17.28125 0.234375 17.042969 0 16.75 0 C 16.453125 0 16.21875 0.238281 16.21875 0.53125 L 16.21875 2.480469 C 8.765625 2.753906 2.753906 8.765625 2.480469 16.21875 L 0.53125 16.21875 C 0.234375 16.21875 0 16.460938 0 16.75 C 0 17.046875 0.238281 17.28125 0.53125 17.28125 L 2.480469 17.28125 C 2.753906 24.734375 8.765625 30.75 16.21875 31.023438 L 16.21875 32.972656 C 16.21875 33.265625 16.460938 33.5 16.75 33.5 C 17.046875 33.5 17.28125 33.261719 17.28125 32.972656 L 17.28125 31.023438 C 24.734375 30.75 30.75 24.734375 31.023438 17.28125 L 32.972656 17.28125 C 33.265625 17.28125 33.5 17.042969 33.5 16.75 C 33.5 16.453125 33.261719 16.21875 32.972656 16.21875 Z M 17.28125 4.007812 C 23.890625 4.28125 29.21875 9.609375 29.492188 16.21875 L 27.238281 16.21875 C 26.96875 10.855469 22.652344 6.539062 17.285156 6.269531 L 17.285156 4.007812 Z M 16.21875 4.007812 L 16.21875 6.265625 C 10.855469 6.53125 6.539062 10.847656 6.269531 16.214844 L 4.007812 16.214844 C 4.28125 9.609375 9.609375 4.28125 16.21875 4.007812 Z M 16.21875 29.492188 C 9.609375 29.21875 4.28125 23.890625 4.007812 17.28125 L 6.269531 17.28125 C 6.539062 22.648438 10.855469 26.964844 16.21875 27.230469 Z M 16.75 21.945312 C 16.453125 21.945312 16.21875 22.183594 16.21875 22.472656 L 16.21875 25.042969 C 12.0625 24.78125 8.722656 21.441406 8.460938 17.28125 L 11.027344 17.28125 C 11.324219 17.28125 11.558594 17.042969 11.558594 16.75 C 11.558594 16.453125 11.316406 16.21875 11.027344 16.21875 L 8.460938 16.21875 C 8.722656 12.0625 12.0625 8.722656 16.21875 8.460938 L 16.21875 11.027344 C 16.21875 11.324219 16.460938 11.558594 16.75 11.558594 C 17.046875 11.558594 17.28125 11.316406 17.28125 11.027344 L 17.28125 8.460938 C 21.441406 8.722656 24.773438 12.0625 25.042969 16.21875 L 22.472656 16.21875 C 22.179688 16.21875 21.945312 16.460938 21.945312 16.75 C 21.945312 17.046875 22.183594 17.28125 22.472656 17.28125 L 25.042969 17.28125 C 24.78125 21.441406 21.441406 24.78125 17.28125 25.042969 L 17.28125 22.472656 C 17.28125 22.183594 17.046875 21.945312 16.75 21.945312 Z M 17.28125 29.492188 L 17.28125 27.230469 C 22.648438 26.964844 26.964844 22.648438 27.230469 17.28125 L 29.488281 17.28125 C 29.21875 23.890625 23.890625 29.21875 17.28125 29.492188 Z M 19.644531 16.75 C 19.644531 15.152344 18.34375 13.859375 16.75 13.859375 C 15.152344 13.859375 13.859375 15.160156 13.859375 16.75 C 13.859375 18.347656 15.160156 19.644531 16.75 19.644531 C 18.347656 19.644531 19.644531 18.347656 19.644531 16.75 Z M 16.75 18.332031 C 15.878906 18.332031 15.171875 17.621094 15.171875 16.75 C 15.171875 15.878906 15.878906 15.171875 16.75 15.171875 C 17.621094 15.171875 18.332031 15.878906 18.332031 16.75 C 18.332031 17.621094 17.621094 18.332031 16.75 18.332031 Z M 16.75 18.332031 " fill-opacity="1" fill-rule="nonzero"/></g></svg>