<svg xmlns="http://www.w3.org/2000/svg" xmlns:xlink="http://www.w3.org/1999/xlink" width="45" zoomAndPan="magnify" viewBox="0 0 33.75 33.749998" height="45" preserveAspectRatio="xMidYMid meet" version="1.0"><defs><clipPath id="863c5fb723"><path d="M 0 23 L 33.5 23 L 33.5 33.5 L 0 33.5 Z M 0 23 " clip-rule="nonzero"/></clipPath></defs><path fill="#02afef" d="M 9.820312 11.273438 L 8.773438 11.273438 C 8.488281 11.273438 8.25 11.507812 8.25 11.796875 C 8.25 12.082031 8.488281 12.316406 8.773438 12.316406 L 9.820312 12.316406 C 10.109375 12.316406 10.34375 12.082031 10.34375 11.796875 C 10.34375 11.507812 10.109375 11.273438 9.820312 11.273438 Z M 9.820312 11.273438 " fill-opacity="1" fill-rule="nonzero"/><path fill="#02afef" d="M 12.957031 11.273438 L 11.914062 11.273438 C 11.625 11.273438 11.390625 11.507812 11.390625 11.796875 C 11.390625 12.082031 11.625 12.316406 11.914062 12.316406 L 12.957031 12.316406 C 13.246094 12.316406 13.480469 12.082031 13.480469 11.796875 C 13.480469 11.507812 13.246094 11.273438 12.957031 11.273438 Z M 12.957031 11.273438 " fill-opacity="1" fill-rule="nonzero"/><path fill="#02afef" d="M 16.097656 11.273438 L 15.050781 11.273438 C 14.761719 11.273438 14.527344 11.507812 14.527344 11.796875 C 14.527344 12.082031 14.761719 12.316406 15.050781 12.316406 L 16.097656 12.316406 C 16.386719 12.316406 16.621094 12.082031 16.621094 11.796875 C 16.621094 11.507812 16.386719 11.273438 16.097656 11.273438 Z M 16.097656 11.273438 " fill-opacity="1" fill-rule="nonzero"/><path fill="#02afef" d="M 9.820312 13.363281 L 8.773438 13.363281 C 8.488281 13.363281 8.25 13.597656 8.25 13.886719 C 8.25 14.175781 8.488281 14.410156 8.773438 14.410156 L 9.820312 14.410156 C 10.109375 14.410156 10.34375 14.175781 10.34375 13.886719 C 10.34375 13.597656 10.109375 13.363281 9.820312 13.363281 Z M 9.820312 13.363281 " fill-opacity="1" fill-rule="nonzero"/><path fill="#02afef" d="M 12.957031 13.363281 L 11.914062 13.363281 C 11.625 13.363281 11.390625 13.597656 11.390625 13.886719 C 11.390625 14.175781 11.625 14.410156 11.914062 14.410156 L 12.957031 14.410156 C 13.246094 14.410156 13.480469 14.175781 13.480469 13.886719 C 13.480469 13.597656 13.246094 13.363281 12.957031 13.363281 Z M 12.957031 13.363281 " fill-opacity="1" fill-rule="nonzero"/><path fill="#02afef" d="M 16.097656 13.363281 L 15.050781 13.363281 C 14.761719 13.363281 14.527344 13.597656 14.527344 13.886719 C 14.527344 14.175781 14.761719 14.410156 15.050781 14.410156 L 16.097656 14.410156 C 16.386719 14.410156 16.621094 14.175781 16.621094 13.886719 C 16.621094 13.597656 16.386719 13.363281 16.097656 13.363281 Z M 16.097656 13.363281 " fill-opacity="1" fill-rule="nonzero"/><path fill="#02afef" d="M 9.820312 15.457031 L 8.773438 15.457031 C 8.488281 15.457031 8.25 15.691406 8.25 15.980469 C 8.25 16.265625 8.488281 16.503906 8.773438 16.503906 L 9.820312 16.503906 C 10.109375 16.503906 10.34375 16.265625 10.34375 15.980469 C 10.34375 15.691406 10.109375 15.457031 9.820312 15.457031 Z M 9.820312 15.457031 " fill-opacity="1" fill-rule="nonzero"/><path fill="#02afef" d="M 12.957031 15.457031 L 11.914062 15.457031 C 11.625 15.457031 11.390625 15.691406 11.390625 15.980469 C 11.390625 16.265625 11.625 16.503906 11.914062 16.503906 L 12.957031 16.503906 C 13.246094 16.503906 13.480469 16.265625 13.480469 15.980469 C 13.480469 15.691406 13.246094 15.457031 12.957031 15.457031 Z M 12.957031 15.457031 " fill-opacity="1" fill-rule="nonzero"/><path fill="#02afef" d="M 16.097656 15.457031 L 15.050781 15.457031 C 14.761719 15.457031 14.527344 15.691406 14.527344 15.980469 C 14.527344 16.265625 14.761719 16.503906 15.050781 16.503906 L 16.097656 16.503906 C 16.386719 16.503906 16.621094 16.265625 16.621094 15.980469 C 16.621094 15.691406 16.386719 15.457031 16.097656 15.457031 Z M 16.097656 15.457031 " fill-opacity="1" fill-rule="nonzero"/><path fill="#02afef" d="M 9.820312 17.546875 L 8.773438 17.546875 C 8.488281 17.546875 8.25 17.785156 8.25 18.070312 C 8.25 18.359375 8.488281 18.59375 8.773438 18.59375 L 9.820312 18.59375 C 10.109375 18.59375 10.34375 18.359375 10.34375 18.070312 C 10.34375 17.785156 10.109375 17.546875 9.820312 17.546875 Z M 9.820312 17.546875 " fill-opacity="1" fill-rule="nonzero"/><path fill="#02afef" d="M 12.957031 17.546875 L 11.914062 17.546875 C 11.625 17.546875 11.390625 17.785156 11.390625 18.070312 C 11.390625 18.359375 11.625 18.59375 11.914062 18.59375 L 12.957031 18.59375 C 13.246094 18.59375 13.480469 18.359375 13.480469 18.070312 C 13.480469 17.785156 13.246094 17.546875 12.957031 17.546875 Z M 12.957031 17.546875 " fill-opacity="1" fill-rule="nonzero"/><path fill="#02afef" d="M 16.097656 17.546875 L 15.050781 17.546875 C 14.761719 17.546875 14.527344 17.785156 14.527344 18.070312 C 14.527344 18.359375 14.761719 18.59375 15.050781 18.59375 L 16.097656 18.59375 C 16.386719 18.59375 16.621094 18.359375 16.621094 18.070312 C 16.621094 17.785156 16.386719 17.546875 16.097656 17.546875 Z M 16.097656 17.546875 " fill-opacity="1" fill-rule="nonzero"/><path fill="#02afef" d="M 9.820312 19.640625 L 8.773438 19.640625 C 8.488281 19.640625 8.25 19.875 8.25 20.164062 C 8.25 20.453125 8.488281 20.6875 8.773438 20.6875 L 9.820312 20.6875 C 10.109375 20.6875 10.34375 20.453125 10.34375 20.164062 C 10.34375 19.875 10.109375 19.640625 9.820312 19.640625 Z M 9.820312 19.640625 " fill-opacity="1" fill-rule="nonzero"/><path fill="#02afef" d="M 12.957031 19.640625 L 11.914062 19.640625 C 11.625 19.640625 11.390625 19.875 11.390625 20.164062 C 11.390625 20.453125 11.625 20.6875 11.914062 20.6875 L 12.957031 20.6875 C 13.246094 20.6875 13.480469 20.453125 13.480469 20.164062 C 13.480469 19.875 13.246094 19.640625 12.957031 19.640625 Z M 12.957031 19.640625 " fill-opacity="1" fill-rule="nonzero"/><path fill="#02afef" d="M 16.097656 19.640625 L 15.050781 19.640625 C 14.761719 19.640625 14.527344 19.875 14.527344 20.164062 C 14.527344 20.453125 14.761719 20.6875 15.050781 20.6875 L 16.097656 20.6875 C 16.386719 20.6875 16.621094 20.453125 16.621094 20.164062 C 16.621094 19.875 16.386719 19.640625 16.097656 19.640625 Z M 16.097656 19.640625 " fill-opacity="1" fill-rule="nonzero"/><path fill="#02afef" d="M 9.820312 21.734375 L 8.773438 21.734375 C 8.488281 21.734375 8.25 21.96875 8.25 22.257812 C 8.25 22.542969 8.488281 22.777344 8.773438 22.777344 L 9.820312 22.777344 C 10.109375 22.777344 10.34375 22.542969 10.34375 22.257812 C 10.34375 21.96875 10.109375 21.734375 9.820312 21.734375 Z M 9.820312 21.734375 " fill-opacity="1" fill-rule="nonzero"/><path fill="#02afef" d="M 12.957031 21.734375 L 11.914062 21.734375 C 11.625 21.734375 11.390625 21.96875 11.390625 22.257812 C 11.390625 22.542969 11.625 22.777344 11.914062 22.777344 L 12.957031 22.777344 C 13.246094 22.777344 13.480469 22.542969 13.480469 22.257812 C 13.480469 21.96875 13.246094 21.734375 12.957031 21.734375 Z M 12.957031 21.734375 " fill-opacity="1" fill-rule="nonzero"/><path fill="#02afef" d="M 16.621094 22.257812 C 16.621094 21.96875 16.386719 21.734375 16.097656 21.734375 L 15.050781 21.734375 C 14.761719 21.734375 14.527344 21.96875 14.527344 22.257812 C 14.527344 22.542969 14.761719 22.777344 15.050781 22.777344 L 16.097656 22.777344 C 16.386719 22.777344 16.621094 22.542969 16.621094 22.257812 Z M 16.621094 22.257812 " fill-opacity="1" fill-rule="nonzero"/><path fill="#02afef" d="M 12.957031 23.824219 L 11.914062 23.824219 C 11.625 23.824219 11.390625 24.0625 11.390625 24.347656 C 11.390625 24.636719 11.625 24.871094 11.914062 24.871094 L 12.957031 24.871094 C 13.246094 24.871094 13.480469 24.636719 13.480469 24.347656 C 13.480469 24.0625 13.246094 23.824219 12.957031 23.824219 Z M 12.957031 23.824219 " fill-opacity="1" fill-rule="nonzero"/><path fill="#02afef" d="M 12.957031 25.917969 L 11.914062 25.917969 C 11.625 25.917969 11.390625 26.152344 11.390625 26.441406 C 11.390625 26.726562 11.625 26.964844 11.914062 26.964844 L 12.957031 26.964844 C 13.246094 26.964844 13.480469 26.726562 13.480469 26.441406 C 13.480469 26.152344 13.246094 25.917969 12.957031 25.917969 Z M 12.957031 25.917969 " fill-opacity="1" fill-rule="nonzero"/><path fill="#02afef" d="M 12.957031 28.007812 L 11.914062 28.007812 C 11.625 28.007812 11.390625 28.246094 11.390625 28.53125 C 11.390625 28.820312 11.625 29.054688 11.914062 29.054688 L 12.957031 29.054688 C 13.246094 29.054688 13.480469 28.820312 13.480469 28.53125 C 13.480469 28.246094 13.246094 28.007812 12.957031 28.007812 Z M 12.957031 28.007812 " fill-opacity="1" fill-rule="nonzero"/><g clip-path="url(#863c5fb723)"><path fill="#02afef" d="M 32.964844 30.363281 L 30.21875 30.363281 L 30.21875 29.5 C 31.292969 29.1875 32.050781 27.957031 32.050781 26.441406 C 32.050781 24.6875 31.003906 23.300781 29.695312 23.300781 C 28.390625 23.300781 27.34375 24.6875 27.34375 26.441406 C 27.34375 27.957031 28.101562 29.1875 29.171875 29.5 L 29.171875 30.363281 L 18.710938 30.363281 L 18.710938 29.5 C 19.785156 29.1875 20.542969 27.957031 20.542969 26.441406 C 20.542969 24.6875 19.496094 23.300781 18.1875 23.300781 C 16.882812 23.300781 15.835938 24.6875 15.835938 26.441406 C 15.835938 27.957031 16.59375 29.1875 17.667969 29.5 L 17.667969 30.363281 L 7.207031 30.363281 L 7.207031 29.5 C 8.277344 29.1875 9.035156 27.957031 9.035156 26.441406 C 9.035156 24.6875 7.988281 23.300781 6.683594 23.300781 C 5.375 23.300781 4.328125 24.6875 4.328125 26.441406 C 4.328125 27.957031 5.085938 29.1875 6.160156 29.5 L 6.160156 30.363281 L 0.535156 30.363281 C 0.25 30.363281 0.0117188 30.597656 0.0117188 30.886719 L 0.0117188 32.980469 C 0.0117188 33.265625 0.25 33.5 0.535156 33.5 L 32.964844 33.5 C 33.253906 33.5 33.488281 33.265625 33.488281 32.980469 L 33.488281 30.886719 C 33.488281 30.597656 33.253906 30.363281 32.964844 30.363281 Z M 32.964844 30.363281 " fill-opacity="1" fill-rule="nonzero"/></g><path fill="#02afef" d="M 27.210938 23.589844 C 27.210938 23.589844 27.238281 23.5625 27.238281 23.5625 C 27.210938 23.5625 27.210938 23.5625 27.210938 23.589844 Z M 27.210938 23.589844 " fill-opacity="1" fill-rule="nonzero"/><path fill="#02afef" d="M 29.695312 3.949219 L 18.1875 3.949219 C 17.902344 3.949219 17.667969 4.183594 17.667969 4.472656 L 17.667969 9.179688 L 6.683594 9.179688 C 6.394531 9.179688 6.160156 9.414062 6.160156 9.703125 L 6.160156 22.308594 C 6.238281 22.28125 6.316406 22.28125 6.394531 22.28125 C 6.5 22.28125 6.578125 22.257812 6.683594 22.257812 C 6.785156 22.257812 6.863281 22.257812 6.96875 22.28125 C 7.046875 22.28125 7.125 22.308594 7.207031 22.308594 L 7.207031 10.226562 L 17.667969 10.226562 L 17.667969 22.308594 C 17.847656 22.28125 18.007812 22.257812 18.1875 22.257812 C 18.84375 22.257812 19.472656 22.492188 19.992188 22.882812 C 20.074219 22.832031 20.175781 22.777344 20.28125 22.777344 L 21.328125 22.777344 C 21.617188 22.777344 21.851562 23.015625 21.851562 23.300781 C 21.851562 23.589844 21.617188 23.824219 21.328125 23.824219 L 20.855469 23.824219 C 21.066406 24.140625 21.222656 24.503906 21.355469 24.871094 C 21.640625 24.871094 21.851562 25.105469 21.851562 25.394531 C 21.851562 25.605469 21.71875 25.785156 21.5625 25.863281 C 21.589844 26.046875 21.589844 26.257812 21.589844 26.441406 C 21.589844 26.648438 21.5625 26.832031 21.5625 27.015625 C 21.746094 27.09375 21.851562 27.277344 21.851562 27.488281 C 21.851562 27.773438 21.640625 27.984375 21.355469 28.007812 C 21.195312 28.507812 20.960938 28.953125 20.675781 29.316406 L 27.1875 29.316406 C 26.898438 28.953125 26.664062 28.507812 26.507812 28.007812 C 26.21875 27.984375 26.007812 27.773438 26.007812 27.488281 C 26.007812 27.277344 26.140625 27.09375 26.296875 27.015625 C 26.269531 26.832031 26.269531 26.625 26.269531 26.441406 C 26.269531 26.230469 26.296875 26.046875 26.296875 25.863281 C 26.113281 25.785156 26.007812 25.605469 26.007812 25.394531 C 26.007812 25.105469 26.246094 24.898438 26.507812 24.871094 C 26.636719 24.480469 26.792969 24.140625 27.003906 23.824219 L 26.53125 23.824219 C 26.246094 23.824219 26.007812 23.589844 26.007812 23.300781 C 26.007812 23.015625 26.246094 22.777344 26.53125 22.777344 L 27.578125 22.777344 C 27.683594 22.777344 27.789062 22.804688 27.867188 22.882812 C 28.390625 22.492188 28.992188 22.257812 29.671875 22.257812 C 29.851562 22.257812 30.011719 22.28125 30.195312 22.308594 L 30.195312 4.472656 C 30.21875 4.183594 29.984375 3.949219 29.695312 3.949219 Z M 21.328125 21.734375 L 20.28125 21.734375 C 19.992188 21.734375 19.757812 21.496094 19.757812 21.210938 C 19.757812 20.921875 19.992188 20.6875 20.28125 20.6875 L 21.328125 20.6875 C 21.617188 20.6875 21.851562 20.921875 21.851562 21.210938 C 21.851562 21.496094 21.617188 21.734375 21.328125 21.734375 Z M 21.328125 19.640625 L 20.28125 19.640625 C 19.992188 19.640625 19.757812 19.40625 19.757812 19.117188 C 19.757812 18.828125 19.992188 18.59375 20.28125 18.59375 L 21.328125 18.59375 C 21.617188 18.59375 21.851562 18.828125 21.851562 19.117188 C 21.851562 19.40625 21.617188 19.640625 21.328125 19.640625 Z M 21.328125 17.546875 L 20.28125 17.546875 C 19.992188 17.546875 19.757812 17.3125 19.757812 17.027344 C 19.757812 16.738281 19.992188 16.503906 20.28125 16.503906 L 21.328125 16.503906 C 21.617188 16.503906 21.851562 16.738281 21.851562 17.027344 C 21.851562 17.3125 21.617188 17.546875 21.328125 17.546875 Z M 21.328125 15.457031 L 20.28125 15.457031 C 19.992188 15.457031 19.757812 15.222656 19.757812 14.933594 C 19.757812 14.644531 19.992188 14.410156 20.28125 14.410156 L 21.328125 14.410156 C 21.617188 14.410156 21.851562 14.644531 21.851562 14.933594 C 21.851562 15.222656 21.617188 15.457031 21.328125 15.457031 Z M 21.328125 13.363281 L 20.28125 13.363281 C 19.992188 13.363281 19.757812 13.128906 19.757812 12.839844 C 19.757812 12.554688 19.992188 12.316406 20.28125 12.316406 L 21.328125 12.316406 C 21.617188 12.316406 21.851562 12.554688 21.851562 12.839844 C 21.851562 13.128906 21.617188 13.363281 21.328125 13.363281 Z M 21.328125 11.273438 L 20.28125 11.273438 C 19.992188 11.273438 19.757812 11.035156 19.757812 10.75 C 19.757812 10.460938 19.992188 10.226562 20.28125 10.226562 L 21.328125 10.226562 C 21.617188 10.226562 21.851562 10.460938 21.851562 10.75 C 21.851562 11.035156 21.617188 11.273438 21.328125 11.273438 Z M 21.328125 9.179688 L 20.28125 9.179688 C 19.992188 9.179688 19.757812 8.945312 19.757812 8.65625 C 19.757812 8.367188 19.992188 8.132812 20.28125 8.132812 L 21.328125 8.132812 C 21.617188 8.132812 21.851562 8.367188 21.851562 8.65625 C 21.851562 8.945312 21.617188 9.179688 21.328125 9.179688 Z M 21.328125 7.085938 L 20.28125 7.085938 C 19.992188 7.085938 19.757812 6.851562 19.757812 6.5625 C 19.757812 6.277344 19.992188 6.042969 20.28125 6.042969 L 21.328125 6.042969 C 21.617188 6.042969 21.851562 6.277344 21.851562 6.5625 C 21.851562 6.851562 21.617188 7.085938 21.328125 7.085938 Z M 24.464844 28.007812 L 23.417969 28.007812 C 23.132812 28.007812 22.898438 27.773438 22.898438 27.488281 C 22.898438 27.199219 23.132812 26.964844 23.417969 26.964844 L 24.464844 26.964844 C 24.753906 26.964844 24.988281 27.199219 24.988281 27.488281 C 24.988281 27.773438 24.753906 28.007812 24.464844 28.007812 Z M 24.464844 25.917969 L 23.417969 25.917969 C 23.132812 25.917969 22.898438 25.683594 22.898438 25.394531 C 22.898438 25.105469 23.132812 24.871094 23.417969 24.871094 L 24.464844 24.871094 C 24.753906 24.871094 24.988281 25.105469 24.988281 25.394531 C 24.988281 25.683594 24.753906 25.917969 24.464844 25.917969 Z M 24.464844 23.824219 L 23.417969 23.824219 C 23.132812 23.824219 22.898438 23.589844 22.898438 23.300781 C 22.898438 23.015625 23.132812 22.777344 23.417969 22.777344 L 24.464844 22.777344 C 24.753906 22.777344 24.988281 23.015625 24.988281 23.300781 C 24.988281 23.589844 24.753906 23.824219 24.464844 23.824219 Z M 24.464844 21.734375 L 23.417969 21.734375 C 23.132812 21.734375 22.898438 21.496094 22.898438 21.210938 C 22.898438 20.921875 23.132812 20.6875 23.417969 20.6875 L 24.464844 20.6875 C 24.753906 20.6875 24.988281 20.921875 24.988281 21.210938 C 24.988281 21.496094 24.753906 21.734375 24.464844 21.734375 Z M 24.464844 19.640625 L 23.417969 19.640625 C 23.132812 19.640625 22.898438 19.40625 22.898438 19.117188 C 22.898438 18.828125 23.132812 18.59375 23.417969 18.59375 L 24.464844 18.59375 C 24.753906 18.59375 24.988281 18.828125 24.988281 19.117188 C 24.988281 19.40625 24.753906 19.640625 24.464844 19.640625 Z M 24.464844 17.546875 L 23.417969 17.546875 C 23.132812 17.546875 22.898438 17.3125 22.898438 17.027344 C 22.898438 16.738281 23.132812 16.503906 23.417969 16.503906 L 24.464844 16.503906 C 24.753906 16.503906 24.988281 16.738281 24.988281 17.027344 C 24.988281 17.3125 24.753906 17.546875 24.464844 17.546875 Z M 24.464844 15.457031 L 23.417969 15.457031 C 23.132812 15.457031 22.898438 15.222656 22.898438 14.933594 C 22.898438 14.644531 23.132812 14.410156 23.417969 14.410156 L 24.464844 14.410156 C 24.753906 14.410156 24.988281 14.644531 24.988281 14.933594 C 24.988281 15.222656 24.753906 15.457031 24.464844 15.457031 Z M 24.464844 13.363281 L 23.417969 13.363281 C 23.132812 13.363281 22.898438 13.128906 22.898438 12.839844 C 22.898438 12.554688 23.132812 12.316406 23.417969 12.316406 L 24.464844 12.316406 C 24.753906 12.316406 24.988281 12.554688 24.988281 12.839844 C 24.988281 13.128906 24.753906 13.363281 24.464844 13.363281 Z M 24.464844 11.273438 L 23.417969 11.273438 C 23.132812 11.273438 22.898438 11.035156 22.898438 10.75 C 22.898438 10.460938 23.132812 10.226562 23.417969 10.226562 L 24.464844 10.226562 C 24.753906 10.226562 24.988281 10.460938 24.988281 10.75 C 24.988281 11.035156 24.753906 11.273438 24.464844 11.273438 Z M 24.464844 9.179688 L 23.417969 9.179688 C 23.132812 9.179688 22.898438 8.945312 22.898438 8.65625 C 22.898438 8.367188 23.132812 8.132812 23.417969 8.132812 L 24.464844 8.132812 C 24.753906 8.132812 24.988281 8.367188 24.988281 8.65625 C 24.988281 8.945312 24.753906 9.179688 24.464844 9.179688 Z M 24.464844 7.085938 L 23.417969 7.085938 C 23.132812 7.085938 22.898438 6.851562 22.898438 6.5625 C 22.898438 6.277344 23.132812 6.042969 23.417969 6.042969 L 24.464844 6.042969 C 24.753906 6.042969 24.988281 6.277344 24.988281 6.5625 C 24.988281 6.851562 24.753906 7.085938 24.464844 7.085938 Z M 27.605469 21.734375 L 26.558594 21.734375 C 26.269531 21.734375 26.035156 21.496094 26.035156 21.210938 C 26.035156 20.921875 26.269531 20.6875 26.558594 20.6875 L 27.605469 20.6875 C 27.890625 20.6875 28.128906 20.921875 28.128906 21.210938 C 28.128906 21.496094 27.890625 21.734375 27.605469 21.734375 Z M 27.605469 19.640625 L 26.558594 19.640625 C 26.269531 19.640625 26.035156 19.40625 26.035156 19.117188 C 26.035156 18.828125 26.269531 18.59375 26.558594 18.59375 L 27.605469 18.59375 C 27.890625 18.59375 28.128906 18.828125 28.128906 19.117188 C 28.128906 19.40625 27.890625 19.640625 27.605469 19.640625 Z M 27.605469 17.546875 L 26.558594 17.546875 C 26.269531 17.546875 26.035156 17.3125 26.035156 17.027344 C 26.035156 16.738281 26.269531 16.503906 26.558594 16.503906 L 27.605469 16.503906 C 27.890625 16.503906 28.128906 16.738281 28.128906 17.027344 C 28.128906 17.3125 27.890625 17.546875 27.605469 17.546875 Z M 27.605469 15.457031 L 26.558594 15.457031 C 26.269531 15.457031 26.035156 15.222656 26.035156 14.933594 C 26.035156 14.644531 26.269531 14.410156 26.558594 14.410156 L 27.605469 14.410156 C 27.890625 14.410156 28.128906 14.644531 28.128906 14.933594 C 28.128906 15.222656 27.890625 15.457031 27.605469 15.457031 Z M 27.605469 13.363281 L 26.558594 13.363281 C 26.269531 13.363281 26.035156 13.128906 26.035156 12.839844 C 26.035156 12.554688 26.269531 12.316406 26.558594 12.316406 L 27.605469 12.316406 C 27.890625 12.316406 28.128906 12.554688 28.128906 12.839844 C 28.128906 13.128906 27.890625 13.363281 27.605469 13.363281 Z M 27.605469 11.273438 L 26.558594 11.273438 C 26.269531 11.273438 26.035156 11.035156 26.035156 10.75 C 26.035156 10.460938 26.269531 10.226562 26.558594 10.226562 L 27.605469 10.226562 C 27.890625 10.226562 28.128906 10.460938 28.128906 10.75 C 28.128906 11.035156 27.890625 11.273438 27.605469 11.273438 Z M 27.605469 9.179688 L 26.558594 9.179688 C 26.269531 9.179688 26.035156 8.945312 26.035156 8.65625 C 26.035156 8.367188 26.269531 8.132812 26.558594 8.132812 L 27.605469 8.132812 C 27.890625 8.132812 28.128906 8.367188 28.128906 8.65625 C 28.128906 8.945312 27.890625 9.179688 27.605469 9.179688 Z M 27.605469 7.085938 L 26.558594 7.085938 C 26.269531 7.085938 26.035156 6.851562 26.035156 6.5625 C 26.035156 6.277344 26.269531 6.042969 26.558594 6.042969 L 27.605469 6.042969 C 27.890625 6.042969 28.128906 6.277344 28.128906 6.5625 C 28.128906 6.851562 27.890625 7.085938 27.605469 7.085938 Z M 27.605469 7.085938 " fill-opacity="1" fill-rule="nonzero"/><path fill="#02afef" d="M 21.457031 25.34375 C 21.457031 25.34375 21.457031 25.367188 21.457031 25.367188 C 21.484375 25.367188 21.484375 25.34375 21.457031 25.34375 Z M 21.457031 25.34375 " fill-opacity="1" fill-rule="nonzero"/><path fill="#02afef" d="M 20.648438 23.539062 C 20.648438 23.539062 20.675781 23.5625 20.675781 23.5625 C 20.675781 23.5625 20.675781 23.5625 20.648438 23.539062 Z M 20.648438 23.539062 " fill-opacity="1" fill-rule="nonzero"/><path fill="#02afef" d="M 15.050781 23.824219 C 14.761719 23.824219 14.527344 24.0625 14.527344 24.347656 C 14.527344 24.636719 14.761719 24.871094 15.023438 24.871094 C 15.15625 24.480469 15.3125 24.140625 15.523438 23.824219 Z M 15.050781 23.824219 " fill-opacity="1" fill-rule="nonzero"/><path fill="#02afef" d="M 14.527344 26.441406 C 14.527344 26.648438 14.632812 26.808594 14.816406 26.910156 C 14.816406 26.753906 14.789062 26.597656 14.789062 26.441406 C 14.789062 26.285156 14.789062 26.125 14.816406 25.96875 C 14.632812 26.074219 14.527344 26.230469 14.527344 26.441406 Z M 14.527344 26.441406 " fill-opacity="1" fill-rule="nonzero"/><path fill="#02afef" d="M 15.050781 29.054688 L 15.523438 29.054688 C 15.3125 28.742188 15.15625 28.402344 15.023438 28.007812 C 14.738281 28.007812 14.527344 28.246094 14.527344 28.53125 C 14.527344 28.820312 14.761719 29.054688 15.050781 29.054688 Z M 15.050781 29.054688 " fill-opacity="1" fill-rule="nonzero"/><path fill="#02afef" d="M 9.351562 29.054688 L 9.820312 29.054688 C 10.109375 29.054688 10.34375 28.820312 10.34375 28.53125 C 10.34375 28.246094 10.109375 28.007812 9.847656 28.007812 C 9.714844 28.402344 9.558594 28.742188 9.351562 29.054688 Z M 9.351562 29.054688 " fill-opacity="1" fill-rule="nonzero"/><path fill="#02afef" d="M 10.054688 25.96875 C 10.054688 26.125 10.082031 26.285156 10.082031 26.441406 C 10.082031 26.597656 10.082031 26.753906 10.054688 26.910156 C 10.210938 26.832031 10.34375 26.648438 10.34375 26.441406 C 10.34375 26.230469 10.238281 26.074219 10.054688 25.96875 Z M 10.054688 25.96875 " fill-opacity="1" fill-rule="nonzero"/><path fill="#02afef" d="M 9.820312 23.824219 L 9.351562 23.824219 C 9.558594 24.140625 9.714844 24.480469 9.847656 24.871094 C 10.132812 24.871094 10.34375 24.636719 10.34375 24.347656 C 10.34375 24.0625 10.109375 23.824219 9.820312 23.824219 Z M 9.820312 23.824219 " fill-opacity="1" fill-rule="nonzero"/><path fill="#02afef" d="M 3.648438 24.503906 C 3.988281 23.695312 4.511719 23.066406 5.164062 22.675781 C 5.113281 22.570312 5.085938 22.4375 5.085938 22.308594 L 5.085938 9.703125 C 5.085938 8.839844 5.792969 8.132812 6.65625 8.132812 L 13.457031 8.132812 L 13.457031 0.550781 C 13.457031 0.367188 13.378906 0.210938 13.21875 0.105469 C 13.089844 0.0273438 12.90625 0 12.75 0.078125 L 1.242188 5.308594 C 1.058594 5.386719 0.929688 5.570312 0.929688 5.78125 L 0.929688 7.480469 L 3.203125 7.480469 C 3.492188 7.480469 3.726562 7.714844 3.726562 8.003906 C 3.726562 8.289062 3.492188 8.527344 3.203125 8.527344 L 0.929688 8.527344 L 0.929688 9.570312 L 3.203125 9.570312 C 3.492188 9.570312 3.726562 9.808594 3.726562 10.09375 C 3.726562 10.382812 3.492188 10.617188 3.203125 10.617188 L 0.929688 10.617188 L 0.929688 11.664062 L 3.203125 11.664062 C 3.492188 11.664062 3.726562 11.898438 3.726562 12.1875 C 3.726562 12.476562 3.492188 12.710938 3.203125 12.710938 L 0.929688 12.710938 L 0.929688 13.757812 L 3.203125 13.757812 C 3.492188 13.757812 3.726562 13.992188 3.726562 14.28125 C 3.726562 14.566406 3.492188 14.800781 3.203125 14.800781 L 0.929688 14.800781 L 0.929688 15.847656 L 3.203125 15.847656 C 3.492188 15.847656 3.726562 16.085938 3.726562 16.371094 C 3.726562 16.660156 3.492188 16.894531 3.203125 16.894531 L 0.929688 16.894531 L 0.929688 17.941406 L 3.203125 17.941406 C 3.492188 17.941406 3.726562 18.175781 3.726562 18.464844 C 3.726562 18.75 3.492188 18.988281 3.203125 18.988281 L 0.929688 18.988281 L 0.929688 20.03125 L 3.203125 20.03125 C 3.492188 20.03125 3.726562 20.269531 3.726562 20.554688 C 3.726562 20.84375 3.492188 21.078125 3.203125 21.078125 L 0.929688 21.078125 L 0.929688 22.125 L 3.203125 22.125 C 3.492188 22.125 3.726562 22.359375 3.726562 22.648438 C 3.726562 22.9375 3.492188 23.171875 3.203125 23.171875 L 0.929688 23.171875 L 0.929688 24.21875 L 3.203125 24.21875 C 3.386719 24.21875 3.570312 24.320312 3.648438 24.503906 Z M 3.648438 24.503906 " fill-opacity="1" fill-rule="nonzero"/><path fill="#02afef" d="M 3.28125 26.308594 C 3.28125 25.917969 3.335938 25.550781 3.414062 25.183594 C 3.335938 25.210938 3.257812 25.238281 3.175781 25.238281 L 0.929688 25.238281 L 0.929688 26.285156 L 3.203125 26.285156 C 3.230469 26.308594 3.257812 26.308594 3.28125 26.308594 Z M 3.28125 26.308594 " fill-opacity="1" fill-rule="nonzero"/><path fill="#02afef" d="M 3.359375 27.328125 C 3.308594 27.355469 3.257812 27.355469 3.203125 27.355469 L 0.929688 27.355469 L 0.929688 28.847656 L 3.910156 28.925781 C 3.648438 28.453125 3.464844 27.90625 3.359375 27.328125 Z M 3.359375 27.328125 " fill-opacity="1" fill-rule="nonzero"/></svg>