<svg xmlns="http://www.w3.org/2000/svg" xmlns:xlink="http://www.w3.org/1999/xlink" width="45" zoomAndPan="magnify" viewBox="0 0 33.75 33.749998" height="45" preserveAspectRatio="xMidYMid meet" version="1.0"><defs><clipPath id="4e2609c004"><path d="M 0 0.425781 L 23 0.425781 L 23 24 L 0 24 Z M 0 0.425781 " clip-rule="nonzero"/></clipPath><clipPath id="53b67a19f9"><path d="M 18 17 L 33.5 17 L 33.5 33 L 18 33 Z M 18 17 " clip-rule="nonzero"/></clipPath><clipPath id="951a8d5b17"><path d="M 18 17 L 33.5 17 L 33.5 33.183594 L 18 33.183594 Z M 18 17 " clip-rule="nonzero"/></clipPath><clipPath id="0cebdd0c48"><path d="M 0 0.425781 L 23 0.425781 L 23 24 L 0 24 Z M 0 0.425781 " clip-rule="nonzero"/></clipPath><clipPath id="9eee986274"><path d="M 18 17 L 33.5 17 L 33.5 33 L 18 33 Z M 18 17 " clip-rule="nonzero"/></clipPath><clipPath id="562f046e1c"><path d="M 18 17 L 33.5 17 L 33.5 33.183594 L 18 33.183594 Z M 18 17 " clip-rule="nonzero"/></clipPath></defs><g clip-path="url(#4e2609c004)"><path fill="#f2c70f" d="M 20.550781 11.871094 C 20.550781 11.410156 20.515625 10.957031 20.449219 10.515625 L 22.621094 9.753906 L 21.464844 6.4375 L 19.28125 7.207031 C 18.933594 6.617188 18.519531 6.066406 18.054688 5.570312 L 19.425781 3.683594 L 16.597656 1.613281 L 15.207031 3.527344 C 14.53125 3.21875 13.8125 2.988281 13.058594 2.851562 L 13.058594 0.457031 L 9.558594 0.457031 L 9.558594 2.890625 C 8.871094 3.035156 8.210938 3.253906 7.589844 3.542969 L 6.175781 1.535156 L 3.316406 3.5625 L 4.75 5.597656 C 4.328125 6.050781 3.949219 6.546875 3.625 7.078125 L 1.289062 6.195312 L 0.0507812 9.480469 L 2.402344 10.371094 C 2.320312 10.859375 2.277344 11.359375 2.277344 11.871094 C 2.277344 12.308594 2.308594 12.734375 2.367188 13.15625 L -0.00390625 13.988281 L 1.15625 17.304688 L 3.511719 16.472656 C 3.839844 17.035156 4.222656 17.5625 4.65625 18.042969 L 3.195312 20.054688 L 6.019531 22.125 L 7.464844 20.140625 C 8.121094 20.457031 8.824219 20.699219 9.558594 20.851562 L 9.558594 23.285156 L 13.058594 23.285156 L 13.058594 20.890625 C 13.765625 20.761719 14.441406 20.550781 15.082031 20.269531 L 16.441406 22.203125 L 19.300781 20.179688 L 17.957031 18.269531 C 18.410156 17.800781 18.816406 17.285156 19.164062 16.726562 L 21.328125 17.546875 L 22.566406 14.261719 L 20.414062 13.445312 C 20.503906 12.933594 20.550781 12.40625 20.550781 11.871094 Z M 20.550781 11.871094 " fill-opacity="1" fill-rule="nonzero"/></g><path fill="#ffffff" d="M 16.15625 11.871094 C 16.15625 12.191406 16.125 12.507812 16.0625 12.820312 C 16.003906 13.132812 15.910156 13.4375 15.789062 13.730469 C 15.667969 14.027344 15.515625 14.308594 15.339844 14.574219 C 15.164062 14.839844 14.960938 15.085938 14.738281 15.308594 C 14.511719 15.535156 14.265625 15.738281 14.003906 15.914062 C 13.738281 16.09375 13.457031 16.242188 13.164062 16.363281 C 12.871094 16.488281 12.566406 16.578125 12.253906 16.640625 C 11.941406 16.703125 11.628906 16.734375 11.308594 16.734375 C 10.992188 16.734375 10.675781 16.703125 10.363281 16.640625 C 10.050781 16.578125 9.75 16.488281 9.453125 16.363281 C 9.160156 16.242188 8.878906 16.09375 8.617188 15.914062 C 8.351562 15.738281 8.105469 15.535156 7.882812 15.308594 C 7.65625 15.085938 7.457031 14.839844 7.277344 14.574219 C 7.101562 14.308594 6.953125 14.027344 6.832031 13.730469 C 6.707031 13.4375 6.617188 13.132812 6.554688 12.820312 C 6.492188 12.507812 6.460938 12.191406 6.460938 11.871094 C 6.460938 11.550781 6.492188 11.234375 6.554688 10.921875 C 6.617188 10.609375 6.707031 10.304688 6.832031 10.007812 C 6.953125 9.714844 7.101562 9.433594 7.277344 9.167969 C 7.457031 8.902344 7.65625 8.65625 7.882812 8.429688 C 8.105469 8.203125 8.351562 8.003906 8.617188 7.824219 C 8.878906 7.648438 9.160156 7.496094 9.453125 7.375 C 9.75 7.253906 10.050781 7.160156 10.363281 7.097656 C 10.675781 7.035156 10.992188 7.003906 11.308594 7.003906 C 11.628906 7.003906 11.941406 7.035156 12.253906 7.097656 C 12.566406 7.160156 12.871094 7.253906 13.164062 7.375 C 13.457031 7.496094 13.738281 7.648438 14.003906 7.824219 C 14.265625 8.003906 14.511719 8.203125 14.738281 8.429688 C 14.960938 8.65625 15.164062 8.902344 15.339844 9.167969 C 15.515625 9.433594 15.667969 9.714844 15.789062 10.007812 C 15.910156 10.304688 16.003906 10.609375 16.0625 10.921875 C 16.125 11.234375 16.15625 11.550781 16.15625 11.871094 Z M 16.15625 11.871094 " fill-opacity="1" fill-rule="nonzero"/><g clip-path="url(#53b67a19f9)"><path fill="#d8d4d3" d="M 31.847656 25.402344 C 31.847656 25.101562 31.824219 24.804688 31.785156 24.515625 L 33.203125 24.015625 L 32.445312 21.847656 L 31.019531 22.351562 C 30.789062 21.964844 30.519531 21.605469 30.214844 21.28125 L 31.113281 20.046875 L 29.261719 18.691406 L 28.355469 19.945312 C 27.910156 19.742188 27.441406 19.589844 26.949219 19.5 L 26.949219 17.9375 L 24.660156 17.9375 L 24.660156 19.527344 C 24.207031 19.621094 23.777344 19.765625 23.371094 19.953125 L 22.445312 18.640625 L 20.574219 19.96875 L 21.511719 21.300781 C 21.238281 21.59375 20.988281 21.917969 20.777344 22.265625 L 19.25 21.6875 L 18.441406 23.835938 L 19.976562 24.421875 C 19.925781 24.738281 19.894531 25.066406 19.894531 25.402344 C 19.894531 25.6875 19.917969 25.96875 19.953125 26.242188 L 18.40625 26.789062 L 19.160156 28.957031 L 20.703125 28.414062 C 20.917969 28.78125 21.167969 29.125 21.453125 29.4375 L 20.496094 30.757812 L 22.34375 32.109375 L 23.289062 30.8125 C 23.71875 31.019531 24.179688 31.175781 24.660156 31.277344 L 24.660156 32.867188 L 26.949219 32.867188 L 26.949219 31.300781 C 27.410156 31.21875 27.851562 31.082031 28.269531 30.894531 L 29.160156 32.164062 L 31.03125 30.835938 L 30.152344 29.585938 C 30.449219 29.28125 30.714844 28.941406 30.941406 28.578125 L 32.359375 29.117188 L 33.167969 26.964844 L 31.761719 26.433594 C 31.816406 26.097656 31.847656 25.753906 31.847656 25.402344 Z M 25.804688 29.277344 C 23.671875 29.277344 21.941406 27.542969 21.941406 25.402344 C 21.941406 23.261719 23.671875 21.523438 25.804688 21.523438 C 27.9375 21.523438 29.667969 23.261719 29.667969 25.402344 C 29.667969 27.542969 27.9375 29.277344 25.804688 29.277344 Z M 25.804688 29.277344 " fill-opacity="1" fill-rule="nonzero"/></g><g clip-path="url(#951a8d5b17)"><path fill="#321019" d="M 26.949219 33.148438 L 24.660156 33.148438 C 24.503906 33.148438 24.378906 33.023438 24.378906 32.867188 L 24.378906 31.5 C 24.039062 31.417969 23.703125 31.304688 23.378906 31.160156 L 22.570312 32.277344 C 22.527344 32.335938 22.460938 32.375 22.386719 32.386719 C 22.3125 32.398438 22.238281 32.382812 22.179688 32.335938 L 20.328125 30.984375 C 20.269531 30.9375 20.230469 30.875 20.21875 30.800781 C 20.207031 30.726562 20.222656 30.652344 20.269531 30.589844 L 21.09375 29.453125 C 20.90625 29.234375 20.734375 29 20.582031 28.753906 L 19.253906 29.21875 C 19.109375 29.273438 18.949219 29.195312 18.898438 29.046875 L 18.140625 26.878906 C 18.117188 26.808594 18.121094 26.730469 18.152344 26.664062 C 18.183594 26.597656 18.242188 26.546875 18.3125 26.523438 L 19.648438 26.050781 C 19.628906 25.835938 19.617188 25.617188 19.617188 25.402344 C 19.617188 25.136719 19.632812 24.867188 19.667969 24.601562 L 18.339844 24.101562 C 18.195312 24.046875 18.125 23.882812 18.175781 23.738281 L 18.988281 21.589844 C 19.011719 21.519531 19.066406 21.460938 19.132812 21.433594 C 19.199219 21.402344 19.277344 21.398438 19.347656 21.425781 L 20.664062 21.921875 C 20.8125 21.699219 20.976562 21.480469 21.15625 21.277344 L 20.347656 20.128906 C 20.304688 20.066406 20.285156 19.992188 20.300781 19.917969 C 20.3125 19.847656 20.351562 19.78125 20.414062 19.738281 L 22.285156 18.410156 C 22.410156 18.320312 22.585938 18.351562 22.671875 18.480469 L 23.464844 19.605469 C 23.761719 19.480469 24.066406 19.378906 24.378906 19.304688 L 24.378906 17.933594 C 24.378906 17.78125 24.503906 17.65625 24.660156 17.65625 L 26.949219 17.65625 C 27.101562 17.65625 27.226562 17.78125 27.226562 17.933594 L 27.226562 19.269531 C 27.582031 19.347656 27.925781 19.457031 28.257812 19.597656 L 29.035156 18.527344 C 29.082031 18.464844 29.144531 18.425781 29.21875 18.414062 C 29.292969 18.402344 29.367188 18.421875 29.429688 18.464844 L 31.277344 19.820312 C 31.335938 19.863281 31.378906 19.929688 31.390625 20.003906 C 31.402344 20.078125 31.382812 20.152344 31.339844 20.210938 L 30.574219 21.261719 C 30.78125 21.496094 30.96875 21.746094 31.136719 22.011719 L 32.351562 21.582031 C 32.421875 21.558594 32.5 21.5625 32.566406 21.59375 C 32.632812 21.625 32.683594 21.683594 32.710938 21.753906 L 33.46875 23.921875 C 33.492188 23.992188 33.488281 24.070312 33.457031 24.136719 C 33.421875 24.203125 33.367188 24.257812 33.296875 24.28125 L 32.089844 24.703125 C 32.117188 24.9375 32.128906 25.167969 32.128906 25.402344 C 32.128906 25.683594 32.109375 25.96875 32.070312 26.25 L 33.265625 26.703125 C 33.410156 26.757812 33.484375 26.917969 33.429688 27.066406 L 32.621094 29.214844 C 32.59375 29.285156 32.539062 29.339844 32.472656 29.371094 C 32.40625 29.402344 32.328125 29.402344 32.257812 29.378906 L 31.054688 28.921875 C 30.890625 29.164062 30.707031 29.394531 30.511719 29.613281 L 31.257812 30.671875 C 31.347656 30.800781 31.320312 30.976562 31.191406 31.066406 L 29.324219 32.390625 C 29.261719 32.433594 29.1875 32.453125 29.113281 32.4375 C 29.039062 32.425781 28.976562 32.382812 28.933594 32.324219 L 28.171875 31.242188 C 27.863281 31.363281 27.546875 31.460938 27.226562 31.53125 L 27.226562 32.867188 C 27.226562 33.023438 27.101562 33.148438 26.949219 33.148438 Z M 24.9375 32.585938 L 26.667969 32.585938 L 26.667969 31.300781 C 26.667969 31.167969 26.765625 31.050781 26.898438 31.027344 C 27.332031 30.945312 27.753906 30.816406 28.160156 30.640625 C 28.28125 30.585938 28.421875 30.625 28.5 30.734375 L 29.230469 31.769531 L 30.640625 30.769531 L 29.921875 29.75 C 29.84375 29.640625 29.855469 29.488281 29.953125 29.390625 C 30.234375 29.097656 30.488281 28.773438 30.703125 28.429688 C 30.777344 28.316406 30.917969 28.269531 31.042969 28.316406 L 32.195312 28.753906 L 32.804688 27.128906 L 31.660156 26.695312 C 31.535156 26.648438 31.460938 26.515625 31.484375 26.382812 C 31.539062 26.0625 31.566406 25.730469 31.566406 25.402344 C 31.566406 25.121094 31.546875 24.835938 31.507812 24.554688 C 31.488281 24.421875 31.5625 24.292969 31.691406 24.25 L 32.847656 23.84375 L 32.273438 22.207031 L 31.109375 22.617188 C 30.984375 22.660156 30.84375 22.609375 30.777344 22.492188 C 30.558594 22.125 30.304688 21.785156 30.011719 21.472656 C 29.917969 21.375 29.910156 21.226562 29.988281 21.117188 L 30.722656 20.109375 L 29.324219 19.085938 L 28.578125 20.109375 C 28.5 20.21875 28.359375 20.253906 28.238281 20.199219 C 27.808594 20.003906 27.359375 19.863281 26.898438 19.777344 C 26.765625 19.753906 26.667969 19.636719 26.667969 19.5 L 26.667969 18.214844 L 24.9375 18.214844 L 24.9375 19.527344 C 24.9375 19.660156 24.84375 19.777344 24.714844 19.804688 C 24.292969 19.890625 23.882812 20.027344 23.488281 20.210938 C 23.363281 20.265625 23.21875 20.226562 23.140625 20.117188 L 22.378906 19.035156 L 20.964844 20.035156 L 21.742188 21.136719 C 21.820312 21.246094 21.808594 21.394531 21.71875 21.492188 C 21.453125 21.773438 21.214844 22.085938 21.015625 22.414062 C 20.945312 22.53125 20.804688 22.578125 20.675781 22.53125 L 19.410156 22.050781 L 18.800781 23.671875 L 20.074219 24.15625 C 20.199219 24.203125 20.273438 24.332031 20.253906 24.464844 C 20.203125 24.773438 20.175781 25.089844 20.175781 25.402344 C 20.175781 25.667969 20.195312 25.9375 20.230469 26.203125 C 20.25 26.335938 20.171875 26.464844 20.046875 26.507812 L 18.761719 26.960938 L 19.332031 28.597656 L 20.609375 28.148438 C 20.738281 28.101562 20.878906 28.15625 20.945312 28.273438 C 21.148438 28.621094 21.386719 28.949219 21.660156 29.25 C 21.75 29.347656 21.757812 29.496094 21.679688 29.605469 L 20.886719 30.695312 L 22.28125 31.71875 L 23.0625 30.644531 C 23.140625 30.535156 23.289062 30.5 23.410156 30.558594 C 23.824219 30.757812 24.265625 30.90625 24.714844 31 C 24.847656 31.027344 24.941406 31.140625 24.941406 31.277344 L 24.941406 32.585938 Z M 25.804688 29.558594 C 23.519531 29.558594 21.660156 27.695312 21.660156 25.402344 C 21.660156 23.109375 23.519531 21.246094 25.804688 21.246094 C 28.085938 21.246094 29.945312 23.109375 29.945312 25.402344 C 29.945312 27.695312 28.085938 29.558594 25.804688 29.558594 Z M 25.804688 21.804688 C 23.828125 21.804688 22.222656 23.417969 22.222656 25.402344 C 22.222656 27.382812 23.828125 28.996094 25.804688 28.996094 C 27.777344 28.996094 29.386719 27.382812 29.386719 25.402344 C 29.386719 23.417969 27.777344 21.804688 25.804688 21.804688 Z M 25.804688 21.804688 " fill-opacity="1" fill-rule="nonzero"/></g><g clip-path="url(#0cebdd0c48)"><path fill="#f2c70f" d="M 20.550781 11.871094 C 20.550781 11.410156 20.515625 10.957031 20.449219 10.515625 L 22.621094 9.753906 L 21.464844 6.4375 L 19.28125 7.207031 C 18.933594 6.617188 18.519531 6.066406 18.054688 5.570312 L 19.425781 3.683594 L 16.597656 1.613281 L 15.207031 3.527344 C 14.53125 3.21875 13.8125 2.988281 13.058594 2.851562 L 13.058594 0.457031 L 9.558594 0.457031 L 9.558594 2.890625 C 8.871094 3.035156 8.210938 3.253906 7.589844 3.542969 L 6.175781 1.535156 L 3.316406 3.5625 L 4.75 5.597656 C 4.328125 6.050781 3.949219 6.546875 3.625 7.078125 L 1.289062 6.195312 L 0.0507812 9.480469 L 2.402344 10.371094 C 2.320312 10.859375 2.277344 11.359375 2.277344 11.871094 C 2.277344 12.308594 2.308594 12.734375 2.367188 13.15625 L -0.00390625 13.988281 L 1.15625 17.304688 L 3.511719 16.472656 C 3.839844 17.035156 4.222656 17.5625 4.65625 18.042969 L 3.195312 20.054688 L 6.019531 22.125 L 7.464844 20.140625 C 8.121094 20.457031 8.824219 20.699219 9.558594 20.851562 L 9.558594 23.285156 L 13.058594 23.285156 L 13.058594 20.890625 C 13.765625 20.761719 14.441406 20.550781 15.082031 20.269531 L 16.441406 22.203125 L 19.300781 20.179688 L 17.957031 18.269531 C 18.410156 17.800781 18.816406 17.285156 19.164062 16.726562 L 21.328125 17.546875 L 22.566406 14.261719 L 20.414062 13.445312 C 20.503906 12.933594 20.550781 12.40625 20.550781 11.871094 Z M 20.550781 11.871094 " fill-opacity="1" fill-rule="nonzero"/></g><path fill="#ffffff" d="M 16.15625 11.871094 C 16.15625 12.191406 16.125 12.507812 16.0625 12.820312 C 16.003906 13.132812 15.910156 13.4375 15.789062 13.730469 C 15.667969 14.027344 15.515625 14.308594 15.339844 14.574219 C 15.164062 14.839844 14.960938 15.085938 14.738281 15.308594 C 14.511719 15.535156 14.265625 15.738281 14.003906 15.914062 C 13.738281 16.09375 13.457031 16.242188 13.164062 16.363281 C 12.871094 16.488281 12.566406 16.578125 12.253906 16.640625 C 11.941406 16.703125 11.628906 16.734375 11.308594 16.734375 C 10.992188 16.734375 10.675781 16.703125 10.363281 16.640625 C 10.050781 16.578125 9.75 16.488281 9.453125 16.363281 C 9.160156 16.242188 8.878906 16.09375 8.617188 15.914062 C 8.351562 15.738281 8.105469 15.535156 7.882812 15.308594 C 7.65625 15.085938 7.457031 14.839844 7.277344 14.574219 C 7.101562 14.308594 6.953125 14.027344 6.832031 13.730469 C 6.707031 13.4375 6.617188 13.132812 6.554688 12.820312 C 6.492188 12.507812 6.460938 12.191406 6.460938 11.871094 C 6.460938 11.550781 6.492188 11.234375 6.554688 10.921875 C 6.617188 10.609375 6.707031 10.304688 6.832031 10.007812 C 6.953125 9.714844 7.101562 9.433594 7.277344 9.167969 C 7.457031 8.902344 7.65625 8.65625 7.882812 8.429688 C 8.105469 8.203125 8.351562 8.003906 8.617188 7.824219 C 8.878906 7.648438 9.160156 7.496094 9.453125 7.375 C 9.75 7.253906 10.050781 7.160156 10.363281 7.097656 C 10.675781 7.035156 10.992188 7.003906 11.308594 7.003906 C 11.628906 7.003906 11.941406 7.035156 12.253906 7.097656 C 12.566406 7.160156 12.871094 7.253906 13.164062 7.375 C 13.457031 7.496094 13.738281 7.648438 14.003906 7.824219 C 14.265625 8.003906 14.511719 8.203125 14.738281 8.429688 C 14.960938 8.65625 15.164062 8.902344 15.339844 9.167969 C 15.515625 9.433594 15.667969 9.714844 15.789062 10.007812 C 15.910156 10.304688 16.003906 10.609375 16.0625 10.921875 C 16.125 11.234375 16.15625 11.550781 16.15625 11.871094 Z M 16.15625 11.871094 " fill-opacity="1" fill-rule="nonzero"/><path fill="#ffffff" d="M 4.871094 12.875 C 4.746094 12.875 4.636719 12.78125 4.625 12.652344 C 4.59375 12.394531 4.578125 12.132812 4.578125 11.871094 C 4.578125 9.402344 5.921875 7.128906 8.082031 5.941406 C 8.203125 5.875 8.355469 5.921875 8.421875 6.042969 C 8.488281 6.164062 8.445312 6.316406 8.324219 6.382812 C 6.324219 7.484375 5.082031 9.585938 5.082031 11.871094 C 5.082031 12.113281 5.09375 12.355469 5.121094 12.59375 C 5.136719 12.734375 5.039062 12.859375 4.902344 12.875 C 4.890625 12.875 4.882812 12.875 4.871094 12.875 Z M 4.871094 12.875 " fill-opacity="1" fill-rule="nonzero"/><g clip-path="url(#9eee986274)"><path fill="#d8d4d3" d="M 31.847656 25.402344 C 31.847656 25.101562 31.824219 24.804688 31.785156 24.515625 L 33.203125 24.015625 L 32.445312 21.847656 L 31.019531 22.351562 C 30.789062 21.964844 30.519531 21.605469 30.214844 21.28125 L 31.113281 20.046875 L 29.261719 18.691406 L 28.355469 19.945312 C 27.910156 19.742188 27.441406 19.589844 26.949219 19.5 L 26.949219 17.9375 L 24.660156 17.9375 L 24.660156 19.527344 C 24.207031 19.621094 23.777344 19.765625 23.371094 19.953125 L 22.445312 18.640625 L 20.574219 19.96875 L 21.511719 21.300781 C 21.238281 21.59375 20.988281 21.917969 20.777344 22.265625 L 19.25 21.6875 L 18.441406 23.835938 L 19.976562 24.421875 C 19.925781 24.738281 19.894531 25.066406 19.894531 25.402344 C 19.894531 25.6875 19.917969 25.96875 19.953125 26.242188 L 18.40625 26.789062 L 19.160156 28.957031 L 20.703125 28.414062 C 20.917969 28.78125 21.167969 29.125 21.453125 29.4375 L 20.496094 30.757812 L 22.34375 32.109375 L 23.289062 30.8125 C 23.71875 31.019531 24.179688 31.175781 24.660156 31.277344 L 24.660156 32.867188 L 26.949219 32.867188 L 26.949219 31.300781 C 27.410156 31.21875 27.851562 31.082031 28.269531 30.894531 L 29.160156 32.164062 L 31.03125 30.835938 L 30.152344 29.585938 C 30.449219 29.28125 30.714844 28.941406 30.941406 28.578125 L 32.359375 29.117188 L 33.167969 26.964844 L 31.761719 26.433594 C 31.816406 26.097656 31.847656 25.753906 31.847656 25.402344 Z M 25.804688 29.277344 C 23.671875 29.277344 21.941406 27.542969 21.941406 25.402344 C 21.941406 23.261719 23.671875 21.523438 25.804688 21.523438 C 27.9375 21.523438 29.667969 23.261719 29.667969 25.402344 C 29.667969 27.542969 27.9375 29.277344 25.804688 29.277344 Z M 25.804688 29.277344 " fill-opacity="1" fill-rule="nonzero"/></g><g clip-path="url(#562f046e1c)"><path fill="#321019" d="M 26.949219 33.148438 L 24.660156 33.148438 C 24.503906 33.148438 24.378906 33.023438 24.378906 32.867188 L 24.378906 31.5 C 24.039062 31.417969 23.703125 31.304688 23.378906 31.160156 L 22.570312 32.277344 C 22.527344 32.335938 22.460938 32.375 22.386719 32.386719 C 22.3125 32.398438 22.238281 32.382812 22.179688 32.335938 L 20.328125 30.984375 C 20.269531 30.9375 20.230469 30.875 20.21875 30.800781 C 20.207031 30.726562 20.222656 30.652344 20.269531 30.589844 L 21.09375 29.453125 C 20.90625 29.234375 20.734375 29 20.582031 28.753906 L 19.253906 29.21875 C 19.109375 29.273438 18.949219 29.195312 18.898438 29.046875 L 18.140625 26.878906 C 18.117188 26.808594 18.121094 26.730469 18.152344 26.664062 C 18.183594 26.597656 18.242188 26.546875 18.3125 26.523438 L 19.648438 26.050781 C 19.628906 25.835938 19.617188 25.617188 19.617188 25.402344 C 19.617188 25.136719 19.632812 24.867188 19.667969 24.601562 L 18.339844 24.101562 C 18.195312 24.046875 18.125 23.882812 18.175781 23.738281 L 18.988281 21.589844 C 19.011719 21.519531 19.066406 21.460938 19.132812 21.433594 C 19.199219 21.402344 19.277344 21.398438 19.347656 21.425781 L 20.664062 21.921875 C 20.8125 21.699219 20.976562 21.480469 21.15625 21.277344 L 20.347656 20.128906 C 20.304688 20.066406 20.285156 19.992188 20.300781 19.917969 C 20.3125 19.847656 20.351562 19.78125 20.414062 19.738281 L 22.285156 18.410156 C 22.410156 18.320312 22.585938 18.351562 22.671875 18.480469 L 23.464844 19.605469 C 23.761719 19.480469 24.066406 19.378906 24.378906 19.304688 L 24.378906 17.933594 C 24.378906 17.78125 24.503906 17.65625 24.660156 17.65625 L 26.949219 17.65625 C 27.101562 17.65625 27.226562 17.78125 27.226562 17.933594 L 27.226562 19.269531 C 27.582031 19.347656 27.925781 19.457031 28.257812 19.597656 L 29.035156 18.527344 C 29.082031 18.464844 29.144531 18.425781 29.21875 18.414062 C 29.292969 18.402344 29.367188 18.421875 29.429688 18.464844 L 31.277344 19.820312 C 31.335938 19.863281 31.378906 19.929688 31.390625 20.003906 C 31.402344 20.078125 31.382812 20.152344 31.339844 20.210938 L 30.574219 21.261719 C 30.78125 21.496094 30.96875 21.746094 31.136719 22.011719 L 32.351562 21.582031 C 32.421875 21.558594 32.5 21.5625 32.566406 21.59375 C 32.632812 21.625 32.683594 21.683594 32.710938 21.753906 L 33.46875 23.921875 C 33.492188 23.992188 33.488281 24.070312 33.457031 24.136719 C 33.421875 24.203125 33.367188 24.257812 33.296875 24.28125 L 32.089844 24.703125 C 32.117188 24.9375 32.128906 25.167969 32.128906 25.402344 C 32.128906 25.683594 32.109375 25.96875 32.070312 26.25 L 33.265625 26.703125 C 33.410156 26.757812 33.484375 26.917969 33.429688 27.066406 L 32.621094 29.214844 C 32.59375 29.285156 32.539062 29.339844 32.472656 29.371094 C 32.40625 29.402344 32.328125 29.402344 32.257812 29.378906 L 31.054688 28.921875 C 30.890625 29.164062 30.707031 29.394531 30.511719 29.613281 L 31.257812 30.671875 C 31.347656 30.800781 31.320312 30.976562 31.191406 31.066406 L 29.324219 32.390625 C 29.261719 32.433594 29.1875 32.453125 29.113281 32.4375 C 29.039062 32.425781 28.976562 32.382812 28.933594 32.324219 L 28.171875 31.242188 C 27.863281 31.363281 27.546875 31.460938 27.226562 31.53125 L 27.226562 32.867188 C 27.226562 33.023438 27.101562 33.148438 26.949219 33.148438 Z M 24.9375 32.585938 L 26.667969 32.585938 L 26.667969 31.300781 C 26.667969 31.167969 26.765625 31.050781 26.898438 31.027344 C 27.332031 30.945312 27.753906 30.816406 28.160156 30.640625 C 28.28125 30.585938 28.421875 30.625 28.5 30.734375 L 29.230469 31.769531 L 30.640625 30.769531 L 29.921875 29.75 C 29.84375 29.640625 29.855469 29.488281 29.953125 29.390625 C 30.234375 29.097656 30.488281 28.773438 30.703125 28.429688 C 30.777344 28.316406 30.917969 28.269531 31.042969 28.316406 L 32.195312 28.753906 L 32.804688 27.128906 L 31.660156 26.695312 C 31.535156 26.648438 31.460938 26.515625 31.484375 26.382812 C 31.539062 26.0625 31.566406 25.730469 31.566406 25.402344 C 31.566406 25.121094 31.546875 24.835938 31.507812 24.554688 C 31.488281 24.421875 31.5625 24.292969 31.691406 24.25 L 32.847656 23.84375 L 32.273438 22.207031 L 31.109375 22.617188 C 30.984375 22.660156 30.84375 22.609375 30.777344 22.492188 C 30.558594 22.125 30.304688 21.785156 30.011719 21.472656 C 29.917969 21.375 29.910156 21.226562 29.988281 21.117188 L 30.722656 20.109375 L 29.324219 19.085938 L 28.578125 20.109375 C 28.5 20.21875 28.359375 20.253906 28.238281 20.199219 C 27.808594 20.003906 27.359375 19.863281 26.898438 19.777344 C 26.765625 19.753906 26.667969 19.636719 26.667969 19.5 L 26.667969 18.214844 L 24.9375 18.214844 L 24.9375 19.527344 C 24.9375 19.660156 24.84375 19.777344 24.714844 19.804688 C 24.292969 19.890625 23.882812 20.027344 23.488281 20.210938 C 23.363281 20.265625 23.21875 20.226562 23.140625 20.117188 L 22.378906 19.035156 L 20.964844 20.035156 L 21.742188 21.136719 C 21.820312 21.246094 21.808594 21.394531 21.71875 21.492188 C 21.453125 21.773438 21.214844 22.085938 21.015625 22.414062 C 20.945312 22.53125 20.804688 22.578125 20.675781 22.53125 L 19.410156 22.050781 L 18.800781 23.671875 L 20.074219 24.15625 C 20.199219 24.203125 20.273438 24.332031 20.253906 24.464844 C 20.203125 24.773438 20.175781 25.089844 20.175781 25.402344 C 20.175781 25.667969 20.195312 25.9375 20.230469 26.203125 C 20.25 26.335938 20.171875 26.464844 20.046875 26.507812 L 18.761719 26.960938 L 19.332031 28.597656 L 20.609375 28.148438 C 20.738281 28.101562 20.878906 28.15625 20.945312 28.273438 C 21.148438 28.621094 21.386719 28.949219 21.660156 29.25 C 21.75 29.347656 21.757812 29.496094 21.679688 29.605469 L 20.886719 30.695312 L 22.28125 31.71875 L 23.0625 30.644531 C 23.140625 30.535156 23.289062 30.5 23.410156 30.558594 C 23.824219 30.757812 24.265625 30.90625 24.714844 31 C 24.847656 31.027344 24.941406 31.140625 24.941406 31.277344 L 24.941406 32.585938 Z M 25.804688 29.558594 C 23.519531 29.558594 21.660156 27.695312 21.660156 25.402344 C 21.660156 23.109375 23.519531 21.246094 25.804688 21.246094 C 28.085938 21.246094 29.945312 23.109375 29.945312 25.402344 C 29.945312 27.695312 28.085938 29.558594 25.804688 29.558594 Z M 25.804688 21.804688 C 23.828125 21.804688 22.222656 23.417969 22.222656 25.402344 C 22.222656 27.382812 23.828125 28.996094 25.804688 28.996094 C 27.777344 28.996094 29.386719 27.382812 29.386719 25.402344 C 29.386719 23.417969 27.777344 21.804688 25.804688 21.804688 Z M 25.804688 21.804688 " fill-opacity="1" fill-rule="nonzero"/></g><path fill="#ffffff" d="M 24.261719 20.648438 C 24.164062 20.648438 24.074219 20.59375 24.03125 20.496094 C 23.972656 20.371094 24.03125 20.21875 24.160156 20.164062 C 24.46875 20.023438 24.789062 19.914062 25.109375 19.835938 L 25.109375 18.601562 C 25.109375 18.460938 25.222656 18.347656 25.363281 18.347656 C 25.5 18.347656 25.613281 18.460938 25.613281 18.601562 L 25.613281 20.039062 C 25.613281 20.160156 25.53125 20.261719 25.414062 20.285156 C 25.058594 20.359375 24.707031 20.472656 24.363281 20.625 C 24.332031 20.640625 24.296875 20.648438 24.261719 20.648438 Z M 24.261719 20.648438 " fill-opacity="1" fill-rule="nonzero"/></svg>