<svg xmlns="http://www.w3.org/2000/svg" xmlns:xlink="http://www.w3.org/1999/xlink" width="45" zoomAndPan="magnify" viewBox="0 0 33.75 33.749998" height="45" preserveAspectRatio="xMidYMid meet" version="1.0"><defs><clipPath id="6d5ab51cb9"><path d="M 0 0.0703125 L 33.5 0.0703125 L 33.5 33.5 L 0 33.5 Z M 0 0.0703125 " clip-rule="nonzero"/></clipPath></defs><g clip-path="url(#6d5ab51cb9)"><path fill="#ffffff" d="M 30.609375 22.589844 L 20.960938 22.589844 L 20.960938 12.941406 C 20.960938 12.710938 20.773438 12.523438 20.546875 12.523438 L 10.898438 12.523438 L 10.898438 2.875 C 10.898438 2.644531 10.710938 2.457031 10.480469 2.457031 L 0.414062 2.457031 C 0.1875 2.457031 0 2.644531 0 2.875 L 0 33.070312 C 0 33.296875 0.1875 33.484375 0.414062 33.484375 L 30.609375 33.484375 C 30.839844 33.484375 31.027344 33.296875 31.027344 33.070312 L 31.027344 23.003906 C 31.027344 22.773438 30.839844 22.589844 30.609375 22.589844 Z M 30.195312 27.621094 L 28.046875 27.621094 L 25.992188 25.566406 L 25.992188 23.417969 L 30.195312 23.417969 Z M 25.578125 29.746094 L 23.867188 28.035156 L 25.578125 26.324219 L 27.289062 28.035156 Z M 23.105469 27.621094 L 20.960938 27.621094 L 20.960938 23.417969 L 25.160156 23.417969 L 25.160156 25.566406 Z M 13.042969 27.621094 L 10.898438 27.621094 L 10.898438 23.417969 L 15.097656 23.417969 L 15.097656 25.566406 Z M 2.976562 27.621094 L 0.832031 27.621094 L 0.832031 23.417969 L 5.03125 23.417969 L 5.03125 25.566406 Z M 0.832031 8.324219 L 2.976562 8.324219 L 5.03125 10.378906 L 5.03125 12.523438 L 0.832031 12.523438 Z M 5.449219 6.195312 L 7.160156 7.90625 L 5.449219 9.617188 L 3.738281 7.90625 Z M 7.917969 8.324219 L 10.0625 8.324219 L 10.0625 12.523438 L 5.863281 12.523438 L 5.863281 10.378906 Z M 17.984375 18.386719 L 20.128906 18.386719 L 20.128906 22.589844 L 15.929688 22.589844 L 15.929688 20.445312 Z M 10.066406 13.355469 L 10.066406 17.554688 L 7.917969 17.554688 L 5.863281 15.5 L 5.863281 13.355469 Z M 5.449219 16.261719 L 7.160156 17.972656 L 5.449219 19.683594 L 3.738281 17.972656 Z M 5.863281 20.441406 L 7.917969 18.386719 L 10.0625 18.386719 L 10.0625 22.589844 L 5.863281 22.589844 Z M 10.898438 18.386719 L 13.042969 18.386719 L 15.097656 20.441406 L 15.097656 22.589844 L 10.894531 22.589844 L 10.894531 18.386719 Z M 15.511719 19.683594 L 13.800781 17.972656 L 15.511719 16.261719 L 17.222656 17.972656 Z M 15.097656 15.5 L 13.042969 17.554688 L 10.898438 17.554688 L 10.898438 13.355469 L 15.097656 13.355469 Z M 5.03125 13.355469 L 5.03125 15.5 L 2.976562 17.554688 L 0.832031 17.554688 L 0.832031 13.355469 Z M 0.832031 18.386719 L 2.976562 18.386719 L 5.03125 20.441406 L 5.03125 22.589844 L 0.832031 22.589844 Z M 5.449219 26.324219 L 7.160156 28.035156 L 5.449219 29.746094 L 3.738281 28.035156 Z M 5.863281 30.507812 L 7.917969 28.453125 L 10.0625 28.453125 L 10.0625 32.652344 L 5.863281 32.652344 Z M 7.917969 27.621094 L 5.863281 25.566406 L 5.863281 23.417969 L 10.066406 23.417969 L 10.066406 27.621094 Z M 15.511719 26.324219 L 17.222656 28.035156 L 15.511719 29.746094 L 13.800781 28.035156 Z M 15.929688 30.507812 L 17.984375 28.453125 L 20.128906 28.453125 L 20.128906 32.652344 L 15.929688 32.652344 Z M 17.984375 27.621094 L 15.929688 25.566406 L 15.929688 23.417969 L 20.128906 23.417969 L 20.128906 27.621094 Z M 20.128906 17.554688 L 17.984375 17.554688 L 15.929688 15.5 L 15.929688 13.355469 L 20.128906 13.355469 Z M 10.066406 7.492188 L 7.917969 7.492188 L 5.863281 5.4375 L 5.863281 3.289062 L 10.066406 3.289062 Z M 5.03125 3.289062 L 5.03125 5.4375 L 2.976562 7.492188 L 0.832031 7.492188 L 0.832031 3.289062 Z M 0.832031 28.453125 L 2.976562 28.453125 L 5.03125 30.507812 L 5.03125 32.652344 L 0.832031 32.652344 Z M 10.898438 28.453125 L 13.042969 28.453125 L 15.097656 30.507812 L 15.097656 32.652344 L 10.894531 32.652344 L 10.894531 28.453125 Z M 20.960938 28.453125 L 23.105469 28.453125 L 25.160156 30.507812 L 25.160156 32.652344 L 20.960938 32.652344 Z M 25.992188 32.652344 L 25.992188 30.507812 L 28.046875 28.453125 L 30.195312 28.453125 L 30.195312 32.652344 Z M 11.269531 3.484375 C 11.269531 3.253906 11.453125 3.070312 11.683594 3.070312 L 20.546875 3.070312 C 20.773438 3.070312 20.960938 3.253906 20.960938 3.484375 C 20.960938 3.714844 20.773438 3.902344 20.546875 3.902344 L 11.683594 3.902344 C 11.453125 3.902344 11.269531 3.714844 11.269531 3.484375 Z M 11.269531 5.484375 C 11.269531 5.253906 11.453125 5.066406 11.683594 5.066406 L 20.546875 5.066406 C 20.773438 5.066406 20.960938 5.253906 20.960938 5.484375 C 20.960938 5.714844 20.773438 5.898438 20.546875 5.898438 L 11.683594 5.898438 C 11.453125 5.898438 11.269531 5.714844 11.269531 5.484375 Z M 11.269531 7.480469 C 11.269531 7.253906 11.453125 7.066406 11.683594 7.066406 L 20.546875 7.066406 C 20.773438 7.066406 20.960938 7.253906 20.960938 7.480469 C 20.960938 7.710938 20.773438 7.898438 20.546875 7.898438 L 11.683594 7.898438 C 11.453125 7.898438 11.269531 7.710938 11.269531 7.480469 Z M 11.269531 9.480469 C 11.269531 9.25 11.453125 9.066406 11.683594 9.066406 L 20.546875 9.066406 C 20.773438 9.066406 20.960938 9.25 20.960938 9.480469 C 20.960938 9.710938 20.773438 9.894531 20.546875 9.894531 L 11.683594 9.894531 C 11.453125 9.894531 11.269531 9.710938 11.269531 9.480469 Z M 11.269531 11.480469 C 11.269531 11.25 11.453125 11.0625 11.683594 11.0625 L 20.546875 11.0625 C 20.773438 11.0625 20.960938 11.25 20.960938 11.480469 C 20.960938 11.707031 20.773438 11.894531 20.546875 11.894531 L 11.683594 11.894531 C 11.453125 11.894531 11.269531 11.707031 11.269531 11.480469 Z M 33.105469 8.394531 L 28.589844 0.71875 C 28.351562 0.316406 27.949219 0.0859375 27.484375 0.0859375 C 27.015625 0.0859375 26.613281 0.316406 26.375 0.71875 L 21.859375 8.394531 C 21.472656 9.058594 21.46875 9.820312 21.847656 10.488281 C 22.230469 11.152344 22.890625 11.535156 23.65625 11.535156 L 26.101562 11.535156 L 26.101562 12.636719 C 25.949219 12.683594 25.828125 12.816406 25.808594 12.984375 L 25.082031 18.808594 C 24.996094 19.496094 25.195312 20.132812 25.652344 20.652344 C 26.113281 21.175781 26.722656 21.449219 27.417969 21.449219 L 27.550781 21.449219 C 28.242188 21.449219 28.851562 21.175781 29.3125 20.652344 C 29.773438 20.132812 29.96875 19.496094 29.882812 18.808594 L 29.160156 12.984375 C 29.136719 12.816406 29.019531 12.683594 28.863281 12.636719 L 28.863281 11.535156 L 31.308594 11.535156 C 32.078125 11.535156 32.738281 11.15625 33.117188 10.488281 C 33.5 9.820312 33.492188 9.058594 33.105469 8.394531 Z M 28.03125 12.617188 L 26.933594 12.617188 L 26.933594 8.25 C 26.933594 7.949219 27.179688 7.703125 27.480469 7.703125 C 27.785156 7.703125 28.03125 7.949219 28.03125 8.25 Z M 29.058594 18.910156 C 29.113281 19.359375 28.988281 19.761719 28.6875 20.101562 C 28.386719 20.445312 28.003906 20.617188 27.546875 20.617188 L 27.414062 20.617188 C 26.960938 20.617188 26.578125 20.445312 26.273438 20.101562 C 25.972656 19.761719 25.847656 19.363281 25.90625 18.910156 L 26.585938 13.449219 L 28.375 13.449219 Z M 32.394531 10.074219 C 32.164062 10.480469 31.777344 10.703125 31.308594 10.703125 L 28.863281 10.703125 L 28.863281 8.25 C 28.863281 7.488281 28.242188 6.871094 27.484375 6.871094 C 26.722656 6.871094 26.101562 7.488281 26.101562 8.25 L 26.101562 10.703125 L 23.65625 10.703125 C 23.1875 10.703125 22.800781 10.480469 22.570312 10.074219 C 22.335938 9.667969 22.339844 9.222656 22.578125 8.816406 L 27.09375 1.140625 C 27.179688 0.996094 27.3125 0.917969 27.480469 0.917969 C 27.652344 0.917969 27.785156 0.996094 27.871094 1.140625 L 32.386719 8.816406 C 32.625 9.222656 32.628906 9.667969 32.394531 10.074219 Z M 32.394531 10.074219 " fill-opacity="1" fill-rule="nonzero"/></g></svg>