<svg xmlns="http://www.w3.org/2000/svg" xmlns:xlink="http://www.w3.org/1999/xlink" width="45" zoomAndPan="magnify" viewBox="0 0 33.75 33.749998" height="45" preserveAspectRatio="xMidYMid meet" version="1.0"><defs><clipPath id="3ff6645f4d"><path d="M 0 3 L 33.5 3 L 33.5 18 L 0 18 Z M 0 3 " clip-rule="nonzero"/></clipPath><clipPath id="e082d2109f"><path d="M 18 11 L 33.5 11 L 33.5 33.5 L 18 33.5 Z M 18 11 " clip-rule="nonzero"/></clipPath></defs><path fill="#ffffff" d="M 1.050781 16.832031 L 1.050781 20.324219 C 1.050781 20.613281 1.285156 20.847656 1.574219 20.847656 C 1.859375 20.847656 2.09375 20.613281 2.09375 20.324219 L 2.09375 16.128906 C 1.9375 16.207031 1.78125 16.339844 1.652344 16.46875 C 1.46875 16.652344 1.261719 16.753906 1.050781 16.832031 Z M 1.050781 16.832031 " fill-opacity="1" fill-rule="nonzero"/><path fill="#ffffff" d="M 14.601562 16.859375 L 14.601562 20.324219 C 14.601562 20.613281 14.835938 20.847656 15.121094 20.847656 C 15.410156 20.847656 15.644531 20.613281 15.644531 20.324219 L 15.644531 16.832031 C 15.488281 16.886719 15.304688 16.9375 15.121094 16.9375 C 14.941406 16.9375 14.757812 16.910156 14.601562 16.859375 Z M 14.601562 16.859375 " fill-opacity="1" fill-rule="nonzero"/><path fill="#ffffff" d="M 10.484375 0 C 9.390625 0 8.398438 0.390625 7.695312 1.121094 C 7.695312 1.121094 7.671875 1.148438 7.671875 1.148438 L 4.828125 4.636719 C 4.648438 4.847656 4.671875 5.160156 4.882812 5.367188 C 5.089844 5.550781 5.402344 5.550781 5.613281 5.339844 C 6.210938 4.714844 6.941406 4.585938 7.433594 4.585938 C 8.269531 4.585938 9.101562 4.949219 9.726562 5.578125 C 9.832031 5.679688 9.964844 5.734375 10.09375 5.734375 C 10.09375 5.734375 10.121094 5.734375 10.121094 5.734375 C 10.277344 5.734375 10.40625 5.65625 10.511719 5.550781 L 13.453125 1.902344 C 13.609375 1.695312 13.609375 1.40625 13.429688 1.199219 C 12.648438 0.441406 11.578125 0 10.484375 0 Z M 10.042969 4.457031 C 9.285156 3.882812 8.375 3.542969 7.433594 3.542969 C 7.304688 3.542969 7.175781 3.542969 7.042969 3.570312 L 8.453125 1.851562 C 8.972656 1.328125 9.675781 1.042969 10.484375 1.042969 C 11.160156 1.042969 11.8125 1.25 12.335938 1.640625 Z M 10.042969 4.457031 " fill-opacity="1" fill-rule="nonzero"/><g clip-path="url(#3ff6645f4d)"><path fill="#ffffff" d="M 33.363281 15.554688 C 33.363281 15.53125 33.363281 15.53125 33.363281 15.503906 C 33.363281 15.476562 33.363281 15.476562 33.335938 15.453125 C 33.335938 15.425781 33.335938 15.425781 33.308594 15.398438 C 33.308594 15.375 33.285156 15.375 33.285156 15.347656 C 33.285156 15.320312 33.257812 15.320312 33.257812 15.296875 L 24.917969 4.089844 C 24.917969 4.089844 24.917969 4.089844 24.894531 4.066406 C 24.894531 4.066406 24.867188 4.039062 24.867188 4.039062 C 24.839844 4.011719 24.816406 3.988281 24.789062 3.960938 C 24.789062 3.960938 24.789062 3.960938 24.761719 3.933594 C 24.738281 3.910156 24.683594 3.882812 24.632812 3.882812 C 24.632812 3.882812 24.605469 3.882812 24.605469 3.882812 C 24.582031 3.882812 24.527344 3.855469 24.503906 3.855469 C 24.503906 3.855469 24.503906 3.855469 24.476562 3.855469 L 13.167969 3.855469 L 12.335938 4.898438 L 13.140625 4.898438 L 11.058594 7.503906 C 10.378906 6.984375 9.625 6.695312 8.816406 6.695312 C 8.710938 6.695312 8.609375 6.695312 8.503906 6.722656 L 8.945312 6.203125 C 8.6875 5.96875 8.375 5.785156 8.035156 5.679688 L 0.140625 15.035156 C 0.140625 15.035156 0.140625 15.0625 0.113281 15.0625 C 0.113281 15.085938 0.0859375 15.085938 0.0859375 15.113281 C 0.0859375 15.140625 0.0625 15.140625 0.0625 15.164062 C 0.0625 15.191406 0.0351562 15.191406 0.0351562 15.21875 C 0.0351562 15.242188 0.0351562 15.242188 0.0078125 15.269531 C 0.0078125 15.296875 0.0078125 15.296875 0.0078125 15.320312 C 0.0078125 15.347656 0.0078125 15.347656 0.0078125 15.375 C 0.0078125 15.375 0.0078125 15.375 0.0078125 15.398438 C 0.0078125 15.425781 0.0078125 15.425781 0.0078125 15.453125 C 0.0078125 15.476562 0.0078125 15.476562 0.0078125 15.503906 C 0.0078125 15.53125 0.0078125 15.53125 0.0351562 15.554688 C 0.0351562 15.582031 0.0351562 15.582031 0.0625 15.609375 C 0.0625 15.632812 0.0859375 15.632812 0.0859375 15.660156 C 0.0859375 15.6875 0.113281 15.6875 0.113281 15.710938 C 0.113281 15.738281 0.140625 15.738281 0.140625 15.765625 C 0.140625 15.765625 0.164062 15.789062 0.164062 15.789062 C 0.164062 15.789062 0.164062 15.789062 0.191406 15.789062 C 0.191406 15.789062 0.21875 15.789062 0.21875 15.816406 C 0.242188 15.816406 0.242188 15.84375 0.269531 15.84375 C 0.296875 15.84375 0.296875 15.867188 0.320312 15.867188 C 0.347656 15.867188 0.347656 15.894531 0.375 15.894531 C 0.398438 15.894531 0.398438 15.894531 0.425781 15.921875 C 0.453125 15.921875 0.453125 15.921875 0.476562 15.921875 C 0.503906 15.921875 0.503906 15.921875 0.53125 15.921875 C 0.53125 15.894531 0.53125 15.894531 0.554688 15.894531 C 0.582031 15.894531 0.582031 15.894531 0.609375 15.894531 C 0.632812 15.894531 0.632812 15.894531 0.660156 15.894531 C 0.6875 15.894531 0.6875 15.894531 0.710938 15.867188 C 0.738281 15.867188 0.738281 15.867188 0.765625 15.84375 C 0.789062 15.84375 0.789062 15.816406 0.816406 15.816406 C 0.84375 15.816406 0.84375 15.789062 0.867188 15.789062 C 0.894531 15.789062 0.894531 15.765625 0.921875 15.765625 C 0.921875 15.765625 0.945312 15.738281 0.945312 15.738281 C 1.496094 15.164062 2.222656 14.851562 3.003906 14.851562 C 3.789062 14.851562 4.515625 15.164062 5.0625 15.738281 C 5.0625 15.738281 5.0625 15.738281 5.089844 15.765625 C 5.089844 15.765625 5.089844 15.765625 5.117188 15.789062 C 5.117188 15.789062 5.140625 15.789062 5.140625 15.816406 C 5.140625 15.816406 5.167969 15.816406 5.167969 15.84375 C 5.167969 15.84375 5.167969 15.84375 5.195312 15.84375 C 5.21875 15.84375 5.21875 15.867188 5.246094 15.867188 C 5.246094 15.867188 5.273438 15.867188 5.273438 15.894531 C 5.273438 15.894531 5.273438 15.894531 5.296875 15.894531 C 5.324219 15.894531 5.324219 15.894531 5.351562 15.921875 C 5.351562 15.921875 5.375 15.921875 5.375 15.921875 C 5.402344 15.921875 5.429688 15.921875 5.453125 15.921875 C 5.480469 15.921875 5.480469 15.921875 5.507812 15.921875 C 5.535156 15.921875 5.535156 15.921875 5.558594 15.921875 C 5.558594 15.921875 5.558594 15.921875 5.585938 15.921875 C 5.585938 15.921875 5.613281 15.921875 5.613281 15.921875 C 5.636719 15.921875 5.636719 15.921875 5.664062 15.894531 C 5.664062 15.894531 5.664062 15.894531 5.691406 15.894531 C 5.691406 15.894531 5.714844 15.894531 5.714844 15.867188 C 5.742188 15.867188 5.742188 15.84375 5.769531 15.84375 C 5.769531 15.84375 5.792969 15.84375 5.792969 15.816406 C 5.792969 15.816406 5.820312 15.789062 5.820312 15.789062 C 5.820312 15.789062 5.847656 15.789062 5.847656 15.765625 C 6.394531 15.191406 7.121094 14.878906 7.90625 14.878906 C 8.632812 14.878906 9.335938 15.164062 9.886719 15.6875 C 9.910156 15.710938 9.9375 15.765625 9.964844 15.789062 C 10.066406 15.894531 10.199219 15.945312 10.355469 15.945312 C 10.484375 15.945312 10.613281 15.894531 10.71875 15.789062 C 10.746094 15.765625 10.769531 15.738281 10.796875 15.6875 C 11.34375 15.164062 12.023438 14.878906 12.777344 14.878906 C 13.558594 14.878906 14.289062 15.191406 14.835938 15.765625 C 14.863281 15.84375 14.992188 15.894531 15.121094 15.894531 C 15.148438 15.894531 15.175781 15.894531 15.199219 15.894531 C 15.226562 15.894531 15.253906 15.894531 15.277344 15.894531 C 15.433594 15.894531 15.566406 15.84375 15.667969 15.710938 L 17.726562 13.261719 C 17.726562 13.183594 17.703125 13.132812 17.703125 13.054688 C 17.703125 12.871094 17.726562 12.664062 17.78125 12.480469 C 17.832031 12.324219 17.882812 12.167969 17.960938 12.011719 C 17.960938 12.011719 17.960938 12.011719 17.960938 11.988281 C 17.988281 11.910156 18.039062 11.855469 18.09375 11.804688 C 18.09375 11.804688 18.09375 11.777344 18.117188 11.777344 C 18.171875 11.699219 18.222656 11.648438 18.273438 11.59375 C 18.273438 11.59375 18.300781 11.570312 18.300781 11.570312 L 18.535156 11.335938 C 18.902344 10.96875 19.394531 10.761719 19.863281 10.710938 L 24.425781 5.289062 L 26.769531 8.441406 C 28.28125 8.78125 29.402344 10.136719 29.402344 11.75 L 29.402344 12.011719 L 31.746094 15.140625 L 30.703125 15.140625 L 29.375 13.316406 C 29.296875 13.730469 29.167969 14.148438 28.957031 14.515625 L 30.027344 15.972656 C 30.078125 16.023438 30.132812 16.078125 30.183594 16.101562 L 30.183594 16.574219 L 31.226562 17.691406 L 31.226562 16.15625 L 32.789062 16.15625 C 32.839844 16.15625 32.894531 16.15625 32.917969 16.128906 C 32.917969 16.128906 32.945312 16.128906 32.945312 16.128906 C 32.996094 16.101562 33.023438 16.101562 33.074219 16.050781 C 33.074219 16.050781 33.101562 16.023438 33.101562 16.023438 C 33.128906 16.023438 33.128906 16 33.152344 16 C 33.152344 16 33.179688 15.972656 33.179688 15.945312 C 33.179688 15.945312 33.207031 15.921875 33.207031 15.894531 C 33.207031 15.867188 33.230469 15.867188 33.230469 15.84375 C 33.230469 15.816406 33.257812 15.816406 33.257812 15.789062 C 33.257812 15.765625 33.257812 15.765625 33.285156 15.738281 C 33.285156 15.710938 33.285156 15.710938 33.285156 15.6875 C 33.285156 15.660156 33.285156 15.660156 33.285156 15.632812 C 33.285156 15.632812 33.285156 15.609375 33.285156 15.609375 C 33.363281 15.609375 33.363281 15.582031 33.363281 15.554688 Z M 18.273438 4.949219 L 16.164062 7.582031 C 15.433594 7.035156 14.550781 6.695312 13.609375 6.695312 C 13.402344 6.695312 13.21875 6.722656 13.039062 6.75 L 14.472656 4.949219 Z M 13.117188 11.28125 C 12.414062 10.734375 11.527344 10.421875 10.613281 10.421875 C 10.40625 10.421875 10.199219 10.449219 9.988281 10.476562 L 11.527344 8.574219 C 12.046875 8.027344 12.777344 7.738281 13.585938 7.738281 C 14.289062 7.738281 14.964844 7.972656 15.488281 8.390625 L 13.21875 11.179688 C 13.21875 11.203125 13.167969 11.257812 13.117188 11.28125 Z M 8.789062 7.792969 C 9.363281 7.792969 9.910156 8 10.378906 8.363281 L 8.035156 11.28125 C 7.355469 10.734375 6.550781 10.421875 5.714844 10.421875 C 5.585938 10.421875 5.480469 10.421875 5.351562 10.449219 L 6.863281 8.675781 C 7.433594 8.078125 8.085938 7.792969 8.789062 7.792969 Z M 2.511719 13.835938 L 3.734375 12.378906 C 3.734375 12.378906 3.761719 12.351562 3.761719 12.351562 C 4.308594 11.777344 5.011719 11.464844 5.714844 11.464844 C 6.316406 11.464844 6.886719 11.671875 7.382812 12.089844 L 5.351562 14.617188 C 4.671875 14.097656 3.839844 13.808594 2.980469 13.808594 C 2.796875 13.808594 2.667969 13.808594 2.511719 13.835938 Z M 7.828125 13.808594 C 7.644531 13.808594 7.460938 13.835938 7.277344 13.863281 L 8.503906 12.351562 C 9.050781 11.804688 9.804688 11.464844 10.613281 11.464844 C 11.292969 11.464844 11.96875 11.699219 12.492188 12.117188 L 10.667969 14.382812 C 10.535156 14.460938 10.378906 14.566406 10.277344 14.671875 C 9.570312 14.125 8.738281 13.808594 7.828125 13.808594 Z M 15.175781 14.695312 C 14.472656 14.125 13.609375 13.808594 12.699219 13.808594 C 12.621094 13.808594 12.542969 13.808594 12.464844 13.808594 L 13.976562 11.933594 C 14.445312 11.621094 14.992188 11.4375 15.566406 11.4375 C 16.214844 11.4375 16.84375 11.671875 17.363281 12.089844 Z M 18.015625 11.308594 C 17.3125 10.734375 16.453125 10.421875 15.539062 10.421875 C 15.410156 10.421875 15.304688 10.421875 15.175781 10.449219 L 16.554688 8.753906 C 16.582031 8.730469 16.609375 8.703125 16.632812 8.675781 C 17.179688 8.105469 17.910156 7.792969 18.691406 7.792969 C 19.34375 7.792969 19.941406 8 20.464844 8.417969 Z M 21.140625 7.609375 C 20.4375 7.0625 19.605469 6.75 18.71875 6.75 C 18.535156 6.75 18.328125 6.773438 18.144531 6.800781 L 19.628906 4.976562 L 23.382812 4.976562 Z M 21.140625 7.609375 " fill-opacity="1" fill-rule="nonzero"/></g><path fill="#ffffff" d="M 23.824219 11.125 L 22.964844 11.125 C 22.679688 11.125 22.445312 11.359375 22.445312 11.648438 C 22.445312 11.933594 22.679688 12.167969 22.964844 12.167969 L 23.746094 12.167969 L 23.746094 12.769531 C 23.746094 14.070312 24.789062 15.113281 26.09375 15.113281 C 27.394531 15.113281 28.4375 14.070312 28.4375 12.769531 L 28.4375 11.726562 C 28.4375 10.421875 27.394531 9.378906 26.09375 9.378906 C 25 9.378906 24.085938 10.136719 23.824219 11.125 Z M 26.09375 14.070312 C 25.390625 14.070312 24.789062 13.496094 24.789062 12.769531 L 24.789062 12.167969 L 27.394531 12.167969 L 27.394531 12.769531 C 27.394531 13.496094 26.796875 14.070312 26.09375 14.070312 Z M 27.238281 11.125 L 24.917969 11.125 C 25.128906 10.710938 25.570312 10.398438 26.066406 10.398438 C 26.5625 10.398438 27.03125 10.710938 27.238281 11.125 Z M 27.238281 11.125 " fill-opacity="1" fill-rule="nonzero"/><g clip-path="url(#e082d2109f)"><path fill="#ffffff" d="M 32.320312 26.394531 L 32.320312 24.546875 C 32.789062 24.3125 33.023438 23.789062 32.867188 23.296875 L 31.773438 19.828125 C 31.746094 19.75 31.722656 19.699219 31.667969 19.648438 L 28.855469 16.574219 C 28.4375 15.894531 27.683594 15.476562 26.875 15.476562 L 24.894531 15.476562 L 20.726562 11.960938 C 20.308594 11.621094 19.707031 11.648438 19.34375 12.039062 L 19.109375 12.273438 C 18.875 12.480469 18.769531 12.742188 18.769531 13.027344 C 18.769531 13.316406 18.902344 13.574219 19.082031 13.757812 L 22.964844 17.613281 L 22.964844 22.226562 L 21.714844 26.941406 C 21.664062 27.101562 21.664062 27.257812 21.664062 27.414062 L 21.898438 32.3125 C 21.921875 32.859375 22.390625 33.300781 22.941406 33.300781 L 23.773438 33.300781 C 24.320312 33.300781 24.789062 32.859375 24.816406 32.3125 L 25.023438 27.726562 C 25.023438 27.59375 25.101562 27.464844 25.179688 27.359375 L 25.492188 27.046875 L 26.429688 32.46875 C 26.507812 32.960938 26.953125 33.328125 27.449219 33.328125 C 27.5 33.328125 27.527344 33.328125 27.578125 33.328125 L 28.410156 33.222656 C 28.957031 33.144531 29.351562 32.675781 29.324219 32.128906 L 28.855469 23.789062 C 29.089844 23.398438 29.191406 22.957031 29.191406 22.488281 L 29.191406 21.574219 L 30.679688 24.234375 C 30.808594 24.46875 31.042969 24.648438 31.277344 24.726562 L 31.277344 26.394531 C 31.070312 26.472656 30.859375 26.605469 30.703125 26.761719 C 30.105469 27.359375 30.105469 28.351562 30.703125 28.976562 C 30.914062 29.183594 31.226562 29.183594 31.433594 28.976562 C 31.644531 28.765625 31.644531 28.453125 31.433594 28.246094 C 31.226562 28.039062 31.226562 27.699219 31.433594 27.515625 C 31.644531 27.308594 31.980469 27.308594 32.164062 27.515625 C 32.371094 27.726562 32.371094 28.0625 32.164062 28.246094 C 31.957031 28.453125 31.957031 28.765625 32.164062 28.976562 C 32.269531 29.078125 32.398438 29.132812 32.527344 29.132812 C 32.660156 29.132812 32.789062 29.078125 32.894531 28.976562 C 33.492188 28.375 33.492188 27.386719 32.894531 26.761719 C 32.738281 26.605469 32.527344 26.472656 32.320312 26.394531 Z M 27.472656 32.3125 L 26.429688 26.214844 L 27.890625 24.832031 L 28.308594 32.207031 Z M 29.820312 20.53125 C 29.792969 20.480469 29.765625 20.453125 29.742188 20.429688 L 29.0625 19.75 C 28.90625 19.59375 28.699219 19.570312 28.488281 19.648438 C 28.28125 19.726562 28.175781 19.90625 28.175781 20.117188 L 28.175781 22.511719 C 28.175781 22.828125 28.097656 23.113281 27.917969 23.375 L 24.476562 26.628906 C 24.191406 26.917969 24.007812 27.28125 23.980469 27.699219 L 23.773438 32.285156 L 22.941406 32.285156 L 22.703125 27.414062 C 22.703125 27.359375 22.703125 27.308594 22.730469 27.257812 L 23.980469 22.460938 C 24.007812 22.382812 24.007812 22.332031 23.980469 22.253906 L 23.980469 17.40625 C 23.980469 17.277344 23.929688 17.144531 23.824219 17.042969 L 19.8125 13.003906 L 20.046875 12.742188 L 24.371094 16.390625 C 24.476562 16.46875 24.582031 16.519531 24.710938 16.519531 L 26.875 16.519531 C 27.34375 16.519531 27.761719 16.753906 27.996094 17.144531 C 28.019531 17.171875 28.046875 17.199219 28.074219 17.222656 L 30.859375 20.246094 L 31.929688 23.609375 L 32.113281 24.023438 L 31.929688 23.609375 L 31.644531 23.738281 Z M 29.820312 20.53125 " fill-opacity="1" fill-rule="nonzero"/></g></svg>