<svg xmlns="http://www.w3.org/2000/svg" xmlns:xlink="http://www.w3.org/1999/xlink" width="45" zoomAndPan="magnify" viewBox="0 0 33.75 33.749998" height="45" preserveAspectRatio="xMidYMid meet" version="1.0"><defs><clipPath id="1f479ecb88"><path d="M 0 0 L 33.5 0 L 33.5 33.5 L 0 33.5 Z M 0 0 " clip-rule="nonzero"/></clipPath></defs><g clip-path="url(#1f479ecb88)"><path fill="#02afef" d="M 17.890625 19.941406 L 17.890625 19.15625 L 27.125 19.15625 C 27.351562 19.160156 27.542969 19.238281 27.699219 19.398438 C 27.859375 19.554688 27.941406 19.746094 27.941406 19.972656 L 27.941406 24.925781 C 28.117188 24.957031 28.285156 25.011719 28.449219 25.085938 C 28.609375 25.160156 28.761719 25.25 28.902344 25.363281 C 29.039062 25.476562 29.164062 25.601562 29.273438 25.746094 C 29.382812 25.886719 29.46875 26.039062 29.539062 26.207031 C 29.609375 26.371094 29.660156 26.539062 29.6875 26.71875 C 29.714844 26.894531 29.71875 27.070312 29.703125 27.25 C 29.6875 27.425781 29.648438 27.601562 29.589844 27.769531 C 29.53125 27.9375 29.453125 28.097656 29.355469 28.246094 C 29.253906 28.394531 29.140625 28.53125 29.007812 28.652344 C 28.875 28.773438 28.730469 28.875 28.574219 28.960938 C 28.414062 29.042969 28.25 29.109375 28.078125 29.152344 C 27.902344 29.195312 27.726562 29.21875 27.546875 29.21875 C 27.371094 29.21875 27.195312 29.195312 27.019531 29.152344 C 26.847656 29.109375 26.679688 29.042969 26.523438 28.960938 C 26.367188 28.875 26.222656 28.773438 26.089844 28.652344 C 25.957031 28.53125 25.84375 28.394531 25.742188 28.246094 C 25.644531 28.097656 25.566406 27.9375 25.507812 27.769531 C 25.445312 27.601562 25.410156 27.425781 25.394531 27.25 C 25.375 27.070312 25.382812 26.894531 25.410156 26.71875 C 25.4375 26.539062 25.488281 26.371094 25.558594 26.207031 C 25.625 26.039062 25.714844 25.886719 25.824219 25.746094 C 25.933594 25.601562 26.054688 25.476562 26.195312 25.363281 C 26.335938 25.25 26.484375 25.160156 26.648438 25.085938 C 26.8125 25.011719 26.980469 24.957031 27.15625 24.925781 L 27.15625 19.972656 C 27.15625 19.953125 27.144531 19.941406 27.125 19.941406 Z M 17.890625 22.738281 L 22.324219 22.738281 C 22.347656 22.738281 22.355469 22.75 22.355469 22.769531 L 22.355469 27.722656 C 22.179688 27.753906 22.011719 27.808594 21.847656 27.882812 C 21.6875 27.957031 21.535156 28.050781 21.394531 28.164062 C 21.257812 28.273438 21.132812 28.402344 21.023438 28.542969 C 20.917969 28.6875 20.828125 28.839844 20.757812 29.003906 C 20.6875 29.167969 20.636719 29.339844 20.609375 29.515625 C 20.582031 29.691406 20.578125 29.871094 20.59375 30.046875 C 20.609375 30.226562 20.648438 30.398438 20.707031 30.570312 C 20.765625 30.738281 20.84375 30.894531 20.941406 31.046875 C 21.042969 31.195312 21.15625 31.328125 21.289062 31.449219 C 21.421875 31.570312 21.566406 31.671875 21.722656 31.757812 C 21.882812 31.84375 22.046875 31.90625 22.21875 31.949219 C 22.394531 31.992188 22.570312 32.015625 22.75 32.015625 C 22.925781 32.015625 23.105469 31.992188 23.277344 31.949219 C 23.449219 31.90625 23.617188 31.84375 23.773438 31.757812 C 23.929688 31.671875 24.074219 31.570312 24.207031 31.449219 C 24.339844 31.328125 24.457031 31.195312 24.554688 31.046875 C 24.652344 30.894531 24.730469 30.738281 24.789062 30.570312 C 24.851562 30.398438 24.886719 30.226562 24.902344 30.046875 C 24.921875 29.871094 24.914062 29.691406 24.886719 29.515625 C 24.859375 29.339844 24.808594 29.167969 24.738281 29.003906 C 24.671875 28.839844 24.582031 28.6875 24.472656 28.542969 C 24.363281 28.402344 24.242188 28.273438 24.101562 28.164062 C 23.960938 28.050781 23.8125 27.957031 23.648438 27.882812 C 23.484375 27.808594 23.316406 27.753906 23.140625 27.722656 L 23.140625 22.769531 C 23.140625 22.546875 23.058594 22.355469 22.902344 22.195312 C 22.742188 22.035156 22.550781 21.957031 22.324219 21.957031 L 17.890625 21.957031 Z M 17.890625 11.546875 L 17.890625 10.761719 L 22.324219 10.761719 C 22.347656 10.761719 22.355469 10.75 22.355469 10.730469 L 22.355469 5.777344 C 22.179688 5.746094 22.011719 5.691406 21.847656 5.617188 C 21.6875 5.542969 21.535156 5.453125 21.394531 5.339844 C 21.257812 5.226562 21.132812 5.101562 21.023438 4.957031 C 20.917969 4.816406 20.828125 4.664062 20.757812 4.496094 C 20.6875 4.332031 20.636719 4.164062 20.609375 3.984375 C 20.582031 3.808594 20.578125 3.632812 20.59375 3.453125 C 20.609375 3.277344 20.648438 3.101562 20.707031 2.933594 C 20.765625 2.765625 20.84375 2.605469 20.941406 2.457031 C 21.042969 2.308594 21.15625 2.171875 21.289062 2.050781 C 21.421875 1.929688 21.566406 1.828125 21.722656 1.742188 C 21.882812 1.660156 22.046875 1.59375 22.21875 1.550781 C 22.394531 1.507812 22.570312 1.484375 22.75 1.484375 C 22.925781 1.484375 23.105469 1.507812 23.277344 1.550781 C 23.449219 1.59375 23.617188 1.660156 23.773438 1.742188 C 23.929688 1.828125 24.074219 1.929688 24.207031 2.050781 C 24.339844 2.171875 24.457031 2.308594 24.554688 2.457031 C 24.652344 2.605469 24.730469 2.765625 24.789062 2.933594 C 24.851562 3.101562 24.886719 3.277344 24.902344 3.453125 C 24.921875 3.632812 24.914062 3.808594 24.886719 3.984375 C 24.859375 4.164062 24.808594 4.332031 24.738281 4.496094 C 24.671875 4.664062 24.582031 4.816406 24.472656 4.957031 C 24.363281 5.101562 24.242188 5.226562 24.101562 5.339844 C 23.960938 5.453125 23.8125 5.542969 23.648438 5.617188 C 23.484375 5.691406 23.316406 5.746094 23.140625 5.777344 L 23.140625 10.730469 C 23.140625 10.957031 23.058594 11.148438 22.902344 11.304688 C 22.742188 11.464844 22.550781 11.546875 22.324219 11.546875 Z M 17.890625 14.34375 L 27.125 14.34375 C 27.351562 14.34375 27.542969 14.265625 27.699219 14.105469 C 27.859375 13.945312 27.941406 13.753906 27.941406 13.527344 L 27.941406 8.578125 C 28.117188 8.542969 28.285156 8.492188 28.449219 8.417969 C 28.609375 8.34375 28.761719 8.25 28.902344 8.136719 C 29.039062 8.027344 29.164062 7.898438 29.273438 7.757812 C 29.382812 7.613281 29.46875 7.460938 29.539062 7.296875 C 29.609375 7.132812 29.660156 6.960938 29.6875 6.785156 C 29.714844 6.605469 29.71875 6.429688 29.703125 6.25 C 29.6875 6.074219 29.648438 5.902344 29.589844 5.730469 C 29.53125 5.5625 29.453125 5.402344 29.355469 5.253906 C 29.253906 5.105469 29.140625 4.972656 29.007812 4.851562 C 28.875 4.730469 28.730469 4.628906 28.574219 4.542969 C 28.414062 4.457031 28.25 4.394531 28.078125 4.351562 C 27.902344 4.304688 27.726562 4.285156 27.546875 4.285156 C 27.371094 4.285156 27.195312 4.304688 27.019531 4.351562 C 26.847656 4.394531 26.679688 4.457031 26.523438 4.542969 C 26.367188 4.628906 26.222656 4.730469 26.089844 4.851562 C 25.957031 4.972656 25.84375 5.105469 25.742188 5.253906 C 25.644531 5.402344 25.566406 5.5625 25.507812 5.730469 C 25.445312 5.902344 25.410156 6.074219 25.394531 6.25 C 25.375 6.429688 25.382812 6.605469 25.410156 6.785156 C 25.4375 6.960938 25.488281 7.132812 25.558594 7.296875 C 25.625 7.460938 25.714844 7.613281 25.824219 7.757812 C 25.933594 7.898438 26.054688 8.027344 26.195312 8.136719 C 26.335938 8.25 26.484375 8.34375 26.648438 8.417969 C 26.8125 8.492188 26.980469 8.542969 27.15625 8.578125 L 27.15625 13.527344 C 27.15625 13.550781 27.144531 13.558594 27.125 13.5625 L 17.890625 13.5625 Z M 17.105469 16.359375 L 17.105469 22.9375 C 17.105469 23.046875 17.066406 23.140625 16.992188 23.214844 C 16.914062 23.292969 16.820312 23.332031 16.714844 23.332031 C 16.28125 23.332031 15.855469 23.289062 15.429688 23.203125 C 15.007812 23.121094 14.59375 22.996094 14.195312 22.828125 C 13.796875 22.664062 13.417969 22.460938 13.058594 22.222656 C 12.699219 21.980469 12.367188 21.707031 12.0625 21.402344 C 11.753906 21.097656 11.484375 20.765625 11.242188 20.40625 C 11.003906 20.046875 10.800781 19.667969 10.636719 19.269531 C 10.46875 18.871094 10.34375 18.457031 10.261719 18.035156 C 10.175781 17.609375 10.132812 17.183594 10.132812 16.75 C 10.132812 16.320312 10.175781 15.890625 10.261719 15.46875 C 10.34375 15.042969 10.46875 14.632812 10.636719 14.234375 C 10.800781 13.832031 11.003906 13.453125 11.242188 13.09375 C 11.484375 12.734375 11.753906 12.402344 12.0625 12.097656 C 12.367188 11.792969 12.699219 11.519531 13.058594 11.28125 C 13.417969 11.039062 13.796875 10.835938 14.195312 10.671875 C 14.59375 10.507812 15.007812 10.382812 15.429688 10.296875 C 15.855469 10.214844 16.28125 10.171875 16.714844 10.171875 C 16.820312 10.171875 16.914062 10.210938 16.992188 10.285156 C 17.066406 10.363281 17.105469 10.453125 17.105469 10.5625 Z M 31.261719 14.585938 C 31.011719 14.585938 30.765625 14.628906 30.527344 14.714844 C 30.289062 14.800781 30.074219 14.925781 29.878906 15.089844 C 29.683594 15.25 29.523438 15.441406 29.394531 15.660156 C 29.269531 15.875 29.179688 16.109375 29.132812 16.359375 L 17.890625 16.359375 L 17.890625 17.144531 L 29.132812 17.144531 C 29.183594 17.414062 29.28125 17.667969 29.429688 17.898438 C 29.574219 18.132812 29.761719 18.332031 29.980469 18.496094 C 30.203125 18.65625 30.449219 18.773438 30.714844 18.84375 C 30.980469 18.914062 31.25 18.933594 31.527344 18.898438 C 31.800781 18.867188 32.058594 18.78125 32.300781 18.652344 C 32.539062 18.519531 32.75 18.347656 32.925781 18.136719 C 33.101562 17.921875 33.234375 17.6875 33.320312 17.425781 C 33.40625 17.164062 33.441406 16.894531 33.421875 16.617188 C 33.40625 16.34375 33.339844 16.082031 33.222656 15.832031 C 33.105469 15.582031 32.945312 15.363281 32.746094 15.175781 C 32.546875 14.984375 32.316406 14.839844 32.0625 14.738281 C 31.804688 14.636719 31.539062 14.585938 31.261719 14.585938 Z M 0.917969 20.222656 L 3.519531 20.539062 C 3.808594 21.539062 4.203125 22.492188 4.707031 23.402344 L 3.089844 25.46875 C 2.929688 25.675781 2.855469 25.910156 2.871094 26.175781 C 2.886719 26.4375 2.988281 26.664062 3.175781 26.847656 L 6.617188 30.289062 C 6.800781 30.476562 7.027344 30.578125 7.289062 30.59375 C 7.554688 30.609375 7.789062 30.535156 7.996094 30.375 L 10.066406 28.757812 C 10.972656 29.261719 11.925781 29.65625 12.925781 29.945312 L 13.246094 32.546875 C 13.277344 32.808594 13.390625 33.027344 13.589844 33.203125 C 13.785156 33.375 14.015625 33.464844 14.28125 33.464844 L 16.714844 33.464844 C 16.820312 33.464844 16.914062 33.425781 16.992188 33.351562 C 17.066406 33.273438 17.105469 33.179688 17.105469 33.074219 L 17.105469 24.636719 C 17.105469 24.527344 17.066406 24.4375 16.992188 24.359375 C 16.914062 24.28125 16.820312 24.246094 16.714844 24.246094 C 16.222656 24.246094 15.734375 24.195312 15.25 24.101562 C 14.769531 24.003906 14.300781 23.863281 13.847656 23.675781 C 13.390625 23.484375 12.960938 23.253906 12.550781 22.980469 C 12.140625 22.707031 11.761719 22.398438 11.414062 22.050781 C 11.066406 21.703125 10.757812 21.324219 10.484375 20.914062 C 10.210938 20.503906 9.980469 20.074219 9.789062 19.617188 C 9.601562 19.164062 9.460938 18.695312 9.363281 18.210938 C 9.269531 17.730469 9.21875 17.242188 9.21875 16.75 C 9.21875 16.257812 9.269531 15.773438 9.363281 15.289062 C 9.460938 14.804688 9.601562 14.339844 9.789062 13.882812 C 9.980469 13.429688 10.210938 12.996094 10.484375 12.585938 C 10.757812 12.179688 11.066406 11.800781 11.414062 11.453125 C 11.761719 11.105469 12.140625 10.792969 12.550781 10.519531 C 12.960938 10.246094 13.390625 10.015625 13.847656 9.828125 C 14.300781 9.640625 14.769531 9.496094 15.25 9.402344 C 15.734375 9.304688 16.222656 9.257812 16.714844 9.257812 C 16.820312 9.257812 16.914062 9.21875 16.992188 9.144531 C 17.066406 9.066406 17.105469 8.972656 17.105469 8.867188 L 17.105469 0.429688 C 17.105469 0.320312 17.066406 0.226562 16.992188 0.152344 C 16.914062 0.0742188 16.820312 0.0390625 16.714844 0.0390625 L 14.28125 0.0390625 C 14.015625 0.0390625 13.785156 0.125 13.589844 0.300781 C 13.390625 0.472656 13.277344 0.691406 13.242188 0.953125 L 12.925781 3.558594 C 11.925781 3.84375 10.972656 4.238281 10.066406 4.742188 L 7.996094 3.128906 C 7.789062 2.964844 7.554688 2.890625 7.289062 2.910156 C 7.027344 2.925781 6.800781 3.027344 6.617188 3.210938 L 3.175781 6.652344 C 2.988281 6.839844 2.886719 7.0625 2.871094 7.328125 C 2.855469 7.589844 2.929688 7.828125 3.089844 8.035156 L 4.707031 10.101562 C 4.203125 11.011719 3.808594 11.964844 3.519531 12.960938 L 0.917969 13.28125 C 0.65625 13.316406 0.4375 13.429688 0.261719 13.625 C 0.0898438 13.824219 0 14.054688 0 14.316406 L 0 19.183594 C 0 19.445312 0.0859375 19.679688 0.261719 19.875 C 0.4375 20.074219 0.65625 20.1875 0.917969 20.222656 Z M 0.917969 20.222656 " fill-opacity="1" fill-rule="evenodd"/></g></svg>