<svg xmlns="http://www.w3.org/2000/svg" xmlns:xlink="http://www.w3.org/1999/xlink" width="45" zoomAndPan="magnify" viewBox="0 0 33.75 33.749998" height="45" preserveAspectRatio="xMidYMid meet" version="1.0"><defs><clipPath id="48d93a7102"><path d="M 0 0 L 33.5 0 L 33.5 33.5 L 0 33.5 Z M 0 0 " clip-rule="nonzero"/></clipPath></defs><g clip-path="url(#48d93a7102)"><path fill="#2e3a97" d="M 12.4375 10.210938 L 12.164062 5.375 C 12.160156 5.304688 12.179688 5.234375 12.226562 5.183594 L 12.21875 1.566406 C 12.21875 1.460938 12.304688 1.375 12.410156 1.375 C 12.46875 1.375 12.519531 1.398438 12.554688 1.4375 L 14.894531 4.125 C 14.960938 4.132812 15.023438 4.167969 15.066406 4.222656 L 18.183594 7.925781 C 18.332031 7.929688 18.46875 8.019531 18.527344 8.164062 L 20.3125 12.667969 L 32.828125 0.152344 C 32.976562 0 33.222656 0 33.371094 0.152344 C 33.445312 0.226562 33.484375 0.324219 33.484375 0.421875 L 33.484375 33.117188 C 33.484375 33.332031 33.3125 33.5 33.097656 33.5 L 0.402344 33.5 C 0.191406 33.5 0.0195312 33.332031 0.0195312 33.117188 L 0.0195312 28.046875 C 0.0195312 27.835938 0.191406 27.664062 0.402344 27.664062 L 1.316406 27.664062 C 1.316406 27.632812 1.316406 27.605469 1.316406 27.59375 C 1.316406 24.109375 2.726562 20.953125 5.011719 18.667969 C 7.296875 16.382812 10.449219 14.972656 13.9375 14.972656 C 13.984375 14.972656 14.03125 14.972656 14.082031 14.972656 L 12.355469 10.621094 C 12.296875 10.476562 12.332031 10.316406 12.4375 10.210938 Z M 19.726562 13.253906 L 17.957031 8.800781 L 16.871094 9.234375 L 18.824219 14.15625 Z M 18.53125 14.449219 L 16.515625 9.375 L 14.722656 10.089844 L 16.789062 15.296875 C 17.027344 15.351562 17.261719 15.414062 17.496094 15.480469 Z M 16.875 16.105469 C 16.503906 16.011719 16.125 15.933594 15.738281 15.875 C 15.152344 15.785156 14.550781 15.738281 13.9375 15.738281 C 10.664062 15.738281 7.699219 17.066406 5.554688 19.210938 C 3.410156 21.355469 2.082031 24.320312 2.082031 27.59375 L 2.082031 27.664062 L 5.316406 27.664062 L 6.5 26.480469 C 6.742188 24.847656 7.507812 23.386719 8.621094 22.277344 C 9.730469 21.164062 11.191406 20.398438 12.824219 20.15625 L 15.628906 17.351562 L 15.660156 17.160156 L 15.796875 17.183594 Z M 4.546875 28.429688 L 0.785156 28.429688 L 0.785156 32.195312 L 1.890625 31.089844 L 1.890625 30.484375 L 2.402344 30.484375 L 2.402344 30.578125 Z M 7.152344 25.828125 L 12.171875 20.808594 C 10.945312 21.125 9.851562 21.769531 8.980469 22.636719 C 8.113281 23.507812 7.46875 24.601562 7.152344 25.828125 Z M 1.328125 32.734375 L 4.421875 32.734375 L 4.421875 31.183594 C 4.421875 31.078125 4.507812 30.992188 4.613281 30.992188 C 4.71875 30.992188 4.804688 31.078125 4.804688 31.183594 L 4.804688 32.734375 L 6.457031 32.734375 L 6.457031 32.050781 C 6.457031 31.945312 6.542969 31.859375 6.648438 31.859375 C 6.753906 31.859375 6.839844 31.945312 6.839844 32.050781 L 6.839844 32.734375 L 8.492188 32.734375 L 8.492188 31.183594 C 8.492188 31.078125 8.578125 30.992188 8.683594 30.992188 C 8.789062 30.992188 8.875 31.078125 8.875 31.183594 L 8.875 32.734375 L 10.527344 32.734375 L 10.527344 32.050781 C 10.527344 31.945312 10.613281 31.859375 10.71875 31.859375 C 10.824219 31.859375 10.910156 31.945312 10.910156 32.050781 L 10.910156 32.734375 L 12.5625 32.734375 L 12.5625 31.183594 C 12.5625 31.078125 12.648438 30.992188 12.753906 30.992188 C 12.859375 30.992188 12.945312 31.078125 12.945312 31.183594 L 12.945312 32.734375 L 14.59375 32.734375 L 14.59375 32.050781 C 14.59375 31.945312 14.679688 31.859375 14.789062 31.859375 C 14.894531 31.859375 14.980469 31.945312 14.980469 32.050781 L 14.980469 32.734375 L 16.628906 32.734375 L 16.628906 31.183594 C 16.628906 31.078125 16.714844 30.992188 16.820312 30.992188 C 16.925781 30.992188 17.011719 31.078125 17.011719 31.183594 L 17.011719 32.734375 L 18.664062 32.734375 L 18.664062 32.050781 C 18.664062 31.945312 18.75 31.859375 18.855469 31.859375 C 18.960938 31.859375 19.046875 31.945312 19.046875 32.050781 L 19.046875 32.734375 L 20.699219 32.734375 L 20.699219 31.183594 C 20.699219 31.078125 20.785156 30.992188 20.890625 30.992188 C 20.996094 30.992188 21.082031 31.078125 21.082031 31.183594 L 21.082031 32.734375 L 22.734375 32.734375 L 22.734375 32.050781 C 22.734375 31.945312 22.820312 31.859375 22.925781 31.859375 C 23.03125 31.859375 23.117188 31.945312 23.117188 32.050781 L 23.117188 32.734375 L 24.769531 32.734375 L 24.769531 31.183594 C 24.769531 31.078125 24.855469 30.992188 24.960938 30.992188 C 25.066406 30.992188 25.152344 31.078125 25.152344 31.183594 L 25.152344 32.734375 L 26.804688 32.734375 L 26.804688 32.050781 C 26.804688 31.945312 26.890625 31.859375 26.996094 31.859375 C 27.101562 31.859375 27.1875 31.945312 27.1875 32.050781 L 27.1875 32.734375 L 28.839844 32.734375 L 28.839844 31.183594 C 28.839844 31.078125 28.925781 30.992188 29.03125 30.992188 C 29.136719 30.992188 29.222656 31.078125 29.222656 31.183594 L 29.222656 32.734375 L 30.875 32.734375 L 30.875 32.050781 C 30.875 31.945312 30.960938 31.859375 31.066406 31.859375 C 31.171875 31.859375 31.257812 31.945312 31.257812 32.050781 L 31.257812 32.734375 L 32.714844 32.734375 L 32.714844 29.242188 L 31.164062 29.242188 C 31.058594 29.242188 30.972656 29.15625 30.972656 29.050781 C 30.972656 28.945312 31.058594 28.859375 31.164062 28.859375 L 32.714844 28.859375 L 32.714844 27.207031 L 32.03125 27.207031 C 31.925781 27.207031 31.839844 27.121094 31.839844 27.015625 C 31.839844 26.910156 31.925781 26.824219 32.03125 26.824219 L 32.714844 26.824219 L 32.714844 25.171875 L 31.164062 25.171875 C 31.058594 25.171875 30.972656 25.085938 30.972656 24.980469 C 30.972656 24.875 31.058594 24.789062 31.164062 24.789062 L 32.714844 24.789062 L 32.714844 23.136719 L 32.03125 23.136719 C 31.925781 23.136719 31.839844 23.050781 31.839844 22.945312 C 31.839844 22.839844 31.925781 22.753906 32.03125 22.753906 L 32.714844 22.753906 L 32.714844 21.101562 L 31.164062 21.101562 C 31.058594 21.101562 30.972656 21.015625 30.972656 20.910156 C 30.972656 20.804688 31.058594 20.71875 31.164062 20.71875 L 32.714844 20.71875 L 32.714844 19.066406 L 32.03125 19.066406 C 31.925781 19.066406 31.839844 18.980469 31.839844 18.875 C 31.839844 18.769531 31.925781 18.683594 32.03125 18.683594 L 32.714844 18.683594 L 32.714844 17.03125 L 31.164062 17.03125 C 31.058594 17.03125 30.972656 16.945312 30.972656 16.839844 C 30.972656 16.734375 31.058594 16.648438 31.164062 16.648438 L 32.714844 16.648438 L 32.714844 14.996094 L 32.03125 14.996094 C 31.925781 14.996094 31.839844 14.910156 31.839844 14.804688 C 31.839844 14.699219 31.925781 14.613281 32.03125 14.613281 L 32.714844 14.613281 L 32.714844 12.964844 L 31.164062 12.964844 C 31.058594 12.964844 30.972656 12.878906 30.972656 12.769531 C 30.972656 12.664062 31.058594 12.578125 31.164062 12.578125 L 32.714844 12.578125 L 32.714844 10.929688 L 32.03125 10.929688 C 31.925781 10.929688 31.839844 10.84375 31.839844 10.738281 C 31.839844 10.632812 31.925781 10.546875 32.03125 10.546875 L 32.714844 10.546875 L 32.714844 8.894531 L 31.164062 8.894531 C 31.058594 8.894531 30.972656 8.808594 30.972656 8.703125 C 30.972656 8.597656 31.058594 8.511719 31.164062 8.511719 L 32.714844 8.511719 L 32.714844 6.859375 L 32.03125 6.859375 C 31.925781 6.859375 31.839844 6.773438 31.839844 6.667969 C 31.839844 6.5625 31.925781 6.476562 32.03125 6.476562 L 32.714844 6.476562 L 32.714844 4.824219 L 31.164062 4.824219 C 31.058594 4.824219 30.972656 4.738281 30.972656 4.632812 C 30.972656 4.527344 31.058594 4.441406 31.164062 4.441406 L 32.714844 4.441406 L 32.714844 1.347656 L 5.746094 28.320312 Z M 27.703125 27.976562 L 13.433594 27.976562 C 13.292969 27.976562 13.175781 27.863281 13.175781 27.722656 C 13.175781 27.648438 13.207031 27.585938 13.253906 27.539062 L 27.523438 13.269531 C 27.621094 13.171875 27.78125 13.171875 27.882812 13.269531 C 27.933594 13.320312 27.957031 13.386719 27.957031 13.453125 L 27.957031 27.722656 C 27.957031 27.863281 27.84375 27.976562 27.703125 27.976562 Z M 14.050781 27.464844 L 27.445312 27.464844 L 27.445312 14.066406 Z M 13.746094 17.980469 L 13.746094 17.023438 C 13.867188 17.023438 14.007812 17.019531 14.128906 17.023438 L 14.128906 17.980469 Z M 3.988281 26.488281 L 3.046875 26.320312 L 3.113281 25.945312 L 4.054688 26.109375 Z M 4.410156 24.785156 L 3.511719 24.457031 L 3.640625 24.097656 L 4.542969 24.425781 Z M 5.121094 23.179688 L 4.292969 22.699219 L 4.484375 22.371094 L 5.3125 22.847656 Z M 6.101562 21.722656 L 5.367188 21.109375 L 5.613281 20.816406 L 6.347656 21.429688 Z M 7.320312 20.460938 L 6.703125 19.726562 L 6.996094 19.480469 L 7.613281 20.214844 Z M 8.738281 19.425781 L 8.257812 18.597656 L 8.589844 18.40625 L 9.066406 19.234375 Z M 10.3125 18.652344 L 9.984375 17.753906 L 10.34375 17.625 L 10.671875 18.523438 Z M 12 18.167969 L 11.832031 17.222656 L 12.210938 17.160156 L 12.375 18.101562 Z M 16.339844 15.199219 L 14.367188 10.230469 L 13.203125 10.695312 L 14.917969 15.007812 C 15.230469 15.035156 15.542969 15.070312 15.851562 15.117188 C 16.015625 15.140625 16.179688 15.171875 16.339844 15.199219 Z M 17.664062 8.097656 L 14.789062 4.683594 L 12.683594 5.519531 L 12.933594 9.980469 Z M 12.609375 5 L 14.496094 4.25 L 12.601562 2.074219 Z M 12.609375 5 " fill-opacity="1" fill-rule="nonzero"/></g></svg>