<svg xmlns="http://www.w3.org/2000/svg" xmlns:xlink="http://www.w3.org/1999/xlink" width="45" zoomAndPan="magnify" viewBox="0 0 33.75 33.749998" height="45" preserveAspectRatio="xMidYMid meet" version="1.0"><defs><clipPath id="0a8f7fc9a7"><path d="M 0 22 L 33.5 22 L 33.5 33.5 L 0 33.5 Z M 0 22 " clip-rule="nonzero"/></clipPath></defs><g clip-path="url(#0a8f7fc9a7)"><path fill="#02afef" d="M 8.816406 22.816406 C 8.761719 22.820312 8.707031 22.832031 8.65625 22.851562 C 6.320312 23.261719 4.335938 23.835938 2.820312 24.617188 C 2.09375 24.96875 1.449219 25.4375 0.894531 26.023438 C 0.316406 26.609375 0.0195312 27.3125 0 28.132812 C 0 29.347656 0.804688 30.292969 1.769531 30.992188 C 2.734375 31.6875 3.980469 32.1875 5.480469 32.632812 C 8.460938 33.523438 12.40625 34.039062 16.757812 34.039062 C 21.113281 34.039062 25.058594 33.519531 28.023438 32.632812 C 29.523438 32.1875 30.769531 31.667969 31.734375 30.992188 C 32.699219 30.3125 33.5 29.347656 33.5 28.132812 C 33.484375 27.3125 33.183594 26.609375 32.609375 26.023438 C 32.050781 25.4375 31.410156 24.96875 30.683594 24.617188 C 29.144531 23.832031 27.09375 23.261719 24.683594 22.851562 C 24.175781 22.734375 23.746094 22.871094 23.398438 23.261719 C 23.242188 23.449219 23.144531 23.660156 23.105469 23.902344 C 23.066406 24.140625 23.09375 24.375 23.183594 24.601562 C 23.28125 24.824219 23.425781 25.003906 23.621094 25.144531 C 23.816406 25.285156 24.035156 25.367188 24.273438 25.386719 C 26.503906 25.761719 28.34375 26.3125 29.523438 26.921875 C 29.964844 27.140625 30.363281 27.421875 30.71875 27.765625 C 30.929688 27.996094 30.929688 28.121094 30.929688 28.136719 C 30.929688 28.191406 30.84375 28.476562 30.234375 28.886719 C 29.628906 29.296875 28.613281 29.796875 27.308594 30.191406 C 24.667969 30.976562 20.898438 31.476562 16.757812 31.476562 C 12.617188 31.476562 8.835938 30.976562 6.195312 30.191406 C 4.890625 29.796875 3.875 29.316406 3.265625 28.886719 C 2.660156 28.457031 2.570312 28.191406 2.570312 28.136719 C 2.570312 28.121094 2.570312 27.996094 2.785156 27.765625 C 3.140625 27.421875 3.539062 27.140625 3.980469 26.921875 C 5.140625 26.3125 6.945312 25.761719 9.101562 25.386719 C 9.273438 25.367188 9.429688 25.3125 9.578125 25.230469 C 9.726562 25.148438 9.855469 25.039062 9.960938 24.90625 C 10.066406 24.773438 10.144531 24.625 10.191406 24.460938 C 10.238281 24.296875 10.253906 24.132812 10.234375 23.960938 C 10.214844 23.792969 10.164062 23.632812 10.085938 23.484375 C 10.003906 23.332031 9.894531 23.207031 9.761719 23.097656 C 9.632812 22.992188 9.484375 22.914062 9.320312 22.863281 C 9.15625 22.816406 8.992188 22.800781 8.820312 22.816406 Z M 8.816406 22.816406 " fill-opacity="1" fill-rule="nonzero"/></g><path fill="#02afef" d="M 16.757812 0.0078125 C 17.417969 0.0078125 18.070312 0.0703125 18.714844 0.199219 C 19.363281 0.328125 19.988281 0.519531 20.597656 0.773438 C 21.203125 1.023438 21.78125 1.332031 22.332031 1.699219 C 22.878906 2.066406 23.382812 2.480469 23.851562 2.945312 C 24.316406 3.414062 24.730469 3.917969 25.097656 4.464844 C 25.464844 5.011719 25.773438 5.589844 26.023438 6.199219 C 26.277344 6.808594 26.46875 7.433594 26.597656 8.082031 C 26.726562 8.726562 26.789062 9.378906 26.789062 10.035156 C 26.789062 14.695312 19.9375 24.351562 17.546875 27.3125 C 17.363281 27.570312 17.113281 27.695312 16.796875 27.6875 L 16.742188 27.6875 C 16.417969 27.695312 16.15625 27.570312 15.957031 27.3125 C 13.566406 24.351562 6.710938 14.695312 6.710938 10.035156 C 6.710938 9.378906 6.777344 8.726562 6.90625 8.078125 C 7.035156 7.433594 7.226562 6.804688 7.480469 6.195312 C 7.734375 5.585938 8.042969 5.007812 8.410156 4.460938 C 8.777344 3.914062 9.191406 3.40625 9.660156 2.941406 C 10.125 2.476562 10.632812 2.058594 11.179688 1.695312 C 11.730469 1.328125 12.308594 1.019531 12.917969 0.769531 C 13.527344 0.515625 14.15625 0.328125 14.800781 0.199219 C 15.449219 0.0703125 16.101562 0.0078125 16.757812 0.0078125 Z M 16.757812 6.757812 C 17.226562 6.757812 17.679688 6.847656 18.113281 7.027344 C 18.546875 7.203125 18.929688 7.460938 19.257812 7.792969 C 19.589844 8.125 19.847656 8.503906 20.027344 8.9375 C 20.207031 9.371094 20.296875 9.824219 20.296875 10.292969 C 20.296875 10.761719 20.207031 11.210938 20.027344 11.644531 C 19.847656 12.078125 19.589844 12.460938 19.261719 12.789062 C 18.929688 13.121094 18.546875 13.378906 18.113281 13.558594 C 17.679688 13.738281 17.230469 13.824219 16.761719 13.824219 C 16.292969 13.824219 15.839844 13.734375 15.40625 13.558594 C 14.972656 13.378906 14.59375 13.121094 14.261719 12.789062 C 13.929688 12.457031 13.675781 12.078125 13.496094 11.644531 C 13.316406 11.210938 13.226562 10.757812 13.226562 10.289062 C 13.226562 9.820312 13.316406 9.371094 13.492188 8.9375 C 13.671875 8.503906 13.929688 8.121094 14.261719 7.789062 C 14.589844 7.460938 14.972656 7.203125 15.40625 7.023438 C 15.839844 6.847656 16.289062 6.757812 16.757812 6.757812 Z M 16.757812 6.757812 " fill-opacity="1" fill-rule="evenodd"/></svg>